g CH0095_Halo
v 0.056614287 0.12780046 -0.048751526
v 0.05298526 0.11764389 -0.050229266
v 0.09790417 0.090040565 -0.03844373
v 0.10460946 0.098306835 -0.03615897
v 0.056614287 0.13175228 -0.039495952
v 0.12791811 0.048729524 -0.020805627
v 0.10460946 0.10225868 -0.026903398
v 0.05298526 0.12579477 -0.031138256
v 0.09790417 0.09819171 -0.01935272
v 0.13667876 0.05416672 -0.017312884
v 0.13845757 1.4901161E-07 1.4901161E-07
v 0.13667876 0.058118284 -0.008057311
v 0.12791811 0.056880668 -0.001714617
v 0.14794001 0.0020997971 0.00491786
v 0.12791811 -0.048729517 0.020805642
v 0.14794001 0.0060513616 0.01417315
v 0.13845757 0.00815101 0.019090876
v 0.13667876 -0.049967133 0.027148336
v 0.09790417 -0.09004056 0.038443744
v 0.13667876 -0.046015576 0.036403626
v 0.12791811 -0.040578373 0.039896652
v 0.10460946 -0.09410752 0.045994416
v 0.05298526 -0.11764361 0.05022928
v 0.10460946 -0.09015597 0.055249706
v 0.09790417 -0.08188941 0.057534754
v 0.056614287 -0.12360114 0.05858697
v -1.4901161E-07 -0.12733655 0.05436763
v 0.056614287 -0.1196493 0.06784254
v 0.05298526 -0.10949275 0.06932001
v -1.4901161E-07 -0.13395774 0.06300892
v -0.052985266 -0.11764361 0.05022928
v -0.056614295 -0.12360114 0.05858697
v -1.4901161E-07 -0.1300062 0.07226448
v -1.4901161E-07 -0.119185686 0.07345864
v -0.056614295 -0.11964958 0.06784254
v -0.052985266 -0.10949275 0.06932001
v 0.056614287 0.13175228 -0.039495952
v 0.05298526 0.12579477 -0.031138256
v -1.4901161E-07 0.1354877 -0.035276614
v -1.4901161E-07 0.14210892 -0.043917894
v 0.056614287 0.12780046 -0.048751526
v -0.052985266 0.12579477 -0.031138256
v -1.4901161E-07 0.13815734 -0.053173468
v 0.05298526 0.11764389 -0.050229266
v -1.4901161E-07 0.12733656 -0.054367624
v -0.056614295 0.13175228 -0.039495952
v -0.097904176 0.09819171 -0.01935272
v -0.056614295 0.12780046 -0.048751526
v -0.052985266 0.11764389 -0.050229266
v -0.10460946 0.10225868 -0.026903398
v -0.12791812 0.056880668 -0.001714617
v -0.10460946 0.098306835 -0.03615897
v -0.097904176 0.090040565 -0.03844373
v -0.13667876 0.058118284 -0.008057311
v -0.13845757 0.00815101 0.019090876
v -0.14794001 0.0060513616 0.01417315
v -0.13667876 0.05416672 -0.017312884
v -0.12791812 0.048729524 -0.020805627
v -0.14794001 0.0020997971 0.00491786
v -0.13845757 1.4901161E-07 -1.3411045E-07
v -0.14794001 0.0060513616 0.01417315
v -0.13845757 0.00815101 0.019090876
v -0.12791812 -0.040578656 0.039896652
v -0.13667876 -0.046015576 0.036403626
v -0.14794001 0.0020997971 0.00491786
v -0.097904176 -0.08188941 0.057534754
v -0.13667876 -0.049967133 0.027148336
v -0.13845757 1.4901161E-07 -1.3411045E-07
v -0.12791812 -0.048729517 0.020805642
v -0.10460946 -0.09015597 0.055249706
v -0.052985266 -0.10949275 0.06932001
v -0.056614295 -0.11964958 0.06784254
v -0.10460946 -0.09410752 0.045994416
v -0.097904176 -0.09004056 0.038443744
v -0.056614295 -0.12360114 0.05858697
v -0.052985266 -0.11764361 0.05022928
v 0.12970173 0.038983822 -0.009120837
v 0.12970173 0.04170087 -0.0027572513
v 0.13491967 0.01757589 0.007543206
v 0.13491967 0.014858842 0.0011796355
v 0.10473785 0.08187136 -0.027432196
v 0.10473785 0.08458841 -0.021068335
v 0.1195971 0.06413619 -0.0123361945
v 0.1195971 0.061419144 -0.018699765
v 0.06382862 0.11270812 -0.040598124
v 0.06382862 0.11542517 -0.034234546
v 0.086067274 0.10175951 -0.028399765
v 0.086067274 0.09904246 -0.034763344
v 0.01320219 0.12679985 -0.046614908
v 0.01320219 0.1295169 -0.040251054
v 0.039434157 0.12471828 -0.03820219
v 0.039434157 0.12200123 -0.04456605
v -0.039434165 0.12200123 -0.04456605
v -0.039434165 0.12471828 -0.03820219
v -0.01320219 0.1295169 -0.040251054
v -0.01320219 0.12679985 -0.046614908
v -0.086067274 0.09904246 -0.034763344
v -0.086067274 0.10175951 -0.028399765
v -0.063828915 0.11542517 -0.034234546
v -0.063828915 0.11270812 -0.040598124
v -0.11959711 0.061419144 -0.018699765
v -0.11959711 0.06413619 -0.0123361945
v -0.10473785 0.08458841 -0.021068335
v -0.10473785 0.08187136 -0.027432196
v -0.1349197 0.014858842 0.0011796355
v -0.1349197 0.01757589 0.007543206
v -0.12970173 0.04170087 -0.0027572513
v -0.12970173 0.038983822 -0.009120837
v -0.12970173 -0.03354971 0.021848276
v -0.12970173 -0.030832663 0.028211847
v -0.1349197 -0.006707683 0.01791139
v -0.1349197 -0.009424731 0.011547819
v -0.10473785 -0.07643726 0.04015936
v -0.10473785 -0.07372021 0.04652293
v -0.11959711 -0.053267993 0.03779079
v -0.11959711 -0.05598504 0.03142722
v -0.063828915 -0.1072743 0.053325564
v -0.063828915 -0.10455725 0.05968915
v -0.086067274 -0.09089131 0.05385436
v -0.086067274 -0.09360836 0.04749079
v -0.01320219 -0.12136604 0.05934207
v -0.01320219 -0.11864899 0.06570564
v -0.039434165 -0.11385007 0.06365678
v -0.039434165 -0.11656712 0.057293206
v 0.039434157 -0.11656712 0.057293206
v 0.039434157 -0.11385007 0.06365678
v 0.01320219 -0.11864899 0.06570564
v 0.01320219 -0.12136604 0.05934207
v 0.086067274 -0.09360836 0.04749079
v 0.086067274 -0.09089131 0.05385436
v 0.0638289 -0.10455725 0.05968915
v 0.0638289 -0.1072743 0.053325564
v 0.1195971 -0.05598504 0.03142722
v 0.1195971 -0.053267993 0.03779079
v 0.10473785 -0.07372021 0.04652293
v 0.10473785 -0.07643726 0.04015936
v 0.13491967 -0.009424731 0.011547819
v 0.13491967 -0.006707683 0.01791139
v 0.12970173 -0.030832663 0.028211847
v 0.12970173 -0.03354971 0.021848276
v 0.12791811 -0.048729517 0.020805642
v 0.12791811 -0.040578373 0.039896652
v 0.09790417 -0.08188941 0.057534754
v 0.09790417 -0.09004056 0.038443744
v 0.13845757 1.4901161E-07 1.4901161E-07
v 0.05298526 -0.10949275 0.06932001
v 0.13845757 0.00815101 0.019090876
v 0.05298526 -0.11764361 0.05022928
v 0.12791811 0.048729524 -0.020805627
v -1.4901161E-07 -0.119185686 0.07345864
v 0.12791811 0.056880668 -0.001714617
v -1.4901161E-07 -0.12733655 0.05436763
v 0.09790417 0.090040565 -0.03844373
v -0.052985266 -0.10949275 0.06932001
v 0.09790417 0.09819171 -0.01935272
v -0.052985266 -0.11764361 0.05022928
v 0.05298526 0.11764389 -0.050229266
v -0.097904176 -0.08188941 0.057534754
v 0.05298526 0.12579477 -0.031138256
v -0.097904176 -0.09004056 0.038443744
v -1.4901161E-07 0.12733656 -0.054367624
v -0.12791812 -0.040578656 0.039896652
v -1.4901161E-07 0.1354877 -0.035276614
v -0.12791812 -0.048729517 0.020805642
v -0.052985266 0.11764389 -0.050229266
v -0.13845757 0.00815101 0.019090876
v -0.052985266 0.12579477 -0.031138256
v -0.13845757 1.4901161E-07 -1.3411045E-07
v -0.097904176 0.090040565 -0.03844373
v -0.12791812 0.056880668 -0.001714617
v -0.097904176 0.09819171 -0.01935272
v -0.12791812 0.048729524 -0.020805627
v 0.05313509 -0.044091716 0.032052785
v 0.05541195 -0.04833278 0.027908504
v 0.07221961 -0.025409289 0.018141076
v 0.029249951 -0.058913723 0.03836812
v 0.06924635 -0.022118017 0.022689998
v 0.031739287 -0.0643845 0.040699154
v 0.057689086 -0.04828114 0.033837825
v 0.030494623 -0.06379532 0.034496695
v 0.07519315 -0.02440814 0.023665756
v -1.4901161E-07 -0.07028785 0.04321444
v -1.4901161E-07 -0.06435431 0.040686175
v -1.4901161E-07 -0.06946729 0.036913514
v 0.0783851 0.002644673 0.0061876476
v 0.07516014 0.0047908872 0.011224434
v 0.08161006 0.0047908872 0.011224434
v -0.031739295 -0.0643845 0.040699154
v -0.029249966 -0.058913723 0.03836812
v -0.03049463 -0.06379532 0.034496695
v 0.07221961 0.030698925 -0.005765781
v 0.06924635 0.03169979 -0.00024111569
v 0.07519315 0.03399019 -0.0012168735
v -0.0576891 -0.048281424 0.033837825
v -0.053135097 -0.044091716 0.032052785
v -0.05541195 -0.04833278 0.027908504
v 0.05541195 0.053622127 -0.015533224
v 0.05313509 0.05367349 -0.009603918
v 0.057689086 0.05786319 -0.011388943
v -0.07519317 -0.02440814 0.023665756
v -0.06924635 -0.022118017 0.022689998
v -0.072219625 -0.025409289 0.018141076
v 0.030494623 0.06908496 -0.022121683
v 0.029249951 0.06849578 -0.015919238
v 0.031739287 0.07396628 -0.018250272
v -0.08161007 0.0047908872 0.011224434
v -0.075160146 0.0047908872 0.011224434
v -0.078385115 0.002644673 0.0061876476
v -1.4901161E-07 0.07475692 -0.024538502
v -1.4901161E-07 0.073936075 -0.018237293
v -1.4901161E-07 0.07986991 -0.020765558
v -0.07519317 0.03399019 -0.0012168735
v -0.06924635 0.03169979 -0.00024111569
v -0.07221989 0.030698925 -0.005765781
v -0.03049463 0.06908496 -0.022121683
v -0.029249966 0.06849578 -0.015919238
v -0.031739295 0.07396628 -0.018250272
v -0.0576891 0.05786319 -0.011388943
v -0.053135097 0.05367349 -0.009603918
v -0.05541195 0.053622127 -0.015533224
vt 0.9200604 0.84374696
vt 0.9200604 0.84374696
vt 0.91943467 0.84374696
vt 0.91943467 0.84374696
vt 0.9200604 0.9223287
vt 0.918822 0.84374696
vt 0.91943467 0.9223287
vt 0.9200604 0.9223287
vt 0.91943467 0.9223287
vt 0.918822 0.84374696
vt 0.9182093 0.84374696
vt 0.918822 0.9223287
vt 0.918822 0.9223287
vt 0.9182093 0.84374696
vt 0.9175966 0.84374696
vt 0.9182093 0.9223287
vt 0.9182093 0.9223287
vt 0.9175966 0.84374696
vt 0.91697085 0.84374696
vt 0.9175966 0.9223287
vt 0.9175966 0.9223287
vt 0.91697085 0.84374696
vt 0.9163582 0.84374696
vt 0.91697085 0.9223287
vt 0.91697085 0.9223287
vt 0.9163582 0.84374696
vt 0.91574544 0.84374696
vt 0.9163582 0.9223287
vt 0.9163582 0.9223287
vt 0.91574544 0.84374696
vt 0.91513276 0.84374696
vt 0.91513276 0.84374696
vt 0.91574544 0.9223287
vt 0.91574544 0.9223287
vt 0.91513276 0.9223287
vt 0.91513276 0.9223287
vt 0.9102051 0.9223287
vt 0.9102051 0.9223287
vt 0.9108178 0.9223287
vt 0.9108178 0.9223287
vt 0.9102051 0.84374696
vt 0.9114305 0.9223287
vt 0.9108178 0.84374696
vt 0.9102051 0.84374696
vt 0.9108178 0.84374696
vt 0.9114305 0.9223287
vt 0.9120432 0.9223287
vt 0.9114305 0.84374696
vt 0.9114305 0.84374696
vt 0.9120432 0.9223287
vt 0.91266894 0.9223287
vt 0.9120432 0.84374696
vt 0.9120432 0.84374696
vt 0.91266894 0.9223287
vt 0.9132816 0.9223287
vt 0.9132816 0.9223287
vt 0.91266894 0.84374696
vt 0.91266894 0.84374696
vt 0.9132816 0.84374696
vt 0.9132816 0.84374696
vt 0.09074127 0.9020966
vt 0.09074127 0.9020966
vt 0.09135397 0.9020966
vt 0.09135397 0.9020966
vt 0.09074127 0.8235149
vt 0.091979705 0.9020966
vt 0.09135397 0.8235149
vt 0.09074127 0.8235149
vt 0.09135397 0.8235149
vt 0.091979705 0.9020966
vt 0.0925924 0.9020966
vt 0.0925924 0.9020966
vt 0.091979705 0.8235149
vt 0.091979705 0.8235149
vt 0.0925924 0.8235149
vt 0.0925924 0.8235149
vt 0.8778625 0.08117276
vt 0.8778625 0.12028113
vt 0.8781493 0.12028113
vt 0.8781493 0.08117276
vt 0.8772889 0.08117276
vt 0.8772889 0.12028113
vt 0.8775757 0.12028113
vt 0.8775757 0.08117276
vt 0.8767153 0.08117276
vt 0.8767153 0.12028113
vt 0.8770021 0.12028113
vt 0.8770021 0.08117276
vt 0.8853843 0.08117276
vt 0.8853843 0.12028113
vt 0.88567114 0.12028113
vt 0.88567114 0.08117276
vt 0.8847977 0.08117276
vt 0.8847977 0.12028113
vt 0.8850845 0.12028113
vt 0.8850845 0.08117276
vt 0.8842241 0.08117276
vt 0.8842241 0.12028113
vt 0.88451093 0.12028113
vt 0.88451093 0.08117276
vt 0.88365054 0.08117276
vt 0.88365054 0.12028113
vt 0.8839373 0.12028113
vt 0.8839373 0.08117276
vt 0.8830639 0.08117276
vt 0.8830639 0.12028113
vt 0.8833507 0.12028113
vt 0.8833507 0.08117276
vt 0.88249034 0.08117276
vt 0.88249034 0.12028113
vt 0.8827771 0.12028113
vt 0.8827771 0.08117276
vt 0.8819167 0.08117276
vt 0.8819167 0.12028113
vt 0.8822035 0.12028113
vt 0.8822035 0.08117276
vt 0.8813301 0.08117276
vt 0.8813301 0.12028113
vt 0.8816169 0.12028113
vt 0.8816169 0.08117276
vt 0.8807565 0.08117276
vt 0.8807565 0.12028113
vt 0.8810433 0.12028113
vt 0.8810433 0.08117276
vt 0.8801829 0.08117276
vt 0.8801829 0.12028113
vt 0.8804697 0.12028113
vt 0.8804697 0.08117276
vt 0.8795963 0.08117276
vt 0.8795963 0.12028113
vt 0.8798831 0.12028113
vt 0.8798831 0.08117276
vt 0.8790227 0.08117276
vt 0.8790227 0.12028113
vt 0.8793095 0.12028113
vt 0.8793095 0.08117276
vt 0.8784491 0.08117276
vt 0.8784491 0.12028113
vt 0.8787359 0.12028113
vt 0.8787359 0.08117276
vt 0.9132425 0.49547383
vt 0.9132425 0.49742925
vt 0.9132686 0.49742925
vt 0.9132686 0.49547383
vt 0.9132034 0.49547383
vt 0.9133077 0.49742925
vt 0.9132034 0.49742925
vt 0.9133077 0.49547383
vt 0.9131643 0.49547383
vt 0.9133468 0.49742925
vt 0.9131643 0.49742925
vt 0.9133468 0.49547383
vt 0.9131252 0.49547383
vt 0.9133859 0.49742925
vt 0.9131252 0.49742925
vt 0.9133859 0.49547383
vt 0.9130861 0.49547383
vt 0.913425 0.49742925
vt 0.9130861 0.49742925
vt 0.913425 0.49547383
vt 0.91364664 0.49547383
vt 0.9134641 0.49742925
vt 0.91364664 0.49742925
vt 0.9134641 0.49547383
vt 0.91360754 0.49547383
vt 0.91349024 0.49742925
vt 0.91360754 0.49742925
vt 0.91349024 0.49547383
vt 0.91356844 0.49547383
vt 0.91352934 0.49742925
vt 0.91356844 0.49742925
vt 0.91352934 0.49547383
vt 0.07398985 0.10583711
vt 0.07350752 0.10585014
vt 0.06997473 0.100609615
vt 0.07900876 0.10921346
vt 0.07060046 0.100818194
vt 0.078487314 0.11046493
vt 0.07303821 0.10678874
vt 0.07874803 0.10938293
vt 0.06934899 0.10133964
vt 0.085148774 0.111807644
vt 0.085148774 0.11046493
vt 0.085148774 0.1106735
vt 0.068684146 0.09420888
vt 0.06936203 0.09466514
vt 0.06800627 0.09466514
vt 0.091823265 0.11046493
vt 0.09130183 0.10921346
vt 0.09156255 0.10938293
vt 0.06997473 0.08779511
vt 0.07060046 0.08852513
vt 0.06934899 0.08799065
vt 0.09727237 0.10678874
vt 0.09632073 0.10583711
vt 0.09680307 0.10585014
vt 0.07350752 0.082554586
vt 0.07398985 0.08350622
vt 0.07303821 0.08254155
vt 0.10094856 0.10133964
vt 0.09971012 0.100818194
vt 0.10032283 0.100609615
vt 0.07874803 0.0790218
vt 0.07900876 0.08011683
vt 0.078487314 0.078865364
vt 0.10230431 0.09466514
vt 0.10094856 0.09466514
vt 0.10162643 0.09420888
vt 0.085148774 0.07773122
vt 0.085148774 0.078878395
vt 0.085148774 0.07752264
vt 0.10094856 0.08799065
vt 0.09971012 0.08852513
vt 0.10032283 0.08779511
vt 0.09156255 0.0790218
vt 0.09130183 0.08011683
vt 0.091823265 0.078865364
vt 0.09727237 0.08254155
vt 0.09632073 0.08350622
vt 0.09680307 0.082554586
vn 0.33528823 0.558162 -0.75897104
vn 0.18866074 0.075268745 -0.97915363
vn 0.34701842 -0.022482872 -0.9375888
vn 0.62072307 0.38220906 -0.6845576
vn 0.33528823 0.9335284 0.12691133
vn 0.45454526 -0.16911036 -0.8745229
vn 0.62072307 0.7595304 0.1944644
vn 0.18866074 0.7595304 0.62251157
vn 0.34701842 0.6617788 0.66455024
vn 0.81036127 0.12023449 -0.5734617
vn 0.49169087 -0.34115332 -0.80115825
vn 0.81036127 0.49755597 0.30943933
vn 0.45454526 0.51515126 0.7266414
vn 0.87878746 -0.18866074 -0.43833745
vn 0.45454526 -0.51515126 -0.7266414
vn 0.87878746 0.18866074 0.43833745
vn 0.49169087 0.34115326 0.80115825
vn 0.81036127 -0.49755597 -0.30943933
vn 0.34701842 -0.6617788 -0.66455024
vn 0.81036127 -0.12023455 0.5734617
vn 0.45454526 0.16911042 0.8745229
vn 0.62072307 -0.7595304 -0.1944644
vn 0.18866074 -0.7595304 -0.62251157
vn 0.62072307 -0.382209 0.6845576
vn 0.34701842 0.022482872 0.9375888
vn 0.33528823 -0.9335284 -0.12691133
vn 0.0009775162 -0.794721 -0.6069741
vn 0.33528823 -0.558162 0.75897104
vn 0.18866074 -0.075268805 0.9791536
vn 0.0009775162 -0.99608946 -0.08834484
vn -0.18866074 -0.7595304 -0.62251157
vn -0.33528817 -0.9335284 -0.12691133
vn 0.0009775162 -0.61876804 0.7855731
vn -0.0009775162 -0.11045939 0.99388015
vn -0.33528817 -0.558162 0.75897104
vn -0.18866074 -0.075268805 0.9791536
vn 0.33528823 0.9335284 0.12691133
vn 0.18866074 0.7595304 0.62251157
vn -0.0009775162 0.794721 0.6069741
vn -0.0009775162 0.99608946 0.08834484
vn 0.33528823 0.558162 -0.75897104
vn -0.18866074 0.7595304 0.62251157
vn -0.0009775162 0.618768 -0.7855732
vn 0.18866074 0.075268745 -0.97915363
vn -0.0009775162 0.11045933 -0.99388015
vn -0.33528817 0.9335284 0.12691133
vn -0.34701836 0.6617788 0.66455024
vn -0.33528817 0.558162 -0.75897104
vn -0.18866074 0.075268745 -0.97915363
vn -0.620723 0.7595304 0.19446456
vn -0.45454526 0.51515126 0.7266414
vn -0.620723 0.38220906 -0.6845576
vn -0.34701836 -0.022482872 -0.9375888
vn -0.81036127 0.49755597 0.30943933
vn -0.49169087 0.34115326 0.80115825
vn -0.8787875 0.18866074 0.4383373
vn -0.81036127 0.12023449 -0.5734617
vn -0.45454526 -0.16911036 -0.8745229
vn -0.8787875 -0.18866074 -0.4383373
vn -0.49169087 -0.34115332 -0.80115825
vn -0.8787875 0.18866074 0.4383373
vn -0.49169087 0.34115326 0.80115825
vn -0.45454526 0.16911042 0.8745229
vn -0.81036127 -0.12023455 0.5734617
vn -0.8787875 -0.18866074 -0.4383373
vn -0.34701836 0.022482872 0.9375888
vn -0.81036127 -0.49755597 -0.30943933
vn -0.49169087 -0.34115332 -0.80115825
vn -0.45454526 -0.51515126 -0.7266414
vn -0.620723 -0.382209 0.6845577
vn -0.18866074 -0.075268805 0.9791536
vn -0.33528817 -0.558162 0.75897104
vn -0.620723 -0.7595304 -0.19446456
vn -0.34701836 -0.6617788 -0.66455024
vn -0.33528817 -0.9335284 -0.12691133
vn -0.18866074 -0.7595304 -0.62251157
vn -0.9804492 -0.17888552 0.08197151
vn -0.9804492 -0.17888552 0.08197151
vn -0.9804492 -0.17888552 0.08197151
vn -0.9804492 -0.17888552 0.08197151
vn -0.8318666 -0.5112412 0.2159407
vn -0.8318666 -0.5112412 0.2159407
vn -0.8318666 -0.5112412 0.2159407
vn -0.8318666 -0.5112412 0.2159407
vn -0.55620694 -0.7653955 0.3237337
vn -0.55620694 -0.7653955 0.3237337
vn -0.55620694 -0.7653955 0.3237337
vn -0.55620694 -0.7653955 0.3237337
vn -0.19452584 -0.90224785 0.3848487
vn -0.19452584 -0.90224785 0.3848487
vn -0.19452584 -0.90224785 0.3848487
vn -0.19452584 -0.90224785 0.3848487
vn 0.19452584 -0.90224785 0.3848487
vn 0.19452584 -0.90224785 0.3848487
vn 0.19452584 -0.90224785 0.3848487
vn 0.19452584 -0.90224785 0.3848487
vn 0.55620694 -0.7653955 0.3237337
vn 0.55620694 -0.7653955 0.3237337
vn 0.55620694 -0.7653955 0.3237337
vn 0.55620694 -0.7653955 0.3237337
vn 0.8318667 -0.5112412 0.21594042
vn 0.8318667 -0.5112412 0.21594042
vn 0.8318667 -0.5112412 0.21594042
vn 0.8318667 -0.5112412 0.21594042
vn 0.9804492 -0.17888552 0.08197151
vn 0.9804492 -0.17888552 0.08197151
vn 0.9804492 -0.17888552 0.08197151
vn 0.9804492 -0.17888552 0.08197151
vn 0.9804492 0.17888558 -0.08197138
vn 0.9804492 0.17888558 -0.08197138
vn 0.9804492 0.17888558 -0.08197138
vn 0.9804492 0.17888558 -0.08197138
vn 0.8318667 0.5112412 -0.21594042
vn 0.8318667 0.5112412 -0.21594042
vn 0.8318667 0.5112412 -0.21594042
vn 0.8318667 0.5112412 -0.21594042
vn 0.55620694 0.7653955 -0.3237337
vn 0.55620694 0.7653955 -0.3237337
vn 0.55620694 0.7653955 -0.3237337
vn 0.55620694 0.7653955 -0.3237337
vn 0.19452584 0.9022479 -0.38484856
vn 0.19452584 0.9022479 -0.38484856
vn 0.19452584 0.9022479 -0.38484856
vn 0.19452584 0.9022479 -0.38484856
vn -0.19452584 0.9022479 -0.38484856
vn -0.19452584 0.9022479 -0.38484856
vn -0.19452584 0.9022479 -0.38484856
vn -0.19452584 0.9022479 -0.38484856
vn -0.55620694 0.7653955 -0.3237337
vn -0.55620694 0.7653955 -0.3237337
vn -0.55620694 0.7653955 -0.3237337
vn -0.55620694 0.7653955 -0.3237337
vn -0.8318666 0.5112412 -0.2159407
vn -0.8318666 0.5112412 -0.2159407
vn -0.8318666 0.5112412 -0.2159407
vn -0.8318666 0.5112412 -0.2159407
vn -0.9804492 0.17888558 -0.08197138
vn -0.9804492 0.17888558 -0.08197138
vn -0.9804492 0.17888558 -0.08197138
vn -0.9804492 0.17888558 -0.08197138
vn -0.92375326 0.35288346 -0.14883953
vn -0.92375326 0.35288346 -0.14883953
vn -0.70674455 0.6500486 -0.27919334
vn -0.70674455 0.6500486 -0.27919334
vn -0.9999995 -0.0009775162 -0
vn -0.38220906 0.8494619 -0.3637729
vn -0.9999995 -0.0009775162 -0
vn -0.38220906 0.8494619 -0.3637729
vn -0.92375326 -0.35288352 0.14883938
vn -0.0009775162 0.9198432 -0.392285
vn -0.92375326 -0.35288352 0.14883938
vn -0.0009775162 0.9198432 -0.392285
vn -0.70674455 -0.65004855 0.27919346
vn 0.382209 0.8494619 -0.36377296
vn -0.70674455 -0.65004855 0.27919346
vn 0.382209 0.8494619 -0.36377296
vn -0.38220906 -0.849462 0.36377272
vn 0.70674455 0.6500486 -0.27919334
vn -0.38220906 -0.849462 0.36377272
vn 0.70674455 0.6500486 -0.27919334
vn -0.0009775162 -0.91984314 0.39228514
vn 0.9237532 0.35288346 -0.14883973
vn -0.0009775162 -0.91984314 0.39228514
vn 0.9237532 0.35288346 -0.14883973
vn 0.382209 -0.849462 0.3637728
vn 0.9999995 0.0009775162 -0
vn 0.382209 -0.849462 0.3637728
vn 0.9999995 0.0009775162 -0
vn 0.70674455 -0.65004855 0.27919346
vn 0.9237532 -0.35288352 0.14883958
vn 0.70674455 -0.65004855 0.27919346
vn 0.9237532 -0.35288352 0.14883958
vn -0.5913975 0.7595304 0.2708552
vn 0.07331377 -0.45845532 -0.8856883
vn 0.09872919 -0.42717475 -0.89876264
vn -0.32355797 0.92375326 0.204915
vn -0.7712606 0.5112412 0.3791958
vn 0.34310836 -0.5777123 0.74062485
vn 0.6285432 -0.3998043 0.6671506
vn 0.042033195 -0.47996068 -0.87628245
vn 0.82209146 -0.13782984 0.5524206
vn -0.0009775162 -0.6422284 0.7665127
vn -0.0009775162 0.98435926 0.1761701
vn -0.0009775162 -0.48973584 -0.8718703
vn 0.108504355 -0.39002913 -0.9143873
vn -0.8357767 0.2160312 0.50478494
vn 0.89051765 0.17888558 0.41830406
vn -0.3431083 -0.5777123 0.7406249
vn 0.32355803 0.92375326 0.204915
vn -0.042033195 -0.47996068 -0.87628245
vn 0.09872919 -0.3509285 -0.931183
vn -0.7712606 -0.0811339 0.63132745
vn 0.82209146 0.49560094 0.28025943
vn -0.62854326 -0.3998043 0.6671506
vn 0.5913975 0.7595304 0.2708552
vn -0.07331371 -0.45845532 -0.8856883
vn 0.07331377 -0.321603 -0.9440321
vn -0.5913975 -0.32942313 0.7360227
vn 0.6285432 0.7575754 0.17610495
vn -0.82209146 -0.13782984 0.5524206
vn 0.7712606 0.5112412 0.3791958
vn -0.09872913 -0.42717475 -0.89876264
vn 0.042033195 -0.29814255 -0.9535954
vn -0.32355797 -0.4936459 0.80723226
vn 0.34310836 0.9335284 0.10392938
vn -0.8905177 0.17888558 0.4183039
vn 0.83577675 0.2160312 0.5047849
vn -0.108504295 -0.39002913 -0.9143873
vn 0.0009775162 -0.29032242 -0.9569284
vn -0.0009775162 -0.5522969 0.83364695
vn -0.0009775162 0.9980445 0.0625
vn -0.82209146 0.49560094 0.28025943
vn 0.7712606 -0.0811339 0.63132745
vn -0.09872913 -0.3509285 -0.931183
vn -0.042033195 -0.29814255 -0.9535954
vn 0.32355803 -0.4936459 0.80723226
vn -0.3431083 0.9335284 0.10392966
vn -0.62854326 0.7575754 0.17610478
vn 0.5913975 -0.32942313 0.7360227
vn -0.07331371 -0.321603 -0.9440321
g CH0095_Halo_0
f 3/3/3 2/2/2 1/1/1
f 4/4/4 3/3/3 1/1/1
f 1/1/1 5/5/5 4/4/4
f 6/6/6 3/3/3 4/4/4
f 5/5/5 7/7/7 4/4/4
f 5/5/5 8/8/8 7/7/7
f 8/8/8 9/9/9 7/7/7
f 10/10/10 6/6/6 4/4/4
f 4/4/4 7/7/7 10/10/10
f 11/11/11 6/6/6 10/10/10
f 7/7/7 9/9/9 12/12/12
f 7/7/7 12/12/12 10/10/10
f 9/9/9 13/13/13 12/12/12
f 14/14/14 11/11/11 10/10/10
f 10/10/10 12/12/12 14/14/14
f 15/15/15 11/11/11 14/14/14
f 12/12/12 13/13/13 16/16/16
f 12/12/12 16/16/16 14/14/14
f 13/13/13 17/17/17 16/16/16
f 18/18/18 15/15/15 14/14/14
f 14/14/14 16/16/16 18/18/18
f 19/19/19 15/15/15 18/18/18
f 16/16/16 17/17/17 20/20/20
f 16/16/16 20/20/20 18/18/18
f 17/17/17 21/21/21 20/20/20
f 22/22/22 19/19/19 18/18/18
f 18/18/18 20/20/20 22/22/22
f 23/23/23 19/19/19 22/22/22
f 20/20/20 21/21/21 24/24/24
f 20/20/20 24/24/24 22/22/22
f 21/21/21 25/25/25 24/24/24
f 26/26/26 23/23/23 22/22/22
f 22/22/22 24/24/24 26/26/26
f 27/27/27 23/23/23 26/26/26
f 24/24/24 25/25/25 28/28/28
f 24/24/24 28/28/28 26/26/26
f 25/25/25 29/29/29 28/28/28
f 30/30/30 27/27/27 26/26/26
f 26/26/26 28/28/28 30/30/30
f 31/31/31 27/27/27 30/30/30
f 32/32/32 31/31/31 30/30/30
f 28/28/28 29/29/29 33/33/33
f 28/28/28 33/33/33 30/30/30
f 30/30/30 33/33/33 32/32/32
f 29/29/29 34/34/34 33/33/33
f 33/33/33 35/35/35 32/32/32
f 33/33/33 34/34/34 35/35/35
f 34/34/34 36/36/36 35/35/35
f 39/39/39 38/38/38 37/37/37
f 40/40/40 39/39/39 37/37/37
f 40/40/40 37/37/37 41/41/41
f 42/42/42 39/39/39 40/40/40
f 43/43/43 40/40/40 41/41/41
f 41/41/41 44/44/44 43/43/43
f 44/44/44 45/45/45 43/43/43
f 46/46/46 42/42/42 40/40/40
f 46/46/46 40/40/40 43/43/43
f 47/47/47 42/42/42 46/46/46
f 43/43/43 45/45/45 48/48/48
f 48/48/48 46/46/46 43/43/43
f 45/45/45 49/49/49 48/48/48
f 50/50/50 47/47/47 46/46/46
f 50/50/50 46/46/46 48/48/48
f 51/51/51 47/47/47 50/50/50
f 48/48/48 49/49/49 52/52/52
f 52/52/52 50/50/50 48/48/48
f 49/49/49 53/53/53 52/52/52
f 54/54/54 51/51/51 50/50/50
f 54/54/54 50/50/50 52/52/52
f 55/55/55 51/51/51 54/54/54
f 56/56/56 55/55/55 54/54/54
f 52/52/52 53/53/53 57/57/57
f 57/57/57 54/54/54 52/52/52
f 56/56/56 54/54/54 57/57/57
f 53/53/53 58/58/58 57/57/57
f 59/59/59 56/56/56 57/57/57
f 57/57/57 58/58/58 59/59/59
f 58/58/58 60/60/60 59/59/59
f 63/63/63 62/62/62 61/61/61
f 64/64/64 63/63/63 61/61/61
f 64/64/64 61/61/61 65/65/65
f 66/66/66 63/63/63 64/64/64
f 67/67/67 64/64/64 65/65/65
f 65/65/65 68/68/68 67/67/67
f 68/68/68 69/69/69 67/67/67
f 70/70/70 66/66/66 64/64/64
f 70/70/70 64/64/64 67/67/67
f 71/71/71 66/66/66 70/70/70
f 72/72/72 71/71/71 70/70/70
f 67/67/67 69/69/69 73/73/73
f 73/73/73 70/70/70 67/67/67
f 72/72/72 70/70/70 73/73/73
f 69/69/69 74/74/74 73/73/73
f 75/75/75 72/72/72 73/73/73
f 73/73/73 74/74/74 75/75/75
f 74/74/74 76/76/76 75/75/75
f 79/79/79 78/78/78 77/77/77
f 80/80/80 79/79/79 77/77/77
f 83/83/83 82/82/82 81/81/81
f 84/84/84 83/83/83 81/81/81
f 87/87/87 86/86/86 85/85/85
f 88/88/88 87/87/87 85/85/85
f 91/91/91 90/90/90 89/89/89
f 92/92/92 91/91/91 89/89/89
f 95/95/95 94/94/94 93/93/93
f 96/96/96 95/95/95 93/93/93
f 99/99/99 98/98/98 97/97/97
f 100/100/100 99/99/99 97/97/97
f 103/103/103 102/102/102 101/101/101
f 104/104/104 103/103/103 101/101/101
f 107/107/107 106/106/106 105/105/105
f 108/108/108 107/107/107 105/105/105
f 111/111/111 110/110/110 109/109/109
f 112/112/112 111/111/111 109/109/109
f 115/115/115 114/114/114 113/113/113
f 116/116/116 115/115/115 113/113/113
f 119/119/119 118/118/118 117/117/117
f 120/120/120 119/119/119 117/117/117
f 123/123/123 122/122/122 121/121/121
f 124/124/124 123/123/123 121/121/121
f 127/127/127 126/126/126 125/125/125
f 128/128/128 127/127/127 125/125/125
f 131/131/131 130/130/130 129/129/129
f 132/132/132 131/131/131 129/129/129
f 135/135/135 134/134/134 133/133/133
f 136/136/136 135/135/135 133/133/133
f 139/139/139 138/138/138 137/137/137
f 140/140/140 139/139/139 137/137/137
f 143/143/143 142/142/142 141/141/141
f 144/144/144 143/143/143 141/141/141
f 141/141/141 142/142/142 145/145/145
f 146/146/146 143/143/143 144/144/144
f 142/142/142 147/147/147 145/145/145
f 148/148/148 146/146/146 144/144/144
f 145/145/145 147/147/147 149/149/149
f 150/150/150 146/146/146 148/148/148
f 147/147/147 151/151/151 149/149/149
f 152/152/152 150/150/150 148/148/148
f 149/149/149 151/151/151 153/153/153
f 154/154/154 150/150/150 152/152/152
f 151/151/151 155/155/155 153/153/153
f 156/156/156 154/154/154 152/152/152
f 153/153/153 155/155/155 157/157/157
f 158/158/158 154/154/154 156/156/156
f 155/155/155 159/159/159 157/157/157
f 160/160/160 158/158/158 156/156/156
f 157/157/157 159/159/159 161/161/161
f 162/162/162 158/158/158 160/160/160
f 159/159/159 163/163/163 161/161/161
f 164/164/164 162/162/162 160/160/160
f 161/161/161 163/163/163 165/165/165
f 166/166/166 162/162/162 164/164/164
f 163/163/163 167/167/167 165/165/165
f 168/168/168 166/166/166 164/164/164
f 165/165/165 167/167/167 169/169/169
f 170/170/170 166/166/166 168/168/168
f 167/167/167 171/171/171 169/169/169
f 172/172/172 170/170/170 168/168/168
f 169/169/169 171/171/171 172/172/172
f 171/171/171 170/170/170 172/172/172
f 175/175/175 174/174/174 173/173/173
f 173/173/173 174/174/174 176/176/176
f 177/177/177 175/175/175 173/173/173
f 173/173/173 176/176/176 178/178/178
f 177/177/177 173/173/173 179/179/179
f 179/179/179 173/173/173 178/178/178
f 174/174/174 180/180/180 176/176/176
f 174/174/174 179/179/179 180/180/180
f 179/179/179 178/178/178 180/180/180
f 181/181/181 179/179/179 174/174/174
f 175/175/175 181/181/181 174/174/174
f 181/181/181 177/177/177 179/179/179
f 178/178/178 176/176/176 182/182/182
f 176/176/176 180/180/180 183/183/183
f 176/176/176 183/183/183 182/182/182
f 180/180/180 178/178/178 184/184/184
f 178/178/178 182/182/182 184/184/184
f 180/180/180 184/184/184 183/183/183
f 185/185/185 175/175/175 177/177/177
f 186/186/186 177/177/177 181/181/181
f 186/186/186 185/185/185 177/177/177
f 187/187/187 181/181/181 175/175/175
f 185/185/185 187/187/187 175/175/175
f 187/187/187 186/186/186 181/181/181
f 182/182/182 183/183/183 188/188/188
f 183/183/183 184/184/184 189/189/189
f 183/183/183 189/189/189 188/188/188
f 184/184/184 182/182/182 190/190/190
f 182/182/182 188/188/188 190/190/190
f 184/184/184 190/190/190 189/189/189
f 191/191/191 185/185/185 186/186/186
f 192/192/192 186/186/186 187/187/187
f 192/192/192 191/191/191 186/186/186
f 193/193/193 187/187/187 185/185/185
f 191/191/191 193/193/193 185/185/185
f 193/193/193 192/192/192 187/187/187
f 188/188/188 189/189/189 194/194/194
f 189/189/189 190/190/190 195/195/195
f 189/189/189 195/195/195 194/194/194
f 190/190/190 188/188/188 196/196/196
f 188/188/188 194/194/194 196/196/196
f 190/190/190 196/196/196 195/195/195
f 197/197/197 191/191/191 192/192/192
f 198/198/198 192/192/192 193/193/193
f 198/198/198 197/197/197 192/192/192
f 199/199/199 193/193/193 191/191/191
f 197/197/197 199/199/199 191/191/191
f 199/199/199 198/198/198 193/193/193
f 194/194/194 195/195/195 200/200/200
f 195/195/195 196/196/196 201/201/201
f 195/195/195 201/201/201 200/200/200
f 196/196/196 194/194/194 202/202/202
f 194/194/194 200/200/200 202/202/202
f 196/196/196 202/202/202 201/201/201
f 203/203/203 197/197/197 198/198/198
f 204/204/204 198/198/198 199/199/199
f 204/204/204 203/203/203 198/198/198
f 205/205/205 199/199/199 197/197/197
f 203/203/203 205/205/205 197/197/197
f 205/205/205 204/204/204 199/199/199
f 200/200/200 201/201/201 206/206/206
f 201/201/201 202/202/202 207/207/207
f 201/201/201 207/207/207 206/206/206
f 202/202/202 200/200/200 208/208/208
f 200/200/200 206/206/206 208/208/208
f 202/202/202 208/208/208 207/207/207
f 209/209/209 203/203/203 204/204/204
f 210/210/210 204/204/204 205/205/205
f 210/210/210 209/209/209 204/204/204
f 211/211/211 205/205/205 203/203/203
f 209/209/209 211/211/211 203/203/203
f 211/211/211 210/210/210 205/205/205
f 206/206/206 207/207/207 212/212/212
f 207/207/207 208/208/208 213/213/213
f 207/207/207 213/213/213 212/212/212
f 208/208/208 206/206/206 214/214/214
f 206/206/206 212/212/212 214/214/214
f 208/208/208 214/214/214 213/213/213
f 215/215/215 209/209/209 210/210/210
f 216/216/216 210/210/210 211/211/211
f 216/216/216 215/215/215 210/210/210
f 217/217/217 211/211/211 209/209/209
f 215/215/215 217/217/217 209/209/209
f 217/217/217 216/216/216 211/211/211
f 212/212/212 213/213/213 218/218/218
f 218/218/218 217/217/217 215/215/215
f 213/213/213 214/214/214 219/219/219
f 213/213/213 219/219/219 218/218/218
f 219/219/219 216/216/216 217/217/217
f 218/218/218 219/219/219 217/217/217
f 212/212/212 218/218/218 220/220/220
f 220/220/220 218/218/218 215/215/215
f 214/214/214 212/212/212 220/220/220
f 220/220/220 215/215/215 216/216/216
f 219/219/219 220/220/220 216/216/216
f 214/214/214 220/220/220 219/219/219
