g CH0069_Halo
v 0.016812129 0.017906768 -0.01888011
v 0.033624247 0.007821159 0.00843698
v 0.023775944 0.030786952 0.002283321
v 0.02377593 0.0016675007 -0.014528816
v 0.023775926 -0.015144625 0.014590642
v -4.7683715E-09 0.024633301 -0.020682478
v -9.536743E-09 0.040299706 -0.0002656132
v 0.01681212 -0.014571762 -0.010177521
v -4.7683715E-09 -0.024657363 0.017139567
v -0.01681213 0.017906776 -0.018880112
v -0.023775944 0.030786961 0.0022833175
v -0.023775944 0.0016675049 -0.014528816
v -0.033624258 0.007821167 0.008436978
v -0.008406072 0.0070396713 -0.02695817
v -0.016812129 -0.014571762 -0.010177521
v -0.023775939 -0.015144625 0.014590642
v -4.7683715E-09 -0.021298284 -0.008375157
v -0.011887977 -0.0010799646 -0.024782524
v -0.008406069 -0.009199599 -0.022606876
v -4.7683715E-09 -0.012562861 -0.021705704
v -0.0037781287 -0.010907647 -0.059861932
v -4.7683715E-09 0.0104029365 -0.027859353
v 0.008406057 -0.009199599 -0.022606876
v -4.7683715E-09 -0.014681225 -0.058850843
v -4.7683715E-09 -0.0071340725 -0.060873058
v 0.011887969 -0.001079967 -0.024782524
v 0.008406062 0.007039669 -0.02695817
v 0.0037781287 -0.010907647 -0.059861932
v -4.7683715E-09 -0.011878876 -0.06348658
v 0.016812129 0.030214094 0.027051477
v 0.023775944 0.030786952 0.002283321
v 0.033624247 0.007821159 0.00843698
v 0.02377593 0.013974825 0.031402774
v 0.023775926 -0.015144625 0.014590642
v -4.7683715E-09 0.036940627 0.025249109
v -9.536743E-09 0.040299706 -0.0002656132
v 0.01681212 -0.0022644377 0.035754073
v -4.7683715E-09 -0.024657363 0.017139567
v -0.01681213 0.0302141 0.027051477
v -0.023775944 0.030786961 0.0022833175
v -0.023775944 0.01397483 0.031402774
v -0.033624258 0.007821167 0.008436978
v -0.008406072 0.024841933 0.039480828
v -0.016812129 -0.0022644377 0.035754073
v -0.023775939 -0.015144625 0.014590642
v -4.7683715E-09 -0.008990958 0.037556436
v -0.011887977 0.016722301 0.041656476
v -0.008406069 0.008602666 0.04383213
v -4.7683715E-09 0.0052394085 0.044733323
v -0.0041173124 0.025938762 0.07378845
v -4.7683715E-09 0.0282052 0.038579643
v 0.008406057 0.008602666 0.04383213
v -4.7683715E-09 0.021826414 0.07489037
v -4.7683715E-09 0.030051112 0.072686546
v 0.011887969 0.0167223 0.04165648
v 0.008406062 0.024841933 0.039480828
v 0.0041173124 0.025938753 0.07378845
v -4.7683715E-09 0.026726842 0.07645964
v 0.056629524 -0.09606959 -0.02175959
v 0.10378491 -0.057878584 -0.026687182
v 0.098085284 -0.05602644 -0.032489114
v 0.059920195 -0.10024858 -0.015334186
v 0.05333885 -0.089237764 -0.018284524
v -5.7220458E-08 -0.11072639 -0.017832324
v -5.7220458E-08 -0.103042856 -0.014585468
v 0.09238567 -0.051521476 -0.028390566
v -6.198883E-08 -0.115757056 -0.011178711
v 0.10667782 1.7881392E-08 -0.0421957
v 0.11984053 1.7881392E-08 -0.0421957
v 0.11325918 -0.001326394 -0.047145937
v -0.059920315 -0.10024852 -0.0153342
v -0.056629628 -0.09606952 -0.021759607
v -0.053338956 -0.089237705 -0.018284542
v 0.09238571 0.051521458 -0.056000818
v 0.10378494 0.05787855 -0.057704195
v 0.09808532 0.053373598 -0.061802737
v -0.09808535 -0.05602636 -0.032489136
v -0.10378497 -0.057878487 -0.026687209
v -0.09238573 -0.05152139 -0.028390588
v 0.0533389 0.089237764 -0.06610686
v 0.05992025 0.10024859 -0.069057204
v 0.05662958 0.09341676 -0.072532274
v -0.11325919 -0.0013263774 -0.047145944
v -0.11984053 3.5762785E-08 -0.042195704
v -0.10667782 3.33786E-08 -0.042195704
v -9.536743E-09 0.10304289 -0.069805935
v -9.536743E-09 0.11575708 -0.07321269
v -9.536743E-09 0.10807358 -0.07645955
v -0.09808534 0.053373598 -0.061802737
v -0.10378495 0.05787856 -0.057704195
v -0.0923857 0.051521458 -0.056000818
v -0.053338926 0.089237764 -0.06610686
v -0.05992028 0.10024858 -0.069057204
v -0.05662961 0.09341676 -0.072532274
vt 0.15826777 0.3344415
vt 0.2029332 0.026835926
vt 0.17676859 0.026835926
vt 0.17676859 0.3344415
vt 0.17676859 0.026835926
vt 0.11360187 0.3344415
vt 0.11360187 0.026835926
vt 0.15826738 0.3344415
vt 0.11360187 0.026835926
vt 0.068936236 0.3344415
vt 0.050435163 0.026835926
vt 0.050435163 0.3344415
vt 0.02427058 0.026835926
vt 0.09126902 0.47178066
vt 0.068936236 0.3344415
vt 0.050435163 0.026835926
vt 0.11360187 0.3344415
vt 0.082018465 0.47178066
vt 0.09126902 0.47178066
vt 0.11360187 0.47178066
vt 0.108123034 0.9287783
vt 0.11360187 0.47178066
vt 0.13593458 0.47178066
vt 0.11360187 0.9287785
vt 0.11360187 0.9287783
vt 0.14518534 0.47178066
vt 0.13593498 0.47178066
vt 0.11908079 0.9287783
vt 0.11360187 0.97732687
vt 0.15826777 0.3333289
vt 0.17676859 0.025723243
vt 0.2029332 0.025723243
vt 0.17676859 0.3333289
vt 0.17676859 0.025723243
vt 0.11360187 0.3333289
vt 0.11360187 0.025723243
vt 0.15826738 0.3333289
vt 0.11360187 0.025723243
vt 0.068936236 0.3333289
vt 0.050435163 0.025723243
vt 0.050435163 0.3333289
vt 0.02427058 0.025723243
vt 0.09126902 0.47066802
vt 0.068936236 0.3333289
vt 0.050435163 0.025723243
vt 0.11360187 0.3333289
vt 0.082018465 0.47066802
vt 0.09126902 0.47066802
vt 0.11360187 0.47066802
vt 0.108123034 0.9276658
vt 0.11360187 0.47066802
vt 0.13593458 0.47066802
vt 0.11360187 0.92766595
vt 0.11360187 0.9276658
vt 0.14518534 0.47066802
vt 0.13593498 0.47066802
vt 0.11908079 0.9276658
vt 0.11360187 0.9762144
vt 0.14124314 0.0822585
vt 0.14766876 0.06864804
vt 0.14567254 0.06866398
vt 0.14298232 0.08303252
vt 0.1395045 0.08148446
vt 0.12879641 0.09228383
vt 0.12778096 0.090927236
vt 0.14367579 0.0686799
vt 0.12981184 0.09364043
vt 0.13917758 0.08187495
vt 0.14261468 0.08347818
vt 0.1408964 0.08267657
vt 0.111686364 0.09762935
vt 0.11166598 0.0960537
vt 0.111645624 0.09447804
vt 0.12721409 0.09112871
vt 0.12917562 0.09387374
vt 0.12819485 0.09250122
vt 0.09444256 0.09255795
vt 0.0934618 0.09393047
vt 0.095423326 0.09118542
vt 0.110991225 0.09442131
vt 0.11095105 0.09757262
vt 0.110971406 0.09599696
vt 0.08174102 0.0827333
vt 0.08002274 0.08353491
vt 0.08345984 0.081931666
vt 0.094856456 0.09087051
vt 0.09282555 0.09358368
vt 0.093841 0.0922271
vt 0.07696487 0.06921222
vt 0.07496865 0.06922814
vt 0.078961626 0.069196284
vt 0.08313291 0.08142772
vt 0.079655096 0.082975775
vt 0.08139373 0.08220175
vn 0.58850443 0.42497203 -0.6877945
vn 1 0 0
vn 0.7071222 0.6829944 -0.18302111
vn 0.83226734 -0.14347957 -0.53548545
vn 0.70710033 -0.68302006 0.1830097
vn -0 0.6604183 -0.750898
vn -0 0.96592706 -0.25881475
vn 0.58851343 -0.71191907 -0.38317505
vn -0 -0.9659255 0.25882035
vn -0.58850443 0.42497203 -0.6877945
vn -0.70710033 0.68302006 -0.1830097
vn -0.83226734 -0.14347957 -0.53548545
vn -1 0 0
vn -0.59719807 0.43795064 -0.67197746
vn -0.58851343 -0.71191907 -0.38317505
vn -0.70710033 -0.68302006 0.1830097
vn -0 -0.9473903 -0.3200804
vn -0.8442736 -0.13869962 -0.517653
vn -0.5971975 -0.71526843 -0.3629688
vn -0 -0.95440996 -0.298499
vn -0.93038416 -0.09486649 -0.35409826
vn -0 0.6772724 -0.7357323
vn 0.5971975 -0.71526843 -0.3629688
vn -0 -0.99246264 -0.122546844
vn -0 0.7982026 -0.6023891
vn 0.8442736 -0.13869962 -0.517653
vn 0.59719807 0.43795064 -0.67197746
vn 0.93038416 -0.09486649 -0.35409826
vn -0 -0.25880364 -0.9659299
vn 0.58852655 0.71192056 0.383152
vn 0.7071222 0.6829944 -0.18302111
vn 1 0 0
vn 0.83227795 0.14348139 0.5354684
vn 0.70710033 -0.68302006 0.1830097
vn -0 0.9474001 0.32005182
vn -0 0.96592706 -0.25881475
vn 0.5885267 -0.42498285 0.6877688
vn -0 -0.9659255 0.25882035
vn -0.58850646 0.7119489 0.38313064
vn -0.70710033 0.68302006 -0.1830097
vn -0.83227795 0.14348139 0.5354684
vn -1 0 0
vn -0.5971975 0.71526843 0.3629688
vn -0.5885267 -0.42498285 0.6877688
vn -0.70710033 -0.68302006 0.1830097
vn -0 -0.6604435 0.7508757
vn -0.8442736 0.13869962 0.517653
vn -0.5971983 -0.43795002 0.6719777
vn -0 -0.6772708 0.73573387
vn -0.9303817 0.094890386 0.35409853
vn -0 0.95440996 0.298499
vn 0.5971983 -0.43795002 0.6719777
vn -0 -0.79823846 0.6023416
vn -0 0.99246264 0.122546844
vn 0.8442736 0.13869962 0.517653
vn 0.5971975 0.71526843 0.3629688
vn 0.9303817 0.094890386 0.35409853
vn -0 0.25881475 0.96592706
vn 0.050735172 -0.34236708 -0.9381954
vn 0.83006877 -0.38914242 0.39944202
vn 0.087833144 -0.30651006 -0.9478064
vn 0.47923872 -0.727966 0.49030173
vn -0.4613919 0.8716664 0.1652733
vn -0 -0.35543612 -0.9347006
vn -0 0.9910754 0.13330212
vn -0.7991741 0.54540294 0.25269827
vn -0 -0.8520188 0.52351135
vn -0.92280626 0.099715956 0.3721362
vn 0.95848256 0.0738115 0.2754326
vn 0.10147278 -0.2574848 -0.96093965
vn -0.47923872 -0.727966 0.49030173
vn -0.050735172 -0.34236708 -0.9381954
vn 0.4614276 0.8716438 0.16529284
vn -0.7991815 -0.3459941 0.49152523
vn 0.8300668 0.5367206 0.15139373
vn 0.08783195 -0.20851743 -0.97406685
vn -0.087833144 -0.30651006 -0.9478064
vn -0.83008426 -0.389102 0.39944944
vn 0.79921085 0.5453327 0.25273377
vn -0.46138653 -0.6722434 0.5789743
vn 0.47923425 0.875592 0.060607634
vn 0.050733816 -0.17260942 -0.98368293
vn -0.10147278 -0.2574848 -0.96093965
vn -0.95849115 0.073792905 0.27540767
vn 0.92280626 0.099715956 0.3721362
vn -0 -0.7916728 0.61094517
vn -0 0.9996253 0.027370011
vn -0 -0.15935537 -0.9872213
vn -0.08783195 -0.20851743 -0.97406685
vn -0.830088 0.53668666 0.15139762
vn 0.7991815 -0.3459941 0.49152523
vn 0.46134692 -0.6723029 0.57893676
vn -0.47923425 0.875592 0.060607634
vn -0.050686255 -0.17260984 -0.98368526
g CH0069_Halo_0
f 3/3/3 2/2/2 1/1/1
f 2/2/2 4/4/4 1/1/1
f 2/2/2 5/5/5 4/4/4
f 3/3/3 1/1/1 6/6/6
f 7/7/7 3/3/3 6/6/6
f 5/5/5 8/8/8 4/4/4
f 5/5/5 9/9/9 8/8/8
f 7/7/7 6/6/6 10/10/10
f 11/11/11 7/7/7 10/10/10
f 11/11/11 10/10/10 12/12/12
f 13/13/13 11/11/11 12/12/12
f 14/14/14 10/10/10 6/6/6
f 10/10/10 14/14/14 12/12/12
f 13/13/13 12/12/12 15/15/15
f 16/16/16 13/13/13 15/15/15
f 9/9/9 16/16/16 17/17/17
f 9/9/9 17/17/17 8/8/8
f 16/16/16 15/15/15 17/17/17
f 12/12/12 18/18/18 15/15/15
f 14/14/14 18/18/18 12/12/12
f 15/15/15 19/19/19 17/17/17
f 18/18/18 19/19/19 15/15/15
f 17/17/17 20/20/20 8/8/8
f 19/19/19 20/20/20 17/17/17
f 18/18/18 21/21/21 19/19/19
f 14/14/14 21/21/21 18/18/18
f 22/22/22 14/14/14 6/6/6
f 22/22/22 6/6/6 1/1/1
f 20/20/20 23/23/23 8/8/8
f 8/8/8 23/23/23 4/4/4
f 19/19/19 24/24/24 20/20/20
f 21/21/21 24/24/24 19/19/19
f 20/20/20 24/24/24 23/23/23
f 22/22/22 25/25/25 14/14/14
f 14/14/14 25/25/25 21/21/21
f 4/4/4 26/26/26 1/1/1
f 23/23/23 26/26/26 4/4/4
f 27/27/27 22/22/22 1/1/1
f 26/26/26 27/27/27 1/1/1
f 27/27/27 25/25/25 22/22/22
f 23/23/23 28/28/28 26/26/26
f 26/26/26 28/28/28 27/27/27
f 23/23/23 24/24/24 28/28/28
f 28/28/28 25/25/25 27/27/27
f 29/29/29 21/21/21 25/25/25
f 29/29/29 24/24/24 21/21/21
f 29/29/29 28/28/28 24/24/24
f 29/29/29 25/25/25 28/28/28
f 32/32/32 31/31/31 30/30/30
f 33/33/33 32/32/32 30/30/30
f 34/34/34 32/32/32 33/33/33
f 30/30/30 31/31/31 35/35/35
f 31/31/31 36/36/36 35/35/35
f 37/37/37 34/34/34 33/33/33
f 38/38/38 34/34/34 37/37/37
f 35/35/35 36/36/36 39/39/39
f 36/36/36 40/40/40 39/39/39
f 39/39/39 40/40/40 41/41/41
f 40/40/40 42/42/42 41/41/41
f 39/39/39 43/43/43 35/35/35
f 43/43/43 39/39/39 41/41/41
f 41/41/41 42/42/42 44/44/44
f 42/42/42 45/45/45 44/44/44
f 45/45/45 38/38/38 46/46/46
f 46/46/46 38/38/38 37/37/37
f 44/44/44 45/45/45 46/46/46
f 47/47/47 41/41/41 44/44/44
f 47/47/47 43/43/43 41/41/41
f 48/48/48 44/44/44 46/46/46
f 48/48/48 47/47/47 44/44/44
f 49/49/49 46/46/46 37/37/37
f 49/49/49 48/48/48 46/46/46
f 50/50/50 47/47/47 48/48/48
f 50/50/50 43/43/43 47/47/47
f 43/43/43 51/51/51 35/35/35
f 35/35/35 51/51/51 30/30/30
f 52/52/52 49/49/49 37/37/37
f 52/52/52 37/37/37 33/33/33
f 53/53/53 48/48/48 49/49/49
f 53/53/53 50/50/50 48/48/48
f 53/53/53 49/49/49 52/52/52
f 54/54/54 51/51/51 43/43/43
f 50/50/50 54/54/54 43/43/43
f 55/55/55 33/33/33 30/30/30
f 55/55/55 52/52/52 33/33/33
f 51/51/51 56/56/56 30/30/30
f 56/56/56 55/55/55 30/30/30
f 54/54/54 56/56/56 51/51/51
f 57/57/57 52/52/52 55/55/55
f 57/57/57 55/55/55 56/56/56
f 57/57/57 53/53/53 52/52/52
f 54/54/54 57/57/57 56/56/56
f 50/50/50 58/58/58 54/54/54
f 53/53/53 58/58/58 50/50/50
f 57/57/57 58/58/58 53/53/53
f 54/54/54 58/58/58 57/57/57
f 61/61/61 60/60/60 59/59/59
f 60/60/60 62/62/62 59/59/59
f 59/59/59 63/63/63 61/61/61
f 59/59/59 62/62/62 64/64/64
f 65/65/65 63/63/63 59/59/59
f 64/64/64 65/65/65 59/59/59
f 62/62/62 60/60/60 66/66/66
f 63/63/63 62/62/62 66/66/66
f 63/63/63 66/66/66 61/61/61
f 67/67/67 62/62/62 63/63/63
f 65/65/65 67/67/67 63/63/63
f 62/62/62 67/67/67 64/64/64
f 66/66/66 60/60/60 68/68/68
f 69/69/69 60/60/60 61/61/61
f 60/60/60 69/69/69 68/68/68
f 61/61/61 66/66/66 70/70/70
f 66/66/66 68/68/68 70/70/70
f 70/70/70 69/69/69 61/61/61
f 71/71/71 67/67/67 65/65/65
f 64/64/64 67/67/67 72/72/72
f 67/67/67 71/71/71 72/72/72
f 73/73/73 65/65/65 64/64/64
f 72/72/72 73/73/73 64/64/64
f 73/73/73 71/71/71 65/65/65
f 68/68/68 69/69/69 74/74/74
f 75/75/75 69/69/69 70/70/70
f 69/69/69 75/75/75 74/74/74
f 70/70/70 68/68/68 76/76/76
f 68/68/68 74/74/74 76/76/76
f 76/76/76 75/75/75 70/70/70
f 72/72/72 71/71/71 77/77/77
f 78/78/78 71/71/71 73/73/73
f 71/71/71 78/78/78 77/77/77
f 79/79/79 73/73/73 72/72/72
f 77/77/77 79/79/79 72/72/72
f 79/79/79 78/78/78 73/73/73
f 74/74/74 75/75/75 80/80/80
f 81/81/81 75/75/75 76/76/76
f 75/75/75 81/81/81 80/80/80
f 76/76/76 74/74/74 82/82/82
f 74/74/74 80/80/80 82/82/82
f 82/82/82 81/81/81 76/76/76
f 77/77/77 78/78/78 83/83/83
f 84/84/84 78/78/78 79/79/79
f 78/78/78 84/84/84 83/83/83
f 85/85/85 79/79/79 77/77/77
f 83/83/83 85/85/85 77/77/77
f 85/85/85 84/84/84 79/79/79
f 80/80/80 81/81/81 86/86/86
f 87/87/87 81/81/81 82/82/82
f 81/81/81 87/87/87 86/86/86
f 82/82/82 80/80/80 88/88/88
f 80/80/80 86/86/86 88/88/88
f 88/88/88 87/87/87 82/82/82
f 83/83/83 84/84/84 89/89/89
f 90/90/90 84/84/84 85/85/85
f 84/84/84 90/90/90 89/89/89
f 91/91/91 85/85/85 83/83/83
f 89/89/89 91/91/91 83/83/83
f 91/91/91 90/90/90 85/85/85
f 86/86/86 87/87/87 92/92/92
f 92/92/92 91/91/91 89/89/89
f 93/93/93 87/87/87 88/88/88
f 87/87/87 93/93/93 92/92/92
f 93/93/93 90/90/90 91/91/91
f 92/92/92 93/93/93 91/91/91
f 86/86/86 92/92/92 94/94/94
f 94/94/94 92/92/92 89/89/89
f 88/88/88 86/86/86 94/94/94
f 89/89/89 90/90/90 94/94/94
f 94/94/94 93/93/93 88/88/88
f 90/90/90 93/93/93 94/94/94
