g Hina_Original_Halo
v 0.20123109 -0.015386552 0.033527225
v 0.1771865 0.0016721785 0.033527225
v 0.20123109 0.0016721785 0.050585926
v 0.20123109 0.0016721785 0.016468495
v 0.1771865 0.0016721785 0.033527225
v 0.20123109 -0.015386552 0.033527225
v -0.20123109 -0.015386552 0.033527225
v -0.20123109 0.0016721785 0.050585926
v -0.17718652 0.0016721785 0.033527225
v -0.20123109 0.0016721785 0.016467929
v -0.20123109 -0.015386552 0.033527225
v -0.17718652 0.0016721785 0.033527225
v 0.20123109 0.018730879 0.033527225
v 0.20123109 0.0016721785 0.050585926
v 0.1771865 0.0016721785 0.033527225
v 0.20123109 0.0016721785 0.016468495
v 0.20123109 0.018730879 0.033527225
v 0.1771865 0.0016721785 0.033527225
v -0.20123109 0.018730879 0.033527225
v -0.17718652 0.0016721785 0.033527225
v -0.20123109 0.0016721785 0.050585926
v -0.20123109 0.0016721785 0.016467929
v -0.17718652 0.0016721785 0.033527225
v -0.20123109 0.018730879 0.033527225
v -2.682209E-07 -0.009582251 -0.050272703
v -2.682209E-07 2.682209E-07 -0.036761433
v 0.009585559 2.682209E-07 -0.050272703
v -0.009585559 2.682209E-07 -0.050272703
v -2.682209E-07 2.682209E-07 -0.036761433
v -2.682209E-07 -0.009582251 -0.050272703
v -2.682209E-07 0.009582251 -0.050272703
v 0.009585559 2.682209E-07 -0.050272703
v -2.682209E-07 2.682209E-07 -0.036761433
v -0.009585559 2.682209E-07 -0.050272703
v -2.682209E-07 0.009582251 -0.050272703
v -2.682209E-07 2.682209E-07 -0.036761433
v 0.12939896 -0.043154016 0.04536605
v 0.14013536 -0.046643898 0.04536605
v 0.1296906 -0.07082352 0.04536605
v 0.11969301 -0.06572759 0.04536605
v 0.09231295 -0.09915437 0.04536605
v 0.098501876 -0.10859853 0.04536605
v 0.07285182 -0.12836073 0.04536605
v 0.06776309 -0.11837365 0.04536605
v 2.682209E-07 -0.13817348 0.04536605
v 0.02591598 -0.13314618 0.04536605
v 0.02767697 -0.14424232 0.04536605
v 2.682209E-07 -0.14952198 0.04536605
v 0.02767697 -0.14424232 0.04536605
v 2.682209E-07 -0.14952198 0.011373669
v 2.682209E-07 -0.14952198 0.04536605
v 0.027643204 -0.14425007 0.011373669
v 0.05324237 -0.13734335 0.04536605
v 0.05324237 -0.13734335 0.011373669
v 0.07285182 -0.12836073 0.04536605
v 0.07285182 -0.12836073 0.011374235
v 0.098501876 -0.10859853 0.04536605
v 0.098897025 -0.10875903 0.011374235
v 0.11761159 -0.09006107 0.04536605
v 0.11761159 -0.09006052 0.011373669
v 0.1296906 -0.07082352 0.04536605
v 0.1296906 -0.07082352 0.011373669
v 0.14013536 -0.046643898 0.04536605
v 0.14013536 -0.046643898 0.011373669
v 0.14565079 -0.024682969 0.04536605
v 0.14565079 -0.024682403 0.011373669
v 0.14952198 2.682209E-07 0.04536605
v 0.14952198 2.682209E-07 0.011373669
v 0.13456073 -0.022920847 0.04536605
v 0.13817348 2.682209E-07 0.011373669
v 0.13817348 2.682209E-07 0.04536605
v 0.13456073 -0.022920847 0.011373669
v 0.12939896 -0.043154016 0.04536605
v 0.12939896 -0.043154016 0.011373669
v 0.11969301 -0.06572759 0.04536605
v 0.11969301 -0.06572759 0.011374235
v 0.10844082 -0.08340062 0.04536605
v 0.10844082 -0.08340062 0.011373669
v 0.09231295 -0.09915437 0.04536605
v 0.09268595 -0.099283874 0.011374235
v 0.06776309 -0.11837365 0.04536605
v 0.06776309 -0.11837365 0.011374235
v 0.04974085 -0.12657925 0.04536605
v 0.04974085 -0.1265787 0.011373669
v 0.02591598 -0.13314618 0.04536605
v 0.02588278 -0.13315338 0.011374235
v 2.682209E-07 -0.13817348 0.04536605
v 2.682209E-07 -0.13817348 0.011373669
v 0.14013536 -0.046643898 0.04536605
v 0.14901836 2.682209E-07 0.075280786
v 0.14565079 -0.024682969 0.04536605
v 0.14952198 2.682209E-07 0.04536605
v 0.14952198 2.682209E-07 0.04536605
v 0.14901836 2.682209E-07 0.075280786
v 0.13968544 2.682209E-07 0.07530126
v 0.13817348 2.682209E-07 0.04536605
v 0.13817348 2.682209E-07 0.04536605
v 0.13968544 2.682209E-07 0.07530126
v 0.13456073 -0.022920847 0.04536605
v 0.12939896 -0.043154016 0.04536605
v 0.12939896 -0.043154016 0.04536605
v 0.13968544 2.682209E-07 0.07530126
v 0.14901836 2.682209E-07 0.075280786
v 0.14013536 -0.046643898 0.04536605
v 0.11761159 -0.09006107 0.04536605
v 0.1278477 -0.06956947 0.07525423
v 0.1296906 -0.07082352 0.04536605
v 0.098501876 -0.10859853 0.04536605
v 0.1296906 -0.07082352 0.04536605
v 0.1278477 -0.06956947 0.07525423
v 0.11963491 -0.06538613 0.07527691
v 0.11969301 -0.06572759 0.04536605
v 0.11969301 -0.06572759 0.04536605
v 0.11963491 -0.06538613 0.07527691
v 0.10844082 -0.08340062 0.04536605
v 0.09231295 -0.09915437 0.04536605
v 0.09231295 -0.09915437 0.04536605
v 0.11963491 -0.06538613 0.07527691
v 0.1278477 -0.06956947 0.07525423
v 0.098501876 -0.10859853 0.04536605
v 0.05324237 -0.13734335 0.04536605
v 0.07213901 -0.1269722 0.07526973
v 0.07285182 -0.12836073 0.04536605
v 0.02767697 -0.14424232 0.04536605
v 0.07285182 -0.12836073 0.04536605
v 0.07213901 -0.1269722 0.07526973
v 0.06795457 -0.118759945 0.075288
v 0.06776309 -0.11837365 0.04536605
v 0.06776309 -0.11837365 0.04536605
v 0.06795457 -0.118759945 0.075288
v 0.04974085 -0.12657925 0.04536605
v 0.02591598 -0.13314618 0.04536605
v 0.02591598 -0.13314618 0.04536605
v 0.06795457 -0.118759945 0.075288
v 0.07213901 -0.1269722 0.07526973
v 0.02767697 -0.14424232 0.04536605
v -0.04315403 -0.12939896 0.04536605
v -0.046643913 -0.14013536 0.04536605
v -0.07082409 -0.1296906 0.04536605
v -0.06572759 -0.11969301 0.04536605
v -0.09915438 -0.09231295 0.04536605
v -0.10859853 -0.098501876 0.04536605
v -0.12836128 -0.07285182 0.04536605
v -0.1183742 -0.06776309 0.04536605
v -0.13817349 -2.682209E-07 0.04536605
v -0.1331462 -0.02591598 0.04536605
v -0.14424232 -0.02767697 0.04536605
v -0.14952198 -2.682209E-07 0.04536605
v -0.14424232 -0.02767697 0.04536605
v -0.14952198 -2.682209E-07 0.011373669
v -0.14952198 -2.682209E-07 0.04536605
v -0.14425007 -0.027643204 0.011373669
v -0.13734335 -0.05324237 0.04536605
v -0.13734335 -0.05324237 0.011373669
v -0.12836128 -0.07285182 0.04536605
v -0.12836075 -0.07285182 0.011374235
v -0.10859853 -0.098501876 0.04536605
v -0.108759046 -0.098897025 0.011374235
v -0.09006107 -0.11761159 0.04536605
v -0.09006107 -0.11761159 0.011373669
v -0.07082409 -0.1296906 0.04536605
v -0.07082352 -0.1296906 0.011373669
v -0.046643913 -0.14013536 0.04536605
v -0.046643913 -0.14013536 0.011373669
v -0.024682969 -0.14565079 0.04536605
v -0.024682403 -0.14565079 0.011373669
v 2.682209E-07 -0.14952198 0.04536605
v 2.682209E-07 -0.14952198 0.011373669
v -0.022920847 -0.13456073 0.04536605
v 2.682209E-07 -0.13817348 0.011373669
v 2.682209E-07 -0.13817348 0.04536605
v -0.022920847 -0.13456073 0.011373669
v -0.04315403 -0.12939896 0.04536605
v -0.04315403 -0.12939896 0.011373669
v -0.06572759 -0.11969301 0.04536605
v -0.06572759 -0.11969301 0.011374235
v -0.08340061 -0.10844082 0.04536605
v -0.08340061 -0.10844082 0.011373669
v -0.09915438 -0.09231295 0.04536605
v -0.099283874 -0.09268595 0.011374235
v -0.1183742 -0.06776309 0.04536605
v -0.11837366 -0.06776309 0.011374235
v -0.12657925 -0.04974085 0.04536605
v -0.12657925 -0.04974085 0.011373669
v -0.1331462 -0.02591598 0.04536605
v -0.13315338 -0.02588278 0.011374235
v -0.13817349 -2.682209E-07 0.04536605
v -0.13817349 -2.682209E-07 0.011373669
v -0.046643913 -0.14013536 0.04536605
v 2.682209E-07 -0.14901836 0.075280786
v -0.024682969 -0.14565079 0.04536605
v 2.682209E-07 -0.14952198 0.04536605
v 2.682209E-07 -0.14952198 0.04536605
v 2.682209E-07 -0.14901836 0.075280786
v 2.682209E-07 -0.13968544 0.07530126
v 2.682209E-07 -0.13817348 0.04536605
v 2.682209E-07 -0.13817348 0.04536605
v 2.682209E-07 -0.13968544 0.07530126
v -0.022920847 -0.13456073 0.04536605
v -0.04315403 -0.12939896 0.04536605
v -0.04315403 -0.12939896 0.04536605
v 2.682209E-07 -0.13968544 0.07530126
v 2.682209E-07 -0.14901836 0.075280786
v -0.046643913 -0.14013536 0.04536605
v -0.09006107 -0.11761159 0.04536605
v -0.06956947 -0.1278477 0.07525423
v -0.07082409 -0.1296906 0.04536605
v -0.10859853 -0.098501876 0.04536605
v -0.07082409 -0.1296906 0.04536605
v -0.06956947 -0.1278477 0.07525423
v -0.06538615 -0.11963491 0.07527691
v -0.06572759 -0.11969301 0.04536605
v -0.06572759 -0.11969301 0.04536605
v -0.06538615 -0.11963491 0.07527691
v -0.08340061 -0.10844082 0.04536605
v -0.09915438 -0.09231295 0.04536605
v -0.09915438 -0.09231295 0.04536605
v -0.06538615 -0.11963491 0.07527691
v -0.06956947 -0.1278477 0.07525423
v -0.10859853 -0.098501876 0.04536605
v -0.13734335 -0.05324237 0.04536605
v -0.1269722 -0.07213901 0.07526973
v -0.12836128 -0.07285182 0.04536605
v -0.14424232 -0.02767697 0.04536605
v -0.12836128 -0.07285182 0.04536605
v -0.1269722 -0.07213901 0.07526973
v -0.11875996 -0.06795457 0.075288
v -0.1183742 -0.06776309 0.04536605
v -0.1183742 -0.06776309 0.04536605
v -0.11875996 -0.06795457 0.075288
v -0.12657925 -0.04974085 0.04536605
v -0.1331462 -0.02591598 0.04536605
v -0.1331462 -0.02591598 0.04536605
v -0.11875996 -0.06795457 0.075288
v -0.1269722 -0.07213901 0.07526973
v -0.14424232 -0.02767697 0.04536605
v -0.12939894 0.04315403 0.04536605
v -0.14013538 0.046643913 0.04536605
v -0.12969062 0.07082409 0.04536605
v -0.11969301 0.06572759 0.04536605
v -0.09231296 0.09915438 0.04536605
v -0.09850189 0.10859853 0.04536605
v -0.07285181 0.12836075 0.04536605
v -0.06776309 0.1183742 0.04536605
v -2.682209E-07 0.13817349 0.04536605
v -0.02591598 0.1331462 0.04536605
v -0.02767697 0.14424232 0.04536605
v -2.682209E-07 0.14952198 0.04536605
v -0.02767697 0.14424232 0.04536605
v -2.682209E-07 0.14952198 0.011373669
v -2.682209E-07 0.14952198 0.04536605
v -0.027643234 0.14425007 0.011373669
v -0.053242356 0.13734335 0.04536605
v -0.053242356 0.13734335 0.011373669
v -0.07285181 0.12836075 0.04536605
v -0.07285181 0.12836075 0.011374235
v -0.09850189 0.10859853 0.04536605
v -0.09889704 0.10875958 0.011374235
v -0.11761159 0.09006107 0.04536605
v -0.11761159 0.09006107 0.011373669
v -0.12969062 0.07082409 0.04536605
v -0.12969062 0.07082409 0.011373669
v -0.14013538 0.046643913 0.04536605
v -0.14013538 0.046643913 0.011373669
v -0.14565077 0.024682969 0.04536605
v -0.14565077 0.024682403 0.011373669
v -0.14952198 -2.682209E-07 0.04536605
v -0.14952198 -2.682209E-07 0.011373669
v -0.13456073 0.022920847 0.04536605
v -0.13817349 -2.682209E-07 0.011373669
v -0.13817349 -2.682209E-07 0.04536605
v -0.13456073 0.022920847 0.011373669
v -0.12939894 0.04315403 0.04536605
v -0.12939894 0.04315403 0.011373669
v -0.11969301 0.06572759 0.04536605
v -0.11969301 0.06572759 0.011374235
v -0.10844082 0.08340061 0.04536605
v -0.10844082 0.08340061 0.011373669
v -0.09231296 0.09915438 0.04536605
v -0.09268597 0.099283874 0.011374235
v -0.06776309 0.1183742 0.04536605
v -0.06776309 0.11837366 0.011374235
v -0.04974085 0.12657925 0.04536605
v -0.04974085 0.12657925 0.011373669
v -0.02591598 0.1331462 0.04536605
v -0.02588278 0.13315338 0.011374235
v -2.682209E-07 0.13817349 0.04536605
v -2.682209E-07 0.13817349 0.011373669
v -0.14013538 0.046643913 0.04536605
v -0.14901838 -2.682209E-07 0.075280786
v -0.14565077 0.024682969 0.04536605
v -0.14952198 -2.682209E-07 0.04536605
v -0.14952198 -2.682209E-07 0.04536605
v -0.14901838 -2.682209E-07 0.075280786
v -0.13968542 -2.682209E-07 0.07530126
v -0.13817349 -2.682209E-07 0.04536605
v -0.13817349 -2.682209E-07 0.04536605
v -0.13968542 -2.682209E-07 0.07530126
v -0.13456073 0.022920847 0.04536605
v -0.12939894 0.04315403 0.04536605
v -0.12939894 0.04315403 0.04536605
v -0.13968542 -2.682209E-07 0.07530126
v -0.14901838 -2.682209E-07 0.075280786
v -0.14013538 0.046643913 0.04536605
v -0.11761159 0.09006107 0.04536605
v -0.1278477 0.06956947 0.07525423
v -0.12969062 0.07082409 0.04536605
v -0.09850189 0.10859853 0.04536605
v -0.12969062 0.07082409 0.04536605
v -0.1278477 0.06956947 0.07525423
v -0.1196349 0.06538615 0.07527691
v -0.11969301 0.06572759 0.04536605
v -0.11969301 0.06572759 0.04536605
v -0.1196349 0.06538615 0.07527691
v -0.10844082 0.08340061 0.04536605
v -0.09231296 0.09915438 0.04536605
v -0.09231296 0.09915438 0.04536605
v -0.1196349 0.06538615 0.07527691
v -0.1278477 0.06956947 0.07525423
v -0.09850189 0.10859853 0.04536605
v -0.053242356 0.13734335 0.04536605
v -0.072139025 0.12697273 0.07526973
v -0.07285181 0.12836075 0.04536605
v -0.02767697 0.14424232 0.04536605
v -0.07285181 0.12836075 0.04536605
v -0.072139025 0.12697273 0.07526973
v -0.06795514 0.1187605 0.075288
v -0.06776309 0.1183742 0.04536605
v -0.06776309 0.1183742 0.04536605
v -0.06795514 0.1187605 0.075288
v -0.04974085 0.12657925 0.04536605
v -0.02591598 0.1331462 0.04536605
v -0.02591598 0.1331462 0.04536605
v -0.06795514 0.1187605 0.075288
v -0.072139025 0.12697273 0.07526973
v -0.02767697 0.14424232 0.04536605
v 0.043154016 0.12939894 0.04536605
v 0.046643898 0.14013538 0.04536605
v 0.07082407 0.12969062 0.04536605
v 0.06572759 0.11969301 0.04536605
v 0.09915437 0.09231296 0.04536605
v 0.10859853 0.09850189 0.04536605
v 0.12836073 0.07285181 0.04536605
v 0.11837365 0.06776309 0.04536605
v 0.13817348 2.682209E-07 0.04536605
v 0.13314618 0.02591598 0.04536605
v 0.14424232 0.02767697 0.04536605
v 0.14952198 2.682209E-07 0.04536605
v 0.14424232 0.02767697 0.04536605
v 0.14952198 2.682209E-07 0.011373669
v 0.14952198 2.682209E-07 0.04536605
v 0.14425007 0.027643234 0.011373669
v 0.13734335 0.053242356 0.04536605
v 0.13734335 0.053242356 0.011373669
v 0.12836073 0.07285181 0.04536605
v 0.12836073 0.07285181 0.011374235
v 0.10859853 0.09850189 0.04536605
v 0.10875903 0.09889704 0.011374235
v 0.09006107 0.11761159 0.04536605
v 0.09006052 0.11761159 0.011373669
v 0.07082407 0.12969062 0.04536605
v 0.07082352 0.12969062 0.011373669
v 0.046643898 0.14013538 0.04536605
v 0.046643898 0.14013538 0.011373669
v 0.024682969 0.14565077 0.04536605
v 0.024682403 0.14565077 0.011373669
v -2.682209E-07 0.14952198 0.04536605
v -2.682209E-07 0.14952198 0.011373669
v 0.022920847 0.13456073 0.04536605
v -2.682209E-07 0.13817349 0.011373669
v -2.682209E-07 0.13817349 0.04536605
v 0.022920847 0.13456073 0.011373669
v 0.043154016 0.12939894 0.04536605
v 0.043154016 0.12939894 0.011373669
v 0.06572759 0.11969301 0.04536605
v 0.06572759 0.11969301 0.011374235
v 0.08340062 0.10844082 0.04536605
v 0.08340062 0.10844082 0.011373669
v 0.09915437 0.09231296 0.04536605
v 0.099283874 0.09268597 0.011374235
v 0.11837365 0.06776309 0.04536605
v 0.11837365 0.06776309 0.011374235
v 0.12657925 0.04974085 0.04536605
v 0.1265787 0.04974085 0.011373669
v 0.13314618 0.02591598 0.04536605
v 0.13315338 0.02588278 0.011374235
v 0.13817348 2.682209E-07 0.04536605
v 0.13817348 2.682209E-07 0.011373669
v 0.046643898 0.14013538 0.04536605
v -2.682209E-07 0.14901838 0.075280786
v 0.024682969 0.14565077 0.04536605
v -2.682209E-07 0.14952198 0.04536605
v -2.682209E-07 0.14952198 0.04536605
v -2.682209E-07 0.14901838 0.075280786
v -2.682209E-07 0.13968542 0.07530126
v -2.682209E-07 0.13817349 0.04536605
v -2.682209E-07 0.13817349 0.04536605
v -2.682209E-07 0.13968542 0.07530126
v 0.022920847 0.13456073 0.04536605
v 0.043154016 0.12939894 0.04536605
v 0.043154016 0.12939894 0.04536605
v -2.682209E-07 0.13968542 0.07530126
v -2.682209E-07 0.14901838 0.075280786
v 0.046643898 0.14013538 0.04536605
v 0.09006107 0.11761159 0.04536605
v 0.06956947 0.1278477 0.07525423
v 0.07082407 0.12969062 0.04536605
v 0.10859853 0.09850189 0.04536605
v 0.07082407 0.12969062 0.04536605
v 0.06956947 0.1278477 0.07525423
v 0.06538613 0.1196349 0.07527691
v 0.06572759 0.11969301 0.04536605
v 0.06572759 0.11969301 0.04536605
v 0.06538613 0.1196349 0.07527691
v 0.08340062 0.10844082 0.04536605
v 0.09915437 0.09231296 0.04536605
v 0.09915437 0.09231296 0.04536605
v 0.06538613 0.1196349 0.07527691
v 0.06956947 0.1278477 0.07525423
v 0.10859853 0.09850189 0.04536605
v 0.13734335 0.053242356 0.04536605
v 0.1269722 0.072139025 0.07526973
v 0.12836073 0.07285181 0.04536605
v 0.14424232 0.02767697 0.04536605
v 0.12836073 0.07285181 0.04536605
v 0.1269722 0.072139025 0.07526973
v 0.118759945 0.06795514 0.075288
v 0.11837365 0.06776309 0.04536605
v 0.11837365 0.06776309 0.04536605
v 0.118759945 0.06795514 0.075288
v 0.12657925 0.04974085 0.04536605
v 0.13314618 0.02591598 0.04536605
v 0.13314618 0.02591598 0.04536605
v 0.118759945 0.06795514 0.075288
v 0.1269722 0.072139025 0.07526973
v 0.14424232 0.02767697 0.04536605
v 0.10249759 2.682209E-07 0.00026869774
v 0.082192495 -0.047456875 0.00026869774
v 0.09483379 2.682209E-07 0.00026869774
v 0.0889592 -0.05136405 0.00026869774
v 0.047453552 -0.08219582 0.00026869774
v 0.051360726 -0.088962525 0.00026869774
v 2.682209E-07 -0.09483379 0.00026869774
v 2.682209E-07 -0.10249759 0.00026869774
v 0.082192495 -0.047456875 0.00026869774
v 0.09483379 2.682209E-07 -0.0066441298
v 0.09483379 2.682209E-07 0.00026869774
v 0.082192495 -0.047456875 -0.0066441298
v 0.047453552 -0.08219582 0.00026869774
v 0.047453552 -0.08219582 -0.0066441298
v 2.682209E-07 -0.09483379 0.00026869774
v 2.682209E-07 -0.09483379 -0.0066441298
v 0.10249759 2.682209E-07 0.00026869774
v 0.10249759 2.682209E-07 -0.0066441298
v 0.0889592 -0.05136405 -0.0066441298
v 0.0889592 -0.05136405 0.00026869774
v 0.051360726 -0.088962525 -0.0066441298
v 0.051360726 -0.088962525 0.00026869774
v 2.682209E-07 -0.10249759 -0.0066441298
v 2.682209E-07 -0.10249759 0.00026869774
v 0.06368159 2.682209E-07 -0.016290843
v 0.05106631 -0.029485017 -0.016290843
v 0.058920488 2.682209E-07 -0.016290843
v 0.055270657 -0.031912327 -0.016290843
v 0.029483348 -0.051068515 -0.016290843
v 0.03191012 -0.055272326 -0.016290843
v -2.682209E-07 -0.058920488 -0.016290843
v -2.682209E-07 -0.06368159 -0.016290843
v 0.05106631 -0.029485017 -0.016290843
v 0.058920488 2.682209E-07 -0.024844557
v 0.058920488 2.682209E-07 -0.016290843
v 0.05106631 -0.029485017 -0.024844557
v 0.029483348 -0.051068515 -0.016290843
v 0.029483348 -0.051068515 -0.024844557
v -2.682209E-07 -0.058920488 -0.016290843
v -2.682209E-07 -0.058920488 -0.024844557
v 0.06368159 2.682209E-07 -0.016290843
v 0.06368159 2.682209E-07 -0.024844557
v 0.055270657 -0.031912327 -0.024844557
v 0.055270657 -0.031912327 -0.016290843
v 0.03191012 -0.055272326 -0.024844557
v 0.03191012 -0.055272326 -0.016290843
v -2.682209E-07 -0.06368159 -0.024844557
v -2.682209E-07 -0.06368159 -0.016290843
v 2.682209E-07 -0.10249759 0.00026869774
v -0.04745689 -0.082192495 0.00026869774
v 2.682209E-07 -0.09483379 0.00026869774
v -0.051364064 -0.0889592 0.00026869774
v -0.08219582 -0.047453552 0.00026869774
v -0.088962525 -0.051360726 0.00026869774
v -0.09483379 -2.682209E-07 0.00026869774
v -0.10249761 -2.682209E-07 0.00026869774
v -0.04745689 -0.082192495 0.00026869774
v 2.682209E-07 -0.09483379 -0.0066441298
v 2.682209E-07 -0.09483379 0.00026869774
v -0.047457427 -0.082192495 -0.0066441298
v -0.08219582 -0.047453552 0.00026869774
v -0.08219582 -0.047453552 -0.0066441298
v -0.09483379 -2.682209E-07 0.00026869774
v -0.09483379 -2.682209E-07 -0.0066441298
v 2.682209E-07 -0.10249759 0.00026869774
v 2.682209E-07 -0.10249759 -0.0066441298
v -0.051364064 -0.0889592 -0.0066441298
v -0.051364064 -0.0889592 0.00026869774
v -0.088962525 -0.051360726 -0.0066441298
v -0.088962525 -0.051360726 0.00026869774
v -0.10249761 -2.682209E-07 -0.0066441298
v -0.10249761 -2.682209E-07 0.00026869774
v -2.682209E-07 -0.06368159 -0.016290843
v -0.029485017 -0.05106631 -0.016290843
v -2.682209E-07 -0.058920488 -0.016290843
v -0.031912327 -0.055270657 -0.016290843
v -0.051068515 -0.029483348 -0.016290843
v -0.05527234 -0.03191012 -0.016290843
v -0.058920503 2.682209E-07 -0.016290843
v -0.0636816 2.682209E-07 -0.016290843
v -0.029485017 -0.05106631 -0.016290843
v -2.682209E-07 -0.058920488 -0.024844557
v -2.682209E-07 -0.058920488 -0.016290843
v -0.029485017 -0.05106631 -0.024844557
v -0.051068515 -0.029483348 -0.016290843
v -0.051068515 -0.029483348 -0.024844557
v -0.058920503 2.682209E-07 -0.016290843
v -0.058920503 2.682209E-07 -0.024844557
v -2.682209E-07 -0.06368159 -0.016290843
v -2.682209E-07 -0.06368159 -0.024844557
v -0.031912327 -0.055270657 -0.024844557
v -0.031912327 -0.055270657 -0.016290843
v -0.05527234 -0.03191012 -0.024844557
v -0.05527234 -0.03191012 -0.016290843
v -0.0636816 2.682209E-07 -0.024844557
v -0.0636816 2.682209E-07 -0.016290843
v -0.10249761 -2.682209E-07 0.00026869774
v -0.08219305 0.04745689 0.00026869774
v -0.09483379 -2.682209E-07 0.00026869774
v -0.08895922 0.051364064 0.00026869774
v -0.04745412 0.08219582 0.00026869774
v -0.051360726 0.088962525 0.00026869774
v -2.682209E-07 0.09483379 0.00026869774
v -2.682209E-07 0.10249761 0.00026869774
v -0.08219305 0.04745689 0.00026869774
v -0.09483379 -2.682209E-07 -0.0066441298
v -0.09483379 -2.682209E-07 0.00026869774
v -0.08219305 0.04745689 -0.0066441298
v -0.04745412 0.08219582 0.00026869774
v -0.04745412 0.08219582 -0.0066441298
v -2.682209E-07 0.09483379 0.00026869774
v -2.682209E-07 0.09483379 -0.0066441298
v -0.10249761 -2.682209E-07 0.00026869774
v -0.10249761 -2.682209E-07 -0.0066441298
v -0.08895922 0.051364064 -0.0066441298
v -0.08895922 0.051364064 0.00026869774
v -0.051360726 0.088962525 -0.0066441298
v -0.051360726 0.088962525 0.00026869774
v -2.682209E-07 0.10249761 -0.0066441298
v -2.682209E-07 0.10249761 0.00026869774
v -0.0636816 2.682209E-07 -0.016290843
v -0.05106631 0.029485017 -0.016290843
v -0.058920503 2.682209E-07 -0.016290843
v -0.05527067 0.031912327 -0.016290843
v -0.029483348 0.051068515 -0.016290843
v -0.031910658 0.05527234 -0.016290843
v -2.682209E-07 0.058920503 -0.016290843
v -2.682209E-07 0.0636816 -0.016290843
v -0.05106631 0.029485017 -0.016290843
v -0.058920503 2.682209E-07 -0.024844557
v -0.058920503 2.682209E-07 -0.016290843
v -0.05106631 0.029485017 -0.024844557
v -0.029483348 0.051068515 -0.016290843
v -0.029483348 0.051068515 -0.024844557
v -2.682209E-07 0.058920503 -0.016290843
v -2.682209E-07 0.058920503 -0.024844557
v -0.0636816 2.682209E-07 -0.016290843
v -0.0636816 2.682209E-07 -0.024844557
v -0.05527067 0.031912327 -0.024844557
v -0.05527067 0.031912327 -0.016290843
v -0.031910658 0.05527234 -0.024844557
v -0.031910658 0.05527234 -0.016290843
v -2.682209E-07 0.0636816 -0.024844557
v -2.682209E-07 0.0636816 -0.016290843
v -2.682209E-07 0.10249761 0.00026869774
v 0.047456875 0.08219305 0.00026869774
v -2.682209E-07 0.09483379 0.00026869774
v 0.05136405 0.08895922 0.00026869774
v 0.08219582 0.04745412 0.00026869774
v 0.088962525 0.051360726 0.00026869774
v 0.09483379 2.682209E-07 0.00026869774
v 0.10249759 2.682209E-07 0.00026869774
v 0.047456875 0.08219305 0.00026869774
v -2.682209E-07 0.09483379 -0.0066441298
v -2.682209E-07 0.09483379 0.00026869774
v 0.047456875 0.08219305 -0.0066441298
v 0.08219582 0.04745412 0.00026869774
v 0.08219582 0.04745412 -0.0066441298
v 0.09483379 2.682209E-07 0.00026869774
v 0.09483379 2.682209E-07 -0.0066441298
v -2.682209E-07 0.10249761 0.00026869774
v -2.682209E-07 0.10249761 -0.0066441298
v 0.05136405 0.08895922 -0.0066441298
v 0.05136405 0.08895922 0.00026869774
v 0.088962525 0.051360726 -0.0066441298
v 0.088962525 0.051360726 0.00026869774
v 0.10249759 2.682209E-07 -0.0066441298
v 0.10249759 2.682209E-07 0.00026869774
v -2.682209E-07 0.0636816 -0.016290843
v 0.029485017 0.05106631 -0.016290843
v -2.682209E-07 0.058920503 -0.016290843
v 0.031912327 0.05527067 -0.016290843
v 0.051068515 0.029483348 -0.016290843
v 0.055272326 0.031910658 -0.016290843
v 0.058920488 2.682209E-07 -0.016290843
v 0.06368159 2.682209E-07 -0.016290843
v 0.029485017 0.05106631 -0.016290843
v -2.682209E-07 0.058920503 -0.024844557
v -2.682209E-07 0.058920503 -0.016290843
v 0.029485017 0.05106631 -0.024844557
v 0.051068515 0.029483348 -0.016290843
v 0.051068515 0.029483348 -0.024844557
v 0.058920488 2.682209E-07 -0.016290843
v 0.058920488 2.682209E-07 -0.024844557
v -2.682209E-07 0.0636816 -0.016290843
v -2.682209E-07 0.0636816 -0.024844557
v 0.031912327 0.05527067 -0.024844557
v 0.031912327 0.05527067 -0.016290843
v 0.055272326 0.031910658 -0.024844557
v 0.055272326 0.031910658 -0.016290843
v 0.06368159 2.682209E-07 -0.024844557
v 0.06368159 2.682209E-07 -0.016290843
v 0.20123109 0.0016721785 0.050585926
v 0.29015294 0.0016721785 0.033527225
v 0.20123109 -0.015386552 0.033527225
v 0.20123109 0.018730879 0.033527225
v 0.20123109 0.0016721785 0.016468495
v 0.20123109 -0.015386552 0.033527225
v 0.29015294 0.0016721785 0.033527225
v 0.20123109 0.018730879 0.033527225
v -0.20123109 0.0016721785 0.050585926
v -0.20123109 -0.015386552 0.033527225
v -0.29015294 0.0016721785 0.033527225
v -0.20123109 0.018730879 0.033527225
v -0.20123109 0.0016721785 0.016467929
v -0.29015294 0.0016721785 0.033527225
v -0.20123109 -0.015386552 0.033527225
v -0.20123109 0.018730879 0.033527225
v 0.009585559 2.682209E-07 -0.050272703
v -2.682209E-07 2.682209E-07 -0.075301275
v -2.682209E-07 -0.009582251 -0.050272703
v -2.682209E-07 0.009582251 -0.050272703
v -0.009585559 2.682209E-07 -0.050272703
v -2.682209E-07 -0.009582251 -0.050272703
v -2.682209E-07 2.682209E-07 -0.075301275
v -2.682209E-07 0.009582251 -0.050272703
vt 0.20246783 0.5500618
vt 0.060917385 0.61925524
vt 0.20930733 0.61925524
vt 0.16037631 0.43374524
vt 0.060917385 0.61925524
vt 0.20246783 0.5500618
vt 0.20246783 0.5500618
vt 0.20930733 0.61925524
vt 0.060917385 0.61925524
vt 0.16037631 0.43374524
vt 0.20246783 0.5500618
vt 0.060917385 0.61925524
vt 0.20246783 0.5500618
vt 0.20930733 0.61925524
vt 0.060917385 0.61925524
vt 0.16037631 0.43374524
vt 0.20246783 0.5500618
vt 0.060917385 0.61925524
vt 0.20246783 0.5500618
vt 0.060917385 0.61925524
vt 0.20930733 0.61925524
vt 0.16037631 0.43374524
vt 0.060917385 0.61925524
vt 0.20246783 0.5500618
vt 0.64251554 0.6045518
vt 0.56810963 0.6045518
vt 0.63671553 0.66577584
vt 0.63671553 0.5433127
vt 0.56810963 0.6045518
vt 0.64251554 0.6045518
vt 0.64251554 0.6045518
vt 0.63671553 0.66577584
vt 0.56810963 0.6045518
vt 0.63671553 0.5433127
vt 0.64251554 0.6045518
vt 0.56810963 0.6045518
vt 0.78304154 0.22865073
vt 0.78304154 0.16344956
vt 0.6797712 0.16344956
vt 0.6797712 0.22865073
vt 0.46917805 0.22865073
vt 0.46917805 0.16344956
vt 0.3465944 0.16344956
vt 0.3465944 0.22865073
vt 0.0065177837 0.22865073
vt 0.12528999 0.22865073
vt 0.12528999 0.16344956
vt 0.0065177837 0.16344956
vt 0.12528999 0.16344956
vt 0.0065177837 0.03261031
vt 0.0065177837 0.16344956
vt 0.12528999 0.03261031
vt 0.22816867 0.16344956
vt 0.22816867 0.03261031
vt 0.3465944 0.16344956
vt 0.3465944 0.03261031
vt 0.46917805 0.16344956
vt 0.46917805 0.03261031
vt 0.5745575 0.16344956
vt 0.5745575 0.03261031
vt 0.6797712 0.16344956
vt 0.6797712 0.03261031
vt 0.78304154 0.16344956
vt 0.78304154 0.03261031
vt 0.88572437 0.16344956
vt 0.88572437 0.03261031
vt 0.99380046 0.16344956
vt 0.99380046 0.03261031
vt 0.88572437 0.22865073
vt 0.99380046 0.38372955
vt 0.99380046 0.22865073
vt 0.88572437 0.38372955
vt 0.78304154 0.22865073
vt 0.78304154 0.38372955
vt 0.6797712 0.22865073
vt 0.6797712 0.38372955
vt 0.5745575 0.22865073
vt 0.5745575 0.38372955
vt 0.46917805 0.22865073
vt 0.46917805 0.38372955
vt 0.3465944 0.22865073
vt 0.3465944 0.38372955
vt 0.22816867 0.22865073
vt 0.22816867 0.38372955
vt 0.12528999 0.22865073
vt 0.12528999 0.38372955
vt 0.0065177837 0.22865073
vt 0.0065177837 0.38372955
vt 0.69789433 0.44789124
vt 0.9157338 0.583732
vt 0.80149615 0.4471832
vt 0.9162008 0.44691202
vt 0.9162008 0.44691202
vt 0.9157338 0.583732
vt 0.9583978 0.5854042
vt 0.96809965 0.44882527
vt 0.4965059 0.5574437
vt 0.41902676 0.44471252
vt 0.57598865 0.5039178
vt 0.6603374 0.444592
vt 0.67523664 0.4942763
vt 0.88771296 0.61592585
vt 0.9157338 0.583732
vt 0.69789433 0.44789124
vt 0.80149615 0.4471832
vt 0.9157338 0.583732
vt 0.9162008 0.44691202
vt 0.69789433 0.44789124
vt 0.9162008 0.44691202
vt 0.9157338 0.583732
vt 0.9583978 0.5854042
vt 0.96809965 0.44882527
vt 0.4965059 0.5574437
vt 0.41902676 0.44471252
vt 0.57598865 0.5039178
vt 0.6603374 0.444592
vt 0.67523664 0.4942763
vt 0.88771296 0.61592585
vt 0.9157338 0.583732
vt 0.69789433 0.44789124
vt 0.80149615 0.4471832
vt 0.9157338 0.583732
vt 0.9162008 0.44691202
vt 0.69789433 0.44789124
vt 0.9162008 0.44691202
vt 0.9157338 0.583732
vt 0.9583978 0.5854042
vt 0.96809965 0.44882527
vt 0.4965059 0.5574437
vt 0.41902676 0.44471252
vt 0.57598865 0.5039178
vt 0.6603374 0.444592
vt 0.67523664 0.4942763
vt 0.88771296 0.61592585
vt 0.9157338 0.583732
vt 0.69789433 0.44789124
vt 0.78304154 0.22865073
vt 0.78304154 0.16344956
vt 0.6797712 0.16344956
vt 0.6797712 0.22865073
vt 0.46917805 0.22865073
vt 0.46917805 0.16344956
vt 0.3465944 0.16344956
vt 0.3465944 0.22865073
vt 0.0065177837 0.22865073
vt 0.12528999 0.22865073
vt 0.12528999 0.16344956
vt 0.0065177837 0.16344956
vt 0.12528999 0.16344956
vt 0.0065177837 0.03261031
vt 0.0065177837 0.16344956
vt 0.12528999 0.03261031
vt 0.22816867 0.16344956
vt 0.22816867 0.03261031
vt 0.3465944 0.16344956
vt 0.3465944 0.03261031
vt 0.46917805 0.16344956
vt 0.46917805 0.03261031
vt 0.5745575 0.16344956
vt 0.5745575 0.03261031
vt 0.6797712 0.16344956
vt 0.6797712 0.03261031
vt 0.78304154 0.16344956
vt 0.78304154 0.03261031
vt 0.88572437 0.16344956
vt 0.88572437 0.03261031
vt 0.99380046 0.16344956
vt 0.99380046 0.03261031
vt 0.88572437 0.22865073
vt 0.99380046 0.38372955
vt 0.99380046 0.22865073
vt 0.88572437 0.38372955
vt 0.78304154 0.22865073
vt 0.78304154 0.38372955
vt 0.6797712 0.22865073
vt 0.6797712 0.38372955
vt 0.5745575 0.22865073
vt 0.5745575 0.38372955
vt 0.46917805 0.22865073
vt 0.46917805 0.38372955
vt 0.3465944 0.22865073
vt 0.3465944 0.38372955
vt 0.22816867 0.22865073
vt 0.22816867 0.38372955
vt 0.12528999 0.22865073
vt 0.12528999 0.38372955
vt 0.0065177837 0.22865073
vt 0.0065177837 0.38372955
vt 0.69789433 0.44789124
vt 0.9157338 0.583732
vt 0.80149615 0.4471832
vt 0.9162008 0.44691202
vt 0.9162008 0.44691202
vt 0.9157338 0.583732
vt 0.9583978 0.5854042
vt 0.96809965 0.44882527
vt 0.4965059 0.5574437
vt 0.41902676 0.44471252
vt 0.57598865 0.5039178
vt 0.6603374 0.444592
vt 0.67523664 0.4942763
vt 0.88771296 0.61592585
vt 0.9157338 0.583732
vt 0.69789433 0.44789124
vt 0.80149615 0.4471832
vt 0.9157338 0.583732
vt 0.9162008 0.44691202
vt 0.69789433 0.44789124
vt 0.9162008 0.44691202
vt 0.9157338 0.583732
vt 0.9583978 0.5854042
vt 0.96809965 0.44882527
vt 0.4965059 0.5574437
vt 0.41902676 0.44471252
vt 0.57598865 0.5039178
vt 0.6603374 0.444592
vt 0.67523664 0.4942763
vt 0.88771296 0.61592585
vt 0.9157338 0.583732
vt 0.69789433 0.44789124
vt 0.80149615 0.4471832
vt 0.9157338 0.583732
vt 0.9162008 0.44691202
vt 0.69789433 0.44789124
vt 0.9162008 0.44691202
vt 0.9157338 0.583732
vt 0.9583978 0.5854042
vt 0.96809965 0.44882527
vt 0.4965059 0.5574437
vt 0.41902676 0.44471252
vt 0.57598865 0.5039178
vt 0.6603374 0.444592
vt 0.67523664 0.4942763
vt 0.88771296 0.61592585
vt 0.9157338 0.583732
vt 0.69789433 0.44789124
vt 0.78304154 0.22865073
vt 0.78304154 0.16344956
vt 0.6797712 0.16344956
vt 0.6797712 0.22865073
vt 0.46917805 0.22865073
vt 0.46917805 0.16344956
vt 0.3465944 0.16344956
vt 0.3465944 0.22865073
vt 0.0065177837 0.22865073
vt 0.12528999 0.22865073
vt 0.12528999 0.16344956
vt 0.0065177837 0.16344956
vt 0.12528999 0.16344956
vt 0.0065177837 0.03261031
vt 0.0065177837 0.16344956
vt 0.12528999 0.03261031
vt 0.22816867 0.16344956
vt 0.22816867 0.03261031
vt 0.3465944 0.16344956
vt 0.3465944 0.03261031
vt 0.46917805 0.16344956
vt 0.46917805 0.03261031
vt 0.5745575 0.16344956
vt 0.5745575 0.03261031
vt 0.6797712 0.16344956
vt 0.6797712 0.03261031
vt 0.78304154 0.16344956
vt 0.78304154 0.03261031
vt 0.88572437 0.16344956
vt 0.88572437 0.03261031
vt 0.99380046 0.16344956
vt 0.99380046 0.03261031
vt 0.88572437 0.22865073
vt 0.99380046 0.38372955
vt 0.99380046 0.22865073
vt 0.88572437 0.38372955
vt 0.78304154 0.22865073
vt 0.78304154 0.38372955
vt 0.6797712 0.22865073
vt 0.6797712 0.38372955
vt 0.5745575 0.22865073
vt 0.5745575 0.38372955
vt 0.46917805 0.22865073
vt 0.46917805 0.38372955
vt 0.3465944 0.22865073
vt 0.3465944 0.38372955
vt 0.22816867 0.22865073
vt 0.22816867 0.38372955
vt 0.12528999 0.22865073
vt 0.12528999 0.38372955
vt 0.0065177837 0.22865073
vt 0.0065177837 0.38372955
vt 0.69789433 0.44789124
vt 0.9157338 0.583732
vt 0.80149615 0.4471832
vt 0.9162008 0.44691202
vt 0.9162008 0.44691202
vt 0.9157338 0.583732
vt 0.9583978 0.5854042
vt 0.96809965 0.44882527
vt 0.4965059 0.5574437
vt 0.41902676 0.44471252
vt 0.57598865 0.5039178
vt 0.6603374 0.444592
vt 0.67523664 0.4942763
vt 0.88771296 0.61592585
vt 0.9157338 0.583732
vt 0.69789433 0.44789124
vt 0.80149615 0.4471832
vt 0.9157338 0.583732
vt 0.9162008 0.44691202
vt 0.69789433 0.44789124
vt 0.9162008 0.44691202
vt 0.9157338 0.583732
vt 0.9583978 0.5854042
vt 0.96809965 0.44882527
vt 0.4965059 0.5574437
vt 0.41902676 0.44471252
vt 0.57598865 0.5039178
vt 0.6603374 0.444592
vt 0.67523664 0.4942763
vt 0.88771296 0.61592585
vt 0.9157338 0.583732
vt 0.69789433 0.44789124
vt 0.80149615 0.4471832
vt 0.9157338 0.583732
vt 0.9162008 0.44691202
vt 0.69789433 0.44789124
vt 0.9162008 0.44691202
vt 0.9157338 0.583732
vt 0.9583978 0.5854042
vt 0.96809965 0.44882527
vt 0.4965059 0.5574437
vt 0.41902676 0.44471252
vt 0.57598865 0.5039178
vt 0.6603374 0.444592
vt 0.67523664 0.4942763
vt 0.88771296 0.61592585
vt 0.9157338 0.583732
vt 0.69789433 0.44789124
vt 0.78304154 0.22865073
vt 0.78304154 0.16344956
vt 0.6797712 0.16344956
vt 0.6797712 0.22865073
vt 0.46917805 0.22865073
vt 0.46917805 0.16344956
vt 0.3465944 0.16344956
vt 0.3465944 0.22865073
vt 0.0065177837 0.22865073
vt 0.12528999 0.22865073
vt 0.12528999 0.16344956
vt 0.0065177837 0.16344956
vt 0.12528999 0.16344956
vt 0.0065177837 0.03261031
vt 0.0065177837 0.16344956
vt 0.12528999 0.03261031
vt 0.22816867 0.16344956
vt 0.22816867 0.03261031
vt 0.3465944 0.16344956
vt 0.3465944 0.03261031
vt 0.46917805 0.16344956
vt 0.46917805 0.03261031
vt 0.5745575 0.16344956
vt 0.5745575 0.03261031
vt 0.6797712 0.16344956
vt 0.6797712 0.03261031
vt 0.78304154 0.16344956
vt 0.78304154 0.03261031
vt 0.88572437 0.16344956
vt 0.88572437 0.03261031
vt 0.99380046 0.16344956
vt 0.99380046 0.03261031
vt 0.88572437 0.22865073
vt 0.99380046 0.38372955
vt 0.99380046 0.22865073
vt 0.88572437 0.38372955
vt 0.78304154 0.22865073
vt 0.78304154 0.38372955
vt 0.6797712 0.22865073
vt 0.6797712 0.38372955
vt 0.5745575 0.22865073
vt 0.5745575 0.38372955
vt 0.46917805 0.22865073
vt 0.46917805 0.38372955
vt 0.3465944 0.22865073
vt 0.3465944 0.38372955
vt 0.22816867 0.22865073
vt 0.22816867 0.38372955
vt 0.12528999 0.22865073
vt 0.12528999 0.38372955
vt 0.0065177837 0.22865073
vt 0.0065177837 0.38372955
vt 0.69789433 0.44789124
vt 0.9157338 0.583732
vt 0.80149615 0.4471832
vt 0.9162008 0.44691202
vt 0.9162008 0.44691202
vt 0.9157338 0.583732
vt 0.9583978 0.5854042
vt 0.96809965 0.44882527
vt 0.4965059 0.5574437
vt 0.41902676 0.44471252
vt 0.57598865 0.5039178
vt 0.6603374 0.444592
vt 0.67523664 0.4942763
vt 0.88771296 0.61592585
vt 0.9157338 0.583732
vt 0.69789433 0.44789124
vt 0.80149615 0.4471832
vt 0.9157338 0.583732
vt 0.9162008 0.44691202
vt 0.69789433 0.44789124
vt 0.9162008 0.44691202
vt 0.9157338 0.583732
vt 0.9583978 0.5854042
vt 0.96809965 0.44882527
vt 0.4965059 0.5574437
vt 0.41902676 0.44471252
vt 0.57598865 0.5039178
vt 0.6603374 0.444592
vt 0.67523664 0.4942763
vt 0.88771296 0.61592585
vt 0.9157338 0.583732
vt 0.69789433 0.44789124
vt 0.80149615 0.4471832
vt 0.9157338 0.583732
vt 0.9162008 0.44691202
vt 0.69789433 0.44789124
vt 0.9162008 0.44691202
vt 0.9157338 0.583732
vt 0.9583978 0.5854042
vt 0.96809965 0.44882527
vt 0.4965059 0.5574437
vt 0.41902676 0.44471252
vt 0.57598865 0.5039178
vt 0.6603374 0.444592
vt 0.67523664 0.4942763
vt 0.88771296 0.61592585
vt 0.9157338 0.583732
vt 0.69789433 0.44789124
vt 0.7962083 0.89858985
vt 0.5407517 0.9068907
vt 0.7807969 0.86626047
vt 0.54391533 0.9451406
vt 0.3027704 0.9100543
vt 0.29948625 0.9440409
vt 0.078166775 0.86811346
vt 0.064246744 0.896993
vt 0.5407517 0.9068907
vt 0.77492154 0.8329066
vt 0.7807969 0.86626047
vt 0.5378592 0.8746215
vt 0.3027704 0.9100543
vt 0.3053917 0.8772277
vt 0.078166775 0.86811346
vt 0.08336419 0.8389778
vt 0.7962083 0.89858985
vt 0.80274653 0.93450475
vt 0.546401 0.97930795
vt 0.54391533 0.9451406
vt 0.29638284 0.9755719
vt 0.29948625 0.9440409
vt 0.057678416 0.9305577
vt 0.064246744 0.896993
vt 0.64539295 0.8009086
vt 0.48674378 0.80577457
vt 0.6358719 0.780827
vt 0.4887173 0.829517
vt 0.33900166 0.80810964
vt 0.33698294 0.8292157
vt 0.19957535 0.781987
vt 0.19091299 0.7999143
vt 0.48674378 0.80577457
vt 0.63071966 0.7516311
vt 0.6358719 0.780827
vt 0.48427314 0.7774374
vt 0.33900166 0.80810964
vt 0.34120113 0.7792452
vt 0.19957535 0.781987
vt 0.20404965 0.75639164
vt 0.64539295 0.8009086
vt 0.65105736 0.8325601
vt 0.49075106 0.8595716
vt 0.4887173 0.829517
vt 0.33430138 0.85696536
vt 0.33698294 0.8292157
vt 0.18517324 0.82947177
vt 0.19091299 0.7999143
vt 0.7962083 0.89858985
vt 0.5407517 0.9068907
vt 0.7807969 0.86626047
vt 0.54391533 0.9451406
vt 0.3027704 0.9100543
vt 0.29948625 0.9440409
vt 0.078166775 0.86811346
vt 0.064246744 0.896993
vt 0.5407517 0.9068907
vt 0.77492154 0.8329066
vt 0.7807969 0.86626047
vt 0.5378592 0.8746215
vt 0.3027704 0.9100543
vt 0.3053917 0.8772277
vt 0.078166775 0.86811346
vt 0.08336419 0.8389778
vt 0.7962083 0.89858985
vt 0.80274653 0.93450475
vt 0.546401 0.97930795
vt 0.54391533 0.9451406
vt 0.29638284 0.9755719
vt 0.29948625 0.9440409
vt 0.057678416 0.9305577
vt 0.064246744 0.896993
vt 0.64539295 0.8009086
vt 0.48674378 0.80577457
vt 0.6358719 0.780827
vt 0.4887173 0.829517
vt 0.33900166 0.80810964
vt 0.33698294 0.8292157
vt 0.19957535 0.781987
vt 0.19091299 0.7999143
vt 0.48674378 0.80577457
vt 0.63071966 0.7516311
vt 0.6358719 0.780827
vt 0.48427314 0.7774374
vt 0.33900166 0.80810964
vt 0.34120113 0.7792452
vt 0.19957535 0.781987
vt 0.20404965 0.75639164
vt 0.64539295 0.8009086
vt 0.65105736 0.8325601
vt 0.49075106 0.8595716
vt 0.4887173 0.829517
vt 0.33430138 0.85696536
vt 0.33698294 0.8292157
vt 0.18517324 0.82947177
vt 0.19091299 0.7999143
vt 0.7962083 0.89858985
vt 0.5407517 0.9068907
vt 0.7807969 0.86626047
vt 0.54391533 0.9451406
vt 0.3027704 0.9100543
vt 0.29948625 0.9440409
vt 0.078166775 0.86811346
vt 0.064246744 0.896993
vt 0.5407517 0.9068907
vt 0.77492154 0.8329066
vt 0.7807969 0.86626047
vt 0.5378592 0.8746215
vt 0.3027704 0.9100543
vt 0.3053917 0.8772277
vt 0.078166775 0.86811346
vt 0.08336419 0.8389778
vt 0.7962083 0.89858985
vt 0.80274653 0.93450475
vt 0.546401 0.97930795
vt 0.54391533 0.9451406
vt 0.29638284 0.9755719
vt 0.29948625 0.9440409
vt 0.057678416 0.9305577
vt 0.064246744 0.896993
vt 0.64539295 0.8009086
vt 0.48674378 0.80577457
vt 0.6358719 0.780827
vt 0.4887173 0.829517
vt 0.33900166 0.80810964
vt 0.33698294 0.8292157
vt 0.19957535 0.781987
vt 0.19091299 0.7999143
vt 0.48674378 0.80577457
vt 0.63071966 0.7516311
vt 0.6358719 0.780827
vt 0.48427314 0.7774374
vt 0.33900166 0.80810964
vt 0.34120113 0.7792452
vt 0.19957535 0.781987
vt 0.20404965 0.75639164
vt 0.64539295 0.8009086
vt 0.65105736 0.8325601
vt 0.49075106 0.8595716
vt 0.4887173 0.829517
vt 0.33430138 0.85696536
vt 0.33698294 0.8292157
vt 0.18517324 0.82947177
vt 0.19091299 0.7999143
vt 0.7962083 0.89858985
vt 0.5407517 0.9068907
vt 0.7807969 0.86626047
vt 0.54391533 0.9451406
vt 0.3027704 0.9100543
vt 0.29948625 0.9440409
vt 0.078166775 0.86811346
vt 0.064246744 0.896993
vt 0.5407517 0.9068907
vt 0.77492154 0.8329066
vt 0.7807969 0.86626047
vt 0.5378592 0.8746215
vt 0.3027704 0.9100543
vt 0.3053917 0.8772277
vt 0.078166775 0.86811346
vt 0.08336419 0.8389778
vt 0.7962083 0.89858985
vt 0.80274653 0.93450475
vt 0.546401 0.97930795
vt 0.54391533 0.9451406
vt 0.29638284 0.9755719
vt 0.29948625 0.9440409
vt 0.057678416 0.9305577
vt 0.064246744 0.896993
vt 0.64539295 0.8009086
vt 0.48674378 0.80577457
vt 0.6358719 0.780827
vt 0.4887173 0.829517
vt 0.33900166 0.80810964
vt 0.33698294 0.8292157
vt 0.19957535 0.781987
vt 0.19091299 0.7999143
vt 0.48674378 0.80577457
vt 0.63071966 0.7516311
vt 0.6358719 0.780827
vt 0.48427314 0.7774374
vt 0.33900166 0.80810964
vt 0.34120113 0.7792452
vt 0.19957535 0.781987
vt 0.20404965 0.75639164
vt 0.64539295 0.8009086
vt 0.65105736 0.8325601
vt 0.49075106 0.8595716
vt 0.4887173 0.829517
vt 0.33430138 0.85696536
vt 0.33698294 0.8292157
vt 0.18517324 0.82947177
vt 0.19091299 0.7999143
vt 0.20930733 0.61925524
vt 0.53439426 0.61925524
vt 0.20246783 0.5500618
vt 0.20246783 0.5500618
vt 0.16037631 0.43374524
vt 0.20246783 0.5500618
vt 0.53439426 0.61925524
vt 0.20246783 0.5500618
vt 0.20930733 0.61925524
vt 0.20246783 0.5500618
vt 0.53439426 0.61925524
vt 0.20246783 0.5500618
vt 0.16037631 0.43374524
vt 0.53439426 0.61925524
vt 0.20246783 0.5500618
vt 0.20246783 0.5500618
vt 0.63671553 0.66577584
vt 0.7586363 0.6045518
vt 0.64251554 0.6045518
vt 0.64251554 0.6045518
vt 0.63671553 0.5433127
vt 0.64251554 0.6045518
vt 0.7586363 0.6045518
vt 0.64251554 0.6045518
vn -0.44868016 -0.63245326 0.6314183
vn -0.44868016 -0.63245326 0.6314183
vn -0.44868016 -0.63245326 0.6314183
vn -0.44868016 -0.63245326 -0.6314183
vn -0.44868016 -0.63245326 -0.6314183
vn -0.44868016 -0.63245326 -0.6314183
vn 0.44868016 -0.63245326 0.6314183
vn 0.44868016 -0.63245326 0.6314183
vn 0.44868016 -0.63245326 0.6314183
vn 0.44868016 -0.63245326 -0.6314183
vn 0.44868016 -0.63245326 -0.6314183
vn 0.44868016 -0.63245326 -0.6314183
vn -0.44868016 0.6324533 0.6314182
vn -0.44868016 0.6324533 0.6314182
vn -0.44868016 0.6324533 0.6314182
vn -0.44868016 0.6324533 -0.6314182
vn -0.44868016 0.6324533 -0.6314182
vn -0.44868016 0.6324533 -0.6314182
vn 0.44868016 0.6324533 0.6314182
vn 0.44868016 0.6324533 0.6314182
vn 0.44868016 0.6324533 0.6314182
vn 0.44868016 0.6324533 -0.6314182
vn 0.44868016 0.6324533 -0.6314182
vn 0.44868016 0.6324533 -0.6314182
vn 0.63245326 -0.63245326 0.44722006
vn 0.63245326 -0.63245326 0.44722006
vn 0.63245326 -0.63245326 0.44722006
vn -0.6324533 -0.63245326 0.4472199
vn -0.6324533 -0.63245326 0.4472199
vn -0.6324533 -0.63245326 0.4472199
vn 0.63245326 0.6324533 0.44721994
vn 0.63245326 0.6324533 0.44721994
vn 0.63245326 0.6324533 0.44721994
vn -0.6324533 0.6324533 0.44721982
vn -0.6324533 0.6324533 0.44721982
vn -0.6324533 0.6324533 0.44721982
vn -0.047898293 -0.27859223 0.9592143
vn -0.047898293 -0.28054726 0.9586444
vn 0.0009775162 0.0009775162 0.99999905
vn 0.0009775162 0.0009775162 0.99999905
vn -0.2160312 -0.22776139 0.94945
vn -0.17106545 -0.18084055 0.96852124
vn 0.0009775162 -0.0009775162 0.99999905
vn 0.0009775162 -0.0009775162 0.99999905
vn -0.0009775162 0.0009775162 0.99999905
vn -0.28641236 -0.08895403 0.9539681
vn -0.2531768 -0.07722384 0.96433294
vn -0.0009775162 0.0009775162 0.99999905
vn 0.22971642 -0.9726291 0.034971815
vn 0.01661549 -0.99986196 -0
vn -0.041996133 -0.9991178 -0
vn 0.22385132 -0.9745841 -0.008741462
vn 0.32355803 -0.9433036 0.074084915
vn 0.3389962 -0.9407877 -0
vn 0.4816562 -0.87636024 -0
vn 0.51507056 -0.8571478 -0
vn 0.6598238 -0.74975526 0.0499964
vn 0.6555254 -0.755173 -0
vn 0.7595304 -0.6422284 0.10322876
vn 0.77908075 -0.62658817 0.020505633
vn 0.87292236 -0.4877808 0.008741462
vn 0.8846424 -0.46627012 -0
vn 0.9508112 -0.30977094 -0
vn 0.94690967 -0.3214998 -0
vn 0.97653913 -0.20821106 0.054949913
vn 0.9797454 -0.2002471 -0
vn 0.9991178 -0.041996133 -0
vn 0.99986196 0.01661549 -0
vn -0.97653913 0.21212113 -0.037094012
vn -0.9998275 -0.018569613 -0
vn -0.9980445 0.040078163 0.047968164
vn -0.97849417 0.20234597 0.04006622
vn -0.9508112 0.30977094 -0
vn -0.94690967 0.32149974 -0
vn -0.87081754 0.49160635 -0
vn -0.88383543 0.46779796 -0
vn -0.76148546 0.6441835 -0.07188542
vn -0.77908075 0.6265881 -0.020507086
vn -0.6656889 0.7458452 -0.02394197
vn -0.65968 0.7515465 -0
vn -0.48387074 0.87487733 0.021417689
vn -0.5171063 0.855327 -0.0318863
vn -0.32734546 0.9449048 -0
vn -0.34115326 0.9393935 0.033974167
vn -0.23355773 0.97234285 -0
vn -0.22756924 0.9737619 -0
vn 0.040078163 0.9980445 0.047967885
vn -0.018569613 0.9998275 -0
vn 0.9508112 -0.30977094 -0
vn 0.98240423 -0.18279558 0.038310878
vn 0.97653913 -0.20821106 0.054949913
vn 0.9991178 -0.041996133 -0
vn -0.0009775162 0.9999995 -0
vn -0.0009775162 0.9999995 -0
vn -0.0009775162 0.9999995 -0
vn -0.0009775162 0.9999995 -0
vn -0.9980445 0.040078163 0.047968164
vn -0.98240423 0.18475068 0.02737037
vn -0.97653913 0.21212113 -0.037094012
vn -0.9508112 0.30977094 -0
vn -0.047898293 -0.27859223 0.9592143
vn -0.09286404 -0.53861165 0.83742094
vn -0.09286404 -0.53861165 0.83742094
vn -0.047898293 -0.28054726 0.9586444
vn 0.7595304 -0.6422284 0.10322876
vn 0.7888559 -0.5992177 0.1365448
vn 0.87292236 -0.4877808 0.008741462
vn 0.6598238 -0.74975526 0.0499964
vn 0.45454526 0.8905177 -0.019152205
vn 0.45454526 0.8905177 -0.019152205
vn 0.45454526 0.8905177 -0.019152205
vn 0.45454526 0.8905177 -0.019152205
vn -0.87081754 0.49160635 -0
vn -0.792766 0.60508275 -0.07346422
vn -0.76148546 0.6441835 -0.07188542
vn -0.6656889 0.7458452 -0.02394197
vn -0.2160312 -0.22776139 0.94945
vn -0.3743888 -0.39784926 0.83758515
vn -0.3743888 -0.39784926 0.83758515
vn -0.17106545 -0.18084055 0.96852124
vn 0.32355803 -0.9433036 0.074084915
vn 0.35483855 -0.92961836 0.099495314
vn 0.4816562 -0.87636024 -0
vn 0.22971642 -0.9726291 0.034971815
vn 0.89051765 0.45454526 0.019155318
vn 0.89051765 0.45454526 0.019155318
vn 0.89051765 0.45454526 0.019155318
vn 0.89051765 0.45454526 0.019155318
vn -0.48387074 0.87487733 0.021417689
vn -0.3548385 0.9335284 -0.051130414
vn -0.32734546 0.9449048 -0
vn -0.23355773 0.97234285 -0
vn -0.28641236 -0.08895403 0.9539681
vn -0.52101636 -0.16129023 0.8381691
vn -0.52101636 -0.16129023 0.8381691
vn -0.2531768 -0.07722384 0.96433294
vn -0.27859223 0.047898293 0.9592143
vn -0.28054726 0.047898293 0.9586444
vn -0.0009775162 -0.0009775162 0.99999905
vn -0.0009775162 -0.0009775162 0.99999905
vn -0.22776139 0.2160312 0.94945
vn -0.18084061 0.17106545 0.9685212
vn -0.0009775162 -0.0009775162 0.99999905
vn -0.0009775162 -0.0009775162 0.99999905
vn -0.0009775162 0.0009775162 0.99999905
vn -0.08895397 0.28641236 0.9539681
vn -0.07722378 0.2531768 0.96433294
vn -0.0009775162 0.0009775162 0.99999905
vn -0.9726291 -0.22971642 0.034972187
vn -0.99986196 -0.01661549 -0
vn -0.9991178 0.041996133 -0
vn -0.9745841 -0.22385132 -0.008739757
vn -0.9433036 -0.32355803 0.074084766
vn -0.9407877 -0.3389962 -0
vn -0.8763603 -0.48165625 -0
vn -0.85714775 -0.51507056 -0
vn -0.74975526 -0.6598238 0.0499964
vn -0.755173 -0.6555254 -0
vn -0.6422285 -0.7595304 0.10322819
vn -0.6265881 -0.77908075 0.02050636
vn -0.4877808 -0.87292236 0.008741462
vn -0.46627012 -0.8846424 -0
vn -0.30977094 -0.9508112 -0
vn -0.32149974 -0.94690967 -0
vn -0.20821106 -0.97653913 0.054950085
vn -0.2002471 -0.9797454 -0
vn -0.041996133 -0.9991178 -0
vn 0.01661549 -0.99986196 -0
vn 0.21212113 0.97653913 -0.037094112
vn -0.018569613 0.9998275 -0
vn 0.040078163 0.9980445 0.047967885
vn 0.20234597 0.97849417 0.040066592
vn 0.30977094 0.9508112 -0
vn 0.3214998 0.94690967 -0
vn 0.49160635 0.87081754 -0
vn 0.46779796 0.88383543 -0
vn 0.64418346 0.76148546 -0.07188605
vn 0.62658817 0.77908075 -0.02050636
vn 0.7458452 0.6656889 -0.023942592
vn 0.7515465 0.65968 -0
vn 0.8748774 0.48387074 0.021415252
vn 0.85532707 0.5171063 -0.031885833
vn 0.9449048 0.32734546 -0
vn 0.9393935 0.34115326 0.033974603
vn 0.97234285 0.23355773 -0
vn 0.9737619 0.22756924 -0
vn 0.9980445 -0.040078163 0.047968164
vn 0.9998275 0.018569613 -0
vn -0.30977094 -0.9508112 -0
vn -0.18279564 -0.98240423 0.038310636
vn -0.20821106 -0.97653913 0.054950085
vn -0.041996133 -0.9991178 -0
vn 0.9999995 0.0009775162 -0
vn 0.9999995 0.0009775162 -0
vn 0.9999995 0.0009775162 -0
vn 0.9999995 0.0009775162 -0
vn 0.040078163 0.9980445 0.047967885
vn 0.18475062 0.98240423 0.027370984
vn 0.21212113 0.97653913 -0.037094112
vn 0.30977094 0.9508112 -0
vn -0.27859223 0.047898293 0.9592143
vn -0.53861165 0.09286404 0.83742094
vn -0.53861165 0.09286404 0.83742094
vn -0.28054726 0.047898293 0.9586444
vn -0.6422285 -0.7595304 0.10322819
vn -0.59921765 -0.7888559 0.13654491
vn -0.4877808 -0.87292236 0.008741462
vn -0.74975526 -0.6598238 0.0499964
vn 0.89051765 -0.45454526 -0.019155318
vn 0.89051765 -0.45454526 -0.019155318
vn 0.89051765 -0.45454526 -0.019155318
vn 0.89051765 -0.45454526 -0.019155318
vn 0.49160635 0.87081754 -0
vn 0.6050828 0.792766 -0.07346361
vn 0.64418346 0.76148546 -0.07188605
vn 0.7458452 0.6656889 -0.023942592
vn -0.22776139 0.2160312 0.94945
vn -0.39784932 0.3743888 0.83758515
vn -0.39784932 0.3743888 0.83758515
vn -0.18084061 0.17106545 0.9685212
vn -0.9433036 -0.32355803 0.074084766
vn -0.92961836 -0.35483855 0.099495314
vn -0.8763603 -0.48165625 -0
vn -0.9726291 -0.22971642 0.034972187
vn 0.45454526 -0.89051765 0.019155318
vn 0.45454526 -0.89051765 0.019155318
vn 0.45454526 -0.89051765 0.019155318
vn 0.45454526 -0.89051765 0.019155318
vn 0.8748774 0.48387074 0.021415252
vn 0.9335284 0.3548385 -0.05113027
vn 0.9449048 0.32734546 -0
vn 0.97234285 0.23355773 -0
vn -0.08895397 0.28641236 0.9539681
vn -0.16129029 0.52101636 0.8381691
vn -0.16129029 0.52101636 0.8381691
vn -0.07722378 0.2531768 0.96433294
vn 0.047898293 0.27859223 0.9592143
vn 0.047898293 0.28054726 0.9586444
vn -0.0009775162 0.0009775162 0.99999905
vn -0.0009775162 0.0009775162 0.99999905
vn 0.2160312 0.22776139 0.94945
vn 0.17106539 0.18084061 0.9685212
vn -0.0009775162 0.0009775162 0.99999905
vn -0.0009775162 0.0009775162 0.99999905
vn -0.0009775162 0.0009775162 0.99999905
vn 0.28641236 0.08895397 0.9539681
vn 0.2531768 0.07722378 0.96433294
vn -0.0009775162 0.0009775162 0.99999905
vn -0.22971642 0.9726291 0.034971815
vn -0.01661549 0.99986196 -0
vn 0.041996133 0.9991178 -0
vn -0.22385132 0.9745841 -0.008741462
vn -0.32355797 0.9433036 0.074084915
vn -0.33899614 0.9407877 -0
vn -0.48165625 0.8763603 -0
vn -0.51507056 0.85714775 -0
vn -0.6598238 0.74975526 0.0499964
vn -0.6555254 0.755173 -0
vn -0.7595304 0.6422285 0.10322833
vn -0.77908075 0.6265881 0.020507086
vn -0.8729223 0.4877808 0.008748278
vn -0.8846425 0.46627012 -0
vn -0.9508112 0.30977094 -0
vn -0.94690967 0.32149974 -0
vn -0.97653913 0.20821106 0.054949913
vn -0.9797454 0.2002471 -0
vn -0.9991178 0.041996133 -0
vn -0.99986196 -0.01661549 -0
vn 0.97653913 -0.21212113 -0.037094012
vn 0.9998275 0.018569613 -0
vn 0.9980445 -0.040078163 0.047968164
vn 0.97849417 -0.20234597 0.04006622
vn 0.9508112 -0.30977094 -0
vn 0.94690967 -0.3214998 -0
vn 0.8708175 -0.4916063 -0
vn 0.88383543 -0.46779802 -0
vn 0.76148546 -0.64418346 -0.07188584
vn 0.77908075 -0.62658817 -0.020505633
vn 0.6656889 -0.7458452 -0.02394197
vn 0.65968 -0.7515465 -0
vn 0.48387074 -0.8748774 0.021414904
vn 0.5171063 -0.85532707 -0.031885363
vn 0.3273455 -0.9449047 -0
vn 0.34115332 -0.9393935 0.033974167
vn 0.23355773 -0.97234285 -0
vn 0.22756924 -0.9737619 -0
vn -0.040078163 -0.9980445 0.047967885
vn 0.018569613 -0.9998275 -0
vn -0.9508112 0.30977094 -0
vn -0.98240423 0.18279564 0.038310587
vn -0.97653913 0.20821106 0.054949913
vn -0.9991178 0.041996133 -0
vn 0.0009775162 -0.9999995 -0
vn 0.0009775162 -0.9999995 -0
vn 0.0009775162 -0.9999995 -0
vn 0.0009775162 -0.9999995 -0
vn 0.9980445 -0.040078163 0.047968164
vn 0.98240423 -0.18475062 0.02737078
vn 0.97653913 -0.21212113 -0.037094012
vn 0.9508112 -0.30977094 -0
vn 0.047898293 0.27859223 0.9592143
vn 0.092864096 0.53861165 0.83742094
vn 0.092864096 0.53861165 0.83742094
vn 0.047898293 0.28054726 0.9586444
vn -0.7595304 0.6422285 0.10322833
vn -0.7888559 0.59921765 0.13654502
vn -0.8729223 0.4877808 0.008748278
vn -0.6598238 0.74975526 0.0499964
vn -0.45454526 -0.89051765 -0.019155318
vn -0.45454526 -0.89051765 -0.019155318
vn -0.45454526 -0.89051765 -0.019155318
vn -0.45454526 -0.89051765 -0.019155318
vn 0.8708175 -0.4916063 -0
vn 0.792766 -0.6050828 -0.07346382
vn 0.76148546 -0.64418346 -0.07188584
vn 0.6656889 -0.7458452 -0.02394197
vn 0.2160312 0.22776139 0.94945
vn 0.37438887 0.39784932 0.83758515
vn 0.37438887 0.39784932 0.83758515
vn 0.17106539 0.18084061 0.9685212
vn -0.32355797 0.9433036 0.074084915
vn -0.3548385 0.92961836 0.09949562
vn -0.48165625 0.8763603 -0
vn -0.22971642 0.9726291 0.034971815
vn -0.8905177 -0.45454526 0.019152205
vn -0.8905177 -0.45454526 0.019152205
vn -0.8905177 -0.45454526 0.019152205
vn -0.8905177 -0.45454526 0.019152205
vn 0.48387074 -0.8748774 0.021414904
vn 0.35483855 -0.9335284 -0.051129833
vn 0.3273455 -0.9449047 -0
vn 0.23355773 -0.97234285 -0
vn 0.28641236 0.08895397 0.9539681
vn 0.52101636 0.16129029 0.8381691
vn 0.52101636 0.16129029 0.8381691
vn 0.2531768 0.07722378 0.96433294
vn 0.27859223 -0.047898293 0.9592143
vn 0.28054726 -0.047898293 0.9586444
vn -0.0009775162 0.0009775162 0.99999905
vn -0.0009775162 0.0009775162 0.99999905
vn 0.22776139 -0.2160312 0.94945
vn 0.18084055 -0.17106539 0.96852124
vn 0.0009775162 0.0009775162 0.99999905
vn 0.0009775162 0.0009775162 0.99999905
vn -0.0009775162 0.0009775162 0.99999905
vn 0.08895403 -0.28641236 0.9539681
vn 0.07722384 -0.2531768 0.96433294
vn -0.0009775162 0.0009775162 0.99999905
vn 0.9726291 0.22971642 0.034972187
vn 0.99986196 0.01661549 -0
vn 0.9991178 -0.041996133 -0
vn 0.9745841 0.22385132 -0.008739757
vn 0.9433036 0.32355797 0.07408501
vn 0.9407877 0.33899614 -0
vn 0.87636024 0.4816562 -0
vn 0.8571478 0.51507056 -0
vn 0.74975526 0.6598238 0.0499964
vn 0.755173 0.6555254 -0
vn 0.6422284 0.7595304 0.10322876
vn 0.62658817 0.77908075 0.02050636
vn 0.4877808 0.8729223 0.008748278
vn 0.46627012 0.8846425 -0
vn 0.30977094 0.9508112 -0
vn 0.3214998 0.94690967 -0
vn 0.20821106 0.97653913 0.054950085
vn 0.2002471 0.9797454 -0
vn 0.041996133 0.9991178 -0
vn -0.01661549 0.99986196 -0
vn -0.21212113 -0.97653913 -0.037094112
vn 0.018569613 -0.9998275 -0
vn -0.040078163 -0.9980445 0.047967885
vn -0.20234597 -0.97849417 0.040066592
vn -0.30977094 -0.9508112 -0
vn -0.32149974 -0.94690967 -0
vn -0.4916063 -0.8708175 -0
vn -0.46779802 -0.88383543 -0
vn -0.6441835 -0.76148546 -0.07188521
vn -0.6265881 -0.77908075 -0.02050636
vn -0.7458452 -0.6656889 -0.023942592
vn -0.7515465 -0.65968 -0
vn -0.87487733 -0.48387074 0.021418035
vn -0.855327 -0.5171063 -0.031886768
vn -0.9449047 -0.3273455 -0
vn -0.9393935 -0.34115332 0.033974055
vn -0.97234285 -0.23355773 -0
vn -0.9737619 -0.22756924 -0
vn -0.9980445 0.040078163 0.047968164
vn -0.9998275 -0.018569613 -0
vn 0.30977094 0.9508112 -0
vn 0.18279558 0.98240423 0.038310636
vn 0.20821106 0.97653913 0.054950085
vn 0.041996133 0.9991178 -0
vn -0.9999995 -0.0009775162 -0
vn -0.9999995 -0.0009775162 -0
vn -0.9999995 -0.0009775162 -0
vn -0.9999995 -0.0009775162 -0
vn -0.040078163 -0.9980445 0.047967885
vn -0.18475068 -0.98240423 0.027369896
vn -0.21212113 -0.97653913 -0.037094112
vn -0.30977094 -0.9508112 -0
vn 0.27859223 -0.047898293 0.9592143
vn 0.53861165 -0.092864096 0.83742094
vn 0.53861165 -0.092864096 0.83742094
vn 0.28054726 -0.047898293 0.9586444
vn 0.6422284 0.7595304 0.10322876
vn 0.5992177 0.7888559 0.13654491
vn 0.4877808 0.8729223 0.008748278
vn 0.74975526 0.6598238 0.0499964
vn -0.8905177 0.45454526 -0.019152205
vn -0.8905177 0.45454526 -0.019152205
vn -0.8905177 0.45454526 -0.019152205
vn -0.8905177 0.45454526 -0.019152205
vn -0.4916063 -0.8708175 -0
vn -0.60508275 -0.792766 -0.07346442
vn -0.6441835 -0.76148546 -0.07188521
vn -0.7458452 -0.6656889 -0.023942592
vn 0.22776139 -0.2160312 0.94945
vn 0.39784926 -0.37438887 0.83758515
vn 0.39784926 -0.37438887 0.83758515
vn 0.18084055 -0.17106539 0.96852124
vn 0.9433036 0.32355797 0.07408501
vn 0.92961836 0.3548385 0.099495545
vn 0.87636024 0.4816562 -0
vn 0.9726291 0.22971642 0.034972187
vn -0.45454526 0.8905177 0.019152205
vn -0.45454526 0.8905177 0.019152205
vn -0.45454526 0.8905177 0.019152205
vn -0.45454526 0.8905177 0.019152205
vn -0.87487733 -0.48387074 0.021418035
vn -0.9335284 -0.35483855 -0.051129833
vn -0.9449047 -0.3273455 -0
vn -0.97234285 -0.23355773 -0
vn 0.08895403 -0.28641236 0.9539681
vn 0.16129023 -0.52101636 0.8381691
vn 0.16129023 -0.52101636 0.8381691
vn 0.07722384 -0.2531768 0.96433294
vn -0.0009775162 0.0009775162 0.99999905
vn -0.0009775162 0.0009775162 0.99999905
vn -0.0009775162 0.0009775162 0.99999905
vn -0.0009775162 0.0009775162 0.99999905
vn -0.0009775162 0.0009775162 0.99999905
vn -0.0009775162 0.0009775162 0.99999905
vn -0.0009775162 0.0009775162 0.99999905
vn -0.0009775162 0.0009775162 0.99999905
vn -0.8664945 0.4991868 -0
vn -0.9999995 0.0009775162 -0
vn -0.9999995 0.0009775162 -0
vn -0.8664945 0.4991868 -0
vn -0.4991868 0.8664945 -0
vn -0.4991868 0.8664945 -0
vn 0.0009775162 0.9999995 -0
vn 0.0009775162 0.9999995 -0
vn 0.9999995 -0.0009775162 -0
vn 0.9999995 -0.0009775162 -0
vn 0.86705726 -0.49755597 0.025489906
vn 0.86705726 -0.49755597 0.025489906
vn 0.49755597 -0.86705726 0.025490198
vn 0.49755597 -0.86705726 0.025490198
vn -0.0009775162 -0.9999995 -0
vn -0.0009775162 -0.9999995 -0
vn -0.0009775162 0.0009775162 0.99999905
vn -0.0009775162 0.0009775162 0.99999905
vn -0.0009775162 0.0009775162 0.99999905
vn -0.0009775162 0.0009775162 0.99999905
vn -0.0009775162 0.0009775162 0.99999905
vn -0.0009775162 0.0009775162 0.99999905
vn -0.0009775162 0.0009775162 0.99999905
vn -0.0009775162 0.0009775162 0.99999905
vn -0.8664945 0.4991868 -0
vn -0.9999995 0.0009775162 -0
vn -0.9999995 0.0009775162 -0
vn -0.8664945 0.4991868 -0
vn -0.4991868 0.8664945 -0
vn -0.4991868 0.8664945 -0
vn 0.0009775162 0.9999995 -0
vn 0.0009775162 0.9999995 -0
vn 0.9999995 -0.0009775162 -0
vn 0.9999995 -0.0009775162 -0
vn 0.86705726 -0.49755597 0.025489906
vn 0.86705726 -0.49755597 0.025489906
vn 0.49755597 -0.86705726 0.025490198
vn 0.49755597 -0.86705726 0.025490198
vn -0.0009775162 -0.9999995 -0
vn -0.0009775162 -0.9999995 -0
vn -0.0009775162 0.0009775162 0.99999905
vn -0.0009775162 0.0009775162 0.99999905
vn -0.0009775162 0.0009775162 0.99999905
vn -0.0009775162 0.0009775162 0.99999905
vn -0.0009775162 0.0009775162 0.99999905
vn -0.0009775162 0.0009775162 0.99999905
vn -0.0009775162 0.0009775162 0.99999905
vn -0.0009775162 0.0009775162 0.99999905
vn 0.4991868 0.8664945 -0
vn 0.0009775162 0.9999995 -0
vn 0.0009775162 0.9999995 -0
vn 0.4991868 0.8664945 -0
vn 0.8664944 0.49918675 -0
vn 0.8664944 0.49918675 -0
vn 0.9999995 -0.0009775162 -0
vn 0.9999995 -0.0009775162 -0
vn -0.0009775162 -0.9999995 -0
vn -0.0009775162 -0.9999995 -0
vn -0.49755597 -0.86705726 0.025490198
vn -0.49755597 -0.86705726 0.025490198
vn -0.8670572 -0.49755597 0.025492245
vn -0.8670572 -0.49755597 0.025492245
vn -0.9999995 0.0009775162 -0
vn -0.9999995 0.0009775162 -0
vn -0.0009775162 0.0009775162 0.99999905
vn -0.0009775162 0.0009775162 0.99999905
vn -0.0009775162 0.0009775162 0.99999905
vn -0.0009775162 0.0009775162 0.99999905
vn -0.0009775162 0.0009775162 0.99999905
vn -0.0009775162 0.0009775162 0.99999905
vn -0.0009775162 0.0009775162 0.99999905
vn -0.0009775162 0.0009775162 0.99999905
vn 0.4991868 0.8664945 -0
vn 0.0009775162 0.9999995 -0
vn 0.0009775162 0.9999995 -0
vn 0.4991868 0.8664945 -0
vn 0.8664944 0.49918675 -0
vn 0.8664944 0.49918675 -0
vn 0.9999995 -0.0009775162 -0
vn 0.9999995 -0.0009775162 -0
vn -0.0009775162 -0.9999995 -0
vn -0.0009775162 -0.9999995 -0
vn -0.49755597 -0.86705726 0.025490198
vn -0.49755597 -0.86705726 0.025490198
vn -0.8670572 -0.49755597 0.025492245
vn -0.8670572 -0.49755597 0.025492245
vn -0.9999995 0.0009775162 -0
vn -0.9999995 0.0009775162 -0
vn -0.0009775162 0.0009775162 0.99999905
vn -0.0009775162 0.0009775162 0.99999905
vn -0.0009775162 0.0009775162 0.99999905
vn -0.0009775162 0.0009775162 0.99999905
vn -0.0009775162 0.0009775162 0.99999905
vn -0.0009775162 0.0009775162 0.99999905
vn -0.0009775162 0.0009775162 0.99999905
vn -0.0009775162 0.0009775162 0.99999905
vn 0.8664944 -0.49918675 -0
vn 0.9999995 -0.0009775162 -0
vn 0.9999995 -0.0009775162 -0
vn 0.8664944 -0.49918675 -0
vn 0.49918675 -0.8664944 -0
vn 0.49918675 -0.8664944 -0
vn -0.0009775162 -0.9999995 -0
vn -0.0009775162 -0.9999995 -0
vn -0.9999995 0.0009775162 -0
vn -0.9999995 0.0009775162 -0
vn -0.8670572 0.49755597 0.025492245
vn -0.8670572 0.49755597 0.025492245
vn -0.49755597 0.8670572 -0.025492538
vn -0.49755597 0.8670572 -0.025492538
vn 0.0009775162 0.9999995 -0
vn 0.0009775162 0.9999995 -0
vn -0.0009775162 0.0009775162 0.99999905
vn -0.0009775162 0.0009775162 0.99999905
vn -0.0009775162 0.0009775162 0.99999905
vn -0.0009775162 0.0009775162 0.99999905
vn -0.0009775162 0.0009775162 0.99999905
vn -0.0009775162 0.0009775162 0.99999905
vn -0.0009775162 0.0009775162 0.99999905
vn -0.0009775162 0.0009775162 0.99999905
vn 0.8664944 -0.49918675 -0
vn 0.9999995 -0.0009775162 -0
vn 0.9999995 -0.0009775162 -0
vn 0.8664944 -0.49918675 -0
vn 0.49918675 -0.8664944 -0
vn 0.49918675 -0.8664944 -0
vn -0.0009775162 -0.9999995 -0
vn -0.0009775162 -0.9999995 -0
vn -0.9999995 0.0009775162 -0
vn -0.9999995 0.0009775162 -0
vn -0.8670572 0.49755597 0.025492245
vn -0.8670572 0.49755597 0.025492245
vn -0.49755597 0.8670572 0.025492538
vn -0.49755597 0.8670572 0.025492538
vn 0.0009775162 0.9999995 -0
vn 0.0009775162 0.9999995 -0
vn -0.0009775162 0.0009775162 0.99999905
vn -0.0009775162 0.0009775162 0.99999905
vn -0.0009775162 0.0009775162 0.99999905
vn -0.0009775162 0.0009775162 0.99999905
vn -0.0009775162 0.0009775162 0.99999905
vn -0.0009775162 0.0009775162 0.99999905
vn -0.0009775162 0.0009775162 0.99999905
vn -0.0009775162 0.0009775162 0.99999905
vn -0.49918675 -0.8664944 -0
vn -0.0009775162 -0.9999995 -0
vn -0.0009775162 -0.9999995 -0
vn -0.49918675 -0.8664944 -0
vn -0.8664945 -0.4991868 -0
vn -0.8664945 -0.4991868 -0
vn -0.9999995 0.0009775162 -0
vn -0.9999995 0.0009775162 -0
vn 0.0009775162 0.9999995 -0
vn 0.0009775162 0.9999995 -0
vn 0.49755597 0.8670572 -0.025492538
vn 0.49755597 0.8670572 -0.025492538
vn 0.86705726 0.49755597 0.025489906
vn 0.86705726 0.49755597 0.025489906
vn 0.9999995 -0.0009775162 -0
vn 0.9999995 -0.0009775162 -0
vn -0.0009775162 0.0009775162 0.99999905
vn -0.0009775162 0.0009775162 0.99999905
vn -0.0009775162 0.0009775162 0.99999905
vn -0.0009775162 0.0009775162 0.99999905
vn -0.0009775162 0.0009775162 0.99999905
vn -0.0009775162 0.0009775162 0.99999905
vn -0.0009775162 0.0009775162 0.99999905
vn -0.0009775162 0.0009775162 0.99999905
vn -0.49918675 -0.8664944 -0
vn -0.0009775162 -0.9999995 -0
vn -0.0009775162 -0.9999995 -0
vn -0.49918675 -0.8664944 -0
vn -0.8664945 -0.4991868 -0
vn -0.8664945 -0.4991868 -0
vn -0.9999995 0.0009775162 -0
vn -0.9999995 0.0009775162 -0
vn 0.0009775162 0.9999995 -0
vn 0.0009775162 0.9999995 -0
vn 0.49755597 0.8670572 0.025492538
vn 0.49755597 0.8670572 0.025492538
vn 0.86705726 0.49755597 0.025489906
vn 0.86705726 0.49755597 0.025489906
vn 0.9999995 -0.0009775162 -0
vn 0.9999995 -0.0009775162 -0
vn 0.18866074 0.0009775162 0.98204184
vn 0.18866074 0.0009775162 0.98204184
vn 0.13391978 -0.70087945 0.7005951
vn 0.13391978 0.70087945 0.7005951
vn 0.18866074 0.0009775162 -0.98204184
vn 0.13391978 -0.70087945 -0.7005951
vn 0.18866074 0.0009775162 -0.98204184
vn 0.13391978 0.70087945 -0.7005951
vn -0.18866074 0.0009775162 0.98204184
vn -0.13391984 -0.70087945 0.7005951
vn -0.18866074 0.0009775162 0.98204184
vn -0.13391984 0.70087945 0.7005951
vn -0.18866074 0.0009775162 -0.98204184
vn -0.18866074 0.0009775162 -0.98204184
vn -0.13391984 -0.70087945 -0.7005951
vn -0.13391984 0.70087945 -0.7005951
vn 0.9335284 -0.0009775162 -0.35850203
vn 0.9335284 -0.0009775162 -0.35850203
vn 0.68328416 -0.68328416 -0.25738207
vn 0.68328416 0.68328416 -0.25738207
vn -0.9335284 -0.0009775162 -0.35850203
vn -0.68328416 -0.68328416 -0.25738207
vn -0.9335284 -0.0009775162 -0.35850203
vn -0.68328416 0.68328416 -0.25738207
g Hina_Original_Halo_0
f 3/3/3 2/2/2 1/1/1
f 6/6/6 5/5/5 4/4/4
f 9/9/9 8/8/8 7/7/7
f 12/12/12 11/11/11 10/10/10
f 15/15/15 14/14/14 13/13/13
f 18/18/18 17/17/17 16/16/16
f 21/21/21 20/20/20 19/19/19
f 24/24/24 23/23/23 22/22/22
f 27/27/27 26/26/26 25/25/25
f 30/30/30 29/29/29 28/28/28
f 33/33/33 32/32/32 31/31/31
f 36/36/36 35/35/35 34/34/34
f 39/39/39 38/38/38 37/37/37
f 40/40/40 39/39/39 37/37/37
f 43/43/43 42/42/42 41/41/41
f 44/44/44 43/43/43 41/41/41
f 47/47/47 46/46/46 45/45/45
f 48/48/48 47/47/47 45/45/45
f 51/51/51 50/50/50 49/49/49
f 50/50/50 52/52/52 49/49/49
f 49/49/49 52/52/52 53/53/53
f 52/52/52 54/54/54 53/53/53
f 53/53/53 54/54/54 55/55/55
f 54/54/54 56/56/56 55/55/55
f 55/55/55 56/56/56 57/57/57
f 56/56/56 58/58/58 57/57/57
f 57/57/57 58/58/58 59/59/59
f 58/58/58 60/60/60 59/59/59
f 59/59/59 60/60/60 61/61/61
f 60/60/60 62/62/62 61/61/61
f 61/61/61 62/62/62 63/63/63
f 62/62/62 64/64/64 63/63/63
f 63/63/63 64/64/64 65/65/65
f 64/64/64 66/66/66 65/65/65
f 65/65/65 66/66/66 67/67/67
f 66/66/66 68/68/68 67/67/67
f 71/71/71 70/70/70 69/69/69
f 70/70/70 72/72/72 69/69/69
f 69/69/69 72/72/72 73/73/73
f 72/72/72 74/74/74 73/73/73
f 73/73/73 74/74/74 75/75/75
f 74/74/74 76/76/76 75/75/75
f 75/75/75 76/76/76 77/77/77
f 76/76/76 78/78/78 77/77/77
f 77/77/77 78/78/78 79/79/79
f 78/78/78 80/80/80 79/79/79
f 79/79/79 80/80/80 81/81/81
f 80/80/80 82/82/82 81/81/81
f 81/81/81 82/82/82 83/83/83
f 82/82/82 84/84/84 83/83/83
f 83/83/83 84/84/84 85/85/85
f 84/84/84 86/86/86 85/85/85
f 85/85/85 86/86/86 87/87/87
f 86/86/86 88/88/88 87/87/87
f 91/91/91 90/90/90 89/89/89
f 92/92/92 90/90/90 91/91/91
f 95/95/95 94/94/94 93/93/93
f 96/96/96 95/95/95 93/93/93
f 99/99/99 98/98/98 97/97/97
f 100/100/100 98/98/98 99/99/99
f 103/103/103 102/102/102 101/101/101
f 104/104/104 103/103/103 101/101/101
f 107/107/107 106/106/106 105/105/105
f 105/105/105 106/106/106 108/108/108
f 111/111/111 110/110/110 109/109/109
f 112/112/112 111/111/111 109/109/109
f 115/115/115 114/114/114 113/113/113
f 116/116/116 114/114/114 115/115/115
f 119/119/119 118/118/118 117/117/117
f 120/120/120 119/119/119 117/117/117
f 123/123/123 122/122/122 121/121/121
f 121/121/121 122/122/122 124/124/124
f 127/127/127 126/126/126 125/125/125
f 128/128/128 127/127/127 125/125/125
f 131/131/131 130/130/130 129/129/129
f 132/132/132 130/130/130 131/131/131
f 135/135/135 134/134/134 133/133/133
f 136/136/136 135/135/135 133/133/133
f 139/139/139 138/138/138 137/137/137
f 140/140/140 139/139/139 137/137/137
f 143/143/143 142/142/142 141/141/141
f 144/144/144 143/143/143 141/141/141
f 147/147/147 146/146/146 145/145/145
f 148/148/148 147/147/147 145/145/145
f 151/151/151 150/150/150 149/149/149
f 150/150/150 152/152/152 149/149/149
f 149/149/149 152/152/152 153/153/153
f 152/152/152 154/154/154 153/153/153
f 153/153/153 154/154/154 155/155/155
f 154/154/154 156/156/156 155/155/155
f 155/155/155 156/156/156 157/157/157
f 156/156/156 158/158/158 157/157/157
f 157/157/157 158/158/158 159/159/159
f 158/158/158 160/160/160 159/159/159
f 159/159/159 160/160/160 161/161/161
f 160/160/160 162/162/162 161/161/161
f 161/161/161 162/162/162 163/163/163
f 162/162/162 164/164/164 163/163/163
f 163/163/163 164/164/164 165/165/165
f 164/164/164 166/166/166 165/165/165
f 165/165/165 166/166/166 167/167/167
f 166/166/166 168/168/168 167/167/167
f 171/171/171 170/170/170 169/169/169
f 170/170/170 172/172/172 169/169/169
f 169/169/169 172/172/172 173/173/173
f 172/172/172 174/174/174 173/173/173
f 173/173/173 174/174/174 175/175/175
f 174/174/174 176/176/176 175/175/175
f 175/175/175 176/176/176 177/177/177
f 176/176/176 178/178/178 177/177/177
f 177/177/177 178/178/178 179/179/179
f 178/178/178 180/180/180 179/179/179
f 179/179/179 180/180/180 181/181/181
f 180/180/180 182/182/182 181/181/181
f 181/181/181 182/182/182 183/183/183
f 182/182/182 184/184/184 183/183/183
f 183/183/183 184/184/184 185/185/185
f 184/184/184 186/186/186 185/185/185
f 185/185/185 186/186/186 187/187/187
f 186/186/186 188/188/188 187/187/187
f 191/191/191 190/190/190 189/189/189
f 192/192/192 190/190/190 191/191/191
f 195/195/195 194/194/194 193/193/193
f 196/196/196 195/195/195 193/193/193
f 199/199/199 198/198/198 197/197/197
f 200/200/200 198/198/198 199/199/199
f 203/203/203 202/202/202 201/201/201
f 204/204/204 203/203/203 201/201/201
f 207/207/207 206/206/206 205/205/205
f 205/205/205 206/206/206 208/208/208
f 211/211/211 210/210/210 209/209/209
f 212/212/212 211/211/211 209/209/209
f 215/215/215 214/214/214 213/213/213
f 216/216/216 214/214/214 215/215/215
f 219/219/219 218/218/218 217/217/217
f 220/220/220 219/219/219 217/217/217
f 223/223/223 222/222/222 221/221/221
f 221/221/221 222/222/222 224/224/224
f 227/227/227 226/226/226 225/225/225
f 228/228/228 227/227/227 225/225/225
f 231/231/231 230/230/230 229/229/229
f 232/232/232 230/230/230 231/231/231
f 235/235/235 234/234/234 233/233/233
f 236/236/236 235/235/235 233/233/233
f 239/239/239 238/238/238 237/237/237
f 240/240/240 239/239/239 237/237/237
f 243/243/243 242/242/242 241/241/241
f 244/244/244 243/243/243 241/241/241
f 247/247/247 246/246/246 245/245/245
f 248/248/248 247/247/247 245/245/245
f 251/251/251 250/250/250 249/249/249
f 250/250/250 252/252/252 249/249/249
f 249/249/249 252/252/252 253/253/253
f 252/252/252 254/254/254 253/253/253
f 253/253/253 254/254/254 255/255/255
f 254/254/254 256/256/256 255/255/255
f 255/255/255 256/256/256 257/257/257
f 256/256/256 258/258/258 257/257/257
f 257/257/257 258/258/258 259/259/259
f 258/258/258 260/260/260 259/259/259
f 259/259/259 260/260/260 261/261/261
f 260/260/260 262/262/262 261/261/261
f 261/261/261 262/262/262 263/263/263
f 262/262/262 264/264/264 263/263/263
f 263/263/263 264/264/264 265/265/265
f 264/264/264 266/266/266 265/265/265
f 265/265/265 266/266/266 267/267/267
f 266/266/266 268/268/268 267/267/267
f 271/271/271 270/270/270 269/269/269
f 270/270/270 272/272/272 269/269/269
f 269/269/269 272/272/272 273/273/273
f 272/272/272 274/274/274 273/273/273
f 273/273/273 274/274/274 275/275/275
f 274/274/274 276/276/276 275/275/275
f 275/275/275 276/276/276 277/277/277
f 276/276/276 278/278/278 277/277/277
f 277/277/277 278/278/278 279/279/279
f 278/278/278 280/280/280 279/279/279
f 279/279/279 280/280/280 281/281/281
f 280/280/280 282/282/282 281/281/281
f 281/281/281 282/282/282 283/283/283
f 282/282/282 284/284/284 283/283/283
f 283/283/283 284/284/284 285/285/285
f 284/284/284 286/286/286 285/285/285
f 285/285/285 286/286/286 287/287/287
f 286/286/286 288/288/288 287/287/287
f 291/291/291 290/290/290 289/289/289
f 292/292/292 290/290/290 291/291/291
f 295/295/295 294/294/294 293/293/293
f 296/296/296 295/295/295 293/293/293
f 299/299/299 298/298/298 297/297/297
f 300/300/300 298/298/298 299/299/299
f 303/303/303 302/302/302 301/301/301
f 304/304/304 303/303/303 301/301/301
f 307/307/307 306/306/306 305/305/305
f 305/305/305 306/306/306 308/308/308
f 311/311/311 310/310/310 309/309/309
f 312/312/312 311/311/311 309/309/309
f 315/315/315 314/314/314 313/313/313
f 316/316/316 314/314/314 315/315/315
f 319/319/319 318/318/318 317/317/317
f 320/320/320 319/319/319 317/317/317
f 323/323/323 322/322/322 321/321/321
f 321/321/321 322/322/322 324/324/324
f 327/327/327 326/326/326 325/325/325
f 328/328/328 327/327/327 325/325/325
f 331/331/331 330/330/330 329/329/329
f 332/332/332 330/330/330 331/331/331
f 335/335/335 334/334/334 333/333/333
f 336/336/336 335/335/335 333/333/333
f 339/339/339 338/338/338 337/337/337
f 340/340/340 339/339/339 337/337/337
f 343/343/343 342/342/342 341/341/341
f 344/344/344 343/343/343 341/341/341
f 347/347/347 346/346/346 345/345/345
f 348/348/348 347/347/347 345/345/345
f 351/351/351 350/350/350 349/349/349
f 350/350/350 352/352/352 349/349/349
f 349/349/349 352/352/352 353/353/353
f 352/352/352 354/354/354 353/353/353
f 353/353/353 354/354/354 355/355/355
f 354/354/354 356/356/356 355/355/355
f 355/355/355 356/356/356 357/357/357
f 356/356/356 358/358/358 357/357/357
f 357/357/357 358/358/358 359/359/359
f 358/358/358 360/360/360 359/359/359
f 359/359/359 360/360/360 361/361/361
f 360/360/360 362/362/362 361/361/361
f 361/361/361 362/362/362 363/363/363
f 362/362/362 364/364/364 363/363/363
f 363/363/363 364/364/364 365/365/365
f 364/364/364 366/366/366 365/365/365
f 365/365/365 366/366/366 367/367/367
f 366/366/366 368/368/368 367/367/367
f 371/371/371 370/370/370 369/369/369
f 370/370/370 372/372/372 369/369/369
f 369/369/369 372/372/372 373/373/373
f 372/372/372 374/374/374 373/373/373
f 373/373/373 374/374/374 375/375/375
f 374/374/374 376/376/376 375/375/375
f 375/375/375 376/376/376 377/377/377
f 376/376/376 378/378/378 377/377/377
f 377/377/377 378/378/378 379/379/379
f 378/378/378 380/380/380 379/379/379
f 379/379/379 380/380/380 381/381/381
f 380/380/380 382/382/382 381/381/381
f 381/381/381 382/382/382 383/383/383
f 382/382/382 384/384/384 383/383/383
f 383/383/383 384/384/384 385/385/385
f 384/384/384 386/386/386 385/385/385
f 385/385/385 386/386/386 387/387/387
f 386/386/386 388/388/388 387/387/387
f 391/391/391 390/390/390 389/389/389
f 392/392/392 390/390/390 391/391/391
f 395/395/395 394/394/394 393/393/393
f 396/396/396 395/395/395 393/393/393
f 399/399/399 398/398/398 397/397/397
f 400/400/400 398/398/398 399/399/399
f 403/403/403 402/402/402 401/401/401
f 404/404/404 403/403/403 401/401/401
f 407/407/407 406/406/406 405/405/405
f 405/405/405 406/406/406 408/408/408
f 411/411/411 410/410/410 409/409/409
f 412/412/412 411/411/411 409/409/409
f 415/415/415 414/414/414 413/413/413
f 416/416/416 414/414/414 415/415/415
f 419/419/419 418/418/418 417/417/417
f 420/420/420 419/419/419 417/417/417
f 423/423/423 422/422/422 421/421/421
f 421/421/421 422/422/422 424/424/424
f 427/427/427 426/426/426 425/425/425
f 428/428/428 427/427/427 425/425/425
f 431/431/431 430/430/430 429/429/429
f 432/432/432 430/430/430 431/431/431
f 435/435/435 434/434/434 433/433/433
f 436/436/436 435/435/435 433/433/433
f 439/439/439 438/438/438 437/437/437
f 438/438/438 440/440/440 437/437/437
f 438/438/438 441/441/441 440/440/440
f 441/441/441 442/442/442 440/440/440
f 441/441/441 443/443/443 442/442/442
f 443/443/443 444/444/444 442/442/442
f 447/447/447 446/446/446 445/445/445
f 446/446/446 448/448/448 445/445/445
f 445/445/445 448/448/448 449/449/449
f 448/448/448 450/450/450 449/449/449
f 449/449/449 450/450/450 451/451/451
f 450/450/450 452/452/452 451/451/451
f 455/455/455 454/454/454 453/453/453
f 456/456/456 455/455/455 453/453/453
f 457/457/457 455/455/455 456/456/456
f 458/458/458 457/457/457 456/456/456
f 459/459/459 457/457/457 458/458/458
f 460/460/460 459/459/459 458/458/458
f 463/463/463 462/462/462 461/461/461
f 462/462/462 464/464/464 461/461/461
f 462/462/462 465/465/465 464/464/464
f 465/465/465 466/466/466 464/464/464
f 465/465/465 467/467/467 466/466/466
f 467/467/467 468/468/468 466/466/466
f 471/471/471 470/470/470 469/469/469
f 470/470/470 472/472/472 469/469/469
f 469/469/469 472/472/472 473/473/473
f 472/472/472 474/474/474 473/473/473
f 473/473/473 474/474/474 475/475/475
f 474/474/474 476/476/476 475/475/475
f 479/479/479 478/478/478 477/477/477
f 480/480/480 479/479/479 477/477/477
f 481/481/481 479/479/479 480/480/480
f 482/482/482 481/481/481 480/480/480
f 483/483/483 481/481/481 482/482/482
f 484/484/484 483/483/483 482/482/482
f 487/487/487 486/486/486 485/485/485
f 486/486/486 488/488/488 485/485/485
f 486/486/486 489/489/489 488/488/488
f 489/489/489 490/490/490 488/488/488
f 489/489/489 491/491/491 490/490/490
f 491/491/491 492/492/492 490/490/490
f 495/495/495 494/494/494 493/493/493
f 494/494/494 496/496/496 493/493/493
f 493/493/493 496/496/496 497/497/497
f 496/496/496 498/498/498 497/497/497
f 497/497/497 498/498/498 499/499/499
f 498/498/498 500/500/500 499/499/499
f 503/503/503 502/502/502 501/501/501
f 504/504/504 503/503/503 501/501/501
f 505/505/505 503/503/503 504/504/504
f 506/506/506 505/505/505 504/504/504
f 507/507/507 505/505/505 506/506/506
f 508/508/508 507/507/507 506/506/506
f 511/511/511 510/510/510 509/509/509
f 510/510/510 512/512/512 509/509/509
f 510/510/510 513/513/513 512/512/512
f 513/513/513 514/514/514 512/512/512
f 513/513/513 515/515/515 514/514/514
f 515/515/515 516/516/516 514/514/514
f 519/519/519 518/518/518 517/517/517
f 518/518/518 520/520/520 517/517/517
f 517/517/517 520/520/520 521/521/521
f 520/520/520 522/522/522 521/521/521
f 521/521/521 522/522/522 523/523/523
f 522/522/522 524/524/524 523/523/523
f 527/527/527 526/526/526 525/525/525
f 528/528/528 527/527/527 525/525/525
f 529/529/529 527/527/527 528/528/528
f 530/530/530 529/529/529 528/528/528
f 531/531/531 529/529/529 530/530/530
f 532/532/532 531/531/531 530/530/530
f 535/535/535 534/534/534 533/533/533
f 534/534/534 536/536/536 533/533/533
f 534/534/534 537/537/537 536/536/536
f 537/537/537 538/538/538 536/536/536
f 537/537/537 539/539/539 538/538/538
f 539/539/539 540/540/540 538/538/538
f 543/543/543 542/542/542 541/541/541
f 542/542/542 544/544/544 541/541/541
f 541/541/541 544/544/544 545/545/545
f 544/544/544 546/546/546 545/545/545
f 545/545/545 546/546/546 547/547/547
f 546/546/546 548/548/548 547/547/547
f 551/551/551 550/550/550 549/549/549
f 552/552/552 551/551/551 549/549/549
f 553/553/553 551/551/551 552/552/552
f 554/554/554 553/553/553 552/552/552
f 555/555/555 553/553/553 554/554/554
f 556/556/556 555/555/555 554/554/554
f 559/559/559 558/558/558 557/557/557
f 558/558/558 560/560/560 557/557/557
f 558/558/558 561/561/561 560/560/560
f 561/561/561 562/562/562 560/560/560
f 561/561/561 563/563/563 562/562/562
f 563/563/563 564/564/564 562/562/562
f 567/567/567 566/566/566 565/565/565
f 566/566/566 568/568/568 565/565/565
f 565/565/565 568/568/568 569/569/569
f 568/568/568 570/570/570 569/569/569
f 569/569/569 570/570/570 571/571/571
f 570/570/570 572/572/572 571/571/571
f 575/575/575 574/574/574 573/573/573
f 576/576/576 575/575/575 573/573/573
f 577/577/577 575/575/575 576/576/576
f 578/578/578 577/577/577 576/576/576
f 579/579/579 577/577/577 578/578/578
f 580/580/580 579/579/579 578/578/578
f 583/583/583 582/582/582 581/581/581
f 582/582/582 584/584/584 581/581/581
f 582/582/582 585/585/585 584/584/584
f 585/585/585 586/586/586 584/584/584
f 585/585/585 587/587/587 586/586/586
f 587/587/587 588/588/588 586/586/586
f 591/591/591 590/590/590 589/589/589
f 590/590/590 592/592/592 589/589/589
f 589/589/589 592/592/592 593/593/593
f 592/592/592 594/594/594 593/593/593
f 593/593/593 594/594/594 595/595/595
f 594/594/594 596/596/596 595/595/595
f 599/599/599 598/598/598 597/597/597
f 600/600/600 599/599/599 597/597/597
f 601/601/601 599/599/599 600/600/600
f 602/602/602 601/601/601 600/600/600
f 603/603/603 601/601/601 602/602/602
f 604/604/604 603/603/603 602/602/602
f 607/607/607 606/606/606 605/605/605
f 606/606/606 608/608/608 605/605/605
f 606/606/606 609/609/609 608/608/608
f 609/609/609 610/610/610 608/608/608
f 609/609/609 611/611/611 610/610/610
f 611/611/611 612/612/612 610/610/610
f 615/615/615 614/614/614 613/613/613
f 614/614/614 616/616/616 613/613/613
f 613/613/613 616/616/616 617/617/617
f 616/616/616 618/618/618 617/617/617
f 617/617/617 618/618/618 619/619/619
f 618/618/618 620/620/620 619/619/619
f 623/623/623 622/622/622 621/621/621
f 624/624/624 623/623/623 621/621/621
f 625/625/625 623/623/623 624/624/624
f 626/626/626 625/625/625 624/624/624
f 627/627/627 625/625/625 626/626/626
f 628/628/628 627/627/627 626/626/626
f 631/631/631 630/630/630 629/629/629
f 630/630/630 632/632/632 629/629/629
f 635/635/635 634/634/634 633/633/633
f 636/636/636 635/635/635 633/633/633
f 639/639/639 638/638/638 637/637/637
f 640/640/640 639/639/639 637/637/637
f 643/643/643 642/642/642 641/641/641
f 642/642/642 644/644/644 641/641/641
f 647/647/647 646/646/646 645/645/645
f 646/646/646 648/648/648 645/645/645
f 651/651/651 650/650/650 649/649/649
f 652/652/652 651/651/651 649/649/649
