g Mari_Original_Halo
v 0.079212844 0.045733683 0.015966713
v 0.113239326 -0.0083654355 -0.008355126
v 0.055509124 0.032048196 -0.009139348
v 0.04937498 0.102250814 -0.008355124
v 0.13790871 0.07962163 0.010301821
v 0.16321062 0.03579257 -0.008355129
v 0.11260262 0.12344825 -0.008355124
v 0.19955371 0.11521241 -0.008069485
v 0.07921309 -0.045733813 0.01596675
v 0.049375024 -0.102250785 -0.0083551295
v 0.055509124 -0.03204818 -0.009139351
v 0.1132393 0.008365422 -0.008355129
v 0.13790877 -0.0796216 0.010301816
v 0.11260268 -0.123448215 -0.008355131
v 0.16321068 -0.03579256 -0.008355131
v 0.19955373 -0.11521232 -0.008069505
v 0.16074406 -0.2784166 -0.008000854
v 0.1565138 -0.21550258 -0.008000854
v 0.10837404 -0.24329615 -0.008000854
v 0.113956265 -0.19306654 0.009806988
v 0.16651784 -0.16651766 -0.008000854
v 0.108317524 -0.18761133 -0.008000856
v 0.15318413 -0.15318397 -0.008000855
v 0.15985098 -0.15694486 0.008558691
v 0.20394179 -0.11774574 -0.008000855
v 0.19577663 -0.110125616 0.008558695
v 0.18761142 -0.10831739 -0.008000854
v 0.2274675 -0.060949635 -0.008000854
v 0.21836044 -0.055603437 0.008558694
v 0.20925333 -0.056069158 -0.008000854
v 0.22913806 0.0035758065 0.009120682
v 0.26488766 -0.027793437 -0.008000853
v 0.21663497 8.390906E-08 -0.008000854
v 0.05850959 -0.21545438 0.008558686
v 0.05606933 -0.20925324 -0.008000854
v -0 -0.21663497 -0.008000854
v 0.06094982 -0.22746743 -0.008000855
v -0 -0.23549168 -0.008000854
v -0 -0.22439347 0.009816925
v -0.05850958 -0.21545438 0.008558686
v -0.06094982 -0.22746743 -0.008000855
v -0.05606933 -0.20925324 -0.008000854
v -0.11395626 -0.19306654 0.009806988
v -0.10837404 -0.24329615 -0.008000854
v -0.108317524 -0.18761133 -0.008000856
v -0.16074406 -0.2784166 -0.008000854
v -0.1565138 -0.21550258 -0.008000854
v -0.159851 -0.15694486 0.008558691
v -0.16651784 -0.16651766 -0.008000854
v -0.15318413 -0.15318397 -0.008000855
v -0.20394179 -0.11774574 -0.008000855
v -0.19577663 -0.110125616 0.008558695
v -0.18761142 -0.10831739 -0.008000854
v -0.2274675 -0.060949635 -0.008000854
v -0.21836044 -0.055603437 0.008558694
v -0.20925333 -0.056069158 -0.008000854
v -0.22913806 0.0035758065 0.009120682
v -0.26488766 -0.027793437 -0.008000853
v -0.21663497 8.390906E-08 -0.008000854
v -0.32148796 1.127877E-07 -0.008000854
v -0.26488766 0.02779359 -0.008000854
v -0.21836038 0.061415542 0.0085587
v -0.22746748 0.060949802 -0.008000855
v -0.20925325 0.056069322 -0.008000854
v -0.20394175 0.11774589 -0.008000854
v -0.19577657 0.11593769 0.008558695
v -0.18761137 0.108317524 -0.008000854
v -0.1665177 0.16651781 -0.008000855
v -0.15985088 0.16275692 0.008558695
v -0.153184 0.15318407 -0.008000854
v -0.11492583 0.20159163 0.010374338
v -0.15651366 0.21550274 -0.008000854
v -0.10831744 0.1876114 -0.008000854
v -0.1607439 0.27841675 -0.008000854
v -0.10837389 0.24329622 -0.0080008535
v -0.058509458 0.2183604 -8.5541257E-07
v -0.060949694 0.22746749 -0.008000854
v -0 0.23549168 -0.008000854
v -0.05606922 0.20925328 -0.008000856
v -0 0.22764492 -0.00080053345
v -0 0.21663497 -0.008000854
v 0.05606922 0.20925328 -0.008000856
v 0.05850946 0.2212664 0.008558686
v 0.060949694 0.22746749 -0.008000854
v 0.11492583 0.20159163 0.010374338
v 0.10831744 0.1876114 -0.008000854
v 0.10837389 0.24329622 -0.0080008535
v 0.1607439 0.27841675 -0.008000854
v 0.15651366 0.21550274 -0.008000854
v 0.153184 0.15318407 -0.008000854
v 0.15985087 0.16275692 0.008558695
v 0.1665177 0.16651781 -0.008000855
v 0.18761137 0.108317524 -0.008000854
v 0.19577655 0.11593769 0.008558695
v 0.20394175 0.11774589 -0.008000854
v 0.20925325 0.056069322 -0.008000854
v 0.21836036 0.061415542 0.0085587
v 0.22746748 0.060949802 -0.008000855
v 0.26488766 0.02779359 -0.008000854
v 0.32148796 1.127877E-07 -0.008000854
v -0.079212844 0.045733683 0.015966713
v -0.055509124 0.032048196 -0.009139348
v -0.113239326 -0.0083654355 -0.008355126
v -0.04937498 0.102250814 -0.008355124
v -0.13790871 0.07962163 0.010301821
v -0.16321062 0.03579257 -0.008355129
v -0.11260262 0.12344825 -0.008355124
v -0.19955371 0.11521241 -0.008069485
v -0.07921309 -0.045733813 0.01596675
v -0.055509124 -0.03204818 -0.009139351
v -0.049375024 -0.102250785 -0.0083551295
v -0.1132393 0.008365422 -0.008355129
v -0.13790877 -0.0796216 0.010301816
v -0.11260268 -0.123448215 -0.008355131
v -0.16321068 -0.03579256 -0.008355131
v -0.19955373 -0.11521232 -0.008069505
v -0 -0.23042482 -0.008069524
v -0 -0.1592408 -0.008355123
v -0.05060809 -0.1592408 -0.008355123
v 0.05060809 -0.1592408 -0.008355123
v -0 -0.15924321 0.01030182
v -0 -0.09388536 -0.008355129
v -0.06386437 -0.09388536 -0.008355128
v 0.06386437 -0.09388536 -0.008355128
v -0 -0.06409637 -0.009139344
v -0 -0.091467276 0.01596673
v -0 0.09184054 0.015901558
v 0.06386432 0.093885385 -0.008355119
v -0 0.064096384 -0.009139344
v -0 0.093885385 -0.008355119
v -0.06386432 0.093885385 -0.008355119
v 0.05060804 0.1592408 -0.008355119
v -0.05060804 0.1592408 -0.008355119
v -0 0.15923983 0.010301856
v -0 0.1592408 -0.008355119
v -0 0.23042482 -0.008069476
vt 0.60979164 0.5754021
vt 0.6534057 0.49331337
vt 0.5774143 0.55718386
vt 0.5685647 0.670012
vt 0.68570435 0.6324015
vt 0.7181451 0.5656586
vt 0.65091455 0.7056798
vt 0.7646511 0.6944421
vt 0.6109433 0.42802724
vt 0.5711389 0.3405135
vt 0.57822114 0.45391014
vt 0.653195 0.5202706
vt 0.68770885 0.37582463
vt 0.6540224 0.3078737
vt 0.7190461 0.45031872
vt 0.76755166 0.32317564
vt 0.7188994 0.059275225
vt 0.71257997 0.16054268
vt 0.6500278 0.11460821
vt 0.65780824 0.1925523
vt 0.72503525 0.23970808
vt 0.64925313 0.20432772
vt 0.7074449 0.26087233
vt 0.71724355 0.25207028
vt 0.77332145 0.31918684
vt 0.7635967 0.32836694
vt 0.7518646 0.33398694
vt 0.8033466 0.41126153
vt 0.79241955 0.41675532
vt 0.7794855 0.41868892
vt 0.8057925 0.51226604
vt 0.85182434 0.46557975
vt 0.78842497 0.50920594
vt 0.58556193 0.15537146
vt 0.5812552 0.16820656
vt 0.50808495 0.15497027
vt 0.5878616 0.13897623
vt 0.50832224 0.12458788
vt 0.5093018 0.13934699
vt 0.43265843 0.15256934
vt 0.42858094 0.13605726
vt 0.4347288 0.16552131
vt 0.36000544 0.18709475
vt 0.36681318 0.10941799
vt 0.36618608 0.19914018
vt 0.29882574 0.05157692
vt 0.30356127 0.15304698
vt 0.29950374 0.24441472
vt 0.28987288 0.23173322
vt 0.3071276 0.25353613
vt 0.24035884 0.30941963
vt 0.25197208 0.31899083
vt 0.26157832 0.3250019
vt 0.20890395 0.4003677
vt 0.22177659 0.40629762
vt 0.23264216 0.40866742
vt 0.20698433 0.50129217
vt 0.15959138 0.45289373
vt 0.22229111 0.49883085
vt 0.08528454 0.49632013
vt 0.15889172 0.5424571
vt 0.2203037 0.5948416
vt 0.20736961 0.5967753
vt 0.23123072 0.58934796
vt 0.23739469 0.6888499
vt 0.24912661 0.6832299
vt 0.25885147 0.6740498
vt 0.285681 0.7683287
vt 0.2954797 0.7595267
vt 0.3032714 0.7471643
vt 0.35380644 0.82285583
vt 0.29813623 0.8474942
vt 0.36146313 0.803709
vt 0.29181683 0.9487616
vt 0.36068845 0.8934285
vt 0.42666036 0.85304326
vt 0.42285466 0.86906046
vt 0.5023938 0.8834486
vt 0.42946106 0.83983
vt 0.5029449 0.86954397
vt 0.5026311 0.85306627
vt 0.5759872 0.84251523
vt 0.5800646 0.85902756
vt 0.5821349 0.8719795
vt 0.654143 0.8283598
vt 0.64452994 0.8088965
vt 0.64390266 0.8986187
vt 0.71189016 0.95646
vt 0.7071546 0.8549899
vt 0.7035883 0.7545007
vt 0.71321917 0.7671823
vt 0.7208431 0.7763035
vt 0.7491378 0.6830349
vt 0.76075107 0.69260615
vt 0.77035713 0.6986172
vt 0.7780738 0.59936947
vt 0.7909465 0.60529935
vt 0.8018121 0.6076693
vt 0.85112476 0.55514294
vt 0.92543155 0.51171684
vt 0.40278405 0.5716083
vt 0.43235195 0.5545255
vt 0.35747647 0.48789012
vt 0.4395327 0.66764724
vt 0.32530648 0.6257968
vt 0.2916255 0.55784214
vt 0.35664928 0.70028704
vt 0.24315588 0.6848851
vt 0.40393507 0.4242336
vt 0.43315876 0.45125172
vt 0.44210678 0.33814886
vt 0.3572659 0.51484734
vt 0.32731086 0.36921993
vt 0.35975695 0.30248097
vt 0.29252648 0.44250226
vt 0.2460563 0.31361866
vt 0.5082542 0.13276374
vt 0.50734025 0.24750742
vt 0.44121295 0.24629554
vt 0.57346743 0.24871927
vt 0.5085122 0.24423382
vt 0.5065175 0.35280982
vt 0.42306894 0.35128048
vt 0.5899661 0.35433906
vt 0.5060933 0.40094408
vt 0.50801486 0.3524434
vt 0.5057034 0.6478053
vt 0.58760256 0.65688026
vt 0.50447977 0.6074916
vt 0.50415397 0.6553509
vt 0.42070544 0.65382165
vt 0.5694586 0.76186514
vt 0.43720418 0.7594415
vt 0.50450325 0.7573822
vt 0.5033314 0.7606534
vt 0.5024533 0.87529695
vn -0.26641566 -0.15381423 0.9515061
vn 0.17940892 -0.9732999 -0.14317745
vn -0.82244885 -0.47484195 -0.3132139
vn -0.75319785 0.64202255 -0.14317794
vn 0.14059427 0.08117203 0.98673415
vn 0.76880056 -0.616851 -0.16864356
vn -0.14980781 0.97422636 -0.1686439
vn 0.8628024 0.49813965 -0.0861916
vn -0.2664133 0.15381263 0.95150703
vn -0.75319797 -0.64202243 -0.14317879
vn -0.8224494 0.474842 -0.31321234
vn 0.17940785 0.9732999 -0.14317872
vn 0.14059468 -0.081172206 0.98673415
vn -0.14980693 -0.9742265 -0.16864404
vn 0.7688005 0.61685103 -0.16864389
vn 0.8628025 -0.4981392 -0.08619206
vn 0.49306315 -0.8677764 -0.0620703
vn 0.9463189 -0.2008172 -0.25328454
vn -0.28079557 -0.92924696 -0.24011229
vn -0.16856943 0.29719007 0.93982047
vn 0.7284825 -0.5100367 -0.45735744
vn -0.3981371 0.70416504 -0.5879103
vn -0.5716888 0.5819458 -0.5783694
vn -0.04454011 0.17757909 0.9830981
vn 0.77060336 -0.4550772 -0.4461783
vn 0.006833381 -0.0033319427 0.99997115
vn -0.7084457 0.42037606 -0.56691146
vn 0.80062824 -0.3677915 -0.47299445
vn -0.15184967 -0.057275828 0.98674273
vn -0.8055072 0.23766242 -0.5428395
vn -0.23483683 0.0072954847 0.97200745
vn 0.67883915 -0.6910779 -0.24817085
vn -0.86023426 0.014603243 -0.50968975
vn -0.14303657 0.16316651 0.9761747
vn -0.20857462 0.77904165 -0.591262
vn -0 0.808113 -0.58902746
vn 0.0923925 -0.88716274 -0.45211267
vn -0 -0.8990673 -0.4378103
vn -0 0.018549232 0.999828
vn 0.14303654 0.16316652 0.9761747
vn -0.092392504 -0.88716274 -0.45211276
vn 0.20857468 0.77904165 -0.591262
vn 0.1685695 0.29719007 0.93982047
vn 0.28079572 -0.9292469 -0.24011235
vn 0.39813715 0.70416504 -0.58791023
vn -0.49306342 -0.86777633 -0.062071227
vn -0.9463189 -0.2008173 -0.25328442
vn 0.044539947 0.17757893 0.9830981
vn -0.7284824 -0.5100367 -0.4573575
vn 0.5716888 0.58194584 -0.5783694
vn -0.77060354 -0.4550771 -0.4461783
vn -0.006833362 -0.0033319811 0.99997115
vn 0.7084458 0.42037603 -0.56691146
vn -0.80062824 -0.36779153 -0.47299445
vn 0.15184972 -0.05727585 0.98674273
vn 0.8055072 0.23766242 -0.5428395
vn 0.23483677 0.00729549 0.97200745
vn -0.67883915 -0.6910779 -0.2481708
vn 0.86023444 0.014603302 -0.5096896
vn -0.99795073 -0.012022847 -0.062847294
vn -0.6512216 0.70809805 -0.27296105
vn 0.06560325 0.07708421 0.9948639
vn -0.77875507 0.3675231 -0.50839674
vn 0.8311885 -0.22515307 -0.50836194
vn -0.7535979 0.4243642 -0.50200117
vn -0.11837954 0.07222261 0.9903384
vn 0.7503903 -0.42205375 -0.50870925
vn -0.69786495 0.48441026 -0.527571
vn -0.05281216 -0.101861976 0.99339575
vn 0.62820333 -0.6045902 -0.48972583
vn 0.106912 -0.14348263 0.9838611
vn -0.93255776 0.22784075 -0.28004393
vn 0.47205007 -0.75678825 -0.4521507
vn -0.50258756 0.8617283 -0.06949901
vn 0.39003497 0.886703 -0.24825463
vn 0.123661555 -0.02578516 0.99198943
vn 0.01824662 0.93418294 -0.35632762
vn -0.016343476 0.9092633 -0.41590038
vn 0.27442712 -0.88024086 -0.38712505
vn -0.02930745 0.14737646 0.98864615
vn -0.03533035 -0.92525655 -0.37769297
vn -0.2581498 -0.85588855 -0.4481222
vn -0.13117482 0.038009416 0.9906303
vn 0.03959299 0.8617356 -0.5058104
vn -0.09284806 -0.15274568 0.9838943
vn -0.44603002 -0.7619612 -0.46954477
vn -0.2749797 0.9162205 -0.2914211
vn 0.50258756 0.8617283 -0.06949901
vn 0.9325579 0.22784068 -0.28004384
vn -0.62820333 -0.60459 -0.48972598
vn 0.05281189 -0.10186225 0.99339575
vn 0.6978651 0.4844104 -0.52757066
vn -0.7503902 -0.42205355 -0.5087095
vn 0.11837889 0.072222285 0.9903385
vn 0.7535981 0.42436427 -0.5020008
vn -0.8311883 -0.22515304 -0.5083621
vn -0.065603875 0.07708397 0.9948639
vn 0.77875525 0.3675232 -0.50839645
vn 0.6512215 0.7080981 -0.27296096
vn 0.99795073 -0.012022847 -0.062847294
vn 0.26641566 -0.15381423 0.9515061
vn 0.82244885 -0.47484195 -0.3132139
vn -0.17940891 -0.9732999 -0.14317727
vn 0.75319785 0.64202255 -0.14317794
vn -0.14059427 0.08117202 0.98673415
vn -0.76880056 -0.616851 -0.16864331
vn 0.14980781 0.97422636 -0.1686439
vn -0.8628024 0.49813965 -0.0861916
vn 0.26641327 0.1538126 0.95150703
vn 0.8224494 0.474842 -0.31321234
vn 0.75319797 -0.64202243 -0.14317845
vn -0.17940785 0.9732999 -0.14317872
vn -0.14059465 -0.081172206 0.98673415
vn 0.14980695 -0.9742265 -0.16864379
vn -0.7688005 0.616851 -0.16864389
vn -0.8628025 -0.4981392 -0.08619206
vn -0 -0.9962786 -0.08619134
vn -0 -0.00200609 -0.999998
vn -0.9186087 -0.35737583 -0.16864336
vn 0.9186087 -0.35737574 -0.16864333
vn -0 -0.16234435 0.98673415
vn -0 -0.01315947 -0.99991345
vn -0.9326067 0.3312776 -0.14317815
vn 0.9326067 0.3312776 -0.14317815
vn -0 0.9496829 -0.31321302
vn -0 0.30762845 0.9515065
vn -0 -0.30332762 0.95288634
vn 0.93212813 -0.3328279 -0.14269842
vn -0 -0.9507302 -0.31001958
vn -0 0.013159588 -0.99991345
vn -0.93212813 -0.3328279 -0.14269842
vn 0.9187212 0.35713193 -0.16854745
vn -0.9187212 0.35713193 -0.16854745
vn -0 0.16218626 0.98676014
vn -0 0.0020063585 -0.999998
vn -0 0.99627906 -0.0861865
g Mari_Original_Halo_0
f 3/3/3 2/2/2 1/1/1
f 4/4/4 3/3/3 1/1/1
f 2/2/2 3/3/3 4/4/4
f 4/4/4 1/1/1 5/5/5
f 2/2/2 6/6/6 1/1/1
f 6/6/6 5/5/5 1/1/1
f 2/2/2 4/4/4 7/7/7
f 7/7/7 4/4/4 5/5/5
f 6/6/6 2/2/2 7/7/7
f 6/6/6 8/8/8 5/5/5
f 7/7/7 8/8/8 6/6/6
f 7/7/7 5/5/5 8/8/8
f 11/11/11 10/10/10 9/9/9
f 12/12/12 11/11/11 9/9/9
f 10/10/10 11/11/11 12/12/12
f 12/12/12 9/9/9 13/13/13
f 10/10/10 14/14/14 9/9/9
f 14/14/14 13/13/13 9/9/9
f 12/12/12 15/15/15 10/10/10
f 15/15/15 12/12/12 13/13/13
f 15/15/15 14/14/14 10/10/10
f 14/14/14 16/16/16 13/13/13
f 15/15/15 16/16/16 14/14/14
f 15/15/15 13/13/13 16/16/16
f 19/19/19 18/18/18 17/17/17
f 17/17/17 18/18/18 20/20/20
f 19/19/19 17/17/17 20/20/20
f 18/18/18 21/21/21 20/20/20
f 19/19/19 22/22/22 18/18/18
f 23/23/23 21/21/21 18/18/18
f 22/22/22 23/23/23 18/18/18
f 21/21/21 24/24/24 20/20/20
f 23/23/23 22/22/22 24/24/24
f 22/22/22 20/20/20 24/24/24
f 21/21/21 25/25/25 24/24/24
f 21/21/21 23/23/23 25/25/25
f 23/23/23 24/24/24 26/26/26
f 25/25/25 26/26/26 24/24/24
f 23/23/23 27/27/27 25/25/25
f 27/27/27 23/23/23 26/26/26
f 25/25/25 28/28/28 26/26/26
f 25/25/25 27/27/27 28/28/28
f 27/27/27 26/26/26 29/29/29
f 28/28/28 29/29/29 26/26/26
f 27/27/27 30/30/30 28/28/28
f 30/30/30 27/27/27 29/29/29
f 30/30/30 29/29/29 31/31/31
f 28/28/28 32/32/32 29/29/29
f 32/32/32 31/31/31 29/29/29
f 28/28/28 30/30/30 33/33/33
f 33/33/33 30/30/30 31/31/31
f 32/32/32 28/28/28 33/33/33
f 19/19/19 20/20/20 34/34/34
f 22/22/22 35/35/35 20/20/20
f 35/35/35 34/34/34 20/20/20
f 35/35/35 36/36/36 34/34/34
f 19/19/19 37/37/37 22/22/22
f 37/37/37 35/35/35 22/22/22
f 37/37/37 19/19/19 34/34/34
f 36/36/36 35/35/35 37/37/37
f 38/38/38 37/37/37 34/34/34
f 38/38/38 36/36/36 37/37/37
f 36/36/36 39/39/39 34/34/34
f 39/39/39 38/38/38 34/34/34
f 38/38/38 39/39/39 40/40/40
f 39/39/39 36/36/36 40/40/40
f 36/36/36 38/38/38 41/41/41
f 41/41/41 38/38/38 40/40/40
f 42/42/42 36/36/36 41/41/41
f 36/36/36 42/42/42 40/40/40
f 40/40/40 42/42/42 43/43/43
f 44/44/44 41/41/41 40/40/40
f 43/43/43 44/44/44 40/40/40
f 42/42/42 41/41/41 45/45/45
f 41/41/41 44/44/44 45/45/45
f 42/42/42 45/45/45 43/43/43
f 46/46/46 44/44/44 43/43/43
f 47/47/47 44/44/44 46/46/46
f 45/45/45 44/44/44 47/47/47
f 47/47/47 46/46/46 43/43/43
f 43/43/43 45/45/45 48/48/48
f 49/49/49 47/47/47 43/43/43
f 48/48/48 49/49/49 43/43/43
f 50/50/50 45/45/45 47/47/47
f 49/49/49 50/50/50 47/47/47
f 45/45/45 50/50/50 48/48/48
f 51/51/51 49/49/49 48/48/48
f 50/50/50 49/49/49 51/51/51
f 48/48/48 50/50/50 52/52/52
f 52/52/52 51/51/51 48/48/48
f 53/53/53 50/50/50 51/51/51
f 50/50/50 53/53/53 52/52/52
f 54/54/54 51/51/51 52/52/52
f 53/53/53 51/51/51 54/54/54
f 52/52/52 53/53/53 55/55/55
f 55/55/55 54/54/54 52/52/52
f 56/56/56 53/53/53 54/54/54
f 53/53/53 56/56/56 55/55/55
f 55/55/55 56/56/56 57/57/57
f 58/58/58 54/54/54 55/55/55
f 57/57/57 58/58/58 55/55/55
f 56/56/56 54/54/54 59/59/59
f 54/54/54 58/58/58 59/59/59
f 56/56/56 59/59/59 57/57/57
f 60/60/60 58/58/58 57/57/57
f 61/61/61 58/58/58 60/60/60
f 59/59/59 58/58/58 61/61/61
f 61/61/61 60/60/60 57/57/57
f 57/57/57 59/59/59 62/62/62
f 63/63/63 61/61/61 57/57/57
f 62/62/62 63/63/63 57/57/57
f 64/64/64 59/59/59 61/61/61
f 63/63/63 64/64/64 61/61/61
f 59/59/59 64/64/64 62/62/62
f 65/65/65 63/63/63 62/62/62
f 64/64/64 63/63/63 65/65/65
f 62/62/62 64/64/64 66/66/66
f 66/66/66 65/65/65 62/62/62
f 67/67/67 64/64/64 65/65/65
f 64/64/64 67/67/67 66/66/66
f 68/68/68 65/65/65 66/66/66
f 67/67/67 65/65/65 68/68/68
f 66/66/66 67/67/67 69/69/69
f 69/69/69 68/68/68 66/66/66
f 70/70/70 67/67/67 68/68/68
f 67/67/67 70/70/70 69/69/69
f 69/69/69 70/70/70 71/71/71
f 72/72/72 68/68/68 69/69/69
f 71/71/71 72/72/72 69/69/69
f 70/70/70 68/68/68 73/73/73
f 68/68/68 72/72/72 73/73/73
f 70/70/70 73/73/73 71/71/71
f 74/74/74 72/72/72 71/71/71
f 75/75/75 72/72/72 74/74/74
f 73/73/73 72/72/72 75/75/75
f 75/75/75 74/74/74 71/71/71
f 71/71/71 73/73/73 76/76/76
f 77/77/77 75/75/75 71/71/71
f 76/76/76 77/77/77 71/71/71
f 78/78/78 77/77/77 76/76/76
f 79/79/79 73/73/73 75/75/75
f 77/77/77 79/79/79 75/75/75
f 73/73/73 79/79/79 76/76/76
f 79/79/79 77/77/77 78/78/78
f 76/76/76 79/79/79 80/80/80
f 80/80/80 78/78/78 76/76/76
f 81/81/81 79/79/79 78/78/78
f 79/79/79 81/81/81 80/80/80
f 81/81/81 82/82/82 80/80/80
f 82/82/82 81/81/81 78/78/78
f 78/78/78 80/80/80 83/83/83
f 82/82/82 83/83/83 80/80/80
f 84/84/84 82/82/82 78/78/78
f 84/84/84 78/78/78 83/83/83
f 84/84/84 83/83/83 85/85/85
f 82/82/82 86/86/86 83/83/83
f 86/86/86 85/85/85 83/83/83
f 82/82/82 84/84/84 87/87/87
f 87/87/87 84/84/84 85/85/85
f 86/86/86 82/82/82 87/87/87
f 88/88/88 87/87/87 85/85/85
f 89/89/89 87/87/87 88/88/88
f 89/89/89 86/86/86 87/87/87
f 89/89/89 88/88/88 85/85/85
f 86/86/86 90/90/90 85/85/85
f 89/89/89 85/85/85 91/91/91
f 90/90/90 91/91/91 85/85/85
f 89/89/89 92/92/92 86/86/86
f 92/92/92 90/90/90 86/86/86
f 92/92/92 89/89/89 91/91/91
f 90/90/90 93/93/93 91/91/91
f 93/93/93 90/90/90 92/92/92
f 92/92/92 91/91/91 94/94/94
f 93/93/93 94/94/94 91/91/91
f 95/95/95 93/93/93 92/92/92
f 95/95/95 92/92/92 94/94/94
f 93/93/93 96/96/96 94/94/94
f 96/96/96 93/93/93 95/95/95
f 95/95/95 94/94/94 97/97/97
f 96/96/96 97/97/97 94/94/94
f 98/98/98 96/96/96 95/95/95
f 98/98/98 95/95/95 97/97/97
f 96/96/96 33/33/33 97/97/97
f 98/98/98 97/97/97 31/31/31
f 33/33/33 31/31/31 97/97/97
f 96/96/96 98/98/98 99/99/99
f 33/33/33 96/96/96 99/99/99
f 99/99/99 98/98/98 31/31/31
f 32/32/32 33/33/33 99/99/99
f 100/100/100 99/99/99 31/31/31
f 32/32/32 99/99/99 100/100/100
f 32/32/32 100/100/100 31/31/31
f 103/103/103 102/102/102 101/101/101
f 102/102/102 104/104/104 101/101/101
f 102/102/102 103/103/103 104/104/104
f 101/101/101 104/104/104 105/105/105
f 106/106/106 103/103/103 101/101/101
f 105/105/105 106/106/106 101/101/101
f 104/104/104 103/103/103 107/107/107
f 103/103/103 106/106/106 107/107/107
f 104/104/104 107/107/107 105/105/105
f 108/108/108 107/107/107 106/106/106
f 108/108/108 106/106/106 105/105/105
f 105/105/105 107/107/107 108/108/108
f 111/111/111 110/110/110 109/109/109
f 110/110/110 112/112/112 109/109/109
f 110/110/110 111/111/111 112/112/112
f 109/109/109 112/112/112 113/113/113
f 114/114/114 111/111/111 109/109/109
f 113/113/113 114/114/114 109/109/109
f 115/115/115 112/112/112 111/111/111
f 114/114/114 115/115/115 111/111/111
f 112/112/112 115/115/115 113/113/113
f 116/116/116 115/115/115 114/114/114
f 116/116/116 114/114/114 113/113/113
f 113/113/113 115/115/115 116/116/116
f 119/119/119 118/118/118 117/117/117
f 118/118/118 120/120/120 117/117/117
f 121/121/121 119/119/119 117/117/117
f 120/120/120 121/121/121 117/117/117
f 122/122/122 118/118/118 119/119/119
f 120/120/120 118/118/118 122/122/122
f 123/123/123 119/119/119 121/121/121
f 123/123/123 122/122/122 119/119/119
f 120/120/120 124/124/124 121/121/121
f 124/124/124 120/120/120 122/122/122
f 125/125/125 122/122/122 123/123/123
f 122/122/122 125/125/125 124/124/124
f 126/126/126 123/123/123 121/121/121
f 124/124/124 126/126/126 121/121/121
f 125/125/125 123/123/123 126/126/126
f 124/124/124 125/125/125 126/126/126
f 129/129/129 128/128/128 127/127/127
f 130/130/130 128/128/128 129/129/129
f 131/131/131 129/129/129 127/127/127
f 131/131/131 130/130/130 129/129/129
f 128/128/128 132/132/132 127/127/127
f 132/132/132 128/128/128 130/130/130
f 131/131/131 127/127/127 133/133/133
f 131/131/131 133/133/133 130/130/130
f 132/132/132 134/134/134 127/127/127
f 127/127/127 134/134/134 133/133/133
f 133/133/133 135/135/135 130/130/130
f 135/135/135 132/132/132 130/130/130
f 136/136/136 133/133/133 134/134/134
f 132/132/132 136/136/136 134/134/134
f 136/136/136 135/135/135 133/133/133
f 135/135/135 136/136/136 132/132/132
