g CH0152_Halo
v 0.009613037 0.12593693 -0.105717964
v 0.016716706 0.12761074 -0.10712246
v 0.0136873815 0.12583387 -0.105631486
v -1.1831674E-08 0.13918959 -0.12494892
v 0.005946127 0.129331 -0.10856593
v 0.01750788 0.1310196 -0.10998284
v 0.01676324 0.13391803 -0.112414904
v 0.011712051 0.13847765 -0.11624088
v 0.007200091 0.14221059 -0.119373195
v -1.0764562E-08 0.13817884 -0.11599016
v -1.2230526E-08 0.15091823 -0.12667978
v -0.0072001144 0.14221059 -0.1193732
v -0.005946147 0.12933098 -0.10856593
v -0.011712074 0.13847765 -0.11624089
v -0.016763264 0.13391802 -0.11241491
v -0.017507903 0.13101959 -0.10998285
v -0.016716728 0.12761073 -0.10712246
v -0.009613057 0.12593691 -0.105717964
v -0.0136874 0.12583385 -0.105631486
v 0.0137552535 0.09408531 -0.079035245
v 0.02391984 0.09648035 -0.08104492
v 0.019585196 0.09393785 -0.07891151
v -9.024055E-09 0.11479078 -0.104476266
v 0.0085083 0.098941855 -0.08311038
v 0.025051925 0.101358086 -0.08513783
v 0.023986425 0.10550541 -0.088617854
v 0.016758712 0.112029724 -0.09409241
v 0.010302588 0.11737117 -0.098574415
v -7.711439E-09 0.11160218 -0.09373366
v -9.809079E-09 0.12983087 -0.10902936
v -0.010302607 0.117371164 -0.09857443
v -0.008508313 0.098941855 -0.08311038
v -0.01675873 0.11202971 -0.094092414
v -0.023986438 0.1055054 -0.08861787
v -0.025051937 0.101358086 -0.085137844
v -0.02391985 0.09648035 -0.08104492
v -0.013755266 0.09408531 -0.079035245
v -0.019585209 0.09393785 -0.07891151
v 0.033362523 0.060713403 -0.050900355
v 0.030353218 0.07203703 -0.060402002
v 0.033799883 0.06654754 -0.05579578
v -4.058626E-09 0.07164043 -0.06826925
v 0.028962463 0.056695443 -0.047528867
v 0.019999959 0.05609021 -0.047021024
v 0.010963785 0.05897977 -0.049445655
v 0.019915732 0.078660935 -0.06596014
v 0.012640161 0.08508518 -0.07135072
v -2.4589224E-09 0.06609248 -0.055413943
v -6.627564E-09 0.10231827 -0.08581101
v -0.012640172 0.08508518 -0.07135072
v -0.010963789 0.058979757 -0.049445655
v -0.019915743 0.078660935 -0.06596014
v -0.030353226 0.07203702 -0.06040201
v -0.03379989 0.066547535 -0.05579578
v -0.03336253 0.060713395 -0.050900355
v -0.019999962 0.056090202 -0.047021035
v -0.02896247 0.05669543 -0.047528878
v -0.0066314894 -0.14466022 0.12142873
v 0.006631532 -0.14466023 0.12142873
v 2.2513344E-08 -0.15091822 0.1266798
v 2.0403386E-08 -0.14093615 0.11010379
v 0.012329187 -0.13712816 0.115108564
v 0.0073353606 -0.12888779 0.108194076
v 1.7760444E-08 -0.11796878 0.090831876
v -0.007335321 -0.12888779 0.108194076
v 0.009697903 -0.12368122 0.103825234
v -0.010623283 -0.097772434 0.08208517
v -0.012329145 -0.13712814 0.115108564
v -0.009697865 -0.12368121 0.103825234
v -0.017456887 -0.10272235 0.08623864
v -0.033155307 -0.11245732 0.09440725
v -0.027190682 -0.101682626 0.08536621
v -0.016656965 -0.12148528 0.10198262
v -0.03842745 -0.12476174 0.10473191
v 0.016657002 -0.12148528 0.10198262
v 0.0074186996 -0.091207094 0.07657617
v 0.038427487 -0.12476175 0.10473191
v 0.033155344 -0.11245732 0.09440725
v 0.017456919 -0.10272235 0.08623864
v 0.027190715 -0.10168263 0.08536621
v 0.010623315 -0.097772434 0.08208517
v 1.514551E-08 -0.09524483 0.0717642
v 1.3688052E-08 -0.08257944 0.061136663
v 0.007801878 -0.085674666 0.07193392
v -0.0074186693 -0.091207094 0.07657618
v -0.0078018485 -0.085674666 0.071933925
v -0.008247673 -0.07268491 0.06103421
v -0.013873668 -0.080786705 0.06783243
v 0.008247699 -0.07268491 0.06103421
v 1.2553487E-08 -0.06436638 0.054054126
v 0.013873697 -0.080786705 0.06783243
v 0.18339479 -0.028971436 0.024354247
v 0.18339479 -0.020687724 0.017403383
v 0.18688463 -0.024829578 0.020878816
v 0.17154887 -0.028867316 0.01606684
v 0.1659429 -0.03550325 0.02983509
v 0.1659429 -0.014155916 0.011922538
v 0.15764102 -0.03135016 0.02635023
v 0.15764102 -0.018309014 0.015407401
v 0.14230867 -0.03135016 0.02635023
v 0.14230867 -0.028867321 0.016066842
v 0.14230868 -0.018309014 0.0154074
v 0.12394077 -0.0059440588 0.00503196
v 0.12394074 -0.043715134 0.036725678
v 0.11494771 -0.028867325 0.016066842
v 0.10907164 -0.063476376 0.0451073
v 0.10064995 -0.050331976 0.04227787
v 0.105954684 -0.029902546 0.02513553
v 0.1205805 -0.056656055 0.047584407
v 0.10905454 -0.07728223 0.064891845
v 0.098964974 -0.079340085 0.05841853
v 0.090994224 -0.06803798 0.057134986
v 0.075852744 -0.08293609 0.06963599
v 0.08347985 -0.092816524 0.06972661
v 0.091106944 -0.09462147 0.079441205
v 0.07363392 -0.10356512 0.08694582
v 0.06549498 -0.10328662 0.078512065
v 0.055612642 -0.09329609 0.07832906
v 0.071914926 -0.11889785 0.09981152
v 0.07869442 -0.028867327 0.016066838
v 0.0863356 -0.029902548 0.02513553
v 0.1059547 -0.01975664 0.016622098
v 0.12046415 0.007444925 -0.006202743
v 0.10053362 0.0011208415 -0.0008962035
v 0.105796956 0.029900739 -0.025045425
v 0.11002448 0.00012973785 -0.008264598
v 0.0863356 -0.019756641 0.016622096
v 0.096306466 0.020833772 -0.025787946
v 0.07759028 -0.033134136 0.027847154
v 0.07759028 -0.016525064 0.013910477
v 0.06562033 -0.02482959 0.020878805
v 0.08773752 0.020660646 -0.017292058
v 0.06863386 0.0369719 -0.030978838
v 0.0753664 0.03892201 -0.03914693
v 0.08071972 0.049903955 -0.041650094
v 0.04134155 0.051819723 -0.043502662
v 0.046884764 0.056924637 -0.047721196
v 0.047090307 0.06683368 -0.055967405
v 0.00962479 -0.05975767 0.050186966
v 0.02913162 -0.06253703 0.052519124
v 0.016173 -0.065196924 0.054751042
v 1.1827999E-08 -0.058061846 0.04876399
v 1.10284235E-08 -0.059467077 0.041743077
v 0.024001429 -0.05976788 0.041995488
v -0.009624766 -0.05975767 0.050186966
v -0.029131595 -0.06253703 0.05251912
v -0.016172975 -0.065196924 0.054751042
v -0.02400141 -0.059767883 0.041995488
v 0.018871244 -0.04892326 0.041095804
v -0.018871225 -0.04892326 0.041095804
v 1.1222134E-08 -0.052796833 0.04434612
v 0.041571666 -0.046308354 0.0307016
v 0.032685913 -0.038340725 0.032216
v 0.04133688 -0.02792218 0.015273759
v 0.050457414 -0.04620052 0.03881116
v 0.053749476 -0.036788795 0.03091378
v 0.046545357 -0.03079609 0.025885295
v 0.037742432 -0.02388445 0.020085733
v 0.04493133 -0.023884445 0.020085733
v 0.046545357 -0.016972797 0.014286166
v 0.032685902 -0.009428341 0.00795561
v 0.04157165 -0.009536091 -0.00015401124
v 0.018871214 0.0011543632 -0.0009243417
v 0.024001399 0.0039235163 -0.011447971
v 3.7684367E-09 0.0036227081 -0.011195568
v 0.05374946 -0.010980092 0.009257686
v 0.050457396 -0.001568377 0.001360315
v 0.029131586 0.014768128 -0.012347655
v 0.016172962 0.017428018 -0.014579575
v 0.009624759 0.011988768 -0.010015497
v 4.568014E-09 0.0050279354 -0.0041746614
v 3.962149E-09 0.010292938 -0.008592526
v -0.009624752 0.011988766 -0.0100155
v -0.018871207 0.0011543607 -0.00092434406
v -0.024001393 0.003923514 -0.011447973
v -0.050457392 -0.0015683793 0.0013603067
v -0.046545345 -0.016972799 0.0142861605
v -0.016172959 0.017428014 -0.014579577
v -0.03268589 -0.009428344 0.007955604
v -0.029131582 0.014768128 -0.012347662
v -0.041571643 -0.009536092 -0.00015401602
v -0.041336868 -0.027922181 0.0152737545
v -0.053749457 -0.010980095 0.009257679
v -0.037742417 -0.02388445 0.020085728
v -0.04493132 -0.02388445 0.020085728
v -0.046545345 -0.03079609 0.025885291
v -0.0326859 -0.038340725 0.032215994
v -0.04157165 -0.046308354 0.030701596
v -0.0504574 -0.04620052 0.038811155
v -0.05374946 -0.036788795 0.030913774
v -0.1833948 -0.028971437 0.024354223
v -0.18688464 -0.024829583 0.020878792
v -0.1833948 -0.020687727 0.017403359
v -0.1715489 -0.028867317 0.016066818
v -0.1659429 -0.03550325 0.029835071
v -0.16594294 -0.01415592 0.011922517
v -0.15764101 -0.031350162 0.026350211
v -0.15764102 -0.018309016 0.015407381
v -0.14230867 -0.031350162 0.026350211
v -0.14230867 -0.028867323 0.016066823
v -0.14230867 -0.018309018 0.015407381
v -0.12394076 -0.0059440625 0.0050319433
v -0.12394073 -0.043715134 0.036725663
v -0.11494771 -0.028867327 0.016066827
v -0.10907161 -0.063476376 0.045107286
v -0.10064992 -0.050331984 0.04227786
v -0.10595466 -0.029902548 0.025135517
v -0.12058048 -0.056656055 0.047584396
v -0.109054506 -0.07728223 0.06489182
v -0.098964944 -0.079340085 0.05841852
v -0.09099419 -0.06803798 0.05713497
v -0.07585272 -0.08293609 0.06963598
v -0.083479814 -0.092816524 0.06972661
v -0.09110691 -0.09462147 0.07944119
v -0.07363389 -0.10356512 0.08694581
v -0.06549495 -0.10328661 0.07851206
v -0.055612616 -0.09329609 0.07832906
v -0.071914904 -0.118897855 0.09981152
v -0.07869441 -0.02886733 0.016066827
v -0.086335585 -0.029902548 0.025135519
v -0.105954684 -0.019756641 0.016622083
v -0.12046416 0.0074449205 -0.0062027574
v -0.1005336 0.0011208392 -0.0008962178
v -0.10579695 0.029900733 -0.02504544
v -0.11002446 0.00012973309 -0.008264613
v -0.086335585 -0.019756643 0.016622087
v -0.09630646 0.020833766 -0.02578796
v -0.07759027 -0.033134136 0.027847145
v -0.07759027 -0.016525066 0.013910468
v -0.06562032 -0.024829593 0.0208788
v -0.08773751 0.02066064 -0.017292073
v -0.06863386 0.0369719 -0.030978853
v -0.07536641 0.038922004 -0.039146945
v -0.08071972 0.049903955 -0.041650113
v -0.041341558 0.051819723 -0.043502674
v -0.046884775 0.056924626 -0.047721203
v -0.047090314 0.066833675 -0.055967417
vt 0.5251739 0.09160048
vt 0.54377633 0.086173415
vt 0.53584343 0.09193462
vt 0.50000006 0.035681963
vt 0.51557124 0.08059573
vt 0.5458482 0.07512069
vt 0.5438982 0.06572312
vt 0.5306706 0.05093932
vt 0.5188551 0.038835883
vt 0.50000006 0.051908135
vt 0.50000006 0.010602891
vt 0.48114505 0.038835883
vt 0.48442882 0.08059573
vt 0.4693295 0.05093932
vt 0.4561019 0.06572312
vt 0.4541519 0.07512069
vt 0.45622376 0.086173415
vt 0.47482622 0.09160048
vt 0.4641567 0.09193462
vt 0.5360211 0.19480366
vt 0.56263924 0.18703818
vt 0.55128807 0.19528174
vt 0.50000006 0.11479038
vt 0.5222808 0.17905712
vt 0.56560385 0.17122287
vt 0.56281364 0.15777594
vt 0.5438863 0.13662195
vt 0.5269796 0.119303286
vt 0.50000006 0.13800818
vt 0.50000006 0.07890481
vt 0.4730205 0.119303286
vt 0.47771922 0.17905712
vt 0.45611373 0.13662195
vt 0.43718645 0.15777594
vt 0.4343962 0.17122287
vt 0.43736082 0.18703818
vt 0.46397898 0.19480366
vt 0.448712 0.19528174
vt 0.58736694 0.3032179
vt 0.57948637 0.26650304
vt 0.58851224 0.28430176
vt 0.50000006 0.25469726
vt 0.5758444 0.3162455
vt 0.5523742 0.3182078
vt 0.528711 0.30883896
vt 0.55215365 0.24502605
vt 0.533101 0.22419655
vt 0.50000006 0.28577715
vt 0.50000006 0.16832125
vt 0.46689907 0.22419655
vt 0.471289 0.30883896
vt 0.4478464 0.24502605
vt 0.42051363 0.26650304
vt 0.4114878 0.28430176
vt 0.41263312 0.3032179
vt 0.44762588 0.3182078
vt 0.42415562 0.3162455
vt 0.48263395 0.96910685
vt 0.517366 0.96910685
vt 0.49999997 0.9893973
vt 0.49999997 0.94394046
vt 0.5322865 0.94468534
vt 0.51920915 0.9179674
vt 0.49999997 0.86947274
vt 0.48079082 0.9179674
vt 0.52539593 0.901086
vt 0.4721806 0.81708115
vt 0.46771342 0.94468534
vt 0.474604 0.901086
vt 0.45428535 0.83313036
vt 0.41317567 0.86469436
vt 0.42879534 0.8297593
vt 0.45638013 0.893966
vt 0.39936945 0.90458935
vt 0.5436198 0.893966
vt 0.5194274 0.7957941
vt 0.6006305 0.9045894
vt 0.58682424 0.86469436
vt 0.5457146 0.83313036
vt 0.57120466 0.8297593
vt 0.52781934 0.81708115
vt 0.49999997 0.7957941
vt 0.5 0.7547288
vt 0.52043086 0.77785623
vt 0.48057258 0.7957941
vt 0.47956914 0.77785623
vt 0.47840166 0.7357391
vt 0.4636688 0.76200783
vt 0.5215983 0.7357391
vt 0.5 0.7087677
vt 0.5363312 0.76200783
vt 0.9802584 0.5940058
vt 0.9802584 0.56714725
vt 0.9893972 0.58057654
vt 0.94923735 0.58057654
vt 0.9345569 0.61518407
vt 0.93455696 0.545969
vt 0.9128166 0.60171837
vt 0.91281664 0.5594347
vt 0.8726655 0.60171837
vt 0.8726655 0.58057654
vt 0.8726656 0.55943465
vt 0.82456535 0.5193434
vt 0.8245653 0.6418097
vt 0.80101514 0.58057654
vt 0.7856273 0.69279045
vt 0.76357335 0.6632637
vt 0.777465 0.5970247
vt 0.81576574 0.6837684
vt 0.78558254 0.7506452
vt 0.7591609 0.74422574
vt 0.73828775 0.72067237
vt 0.69863653 0.7689769
vt 0.7186097 0.78792083
vt 0.73858285 0.80686474
vt 0.69282603 0.835863
vt 0.67151254 0.8218683
vt 0.6456335 0.80256736
vt 0.6883245 0.8855767
vt 0.7060781 0.58057654
vt 0.72608817 0.5970247
vt 0.777465 0.56412834
vt 0.8154611 0.47593188
vt 0.7632687 0.49643666
vt 0.7770519 0.40312278
vt 0.7881226 0.48655856
vt 0.72608817 0.56412834
vt 0.752199 0.4191888
vt 0.7031867 0.6075026
vt 0.7031867 0.5536505
vt 0.67184085 0.58057654
vt 0.72975945 0.43308216
vt 0.67973244 0.38019574
vt 0.6973631 0.3634447
vt 0.7113818 0.3385532
vt 0.6082617 0.33195043
vt 0.62277776 0.31550235
vt 0.62331605 0.28348333
vt 0.52520454 0.69382477
vt 0.5762873 0.7028364
vt 0.54235244 0.71146065
vt 0.5 0.68832636
vt 0.5 0.6797909
vt 0.5628528 0.6807662
vt 0.47479546 0.69382477
vt 0.42371267 0.7028364
vt 0.45764756 0.71146065
vt 0.43714714 0.6807662
vt 0.5494184 0.65869606
vt 0.45058164 0.65869606
vt 0.5 0.67125547
vt 0.60886425 0.6371261
vt 0.585595 0.624384
vt 0.6082494 0.577512
vt 0.6321335 0.6498681
vt 0.64075446 0.61935216
vt 0.62188894 0.5999218
vt 0.5988366 0.577512
vt 0.61766225 0.577512
vt 0.62188894 0.55510217
vt 0.585595 0.53064054
vt 0.60886425 0.5178983
vt 0.54941833 0.49632794
vt 0.56285274 0.47425783
vt 0.5 0.47523308
vt 0.64075446 0.53567183
vt 0.6321334 0.505156
vt 0.57628727 0.45218766
vt 0.5423524 0.4435634
vt 0.5252045 0.46119922
vt 0.5 0.48376852
vt 0.5 0.4666977
vt 0.47479555 0.46119916
vt 0.45058173 0.49632794
vt 0.43714723 0.47425777
vt 0.36786655 0.5051559
vt 0.37811106 0.5551021
vt 0.45764765 0.4435634
vt 0.41440502 0.5306405
vt 0.42371273 0.4521876
vt 0.39113578 0.5178982
vt 0.3917506 0.57751197
vt 0.3592456 0.53567183
vt 0.4011634 0.57751197
vt 0.38233772 0.57751197
vt 0.37811106 0.5999218
vt 0.414405 0.6243839
vt 0.39113572 0.637126
vt 0.3678665 0.649868
vt 0.35924554 0.6193521
vt 0.01974158 0.5940056
vt 0.010602656 0.5805763
vt 0.01974158 0.5671471
vt 0.050762583 0.5805764
vt 0.065443054 0.61518395
vt 0.065442994 0.54596883
vt 0.087183334 0.6017182
vt 0.087183304 0.55943453
vt 0.12733439 0.6017182
vt 0.12733439 0.5805764
vt 0.12733433 0.55943453
vt 0.17543463 0.51934326
vt 0.1754347 0.6418096
vt 0.19898488 0.5805764
vt 0.21437265 0.6927904
vt 0.23642662 0.66326356
vt 0.22253506 0.5970246
vt 0.18423422 0.6837683
vt 0.21441746 0.7506451
vt 0.24083914 0.7442257
vt 0.26171225 0.72067225
vt 0.3013634 0.7689768
vt 0.28139025 0.7879207
vt 0.26141703 0.8068646
vt 0.3071739 0.8358629
vt 0.32848743 0.8218682
vt 0.35436645 0.80256736
vt 0.31167543 0.88557667
vt 0.2939219 0.5805764
vt 0.27391183 0.5970246
vt 0.22253503 0.5641282
vt 0.18453887 0.47593176
vt 0.2367313 0.4964366
vt 0.22294812 0.40312272
vt 0.21187748 0.48655844
vt 0.27391183 0.5641283
vt 0.24780099 0.41918868
vt 0.2968133 0.60750246
vt 0.2968133 0.5536504
vt 0.32815918 0.5805764
vt 0.2702406 0.4330821
vt 0.3202676 0.38019562
vt 0.302637 0.36344463
vt 0.2886182 0.33855307
vt 0.39173833 0.3319503
vt 0.37722224 0.31550235
vt 0.37668398 0.2834832
vn -0.28807822 -0.6446772 0.70809764
vn 0.81920224 -0.36878097 0.43921328
vn 0.33902025 -0.653639 0.676625
vn 5.234139E-07 -0.43035305 -0.90266067
vn -0.73905 -0.20963661 0.6402012
vn 0.98739517 0.0452066 0.15168145
vn 0.9316685 0.36120096 -0.03908562
vn 0.6825255 0.72939146 -0.046334278
vn 0.6812498 0.73202384 -0.0063057193
vn -6.1938584E-07 0.18876424 0.9820225
vn -0 0.87549895 -0.48322004
vn -0.68125063 0.7320232 -0.0063065593
vn 0.7390502 -0.20963682 0.64020085
vn -0.682526 0.72939116 -0.04633449
vn -0.9316687 0.3612002 -0.039086033
vn -0.9873954 0.045205098 0.15167972
vn -0.8192022 -0.36878088 0.43921348
vn 0.28807825 -0.6446773 0.7080976
vn -0.33902025 -0.6536391 0.67662483
vn -0.2871075 -0.6724184 0.68221897
vn 0.8209255 -0.3892987 0.41776523
vn 0.34023118 -0.6741189 0.6555963
vn -0 -0.47693053 -0.87894106
vn -0.758461 -0.2770152 0.58991486
vn 0.9926104 0.016703235 0.12018992
vn 0.9422662 0.32456738 -0.08240411
vn 0.7099854 0.6931914 -0.12412285
vn 0.7077329 0.700879 -0.08878587
vn -1.017713E-06 0.088260666 0.9960974
vn -0 0.84898883 -0.52841073
vn -0.7077334 0.7008784 -0.0887864
vn 0.7584612 -0.27701434 0.5899149
vn -0.70998573 0.6931909 -0.124123685
vn -0.94226664 0.3245658 -0.082405336
vn -0.9926104 0.016703315 0.12019012
vn -0.820926 -0.38929647 0.4177663
vn 0.2871069 -0.67241824 0.6822193
vn -0.34023172 -0.674119 0.6555959
vn 0.9184804 -0.25429305 0.30286756
vn 0.8352084 0.48719 -0.2550936
vn 0.98844147 0.15068597 -0.016654203
vn 2.3731452E-07 -0.6327957 -0.77431875
vn 0.5203294 -0.6068431 0.6008318
vn -0.05210607 -0.6901902 0.7217497
vn -0.440476 -0.55420417 0.70628506
vn 0.6630283 0.6778923 -0.31757736
vn 0.80963826 0.54539466 -0.216865
vn 3.2138377E-07 -0.40715697 0.9133582
vn -4.06602E-07 0.8042734 -0.5942594
vn -0.8096386 0.54539424 -0.21686529
vn 0.4404762 -0.5542039 0.7062851
vn -0.66302794 0.6778928 -0.31757718
vn -0.8352099 0.48718736 -0.25509366
vn -0.98844135 0.150687 -0.016652761
vn -0.918481 -0.25429025 0.30286816
vn 0.05210614 -0.690191 0.72174877
vn -0.5203293 -0.6068434 0.60083145
vn -0.79027665 -0.2773698 0.54637784
vn 0.79027665 -0.27736977 0.54637784
vn 1.3159624E-07 -0.68511605 0.7284339
vn -2.684564E-07 -0.7006413 -0.7135137
vn 0.9815345 0.08908769 0.1692728
vn 0.92928725 0.27818233 0.24298123
vn -0 -0.6718747 -0.7406647
vn -0.92928725 0.27818227 0.24298136
vn 0.74008197 -0.3026481 0.60056865
vn -0.92888 0.36774504 0.044110097
vn -0.9815345 0.08908802 0.16927308
vn -0.7400775 -0.30264965 0.60057354
vn -0.07173866 0.9049805 -0.4193613
vn -0.93461823 0.3235691 -0.14762034
vn -0.5993011 0.6611631 -0.4513332
vn 0.09416953 -0.4552032 0.88539374
vn -0.8184293 -0.40336582 0.4092305
vn -0.09417172 -0.45520207 0.8853941
vn 0.9046159 0.38259652 0.18785611
vn 0.8184305 -0.40336233 0.40923142
vn 0.9346181 0.32356933 -0.14762095
vn 0.0717384 0.9049834 -0.41935495
vn 0.59930116 0.66116184 -0.45133492
vn 0.9288789 0.36774725 0.044113092
vn -1.9089036E-07 -0.59650207 -0.8026116
vn -0 -0.57299244 -0.8195607
vn 0.8991913 0.02626555 0.43676662
vn -0.9046165 0.38259652 0.18785375
vn -0.8991859 0.026267126 0.43677765
vn -0.81302875 0.56167024 -0.1533324
vn -0.9759542 -0.013052863 0.21758464
vn 0.8130295 0.56166816 -0.15333572
vn -1.395572E-07 0.8352803 -0.5498244
vn 0.9759542 -0.013052668 0.21758492
vn 0.68723005 -0.4022181 0.6049258
vn 0.68722993 0.6655801 -0.2910639
vn 0.9887406 0.09618659 0.11463062
vn 0.12900195 -0.63741714 -0.7596433
vn -0.12560652 -0.6474908 0.7516507
vn -0.12560706 0.8526667 -0.5071316
vn -0.12520307 -0.5074067 0.8525624
vn -0.1252036 0.92771983 -0.35165295
vn 0.08723555 -0.51559067 0.8523827
vn 0.06363499 -0.68699026 -0.723875
vn 0.39098826 0.8992771 -0.19603267
vn 0.86456263 0.49372095 -0.09365466
vn 0.93111223 -0.044713907 0.36198163
vn -0.0811894 -0.64726055 -0.75793284
vn 0.08473734 -0.6609711 -0.74561167
vn -0.93450433 0.34564808 0.085023634
vn -0.5849696 -0.033396695 0.8103673
vn 0.9315866 -0.029889949 0.36228856
vn 0.823149 -0.22056442 0.52323705
vn 0.062585205 -0.6848441 -0.72599703
vn -0.84542537 0.5262901 -0.09096536
vn -0.6342255 0.7335607 -0.2442272
vn 0.034705177 -0.6591884 -0.75117654
vn 0.6725451 -0.37922832 0.6355068
vn 0.80380815 -0.09108676 0.58787376
vn -0.23348628 -0.7256199 -0.64727116
vn -0.92434025 0.37368587 -0.07716215
vn 0.20174085 -0.6973437 0.68775904
vn -0.12641305 -0.6376312 -0.7598988
vn 0.1251241 -0.449239 0.88460624
vn -0.56137276 0.82532257 0.06085562
vn 0.92643666 0.37613994 -0.015291327
vn -0.9039013 -0.04613356 0.42524597
vn 0.78408605 0.588625 -0.1967987
vn 0.032809027 -0.64495456 -0.7635163
vn 0.12512387 0.94917625 -0.288805
vn 0.0104810735 -0.6205301 -0.7841125
vn -0.13123116 -0.6150615 0.77748173
vn -0.13123089 0.872474 -0.47070965
vn -0.9869196 0.10362659 0.12349616
vn -0.78747666 -0.2195924 0.5758989
vn -0.6570518 -0.3748032 0.6540684
vn -0.015083482 -0.6227233 -0.7822968
vn 0.61679757 0.7142739 -0.33071676
vn -0.9988078 0.03699057 0.031853758
vn -0.95612115 0.27383667 -0.10414374
vn -0.5295629 0.6758604 -0.5126167
vn -0.1942296 -0.39907765 0.8961094
vn 0.48572886 -0.4920021 0.7224966
vn -0.33061558 -0.6089715 0.72100425
vn -0 -0.26044285 0.96548927
vn -0 -0.6561455 -0.7546344
vn 0.02377742 -0.72275335 -0.69069695
vn 0.19422944 -0.39907575 0.89611024
vn -0.48572838 -0.4919993 0.7224989
vn 0.33061558 -0.6089719 0.7210038
vn -0.023777362 -0.72275347 -0.6906967
vn -0.34866035 0.8953543 -0.27708596
vn 0.34866014 0.89535445 -0.2770858
vn -0 0.9971897 -0.07491873
vn 0.11062952 -0.65523946 -0.7472766
vn -0.8630898 0.50245976 0.051089875
vn 0.030479716 -0.6424897 -0.7656879
vn 0.8413068 -0.21961065 0.4939373
vn 0.9419292 0.33083 -0.0576259
vn 0.8832065 0.40455702 0.23723365
vn -0.8180151 0.36972833 0.4406272
vn 0.8359073 0.35280746 0.42045915
vn 0.8832064 0.16337894 0.43960625
vn -0.8630925 -0.036935236 0.5036936
vn 0.11062919 -0.62214446 -0.77504677
vn -0.34866247 -0.42835054 0.8336368
vn 0.023777477 -0.55469924 -0.83171105
vn 1.1438566E-07 -0.62923217 -0.77721745
vn 0.94193 -0.11419704 0.3157957
vn 0.84130657 0.5245683 -0.13050447
vn 0.48572865 0.79695636 -0.3590657
vn -0.3306158 0.81579685 -0.47451934
vn -0.1942302 0.951791 -0.23742034
vn -1.1700547E-07 -0.24694031 0.9690307
vn -1.6085103E-07 0.99604684 -0.08883031
vn 0.19422999 0.9517911 -0.23742044
vn 0.3486627 -0.42835158 0.8336362
vn -0.023777246 -0.5546994 -0.831711
vn -0.84130657 0.52456826 -0.13050474
vn -0.8832065 0.1633788 0.43960613
vn 0.3306159 0.81579673 -0.47451952
vn 0.8630925 -0.036935486 0.5036935
vn -0.48572835 0.79695666 -0.35906553
vn -0.11062923 -0.62214446 -0.7750467
vn -0.030479953 -0.6424897 -0.765688
vn -0.9419299 -0.11419726 0.3157959
vn 0.8180152 0.3697282 0.44062695
vn -0.83590746 0.35280725 0.42045897
vn -0.8832067 0.40455675 0.23723347
vn 0.8630899 0.5024596 0.05108949
vn -0.110629514 -0.6552396 -0.74727654
vn -0.8413069 -0.21961083 0.49393713
vn -0.94192946 0.3308295 -0.057626285
vn -0.6872301 -0.40221807 0.60492593
vn -0.9887406 0.09618659 0.11463045
vn -0.68723 0.66558 -0.2910641
vn -0.12900189 -0.6374172 -0.75964326
vn 0.12560666 -0.6474909 0.7516506
vn 0.12560664 0.8526663 -0.5071322
vn 0.12520273 -0.50740653 0.8525625
vn 0.12520319 0.9277201 -0.35165253
vn -0.087235995 -0.51559055 0.8523827
vn -0.06363492 -0.6869902 -0.72387505
vn -0.39098844 0.8992771 -0.19603233
vn -0.86456305 0.4937202 -0.0936539
vn -0.9311121 -0.04471432 0.36198184
vn 0.081189215 -0.64726055 -0.75793284
vn -0.08473702 -0.66097116 -0.7456116
vn 0.9345041 0.34564868 0.08502338
vn 0.58496934 -0.033397626 0.8103675
vn -0.93158644 -0.029890254 0.36228877
vn -0.823149 -0.22056484 0.523237
vn -0.06258528 -0.6848443 -0.72599673
vn 0.84542525 0.5262901 -0.09096574
vn 0.63422567 0.73356056 -0.24422696
vn -0.03470504 -0.65918845 -0.7511765
vn -0.6725453 -0.37922874 0.6355064
vn -0.8038087 -0.09108688 0.58787304
vn 0.23348622 -0.7256196 -0.64727163
vn 0.92434025 0.37368572 -0.07716272
vn -0.20174205 -0.6973426 0.6877598
vn 0.12641312 -0.6376313 -0.7598987
vn -0.12512445 -0.44923896 0.88460624
vn 0.56137246 0.8253228 0.060854778
vn -0.9264368 0.3761396 -0.01529211
vn 0.9039014 -0.04613369 0.42524567
vn -0.78408635 0.58862454 -0.19679905
vn -0.032808352 -0.64495456 -0.7635163
vn -0.12512417 0.9491764 -0.28880492
vn -0.010481074 -0.6205301 -0.7841125
vn 0.13123079 -0.61506134 0.777482
vn 0.13123088 0.8724741 -0.47070938
vn 0.98691946 0.10362721 0.123496816
vn 0.7874769 -0.21959232 0.5758987
vn 0.65705174 -0.37480277 0.65406877
vn 0.015083695 -0.62272346 -0.7822966
vn -0.61679745 0.71427405 -0.33071664
vn 0.9988078 0.03699005 0.03185378
vn 0.95612115 0.27383667 -0.10414396
vn 0.529563 0.67586035 -0.5126167
g CH0152_Halo_0
f 3/3/3 2/2/2 1/1/1
f 4/4/4 3/3/3 1/1/1
f 4/4/4 2/2/2 3/3/3
f 4/4/4 1/1/1 5/5/5
f 1/1/1 2/2/2 5/5/5
f 4/4/4 6/6/6 2/2/2
f 6/6/6 7/7/7 2/2/2
f 2/2/2 7/7/7 5/5/5
f 4/4/4 7/7/7 6/6/6
f 7/7/7 8/8/8 5/5/5
f 4/4/4 8/8/8 7/7/7
f 8/8/8 9/9/9 5/5/5
f 4/4/4 9/9/9 8/8/8
f 5/5/5 9/9/9 10/10/10
f 4/4/4 5/5/5 10/10/10
f 4/4/4 11/11/11 9/9/9
f 9/9/9 11/11/11 10/10/10
f 11/11/11 4/4/4 12/12/12
f 10/10/10 11/11/11 12/12/12
f 13/13/13 4/4/4 10/10/10
f 13/13/13 10/10/10 12/12/12
f 12/12/12 4/4/4 14/14/14
f 14/14/14 13/13/13 12/12/12
f 14/14/14 4/4/4 15/15/15
f 15/15/15 13/13/13 14/14/14
f 15/15/15 4/4/4 16/16/16
f 16/16/16 17/17/17 15/15/15
f 17/17/17 13/13/13 15/15/15
f 16/16/16 4/4/4 17/17/17
f 18/18/18 13/13/13 17/17/17
f 18/18/18 4/4/4 13/13/13
f 19/19/19 18/18/18 17/17/17
f 17/17/17 4/4/4 19/19/19
f 19/19/19 4/4/4 18/18/18
f 22/22/22 21/21/21 20/20/20
f 23/23/23 22/22/22 20/20/20
f 23/23/23 21/21/21 22/22/22
f 23/23/23 20/20/20 24/24/24
f 20/20/20 21/21/21 24/24/24
f 23/23/23 25/25/25 21/21/21
f 25/25/25 26/26/26 21/21/21
f 21/21/21 26/26/26 24/24/24
f 23/23/23 26/26/26 25/25/25
f 26/26/26 27/27/27 24/24/24
f 23/23/23 27/27/27 26/26/26
f 27/27/27 28/28/28 24/24/24
f 23/23/23 28/28/28 27/27/27
f 24/24/24 28/28/28 29/29/29
f 23/23/23 24/24/24 29/29/29
f 23/23/23 30/30/30 28/28/28
f 28/28/28 30/30/30 29/29/29
f 30/30/30 23/23/23 31/31/31
f 29/29/29 30/30/30 31/31/31
f 32/32/32 23/23/23 29/29/29
f 32/32/32 29/29/29 31/31/31
f 31/31/31 23/23/23 33/33/33
f 33/33/33 32/32/32 31/31/31
f 33/33/33 23/23/23 34/34/34
f 34/34/34 32/32/32 33/33/33
f 34/34/34 23/23/23 35/35/35
f 35/35/35 36/36/36 34/34/34
f 36/36/36 32/32/32 34/34/34
f 35/35/35 23/23/23 36/36/36
f 37/37/37 32/32/32 36/36/36
f 37/37/37 23/23/23 32/32/32
f 38/38/38 37/37/37 36/36/36
f 36/36/36 23/23/23 38/38/38
f 38/38/38 23/23/23 37/37/37
f 41/41/41 40/40/40 39/39/39
f 42/42/42 41/41/41 39/39/39
f 42/42/42 40/40/40 41/41/41
f 42/42/42 39/39/39 43/43/43
f 43/43/43 39/39/39 44/44/44
f 42/42/42 43/43/43 44/44/44
f 44/44/44 39/39/39 45/45/45
f 39/39/39 40/40/40 45/45/45
f 42/42/42 44/44/44 45/45/45
f 40/40/40 46/46/46 45/45/45
f 42/42/42 46/46/46 40/40/40
f 46/46/46 47/47/47 45/45/45
f 42/42/42 47/47/47 46/46/46
f 45/45/45 47/47/47 48/48/48
f 42/42/42 45/45/45 48/48/48
f 42/42/42 49/49/49 47/47/47
f 47/47/47 49/49/49 48/48/48
f 49/49/49 42/42/42 50/50/50
f 48/48/48 49/49/49 50/50/50
f 51/51/51 42/42/42 48/48/48
f 51/51/51 48/48/48 50/50/50
f 50/50/50 42/42/42 52/52/52
f 52/52/52 51/51/51 50/50/50
f 52/52/52 42/42/42 53/53/53
f 53/53/53 51/51/51 52/52/52
f 53/53/53 42/42/42 54/54/54
f 54/54/54 55/55/55 53/53/53
f 55/55/55 51/51/51 53/53/53
f 54/54/54 42/42/42 55/55/55
f 56/56/56 51/51/51 55/55/55
f 56/56/56 42/42/42 51/51/51
f 57/57/57 56/56/56 55/55/55
f 55/55/55 42/42/42 57/57/57
f 57/57/57 42/42/42 56/56/56
f 60/60/60 59/59/59 58/58/58
f 58/58/58 61/61/61 60/60/60
f 61/61/61 59/59/59 60/60/60
f 61/61/61 62/62/62 59/59/59
f 62/62/62 63/63/63 59/59/59
f 59/59/59 63/63/63 58/58/58
f 61/61/61 63/63/63 62/62/62
f 61/61/61 64/64/64 63/63/63
f 61/61/61 65/65/65 64/64/64
f 66/66/66 63/63/63 64/64/64
f 63/63/63 66/66/66 58/58/58
f 58/58/58 66/66/66 65/65/65
f 66/66/66 67/67/67 65/65/65
f 68/68/68 61/61/61 58/58/58
f 68/68/68 58/58/58 65/65/65
f 65/65/65 61/61/61 68/68/68
f 69/69/69 64/64/64 65/65/65
f 67/67/67 70/70/70 65/65/65
f 70/70/70 69/69/69 65/65/65
f 67/67/67 64/64/64 70/70/70
f 71/71/71 69/69/69 70/70/70
f 70/70/70 64/64/64 72/72/72
f 72/72/72 71/71/71 70/70/70
f 72/72/72 64/64/64 71/71/71
f 73/73/73 69/69/69 71/71/71
f 73/73/73 64/64/64 69/69/69
f 74/74/74 73/73/73 71/71/71
f 71/71/71 64/64/64 74/74/74
f 74/74/74 64/64/64 73/73/73
f 64/64/64 75/75/75 66/66/66
f 76/76/76 67/67/67 66/66/66
f 75/75/75 76/76/76 66/66/66
f 64/64/64 77/77/77 75/75/75
f 77/77/77 78/78/78 75/75/75
f 64/64/64 78/78/78 77/77/77
f 78/78/78 79/79/79 75/75/75
f 64/64/64 80/80/80 78/78/78
f 80/80/80 79/79/79 78/78/78
f 64/64/64 79/79/79 80/80/80
f 79/79/79 81/81/81 75/75/75
f 64/64/64 81/81/81 79/79/79
f 81/81/81 76/76/76 75/75/75
f 64/64/64 82/82/82 81/81/81
f 64/64/64 67/67/67 82/82/82
f 76/76/76 81/81/81 82/82/82
f 82/82/82 83/83/83 76/76/76
f 84/84/84 76/76/76 83/83/83
f 84/84/84 67/67/67 76/76/76
f 82/82/82 85/85/85 83/83/83
f 85/85/85 82/82/82 67/67/67
f 85/85/85 67/67/67 84/84/84
f 86/86/86 83/83/83 85/85/85
f 86/86/86 85/85/85 87/87/87
f 87/87/87 85/85/85 84/84/84
f 88/88/88 83/83/83 86/86/86
f 88/88/88 86/86/86 87/87/87
f 87/87/87 83/83/83 88/88/88
f 89/89/89 87/87/87 84/84/84
f 90/90/90 83/83/83 87/87/87
f 90/90/90 87/87/87 89/89/89
f 83/83/83 90/90/90 89/89/89
f 91/91/91 89/89/89 84/84/84
f 83/83/83 89/89/89 91/91/91
f 83/83/83 91/91/91 84/84/84
f 94/94/94 93/93/93 92/92/92
f 92/92/92 95/95/95 94/94/94
f 94/94/94 95/95/95 93/93/93
f 92/92/92 93/93/93 96/96/96
f 96/96/96 95/95/95 92/92/92
f 97/97/97 96/96/96 93/93/93
f 93/93/93 95/95/95 97/97/97
f 96/96/96 97/97/97 98/98/98
f 98/98/98 95/95/95 96/96/96
f 99/99/99 98/98/98 97/97/97
f 97/97/97 95/95/95 99/99/99
f 98/98/98 99/99/99 100/100/100
f 95/95/95 98/98/98 101/101/101
f 100/100/100 101/101/101 98/98/98
f 99/99/99 95/95/95 102/102/102
f 101/101/101 102/102/102 95/95/95
f 102/102/102 100/100/100 99/99/99
f 102/102/102 101/101/101 103/103/103
f 100/100/100 102/102/102 104/104/104
f 103/103/103 104/104/104 102/102/102
f 101/101/101 100/100/100 105/105/105
f 104/104/104 105/105/105 100/100/100
f 105/105/105 103/103/103 101/101/101
f 105/105/105 104/104/104 106/106/106
f 106/106/106 107/107/107 105/105/105
f 104/104/104 103/103/103 108/108/108
f 108/108/108 107/107/107 104/104/104
f 108/108/108 105/105/105 107/107/107
f 109/109/109 106/106/106 104/104/104
f 109/109/109 104/104/104 107/107/107
f 109/109/109 110/110/110 106/106/106
f 109/109/109 107/107/107 110/110/110
f 106/106/106 111/111/111 107/107/107
f 111/111/111 106/106/106 110/110/110
f 112/112/112 110/110/110 107/107/107
f 112/112/112 107/107/107 111/111/111
f 112/112/112 111/111/111 113/113/113
f 112/112/112 113/113/113 110/110/110
f 111/111/111 110/110/110 114/114/114
f 114/114/114 113/113/113 111/111/111
f 115/115/115 110/110/110 113/113/113
f 115/115/115 114/114/114 110/110/110
f 115/115/115 113/113/113 116/116/116
f 114/114/114 115/115/115 117/117/117
f 116/116/116 117/117/117 115/115/115
f 113/113/113 114/114/114 118/118/118
f 117/117/117 118/118/118 114/114/114
f 118/118/118 116/116/116 113/113/113
f 118/118/118 117/117/117 119/119/119
f 118/118/118 119/119/119 116/116/116
f 119/119/119 117/117/117 116/116/116
f 105/105/105 108/108/108 120/120/120
f 121/121/121 120/120/120 108/108/108
f 108/108/108 122/122/122 121/121/121
f 122/122/122 108/108/108 103/103/103
f 103/103/103 105/105/105 123/123/123
f 122/122/122 103/103/103 124/124/124
f 123/123/123 124/124/124 103/103/103
f 123/123/123 125/125/125 124/124/124
f 126/126/126 123/123/123 105/105/105
f 123/123/123 126/126/126 125/125/125
f 105/105/105 122/122/122 126/126/126
f 124/124/124 126/126/126 122/122/122
f 122/122/122 105/105/105 127/127/127
f 127/127/127 121/121/121 122/122/122
f 120/120/120 127/127/127 105/105/105
f 126/126/126 124/124/124 128/128/128
f 128/128/128 125/125/125 126/126/126
f 121/121/121 127/127/127 129/129/129
f 129/129/129 120/120/120 121/121/121
f 130/130/130 129/129/129 127/127/127
f 127/127/127 120/120/120 130/130/130
f 131/131/131 129/129/129 130/130/130
f 130/130/130 120/120/120 131/131/131
f 131/131/131 120/120/120 129/129/129
f 132/132/132 128/128/128 124/124/124
f 132/132/132 124/124/124 125/125/125
f 132/132/132 133/133/133 128/128/128
f 132/132/132 125/125/125 133/133/133
f 128/128/128 134/134/134 125/125/125
f 134/134/134 128/128/128 133/133/133
f 135/135/135 133/133/133 125/125/125
f 135/135/135 125/125/125 134/134/134
f 134/134/134 133/133/133 136/136/136
f 136/136/136 133/133/133 137/137/137
f 133/133/133 135/135/135 137/137/137
f 137/137/137 134/134/134 136/136/136
f 137/137/137 135/135/135 138/138/138
f 138/138/138 134/134/134 137/137/137
f 135/135/135 134/134/134 138/138/138
f 141/141/141 140/140/140 139/139/139
f 140/140/140 142/142/142 139/139/139
f 142/142/142 143/143/143 139/139/139
f 139/139/139 144/144/144 141/141/141
f 141/141/141 144/144/144 140/140/140
f 143/143/143 144/144/144 139/139/139
f 143/143/143 142/142/142 145/145/145
f 145/145/145 142/142/142 146/146/146
f 147/147/147 145/145/145 146/146/146
f 148/148/148 145/145/145 147/147/147
f 148/148/148 143/143/143 145/145/145
f 148/148/148 147/147/147 146/146/146
f 149/149/149 142/142/142 140/140/140
f 144/144/144 143/143/143 149/149/149
f 146/146/146 142/142/142 150/150/150
f 143/143/143 148/148/148 150/150/150
f 151/151/151 142/142/142 149/149/149
f 150/150/150 142/142/142 151/151/151
f 143/143/143 150/150/150 151/151/151
f 149/149/149 143/143/143 151/151/151
f 144/144/144 149/149/149 152/152/152
f 153/153/153 149/149/149 140/140/140
f 153/153/153 152/152/152 149/149/149
f 154/154/154 152/152/152 153/153/153
f 152/152/152 155/155/155 144/144/144
f 140/140/140 144/144/144 155/155/155
f 155/155/155 152/152/152 156/156/156
f 155/155/155 156/156/156 140/140/140
f 156/156/156 152/152/152 157/157/157
f 156/156/156 157/157/157 140/140/140
f 157/157/157 153/153/153 140/140/140
f 152/152/152 154/154/154 157/157/157
f 153/153/153 157/157/157 158/158/158
f 158/158/158 154/154/154 153/153/153
f 157/157/157 154/154/154 159/159/159
f 159/159/159 158/158/158 157/157/157
f 159/159/159 160/160/160 158/158/158
f 159/159/159 154/154/154 160/160/160
f 161/161/161 154/154/154 158/158/158
f 161/161/161 158/158/158 160/160/160
f 154/154/154 162/162/162 160/160/160
f 162/162/162 154/154/154 161/161/161
f 161/161/161 160/160/160 163/163/163
f 162/162/162 161/161/161 164/164/164
f 163/163/163 164/164/164 161/161/161
f 165/165/165 164/164/164 163/163/163
f 160/160/160 162/162/162 166/166/166
f 166/166/166 167/167/167 160/160/160
f 166/166/166 162/162/162 167/167/167
f 160/160/160 167/167/167 163/163/163
f 164/164/164 168/168/168 162/162/162
f 167/167/167 162/162/162 168/168/168
f 168/168/168 164/164/164 169/169/169
f 168/168/168 169/169/169 167/167/167
f 169/169/169 164/164/164 170/170/170
f 169/169/169 170/170/170 167/167/167
f 167/167/167 170/170/170 163/163/163
f 164/164/164 165/165/165 170/170/170
f 163/163/163 170/170/170 171/171/171
f 171/171/171 165/165/165 163/163/163
f 170/170/170 172/172/172 171/171/171
f 170/170/170 165/165/165 172/172/172
f 172/172/172 173/173/173 171/171/171
f 165/165/165 173/173/173 172/172/172
f 165/165/165 171/171/171 174/174/174
f 171/171/171 173/173/173 174/174/174
f 175/175/175 165/165/165 174/174/174
f 165/165/165 175/175/175 173/173/173
f 173/173/173 176/176/176 174/174/174
f 176/176/176 177/177/177 174/174/174
f 175/175/175 178/178/178 173/173/173
f 178/178/178 176/176/176 173/173/173
f 174/174/174 177/177/177 179/179/179
f 174/174/174 179/179/179 175/175/175
f 175/175/175 180/180/180 178/178/178
f 180/180/180 176/176/176 178/178/178
f 175/175/175 181/181/181 180/180/180
f 176/176/176 180/180/180 181/181/181
f 181/181/181 175/175/175 179/179/179
f 182/182/182 181/181/181 179/179/179
f 181/181/181 182/182/182 177/177/177
f 181/181/181 183/183/183 176/176/176
f 183/183/183 177/177/177 176/176/176
f 181/181/181 177/177/177 183/183/183
f 179/179/179 177/177/177 184/184/184
f 182/182/182 179/179/179 184/184/184
f 182/182/182 185/185/185 177/177/177
f 185/185/185 184/184/184 177/177/177
f 185/185/185 186/186/186 184/184/184
f 182/182/182 186/186/186 185/185/185
f 182/182/182 184/184/184 187/187/187
f 187/187/187 184/184/184 186/186/186
f 188/188/188 182/182/182 187/187/187
f 182/182/182 188/188/188 186/186/186
f 187/187/187 150/150/150 188/188/188
f 187/187/187 146/146/146 150/150/150
f 186/186/186 146/146/146 187/187/187
f 148/148/148 188/188/188 150/150/150
f 146/146/146 189/189/189 148/148/148
f 188/188/188 148/148/148 189/189/189
f 188/188/188 190/190/190 186/186/186
f 190/190/190 146/146/146 186/186/186
f 188/188/188 189/189/189 190/190/190
f 189/189/189 146/146/146 190/190/190
f 193/193/193 192/192/192 191/191/191
f 194/194/194 191/191/191 192/192/192
f 194/194/194 192/192/192 193/193/193
f 191/191/191 195/195/195 193/193/193
f 194/194/194 195/195/195 191/191/191
f 196/196/196 193/193/193 195/195/195
f 194/194/194 193/193/193 196/196/196
f 195/195/195 197/197/197 196/196/196
f 194/194/194 197/197/197 195/195/195
f 198/198/198 196/196/196 197/197/197
f 194/194/194 196/196/196 198/198/198
f 197/197/197 199/199/199 198/198/198
f 194/194/194 200/200/200 197/197/197
f 199/199/199 197/197/197 200/200/200
f 198/198/198 201/201/201 194/194/194
f 200/200/200 194/194/194 201/201/201
f 201/201/201 198/198/198 199/199/199
f 201/201/201 202/202/202 200/200/200
f 199/199/199 203/203/203 201/201/201
f 202/202/202 201/201/201 203/203/203
f 200/200/200 204/204/204 199/199/199
f 203/203/203 199/199/199 204/204/204
f 204/204/204 200/200/200 202/202/202
f 204/204/204 205/205/205 203/203/203
f 205/205/205 204/204/204 206/206/206
f 203/203/203 207/207/207 202/202/202
f 207/207/207 203/203/203 206/206/206
f 207/207/207 206/206/206 204/204/204
f 208/208/208 203/203/203 205/205/205
f 208/208/208 206/206/206 203/203/203
f 208/208/208 205/205/205 209/209/209
f 208/208/208 209/209/209 206/206/206
f 205/205/205 206/206/206 210/210/210
f 210/210/210 209/209/209 205/205/205
f 211/211/211 206/206/206 209/209/209
f 211/211/211 210/210/210 206/206/206
f 211/211/211 212/212/212 210/210/210
f 211/211/211 209/209/209 212/212/212
f 210/210/210 213/213/213 209/209/209
f 213/213/213 210/210/210 212/212/212
f 214/214/214 212/212/212 209/209/209
f 214/214/214 209/209/209 213/213/213
f 214/214/214 215/215/215 212/212/212
f 213/213/213 216/216/216 214/214/214
f 215/215/215 214/214/214 216/216/216
f 212/212/212 217/217/217 213/213/213
f 216/216/216 213/213/213 217/217/217
f 217/217/217 212/212/212 215/215/215
f 216/216/216 217/217/217 218/218/218
f 218/218/218 217/217/217 215/215/215
f 216/216/216 218/218/218 215/215/215
f 204/204/204 219/219/219 207/207/207
f 220/220/220 207/207/207 219/219/219
f 207/207/207 220/220/220 221/221/221
f 221/221/221 202/202/202 207/207/207
f 202/202/202 222/222/222 204/204/204
f 221/221/221 223/223/223 202/202/202
f 222/222/222 202/202/202 223/223/223
f 222/222/222 223/223/223 224/224/224
f 225/225/225 204/204/204 222/222/222
f 222/222/222 224/224/224 225/225/225
f 204/204/204 225/225/225 221/221/221
f 223/223/223 221/221/221 225/225/225
f 221/221/221 226/226/226 204/204/204
f 226/226/226 221/221/221 220/220/220
f 219/219/219 204/204/204 226/226/226
f 225/225/225 227/227/227 223/223/223
f 227/227/227 225/225/225 224/224/224
f 220/220/220 228/228/228 226/226/226
f 219/219/219 228/228/228 220/220/220
f 229/229/229 226/226/226 228/228/228
f 219/219/219 226/226/226 229/229/229
f 228/228/228 230/230/230 229/229/229
f 219/219/219 229/229/229 230/230/230
f 219/219/219 230/230/230 228/228/228
f 231/231/231 223/223/223 227/227/227
f 231/231/231 224/224/224 223/223/223
f 231/231/231 227/227/227 232/232/232
f 231/231/231 232/232/232 224/224/224
f 227/227/227 224/224/224 233/233/233
f 233/233/233 232/232/232 227/227/227
f 234/234/234 224/224/224 232/232/232
f 234/234/234 233/233/233 224/224/224
f 232/232/232 233/233/233 235/235/235
f 232/232/232 235/235/235 236/236/236
f 234/234/234 232/232/232 236/236/236
f 233/233/233 236/236/236 235/235/235
f 234/234/234 236/236/236 237/237/237
f 233/233/233 237/237/237 236/236/236
f 233/233/233 234/234/234 237/237/237
