g Chinatsu_Original_Halo
v -0.16886769 0.1692741 1.0751476
v -0.16886769 0.19459768 1.0688447
v -0.014552668 0.18723796 1.0600742
v -0.234084 0.18723796 1.0600742
v -0.16886769 0.20520185 1.0449995
v -0.16886769 0.18042661 1.0519555
v -0.023451224 0.31659865 0.95152783
v -0 0.32395697 0.9602983
v -0 0.19838496 1.050721
v -0 0.36655694 0.9096085
v 0.023451254 0.31659865 0.95152783
v -0 0.30978596 0.9434104
v 0.014552668 0.18723796 1.0600742
v 0.16886634 0.19459768 1.0688447
v 0.16886634 0.1692741 1.0751476
v 0.16886634 0.20520185 1.0449995
v 0.234084 0.18723796 1.0600742
v 0.16886634 0.18042661 1.0519555
v -0 0.176091 1.0694275
v -0 0.06523831 1.177391
v -0.023451224 0.05787863 1.1686206
v 0.023451254 0.05787863 1.1686206
v -0 0.007920399 1.2105399
v -0 0.051065907 1.1605018
v 0.079943925 0.20176171 1.0258672
v 0.06290451 0.19886853 1.0334005
v 0.04814519 0.21578948 1.0192006
v 0.061186507 0.22326763 1.0078222
v 0.086530715 0.17639546 1.0471528
v 0.04814519 0.21076362 1.0132117
v 0.06290451 0.1938427 1.027409
v 0.026056483 0.22709627 1.0097138
v 0.06808743 0.17388253 1.0441576
v 0.026056483 0.22206904 1.0037235
v 0.06808743 0.1789084 1.0501479
v 0.03311445 0.23763709 0.9957645
v 0.07994531 0.15102921 1.0684383
v -0 0.23106544 1.0063825
v 0.06290451 0.1539224 1.0609064
v -0 0.22603957 1.0003922
v 0.06290451 0.15894963 1.0668967
v -0 0.24268223 0.9915308
v 0.061186507 0.12952466 1.0864835
v -0.026056483 0.22709627 1.0097138
v 0.048143804 0.13700144 1.0751036
v -0.026056483 0.22206904 1.0037235
v 0.048143804 0.14202867 1.0810952
v -0.03311445 0.23763709 0.9957645
v 0.03311445 0.115155235 1.0985397
v -0.04814379 0.21578948 1.0192006
v 0.026056483 0.12569465 1.0845904
v -0.04814379 0.21076362 1.0132117
v 0.026056483 0.13072188 1.0905821
v -0.061186507 0.22326763 1.0078222
v -0 0.11010869 1.1027734
v -0.06290449 0.19886853 1.0334005
v -0 0.121725485 1.0879232
v -0.06290449 0.1938427 1.027409
v -0 0.12675135 1.0939133
v -0.07994391 0.20176171 1.0258672
v -0.03311445 0.115155235 1.0985397
v -0.068087414 0.1789084 1.0501479
v -0.026056483 0.12569465 1.0845904
v -0.068087414 0.17388253 1.0441576
v -0.026056483 0.13072188 1.0905821
v -0.0865307 0.17639546 1.0471528
v -0.061186507 0.12952466 1.0864835
v -0.06290449 0.15894963 1.0668967
v -0.04814516 0.13700144 1.0751036
v -0.06290449 0.1539224 1.0609064
v -0.04814516 0.14202867 1.0810939
v -0.07994391 0.15102921 1.0684383
vt 0.31411538 0.68463355
vt 0.3147512 0.5012006
vt 0.9705256 0.50346303
vt 0.037583448 0.5002395
vt 0.31538704 0.31787127
vt 0.3147512 0.5012006
vt 0.6708964 0.1672064
vt 0.7529052 0.24920037
vt 0.21319401 0.7890003
vt 0.9809948 0.021095932
vt 0.83500266 0.33129787
vt 0.7529052 0.24920037
vt 0.506036 0.012016706
vt 0.50563675 0.69318044
vt 0.31515047 0.69312125
vt 0.69612306 0.6933431
vt 0.5054741 0.9810836
vt 0.50563675 0.69318044
vt 0.78929603 0.20819598
vt 0.24949613 0.74799585
vt 0.16750214 0.6660019
vt 0.3315049 0.83000463
vt 0.021406459 0.9761003
vt 0.24949613 0.74799585
vt 0.87170404 0.65399486
vt 0.79240125 0.62109375
vt 0.8165041 0.50000286
vt 0.90229833 0.50000286
vt 0.784505 0.784505
vt 0.8165041 0.50000286
vt 0.79240125 0.62109375
vt 0.79240125 0.37889728
vt 0.72380435 0.72380435
vt 0.79240125 0.37889728
vt 0.72380435 0.72380435
vt 0.87170404 0.34609967
vt 0.6539061 0.87170404
vt 0.72380435 0.2762015
vt 0.62109375 0.7925048
vt 0.72380435 0.2762015
vt 0.62109375 0.7925048
vt 0.784505 0.21550077
vt 0.50000286 0.90229833
vt 0.62109375 0.20760453
vt 0.50000286 0.8165041
vt 0.62109375 0.20760453
vt 0.50000286 0.8165041
vt 0.65399486 0.12830177
vt 0.34599617 0.87170404
vt 0.50000286 0.18350169
vt 0.37889728 0.7925048
vt 0.50000286 0.18350169
vt 0.37889728 0.7925048
vt 0.50000286 0.09769265
vt 0.21550077 0.784505
vt 0.37889728 0.20760453
vt 0.2762015 0.72380435
vt 0.37889728 0.20760453
vt 0.2762015 0.72380435
vt 0.34599617 0.12830177
vt 0.12830177 0.65399486
vt 0.2762015 0.2762015
vt 0.207501 0.62109375
vt 0.2762015 0.2762015
vt 0.207501 0.62109375
vt 0.21550077 0.21550077
vt 0.09769265 0.50000286
vt 0.207501 0.37889728
vt 0.18350169 0.50000286
vt 0.207501 0.37889728
vt 0.18350169 0.50000286
vt 0.12830177 0.34599617
vn -0.08504391 -0.7712606 0.6308126
vn -0.047898293 0.6422285 0.76501524
vn 0.9999995 -0.0009775162 -0
vn -0.9999957 -0.0029325373 -0
vn -0.08504391 0.75562036 -0.64946544
vn -0.043988228 -0.6422284 -0.7652501
vn -0.99608946 0.057673454 -0.06692935
vn -0.0009775162 0.6793741 0.7337915
vn -0.0009775162 -0.76735055 0.64122707
vn -0.0009775162 0.7634405 -0.6458774
vn 0.99608946 0.057673454 -0.06692935
vn -0.0009775162 -0.60703784 -0.7946723
vn -0.9999995 -0.0009775162 -0
vn 0.047898293 0.6422285 0.76501524
vn 0.08504397 -0.7712606 0.6308126
vn 0.08504397 0.75562036 -0.64946544
vn 0.9999957 -0.0029325373 -0
vn 0.043988228 -0.6422284 -0.7652501
vn 0.0009775162 0.7653955 -0.6435594
vn -0.0009775162 0.60508275 0.796162
vn -0.99608946 -0.07331377 0.049303703
vn 0.99608946 -0.07331377 0.049303703
vn -0.0009775162 -0.7693056 0.63888025
vn -0.0009775162 -0.67741907 -0.73559666
vn 0.9237532 0.29227746 -0.24749522
vn -0.52101636 0.36656868 0.77082384
vn -0.39784932 0.22580636 0.8892286
vn 0.70674455 0.5425217 -0.454073
vn 0.9999995 0.0009775162 -0
vn -0.39784932 -0.83577675 -0.37840876
vn -0.52101636 -0.6969694 -0.4927227
vn -0.2160312 0.1319648 0.96742743
vn -0.5640271 -0.5307915 -0.63256127
vn -0.2160312 -0.92961836 -0.29856363
vn -0.5640271 0.5307915 0.63256127
vn 0.382209 0.7086996 -0.5930103
vn 0.9237532 -0.29227746 0.24749522
vn -0.0009775162 0.09872913 0.99511385
vn -0.52101636 -0.36656874 -0.7708238
vn -0.0009775162 -0.9628539 -0.27002108
vn -0.52101636 0.6969694 0.4927227
vn -0.0009775162 0.7653955 -0.6435594
vn 0.70674455 -0.5425217 0.454073
vn 0.2160312 0.1319648 0.96742743
vn -0.39784932 -0.22580636 -0.8892286
vn 0.2160312 -0.92961836 -0.29856363
vn -0.39784932 0.8357767 0.37840882
vn -0.38220906 0.7086996 -0.59301025
vn 0.382209 -0.7086996 0.5930103
vn 0.39784926 0.22580636 0.8892286
vn -0.2160312 -0.13196474 -0.96742743
vn 0.39784926 -0.83577675 -0.37840876
vn -0.2160312 0.92961836 0.29856363
vn -0.70674455 0.5425217 -0.454073
vn -0.0009775162 -0.7653955 0.6435594
vn 0.52101636 0.36656868 0.77082384
vn -0.0009775162 -0.09872919 -0.99511385
vn 0.52101636 -0.6969694 -0.4927227
vn -0.0009775162 0.9628539 0.27002108
vn -0.92375326 0.29227746 -0.2474951
vn -0.38220906 -0.7086996 0.59301025
vn 0.5640271 0.5307915 0.63256127
vn 0.2160312 -0.13196474 -0.96742743
vn 0.5640271 -0.5307915 -0.63256127
vn 0.2160312 0.92961836 0.29856363
vn -0.9999995 -0.0009775162 -0
vn -0.70674455 -0.5425217 0.454073
vn 0.52101636 0.6969694 0.4927227
vn 0.39784926 -0.22580636 -0.8892286
vn 0.52101636 -0.36656874 -0.7708238
vn 0.39784926 0.8357767 0.37840882
vn -0.92375326 -0.29227746 0.2474951
g Chinatsu_Original_Halo_0
f 3/3/3 2/2/2 1/1/1
f 1/1/1 2/2/2 4/4/4
f 5/5/5 2/2/2 3/3/3
f 4/4/4 2/2/2 5/5/5
f 1/1/1 6/6/6 3/3/3
f 6/6/6 5/5/5 3/3/3
f 5/5/5 6/6/6 4/4/4
f 1/1/1 4/4/4 6/6/6
f 9/9/9 8/8/8 7/7/7
f 7/7/7 8/8/8 10/10/10
f 11/11/11 8/8/8 9/9/9
f 10/10/10 8/8/8 11/11/11
f 7/7/7 12/12/12 9/9/9
f 12/12/12 11/11/11 9/9/9
f 11/11/11 12/12/12 10/10/10
f 7/7/7 10/10/10 12/12/12
f 15/15/15 14/14/14 13/13/13
f 13/13/13 14/14/14 16/16/16
f 17/17/17 14/14/14 15/15/15
f 16/16/16 14/14/14 17/17/17
f 16/16/16 18/18/18 13/13/13
f 15/15/15 13/13/13 18/18/18
f 17/17/17 18/18/18 16/16/16
f 15/15/15 18/18/18 17/17/17
f 21/21/21 20/20/20 19/19/19
f 19/19/19 20/20/20 22/22/22
f 23/23/23 20/20/20 21/21/21
f 22/22/22 20/20/20 23/23/23
f 22/22/22 24/24/24 19/19/19
f 21/21/21 19/19/19 24/24/24
f 23/23/23 24/24/24 22/22/22
f 21/21/21 24/24/24 23/23/23
f 27/27/27 26/26/26 25/25/25
f 28/28/28 27/27/27 25/25/25
f 25/25/25 26/26/26 29/29/29
f 30/30/30 28/28/28 25/25/25
f 31/31/31 25/25/25 29/29/29
f 31/31/31 30/30/30 25/25/25
f 27/27/27 30/30/30 31/31/31
f 26/26/26 27/27/27 31/31/31
f 27/27/27 32/32/32 30/30/30
f 32/32/32 27/27/27 28/28/28
f 26/26/26 31/31/31 33/33/33
f 33/33/33 31/31/31 29/29/29
f 30/30/30 34/34/34 28/28/28
f 32/32/32 34/34/34 30/30/30
f 26/26/26 35/35/35 29/29/29
f 35/35/35 26/26/26 33/33/33
f 36/36/36 32/32/32 28/28/28
f 34/34/34 36/36/36 28/28/28
f 33/33/33 29/29/29 37/37/37
f 29/29/29 35/35/35 37/37/37
f 32/32/32 38/38/38 34/34/34
f 38/38/38 32/32/32 36/36/36
f 35/35/35 33/33/33 39/39/39
f 39/39/39 33/33/33 37/37/37
f 34/34/34 40/40/40 36/36/36
f 38/38/38 40/40/40 34/34/34
f 35/35/35 41/41/41 37/37/37
f 41/41/41 35/35/35 39/39/39
f 42/42/42 38/38/38 36/36/36
f 40/40/40 42/42/42 36/36/36
f 39/39/39 37/37/37 43/43/43
f 37/37/37 41/41/41 43/43/43
f 38/38/38 44/44/44 40/40/40
f 44/44/44 38/38/38 42/42/42
f 41/41/41 39/39/39 45/45/45
f 45/45/45 39/39/39 43/43/43
f 40/40/40 46/46/46 42/42/42
f 44/44/44 46/46/46 40/40/40
f 41/41/41 47/47/47 43/43/43
f 47/47/47 41/41/41 45/45/45
f 48/48/48 44/44/44 42/42/42
f 46/46/46 48/48/48 42/42/42
f 45/45/45 43/43/43 49/49/49
f 43/43/43 47/47/47 49/49/49
f 44/44/44 50/50/50 46/46/46
f 50/50/50 44/44/44 48/48/48
f 47/47/47 45/45/45 51/51/51
f 51/51/51 45/45/45 49/49/49
f 46/46/46 52/52/52 48/48/48
f 50/50/50 52/52/52 46/46/46
f 47/47/47 53/53/53 49/49/49
f 53/53/53 47/47/47 51/51/51
f 54/54/54 50/50/50 48/48/48
f 52/52/52 54/54/54 48/48/48
f 51/51/51 49/49/49 55/55/55
f 49/49/49 53/53/53 55/55/55
f 50/50/50 56/56/56 52/52/52
f 56/56/56 50/50/50 54/54/54
f 53/53/53 51/51/51 57/57/57
f 57/57/57 51/51/51 55/55/55
f 52/52/52 58/58/58 54/54/54
f 56/56/56 58/58/58 52/52/52
f 53/53/53 59/59/59 55/55/55
f 59/59/59 53/53/53 57/57/57
f 60/60/60 56/56/56 54/54/54
f 58/58/58 60/60/60 54/54/54
f 57/57/57 55/55/55 61/61/61
f 55/55/55 59/59/59 61/61/61
f 56/56/56 62/62/62 58/58/58
f 62/62/62 56/56/56 60/60/60
f 59/59/59 57/57/57 63/63/63
f 63/63/63 57/57/57 61/61/61
f 58/58/58 64/64/64 60/60/60
f 62/62/62 64/64/64 58/58/58
f 59/59/59 65/65/65 61/61/61
f 65/65/65 59/59/59 63/63/63
f 66/66/66 62/62/62 60/60/60
f 64/64/64 66/66/66 60/60/60
f 63/63/63 61/61/61 67/67/67
f 61/61/61 65/65/65 67/67/67
f 62/62/62 68/68/68 64/64/64
f 68/68/68 62/62/62 66/66/66
f 65/65/65 63/63/63 69/69/69
f 69/69/69 63/63/63 67/67/67
f 64/64/64 70/70/70 66/66/66
f 68/68/68 70/70/70 64/64/64
f 65/65/65 71/71/71 67/67/67
f 71/71/71 65/65/65 69/69/69
f 71/71/71 69/69/69 70/70/70
f 68/68/68 71/71/71 70/70/70
f 70/70/70 72/72/72 66/66/66
f 70/70/70 69/69/69 72/72/72
f 69/69/69 67/67/67 72/72/72
f 67/67/67 71/71/71 72/72/72
f 71/71/71 68/68/68 72/72/72
f 72/72/72 68/68/68 66/66/66
