g CH0167_Halo
v -0.046536744 0.058785543 -0.0314591
v -0.08989316 0.04944566 -0.02362194
v -0.103083685 0.060848385 -0.033189997
v -0.058018133 0.07055619 -0.041335955
v -0.051964596 0.059959367 -0.04136134
v -0.022555798 0.087989315 -0.055963926
v -0.14688753 0.045977443 -0.02071163
v -0.09600444 0.0504722 -0.033400886
v -0.13235189 0.038132474 -0.023046456
v -0.11936946 0.039438814 -0.015225202
v -0.027605668 0.08962341 -0.066252515
v -0.12175842 0.01472728 0.0055101514
v -0.033091813 0.100911215 -0.06680679
v -0.11150052 0.012201935 -0.0012881905
v -0.0016737133 0.10680713 -0.07175401
v -0.10245967 0.018410012 0.0024199188
v -0.0018555969 0.11282776 -0.08572337
v -0.09177497 -0.012813106 0.028619379
v -0.08219938 -0.014711648 0.021294937
v -0.0020595044 0.12887587 -0.090271965
v -0.07361351 -0.008085698 0.024652675
v 0.019858599 0.088424474 -0.05632907
v 0.029939085 0.10155782 -0.06734935
v 0.024696186 0.09015983 -0.066702746
v -0.09364842 -0.048645616 0.058686227
v -0.08403014 -0.049728505 0.050677508
v -0.07541582 -0.042559437 0.053579167
v 0.044852145 0.059723094 -0.03224574
v 0.055917896 0.071725294 -0.04231675
v 0.050083615 0.061006278 -0.042239763
v 0.08851959 0.051276147 -0.025157847
v 0.09443923 0.05242598 -0.03504028
v 0.10130675 0.06294528 -0.034949623
v 0.118335105 0.041877687 -0.017271593
v 0.13120511 0.040836647 -0.025315456
v 0.14561467 0.048978418 -0.023230009
v -0.079942375 -0.08002271 0.07609758
v -0.08872184 -0.08515431 0.08932075
v -0.07210076 -0.06712675 0.07419373
v -0.042159155 -0.07650345 0.08206186
v -0.041305557 -0.07284443 0.07007417
v -0.040768012 -0.0613053 0.06930901
v 0.0012979656 -0.06316954 0.07087308
v 0.0011626631 -0.059813745 0.059140086
v 0.0010410398 -0.048476852 0.0585448
v 0.10216648 0.020509407 0.0006583333
v 0.12158713 0.01722391 0.003415212
v 0.111267574 0.014487386 -0.0032059848
v 0.045205854 -0.07560717 0.08130953
v 0.04407108 -0.07196824 0.06933913
v 0.04328388 -0.060442783 0.068585396
v 0.074257046 -0.0065687597 0.023379534
v 0.09257723 -0.010921806 0.027032137
v 0.08291795 -0.01301758 0.019873396
v 0.07726387 -0.04099284 0.052265033
v 0.0859722 -0.047984496 0.049214125
v 0.0957026 -0.046702996 0.057056308
v 0.07480881 -0.0656193 0.072928965
v 0.09205447 -0.08329984 0.08776447
v 0.08294501 -0.078351505 0.07469529
v -0.032528892 0.010781229 -0.0038219243
v -0.0419717 0.0016438663 0.0038450807
v -0.058920547 0.003938526 0.0019197464
v -0.047852844 0.014648065 -0.007066682
v -0.039914697 0.008253917 -0.0106188655
v -0.03303379 0.022428587 -0.013595283
v -0.06701574 -0.0138775855 0.016869351
v -0.05014555 -0.0016458184 -0.002311945
v -0.056528807 -0.015694395 0.009476289
v -0.046765774 -0.008906931 0.012698188
v -0.040461734 0.02087371 -0.021207884
v -0.046911106 -0.024771497 0.026010334
v -0.04844451 0.028299972 -0.01852186
v -0.040675685 -0.024284728 0.016684413
v -0.028703347 0.033096552 -0.022546574
v -0.034859538 -0.015358537 0.01811181
v -0.03469579 0.03507796 -0.033126675
v -0.029779255 -0.028559111 0.02918844
v -0.024839297 -0.027785853 0.01962234
v -0.04113233 0.046313584 -0.03363716
v -0.020243004 -0.018589914 0.020823225
v -0.014122799 0.032864183 -0.022351868
v -0.016511738 0.045921385 -0.033307992
v -0.015281558 0.034768596 -0.032867245
v -0.019903243 -0.03993199 0.038731396
v -0.015710026 -0.038298726 0.028443635
v -0.011816978 -0.028292991 0.028964996
v 0.00013919175 0.028808221 -0.018948376
v 0.00020447373 0.041167483 -0.029318973
v 0.0001707077 0.030374259 -0.029179782
v 0.014443576 0.03277521 -0.02227711
v 0.015669018 0.034672365 -0.032786354
v 0.016970605 0.04581733 -0.03322068
v 0.029026076 0.03291692 -0.022395946
v 0.035085753 0.034860924 -0.032944515
v 0.041594543 0.04605612 -0.03342125
v -0.00024102628 -0.047290467 0.035988733
v -0.00028593838 -0.051335275 0.048299998
v -0.00019945204 -0.035045862 0.034631625
v 0.019451886 -0.040054448 0.03883432
v 0.015322834 -0.03839524 0.028524533
v 0.011489481 -0.028365515 0.029025808
v 0.02944813 -0.028743498 0.02934298
v 0.024563119 -0.027939558 0.019751206
v 0.020017877 -0.018715173 0.020928383
v 0.033243276 0.022222444 -0.01342234
v 0.04871591 0.027997598 -0.018268287
v 0.04070106 0.020620987 -0.020995885
v 0.046619587 -0.025062725 0.026254699
v 0.040436335 -0.0245369 0.016896129
v 0.034668438 -0.0155747235 0.01829341
v 0.032614797 0.010578424 -0.003651753
v 0.0479792 0.014349863 -0.0068164617
v 0.040020138 0.008005366 -0.010409936
v 0.04196053 0.0013827682 0.0040643364
v 0.05014582 -0.0019576848 -0.0020500124
v 0.058933094 0.0035719872 0.0022274405
v 0.04664246 -0.009197608 0.012942269
v 0.06683915 -0.014294058 0.017218605
v 0.05637984 -0.0160456 0.009771138
vt 0.3560396 0.34356067
vt 0.21750161 0.38296568
vt 0.17534408 0.334861
vt 0.3193443 0.29390147
vt 0.33868316 0.3200859
vt 0.4326534 0.22033969
vt 0.03537991 0.39761242
vt 0.19796312 0.36011848
vt 0.08183022 0.41217363
vt 0.12330319 0.42519453
vt 0.41652343 0.19492537
vt 0.11567319 0.5294617
vt 0.39899582 0.16581726
vt 0.14844655 0.5215892
vt 0.4993838 0.1409449
vt 0.17734072 0.51391643
vt 0.4987991 0.09701891
vt 0.21148318 0.6456659
vt 0.24207449 0.6351408
vt 0.49815732 0.04783036
vt 0.269514 0.62571377
vt 0.5681822 0.2185142
vt 0.6003993 0.1630933
vt 0.5836418 0.19265777
vt 0.20549327 0.796854
vt 0.23622721 0.7828918
vt 0.26375225 0.7711687
vt 0.64804757 0.33961016
vt 0.6834023 0.28896692
vt 0.66476226 0.3156648
vt 0.7875839 0.3752501
vt 0.8064949 0.35187522
vt 0.82844365 0.32601878
vt 0.88285196 0.4148976
vt 0.9239827 0.40076426
vt 0.97001934 0.38494807
vt 0.24929091 0.9107193
vt 0.22123817 0.9508945
vt 0.2743487 0.8748226
vt 0.37001607 0.91438454
vt 0.3727543 0.8804275
vt 0.37446573 0.850264
vt 0.5088821 0.8581365
vt 0.5084542 0.8254487
vt 0.5080549 0.7961409
vt 0.8311819 0.50505996
vt 0.89324874 0.5189223
vt 0.8602757 0.51194835
vt 0.6491743 0.9106052
vt 0.6455518 0.87673366
vt 0.64304173 0.8466273
vt 0.74200356 0.61931026
vt 0.8005478 0.63767934
vt 0.7696855 0.62799567
vt 0.75161594 0.7645655
vt 0.77944046 0.7755328
vt 0.81053096 0.78865355
vt 0.74377203 0.8684619
vt 0.79887915 0.9430648
vt 0.76977104 0.90365976
vt 0.40079278 0.51983505
vt 0.37061507 0.55839866
vt 0.31646344 0.54871494
vt 0.35183242 0.5035197
vt 0.3771897 0.51197684
vt 0.39918122 0.47070357
vt 0.29059276 0.6238883
vt 0.3445019 0.5537493
vt 0.3241077 0.6130209
vt 0.355298 0.6029093
vt 0.37544978 0.45873803
vt 0.35484165 0.6698537
vt 0.34993562 0.44593102
vt 0.37476522 0.6492741
vt 0.41301507 0.42567945
vt 0.3933482 0.6301349
vt 0.39387587 0.39879614
vt 0.409578 0.6858268
vt 0.4253657 0.6640349
vt 0.37329626 0.36991623
vt 0.44005522 0.6437691
vt 0.459608 0.4266635
vt 0.45197797 0.3715706
vt 0.45589995 0.40010822
vt 0.4411391 0.73381734
vt 0.4545308 0.70840305
vt 0.46696702 0.6847144
vt 0.50517404 0.4437775
vt 0.50538796 0.3916368
vt 0.5052739 0.41864842
vt 0.55088276 0.4270343
vt 0.5548047 0.40050757
vt 0.55895483 0.3720127
vt 0.59747565 0.42644957
vt 0.61684304 0.3997089
vt 0.63763654 0.37100014
vt 0.5039618 0.7463391
vt 0.50381917 0.7819363
vt 0.50409013 0.71319497
vt 0.56688434 0.7343308
vt 0.5536923 0.70880234
vt 0.5414415 0.6850139
vt 0.5988305 0.6866112
vt 0.583214 0.664691
vt 0.56869555 0.64429677
vt 0.6109529 0.47157353
vt 0.6603982 0.4472003
vt 0.6347842 0.4597934
vt 0.6536952 0.67108023
vt 0.6339428 0.6503295
vt 0.61551666 0.63104767
vt 0.60894203 0.52069074
vt 0.658045 0.504789
vt 0.63261646 0.51303226
vt 0.638806 0.55949676
vt 0.66496193 0.5550614
vt 0.6930432 0.55025524
vt 0.6537665 0.6041359
vt 0.71830064 0.6256425
vt 0.6848855 0.6145041
vn 0.5761752 -0.42060584 0.70079446
vn 0.30677462 -0.46044677 0.83299345
vn -0.33637178 0.8713784 -0.35714662
vn -0.55454826 0.8125657 -0.17948039
vn 0.09428972 -0.7317445 -0.67502546
vn 0.7658939 -0.19863498 0.6115151
vn -0.94347155 0.32119417 -0.0818275
vn 0.008916318 -0.63688517 -0.7709071
vn -0.19218552 -0.58376396 -0.78885007
vn 0.8057348 0.1542418 0.57183987
vn -0.008158386 -0.6482683 -0.7613683
vn -0.786005 -0.23468155 0.57194465
vn -0.7632388 0.6266413 -0.15743986
vn 0.0032247305 -0.65016544 -0.7597859
vn 0.010813475 -0.29918587 0.95413357
vn 0.75451076 0.6475104 -0.10697567
vn -0.0024667978 -0.4756243 -0.87964505
vn -0.87517285 0.01574713 0.483554
vn 0.14930815 -0.595147 -0.7896247
vn -0.013849974 0.8543037 -0.5195896
vn 0.9119773 0.4084648 0.038130317
vn -0.7499585 -0.21381247 0.6259764
vn 0.74881923 0.643716 -0.15779579
vn 0.008916318 -0.6482683 -0.7613598
vn -0.9567518 0.15234458 0.24782471
vn -0.0043640137 -0.63498795 -0.7725097
vn 0.94043505 0.23202646 0.24848673
vn -0.55644536 -0.43198895 0.7097564
vn 0.53443706 0.82394874 -0.18837596
vn -0.09163463 -0.7336417 -0.6733298
vn -0.28135335 -0.46803552 0.8377249
vn -0.008158386 -0.6387824 -0.76934415
vn 0.3124662 0.87896717 -0.36025205
vn -0.7973882 0.13906431 0.58722496
vn 0.19104624 -0.5799695 -0.79191965
vn 0.9366407 0.3401661 -0.08361362
vn -0.11629808 -0.756408 -0.64367825
vn -0.56972575 -0.5211568 0.635459
vn 0.4870074 0.87327564 -0.01461177
vn 0.27831686 -0.51736236 0.80924404
vn 0.010813475 -0.6425767 -0.76614505
vn -0.29842794 0.9017334 -0.31275815
vn 0.0127106905 -0.46424115 0.8856176
vn -0.0024667978 -0.51356804 -0.85804534
vn -0.013849974 0.90932214 -0.4158623
vn -0.77082753 0.6323329 -0.077330366
vn 0.8000432 -0.21950406 0.55834466
vn -0.0024667978 -0.65016544 -0.7597887
vn -0.2547927 -0.52305394 0.8133236
vn -0.010055602 -0.6425767 -0.7661554
vn 0.27452248 0.90742505 -0.31814653
vn -0.9207053 0.389493 0.024432367
vn 0.8835195 0.03471899 0.46710593
vn -0.15044737 -0.59894145 -0.78653336
vn -0.9396771 0.21305454 0.26760915
vn 0.0032247305 -0.63498795 -0.77251536
vn 0.95750976 0.1713165 0.2320037
vn -0.5048728 0.8631937 -0
vn 0.5913527 -0.5097736 0.6248463
vn 0.120850325 -0.75261354 -0.6472774
vn 0.9062857 -0.035476923 0.42117408
vn 0.7924545 -0.10756999 0.6003704
vn -0.846715 0.53178203 -0.016782781
vn -0.85999537 0.49004388 0.14235513
vn 0.1512053 -0.67293173 -0.7240855
vn 0.91577166 0.17700803 0.36059734
vn -0.9320884 -0.09428972 0.3497438
vn -0.036616206 -0.6065302 -0.7942168
vn -0.18839109 -0.6767261 -0.7117236
vn 0.82850105 0.52039886 0.2068116
vn -0.057485223 -0.6539599 -0.7543421
vn -0.43312824 -0.45475525 0.7782015
vn -0.94157434 0.30981112 0.1321168
vn -0.0024667978 -0.6881092 -0.7256029
vn 0.50787646 -0.22329843 0.8319852
vn 0.37317616 0.89604187 -0.2405173
vn -0.11440086 -0.50787646 -0.8537997
vn -0.53557634 -0.2859056 0.7946169
vn 0.09428972 -0.5363343 -0.8387222
vn -0.57162285 0.7423698 -0.34947738
vn 0.56479204 0.7822107 -0.26297596
vn -0.19977427 -0.43768054 0.8766561
vn 0.15499967 0.9150138 -0.37245786
vn 0.033579707 -0.60273576 -0.79723394
vn -0.6778654 -0.31626058 0.66368496
vn -0.055588007 -0.6577542 -0.7511787
vn 0.6900064 0.7177063 -0.093748726
vn -0.0043640137 -0.53823143 0.8427857
vn 0.0032247305 0.9662378 -0.25763187
vn -0.0005696416 -0.756408 -0.6540999
vn 0.19294345 -0.4395777 0.8772367
vn -0.032821834 -0.60273576 -0.79726547
vn -0.14855027 0.9169109 -0.3704149
vn -0.5147073 -0.22140121 0.8282861
vn 0.11705595 -0.50787646 -0.85343975
vn 0.57807237 0.73857534 -0.34689882
vn -0.0005696416 -0.78107136 -0.6244415
vn -0.0043640137 -0.61411893 0.7892014
vn 0.0032247305 0.9833125 -0.18189608
vn 0.67293173 -0.32195216 0.66596526
vn 0.05634594 -0.6577542 -0.75112224
vn -0.68545413 0.72150064 -0.09792596
vn 0.52874553 -0.28780276 0.7984972
vn -0.09353185 -0.5363343 -0.83880705
vn -0.5583426 0.786005 -0.26542366
vn -0.9169109 0.18269956 0.3548172
vn 0.94233227 0.3041196 0.13971815
vn 0.058243155 -0.6539599 -0.7542839
vn 0.42629743 -0.4566524 0.7808579
vn 0.0032247305 -0.6881092 -0.7256
vn -0.36672676 0.8979391 -0.24334514
vn -0.90932214 -0.029785335 0.4150254
vn 0.86075324 0.48435235 0.15654594
vn -0.15044737 -0.6710346 -0.7260015
vn -0.7973882 -0.101878464 0.5948049
vn 0.03737408 -0.6065302 -0.7941815
vn 0.8493701 0.5260904 -0.042418335
vn -0.82584596 0.5260904 0.20299593
vn 0.92905194 -0.09998125 0.3561829
vn 0.18725187 -0.6767261 -0.7120242
g CH0167_Halo_0
f 3/3/3 2/2/2 1/1/1
f 4/4/4 3/3/3 1/1/1
f 1/1/1 2/2/2 5/5/5
f 4/4/4 1/1/1 6/6/6
f 6/6/6 1/1/1 5/5/5
f 3/3/3 7/7/7 2/2/2
f 3/3/3 4/4/4 8/8/8
f 2/2/2 8/8/8 5/5/5
f 4/4/4 5/5/5 8/8/8
f 3/3/3 8/8/8 9/9/9
f 7/7/7 3/3/3 9/9/9
f 2/2/2 10/10/10 8/8/8
f 7/7/7 10/10/10 2/2/2
f 10/10/10 9/9/9 8/8/8
f 5/5/5 4/4/4 11/11/11
f 11/11/11 6/6/6 5/5/5
f 12/12/12 7/7/7 9/9/9
f 7/7/7 12/12/12 10/10/10
f 13/13/13 4/4/4 6/6/6
f 4/4/4 13/13/13 11/11/11
f 9/9/9 10/10/10 14/14/14
f 14/14/14 12/12/12 9/9/9
f 15/15/15 6/6/6 11/11/11
f 13/13/13 6/6/6 15/15/15
f 12/12/12 16/16/16 10/10/10
f 10/10/10 16/16/16 14/14/14
f 11/11/11 13/13/13 17/17/17
f 17/17/17 15/15/15 11/11/11
f 18/18/18 12/12/12 14/14/14
f 12/12/12 18/18/18 16/16/16
f 14/14/14 16/16/16 19/19/19
f 19/19/19 18/18/18 14/14/14
f 20/20/20 13/13/13 15/15/15
f 13/13/13 20/20/20 17/17/17
f 18/18/18 21/21/21 16/16/16
f 16/16/16 21/21/21 19/19/19
f 20/20/20 15/15/15 22/22/22
f 20/20/20 23/23/23 17/17/17
f 23/23/23 20/20/20 22/22/22
f 15/15/15 17/17/17 24/24/24
f 22/22/22 15/15/15 24/24/24
f 23/23/23 24/24/24 17/17/17
f 18/18/18 25/25/25 21/21/21
f 18/18/18 19/19/19 26/26/26
f 25/25/25 18/18/18 26/26/26
f 21/21/21 27/27/27 19/19/19
f 27/27/27 26/26/26 19/19/19
f 25/25/25 27/27/27 21/21/21
f 23/23/23 22/22/22 28/28/28
f 23/23/23 29/29/29 24/24/24
f 29/29/29 23/23/23 28/28/28
f 22/22/22 24/24/24 30/30/30
f 28/28/28 22/22/22 30/30/30
f 29/29/29 30/30/30 24/24/24
f 31/31/31 28/28/28 30/30/30
f 29/29/29 28/28/28 31/31/31
f 30/30/30 29/29/29 32/32/32
f 32/32/32 31/31/31 30/30/30
f 33/33/33 29/29/29 31/31/31
f 29/29/29 33/33/33 32/32/32
f 34/34/34 31/31/31 32/32/32
f 33/33/33 31/31/31 34/34/34
f 32/32/32 33/33/33 35/35/35
f 35/35/35 34/34/34 32/32/32
f 36/36/36 33/33/33 34/34/34
f 33/33/33 36/36/36 35/35/35
f 25/25/25 26/26/26 37/37/37
f 25/25/25 38/38/38 27/27/27
f 38/38/38 25/25/25 37/37/37
f 27/27/27 39/39/39 26/26/26
f 38/38/38 39/39/39 27/27/27
f 39/39/39 37/37/37 26/26/26
f 40/40/40 38/38/38 37/37/37
f 38/38/38 40/40/40 39/39/39
f 37/37/37 39/39/39 41/41/41
f 41/41/41 40/40/40 37/37/37
f 40/40/40 42/42/42 39/39/39
f 39/39/39 42/42/42 41/41/41
f 43/43/43 40/40/40 41/41/41
f 40/40/40 43/43/43 42/42/42
f 41/41/41 42/42/42 44/44/44
f 44/44/44 43/43/43 41/41/41
f 43/43/43 45/45/45 42/42/42
f 42/42/42 45/45/45 44/44/44
f 36/36/36 34/34/34 46/46/46
f 47/47/47 36/36/36 46/46/46
f 36/36/36 47/47/47 35/35/35
f 34/34/34 35/35/35 48/48/48
f 46/46/46 34/34/34 48/48/48
f 47/47/47 48/48/48 35/35/35
f 43/43/43 49/49/49 45/45/45
f 43/43/43 44/44/44 50/50/50
f 49/49/49 43/43/43 50/50/50
f 45/45/45 51/51/51 44/44/44
f 51/51/51 50/50/50 44/44/44
f 49/49/49 51/51/51 45/45/45
f 47/47/47 46/46/46 52/52/52
f 47/47/47 53/53/53 48/48/48
f 53/53/53 47/47/47 52/52/52
f 46/46/46 48/48/48 54/54/54
f 52/52/52 46/46/46 54/54/54
f 53/53/53 54/54/54 48/48/48
f 55/55/55 52/52/52 54/54/54
f 53/53/53 52/52/52 55/55/55
f 54/54/54 53/53/53 56/56/56
f 56/56/56 55/55/55 54/54/54
f 57/57/57 53/53/53 55/55/55
f 53/53/53 57/57/57 56/56/56
f 58/58/58 55/55/55 56/56/56
f 57/57/57 55/55/55 58/58/58
f 51/51/51 58/58/58 50/50/50
f 49/49/49 59/59/59 51/51/51
f 59/59/59 58/58/58 51/51/51
f 59/59/59 57/57/57 58/58/58
f 56/56/56 57/57/57 60/60/60
f 60/60/60 58/58/58 56/56/56
f 58/58/58 60/60/60 50/50/50
f 49/49/49 50/50/50 60/60/60
f 57/57/57 59/59/59 60/60/60
f 59/59/59 49/49/49 60/60/60
f 63/63/63 62/62/62 61/61/61
f 64/64/64 63/63/63 61/61/61
f 61/61/61 62/62/62 65/65/65
f 64/64/64 61/61/61 66/66/66
f 66/66/66 61/61/61 65/65/65
f 63/63/63 67/67/67 62/62/62
f 63/63/63 64/64/64 68/68/68
f 62/62/62 68/68/68 65/65/65
f 64/64/64 65/65/65 68/68/68
f 63/63/63 68/68/68 69/69/69
f 67/67/67 63/63/63 69/69/69
f 62/62/62 70/70/70 68/68/68
f 67/67/67 70/70/70 62/62/62
f 70/70/70 69/69/69 68/68/68
f 65/65/65 64/64/64 71/71/71
f 71/71/71 66/66/66 65/65/65
f 72/72/72 67/67/67 69/69/69
f 67/67/67 72/72/72 70/70/70
f 73/73/73 64/64/64 66/66/66
f 64/64/64 73/73/73 71/71/71
f 69/69/69 70/70/70 74/74/74
f 74/74/74 72/72/72 69/69/69
f 75/75/75 66/66/66 71/71/71
f 73/73/73 66/66/66 75/75/75
f 72/72/72 76/76/76 70/70/70
f 70/70/70 76/76/76 74/74/74
f 71/71/71 73/73/73 77/77/77
f 77/77/77 75/75/75 71/71/71
f 78/78/78 72/72/72 74/74/74
f 72/72/72 78/78/78 76/76/76
f 74/74/74 76/76/76 79/79/79
f 79/79/79 78/78/78 74/74/74
f 80/80/80 73/73/73 75/75/75
f 73/73/73 80/80/80 77/77/77
f 78/78/78 81/81/81 76/76/76
f 76/76/76 81/81/81 79/79/79
f 80/80/80 75/75/75 82/82/82
f 80/80/80 83/83/83 77/77/77
f 83/83/83 80/80/80 82/82/82
f 75/75/75 77/77/77 84/84/84
f 82/82/82 75/75/75 84/84/84
f 83/83/83 84/84/84 77/77/77
f 78/78/78 85/85/85 81/81/81
f 78/78/78 79/79/79 86/86/86
f 85/85/85 78/78/78 86/86/86
f 81/81/81 87/87/87 79/79/79
f 87/87/87 86/86/86 79/79/79
f 85/85/85 87/87/87 81/81/81
f 83/83/83 82/82/82 88/88/88
f 83/83/83 89/89/89 84/84/84
f 89/89/89 83/83/83 88/88/88
f 82/82/82 84/84/84 90/90/90
f 88/88/88 82/82/82 90/90/90
f 89/89/89 90/90/90 84/84/84
f 91/91/91 88/88/88 90/90/90
f 89/89/89 88/88/88 91/91/91
f 90/90/90 89/89/89 92/92/92
f 92/92/92 91/91/91 90/90/90
f 93/93/93 89/89/89 91/91/91
f 89/89/89 93/93/93 92/92/92
f 94/94/94 91/91/91 92/92/92
f 93/93/93 91/91/91 94/94/94
f 92/92/92 93/93/93 95/95/95
f 95/95/95 94/94/94 92/92/92
f 96/96/96 93/93/93 94/94/94
f 93/93/93 96/96/96 95/95/95
f 85/85/85 86/86/86 97/97/97
f 85/85/85 98/98/98 87/87/87
f 98/98/98 85/85/85 97/97/97
f 87/87/87 99/99/99 86/86/86
f 98/98/98 99/99/99 87/87/87
f 99/99/99 97/97/97 86/86/86
f 100/100/100 98/98/98 97/97/97
f 98/98/98 100/100/100 99/99/99
f 97/97/97 99/99/99 101/101/101
f 101/101/101 100/100/100 97/97/97
f 100/100/100 102/102/102 99/99/99
f 99/99/99 102/102/102 101/101/101
f 103/103/103 100/100/100 101/101/101
f 100/100/100 103/103/103 102/102/102
f 101/101/101 102/102/102 104/104/104
f 104/104/104 103/103/103 101/101/101
f 103/103/103 105/105/105 102/102/102
f 102/102/102 105/105/105 104/104/104
f 96/96/96 94/94/94 106/106/106
f 107/107/107 96/96/96 106/106/106
f 96/96/96 107/107/107 95/95/95
f 94/94/94 95/95/95 108/108/108
f 106/106/106 94/94/94 108/108/108
f 107/107/107 108/108/108 95/95/95
f 103/103/103 109/109/109 105/105/105
f 103/103/103 104/104/104 110/110/110
f 109/109/109 103/103/103 110/110/110
f 105/105/105 111/111/111 104/104/104
f 111/111/111 110/110/110 104/104/104
f 109/109/109 111/111/111 105/105/105
f 107/107/107 106/106/106 112/112/112
f 107/107/107 113/113/113 108/108/108
f 113/113/113 107/107/107 112/112/112
f 106/106/106 108/108/108 114/114/114
f 112/112/112 106/106/106 114/114/114
f 113/113/113 114/114/114 108/108/108
f 115/115/115 112/112/112 114/114/114
f 113/113/113 112/112/112 115/115/115
f 114/114/114 113/113/113 116/116/116
f 116/116/116 115/115/115 114/114/114
f 117/117/117 113/113/113 115/115/115
f 113/113/113 117/117/117 116/116/116
f 118/118/118 115/115/115 116/116/116
f 117/117/117 115/115/115 118/118/118
f 111/111/111 118/118/118 110/110/110
f 109/109/109 119/119/119 111/111/111
f 119/119/119 118/118/118 111/111/111
f 119/119/119 117/117/117 118/118/118
f 116/116/116 117/117/117 120/120/120
f 120/120/120 118/118/118 116/116/116
f 118/118/118 120/120/120 110/110/110
f 109/109/109 110/110/110 120/120/120
f 117/117/117 119/119/119 120/120/120
f 119/119/119 109/109/109 120/120/120
