g Midori_Original_Halo
v -0.003968358 -0.04929754 0.045321047
v -1.3411045E-07 -0.025951609 0.025731549
v 0.003968373 -0.04929754 0.045321047
v 0.009396076 -0.07099383 0.0635265
v -0.009396061 -0.07099383 0.0635265
v 0.0100103915 -0.073933855 0.0659934
v 0.029858634 -0.068448074 0.06139037
v 0.03108725 -0.07134482 0.06382084
v 0.059131287 -0.06039861 0.054636136
v 0.05679419 -0.057934552 0.05256833
v 0.078170516 -0.041559212 0.038827837
v 0.08138723 -0.043349467 0.040330023
v 0.09189506 -0.020925283 0.021513954
v 0.09567654 -0.021866381 0.022303626
v 0.09905609 -0.0057207793 0.008755848
v 0.09521824 -0.0052499324 0.0083607435
v -0.010010377 -0.073933855 0.0659934
v -0.029858619 -0.068448074 0.06139037
v 0.021437973 -0.08980676 0.079312295
v -0.031087235 -0.07134482 0.06382084
v -0.059131265 -0.06039861 0.054636136
v -0.056794167 -0.057934552 0.05256833
v -0.08138722 -0.043349467 0.040330023
v -0.07817079 -0.041559212 0.038827837
v -0.091895044 -0.020925283 0.021513954
v -0.09567653 -0.021866381 0.022303626
v -0.09905608 -0.0057207793 0.008755848
v -0.021437958 -0.08980676 0.079312295
v -0.09521823 -0.0052499324 0.0083607435
v -0.012790129 -0.09667003 0.08507134
v -0.03799121 -0.087621674 0.07747877
v -0.040387526 -0.0932717 0.082219854
v -0.076821476 -0.0790507 0.070287004
v -0.07226342 -0.07424471 0.066254154
v -0.10573572 -0.056901217 0.051701233
v -0.099462 -0.05340924 0.048771188
v -0.116924495 -0.027155176 0.02674155
v -0.124299854 -0.028990977 0.028281868
v -0.12873635 -0.007850066 0.010542691
v -0.119776815 -0.014474779 0.016101345
v 0.0127901435 -0.09667003 0.08507134
v 0.037991226 -0.087621674 0.07747877
v 0.00815466 -0.10119847 0.08887105
v -0.008154646 -0.10119847 0.08887105
v -1.3411045E-07 -0.11238153 0.09825474
v 0.040387534 -0.0932717 0.082219854
v 0.07682149 -0.0790507 0.070287004
v 0.07226344 -0.07424471 0.066254154
v 0.09946202 -0.05340924 0.048771188
v 0.10573575 -0.056901217 0.051701233
v 0.116924495 -0.027155176 0.02674155
v 0.12429988 -0.028990977 0.028281868
v 0.12873638 -0.007850066 0.010542691
v 0.11977684 -0.014474779 0.016101345
v 0.12873638 0.011745691 -0.005900115
v 0.13464773 0.008194491 -0.0029205233
v 0.13464773 -0.004299164 0.007562831
v 0.14924619 0.0019478053 0.002321288
v 0.11977684 0.018370122 -0.011458755
v 0.09905609 0.009616107 -0.004113272
v 0.116924495 0.031050518 -0.022098958
v 0.12429988 0.03288631 -0.023639277
v 0.10573575 0.06079656 -0.047058932
v 0.09946202 0.057304576 -0.04412888
v 0.07226344 0.07814005 -0.061611854
v 0.07682149 0.08294605 -0.06564441
v 0.037991226 0.09151702 -0.072836466
v 0.040387534 0.097167045 -0.07757728
v 0.0127901435 0.10056566 -0.08042905
v 0.021437973 0.09370209 -0.074669994
v 0.09521824 0.009145558 -0.0037184358
v 0.0668958 0.0049877465 -0.00022958219
v 0.0668958 -0.001092121 0.00487189
v 0.036419876 0.0019478053 0.002321288
v 0.09189506 0.024820626 -0.016871378
v 0.09567654 0.025762007 -0.017661318
v 0.08138723 0.0472451 -0.035687715
v 0.078170516 0.045454547 -0.034185544
v 0.05679419 0.061829895 -0.047926024
v 0.059131287 0.06429395 -0.049993545
v 0.029858634 0.07234341 -0.056747787
v 0.03108725 0.075240165 -0.05917854
v 0.0100103915 0.0778292 -0.061350815
v 0.009396076 0.07488917 -0.058883913
v -0.009396061 0.07488917 -0.058883913
v -0.003968358 0.053192884 -0.040678747
v 0.003968373 0.053192884 -0.040678747
v -1.3411045E-07 0.029846951 -0.021088973
v -0.010010377 0.0778292 -0.061350815
v -0.029858619 0.07234341 -0.056747787
v -0.031087235 0.075240165 -0.05917854
v -0.059131265 0.06429395 -0.049993545
v -0.056794167 0.061829895 -0.047926024
v -0.07817079 0.045454547 -0.034185544
v -0.08138722 0.0472451 -0.035687715
v -0.091895044 0.024820626 -0.016871378
v -0.09567653 0.025762007 -0.017661318
v -0.09905608 0.009616107 -0.004113272
v -0.021437958 0.09370209 -0.074669994
v -0.09521823 0.009145558 -0.0037184358
v -0.012790129 0.10056566 -0.08042905
v 0.00815466 0.10509381 -0.084228754
v -0.03799121 0.09151702 -0.072836466
v -0.008154646 0.10509381 -0.084228754
v -1.3411045E-07 0.11627686 -0.09361245
v -0.040387526 0.097167045 -0.07757728
v -0.076821476 0.08294605 -0.06564441
v -0.07226342 0.07814005 -0.061611854
v -0.099462 0.057304576 -0.04412888
v -0.10573572 0.06079656 -0.047058932
v -0.116924495 0.031050518 -0.022098958
v -0.124299854 0.03288631 -0.023639277
v -0.12873635 0.011745691 -0.005900115
v -0.119776815 0.018370122 -0.011458755
v -0.1346477 0.008194491 -0.0029205233
v -0.1346477 -0.004299164 0.007562831
v -0.14924619 0.0019478053 0.002321288
v -0.06689578 0.0049877465 -0.00022958219
v -0.06689578 -0.001092121 0.00487189
v -0.03641987 0.0019478053 0.002321288
v 0.037991226 -0.091517314 0.07283646
v 0.021437973 -0.08980676 0.079312295
v 0.021437973 -0.09370211 0.07466999
v 0.037991226 -0.087621674 0.07747877
v 0.07226344 -0.07814006 0.061611846
v 0.07226344 -0.07424471 0.066254154
v 0.09946202 -0.05730459 0.044128865
v 0.09946202 -0.05340924 0.048771188
v 0.116924495 -0.031050526 0.022098944
v 0.116924495 -0.027155176 0.02674155
v 0.11977684 -0.018370137 0.01145874
v 0.11977684 -0.014474779 0.016101345
v 0.029858634 -0.07234343 0.05674778
v 0.009396076 -0.07099383 0.0635265
v 0.009396076 -0.07488919 0.05888389
v 0.029858634 -0.068448074 0.06139037
v 0.05679419 -0.061829902 0.04792601
v 0.05679419 -0.057934552 0.05256833
v 0.078170516 -0.045454852 0.03418553
v 0.078170516 -0.041559212 0.038827837
v 0.09189506 -0.02482064 0.016871363
v 0.09189506 -0.020925283 0.021513954
v 0.09521824 -0.009145573 0.0037184209
v 0.09521824 -0.0052499324 0.0083607435
v 0.0100103915 -0.077829204 0.061350808
v 0.0100103915 -0.073933855 0.0659934
v 0.03108725 -0.07134482 0.06382084
v 0.03108725 -0.07524018 0.05917853
v 0.059131287 -0.06039861 0.054636136
v 0.059131287 -0.064293966 0.04999353
v 0.08138723 -0.043349467 0.040330023
v 0.08138723 -0.047245108 0.0356877
v 0.09567654 -0.021866381 0.022303626
v 0.09567654 -0.025762029 0.017661303
v 0.09905609 -0.0057207793 0.008755848
v 0.09905609 -0.009616122 0.004113257
v 0.003968373 -0.05319289 0.040678725
v -1.3411045E-07 -0.025951609 0.025731549
v -1.3411045E-07 -0.029846966 0.021088958
v 0.003968373 -0.04929754 0.045321047
v 0.009396076 -0.07488919 0.05888389
v 0.009396076 -0.07099383 0.0635265
v -1.3411045E-07 -0.029846966 0.021088958
v -1.3411045E-07 -0.025951609 0.025731549
v -0.003968358 -0.04929754 0.045321047
v -0.003968358 -0.05319289 0.040678725
v -0.009396061 -0.07099383 0.0635265
v -0.009396061 -0.07488919 0.05888389
v -0.021437958 -0.09370211 0.07466999
v -0.021437958 -0.08980676 0.079312295
v -0.03799121 -0.087621674 0.07747877
v -0.03799121 -0.091517314 0.07283646
v -0.07226342 -0.07424471 0.066254154
v -0.07226342 -0.07814006 0.061611846
v -0.099462 -0.05340924 0.048771188
v -0.099462 -0.05730459 0.044128865
v -0.116924495 -0.027155176 0.02674155
v -0.116924495 -0.031050526 0.022098944
v -0.119776815 -0.014474779 0.016101345
v -0.119776815 -0.018370137 0.01145874
v -0.031087235 -0.07524018 0.05917853
v -0.010010377 -0.073933855 0.0659934
v -0.010010377 -0.077829204 0.061350808
v -0.031087235 -0.07134482 0.06382084
v -0.059131265 -0.064293966 0.04999353
v -0.059131265 -0.06039861 0.054636136
v -0.08138722 -0.047245108 0.0356877
v -0.08138722 -0.043349467 0.040330023
v -0.09567653 -0.025762029 0.017661303
v -0.09567653 -0.021866381 0.022303626
v -0.09905608 -0.009616122 0.004113257
v -0.09905608 -0.0057207793 0.008755848
v -0.009396061 -0.07488919 0.05888389
v -0.009396061 -0.07099383 0.0635265
v -0.029858619 -0.068448074 0.06139037
v -0.029858619 -0.07234343 0.05674778
v -0.056794167 -0.057934552 0.05256833
v -0.056794167 -0.061829902 0.04792601
v -0.07817079 -0.041559212 0.038827837
v -0.07817079 -0.045454852 0.03418553
v -0.091895044 -0.020925283 0.021513954
v -0.091895044 -0.02482064 0.016871363
v -0.09521823 -0.0052499324 0.0083607435
v -0.09521823 -0.009145573 0.0037184209
v -0.010010377 -0.077829204 0.061350808
v -0.010010377 -0.073933855 0.0659934
v -0.021437958 -0.08980676 0.079312295
v -0.021437958 -0.09370211 0.07466999
v 0.021437973 -0.09370211 0.07466999
v 0.021437973 -0.08980676 0.079312295
v 0.0100103915 -0.073933855 0.0659934
v 0.0100103915 -0.077829204 0.061350808
v -1.3411045E-07 -0.11627688 0.09361243
v -1.3411045E-07 -0.11238153 0.09825474
v 0.00815466 -0.10119847 0.08887105
v 0.00815466 -0.10509382 0.08422874
v 0.0127901435 -0.09667003 0.08507134
v 0.0127901435 -0.100565664 0.08042903
v 0.040387534 -0.0932717 0.082219854
v 0.040387534 -0.09716705 0.07757726
v 0.07682149 -0.0790507 0.070287004
v 0.07682149 -0.082946055 0.0656444
v 0.10573575 -0.056901217 0.051701233
v 0.10573575 -0.060796574 0.047058925
v 0.12429988 -0.028990977 0.028281868
v 0.12429988 -0.032886334 0.023639262
v 0.12873638 -0.007850066 0.010542691
v 0.12873638 -0.011745706 0.0059001
v 0.13464773 -0.004299164 0.007562831
v 0.13464773 -0.008194506 0.0029205084
v 0.14924619 0.0019478053 0.002321288
v 0.14924619 -0.0019478202 -0.002321303
v -0.008154646 -0.10509382 0.08422874
v -1.3411045E-07 -0.11238153 0.09825474
v -1.3411045E-07 -0.11627688 0.09361243
v -0.008154646 -0.10119847 0.08887105
v -0.012790129 -0.100565664 0.08042903
v -0.012790129 -0.09667003 0.08507134
v -0.040387526 -0.09716705 0.07757726
v -0.040387526 -0.0932717 0.082219854
v -0.076821476 -0.082946055 0.0656444
v -0.076821476 -0.0790507 0.070287004
v -0.10573572 -0.060796574 0.047058925
v -0.10573572 -0.056901217 0.051701233
v -0.124299854 -0.032886334 0.023639262
v -0.124299854 -0.028990977 0.028281868
v -0.12873635 -0.011745706 0.0059001
v -0.12873635 -0.007850066 0.010542691
v -0.1346477 -0.008194506 0.0029205084
v -0.1346477 -0.004299164 0.007562831
v -0.14924619 -0.0019478202 -0.002321303
v -0.14924619 0.0019478053 0.002321288
v 0.021437973 0.08980675 -0.07931231
v 0.021437973 0.09370209 -0.074669994
v 0.037991226 0.09151702 -0.072836466
v 0.037991226 0.08762166 -0.07747878
v 0.07226344 0.07814005 -0.061611854
v 0.07226344 0.07424469 -0.06625417
v 0.09946202 0.057304576 -0.04412888
v 0.09946202 0.05340922 -0.048771195
v 0.116924495 0.031050518 -0.022098958
v 0.116924495 0.02715516 -0.026741557
v 0.11977684 0.018370122 -0.011458755
v 0.11977684 0.0144747645 -0.01610136
v 0.03108725 0.07134481 -0.063820854
v 0.0100103915 0.0778292 -0.061350815
v 0.0100103915 0.07393384 -0.06599341
v 0.03108725 0.075240165 -0.05917854
v 0.059131287 0.060398594 -0.054636143
v 0.059131287 0.06429395 -0.049993545
v 0.08138723 0.04334946 -0.04033003
v 0.08138723 0.0472451 -0.035687715
v 0.09567654 0.021866381 -0.02230364
v 0.09567654 0.025762007 -0.017661318
v 0.09905609 0.0057207644 -0.008755863
v 0.09905609 0.009616107 -0.004113272
v 0.009396076 0.070993826 -0.06352651
v 0.009396076 0.07488917 -0.058883913
v 0.029858634 0.07234341 -0.056747787
v 0.029858634 0.06844807 -0.061390385
v 0.05679419 0.061829895 -0.047926024
v 0.05679419 0.057934538 -0.05256834
v 0.078170516 0.045454547 -0.034185544
v 0.078170516 0.041559204 -0.03882785
v 0.09189506 0.024820626 -0.016871378
v 0.09189506 0.020925269 -0.021513969
v 0.09521824 0.009145558 -0.0037184358
v 0.09521824 0.0052499175 -0.008360758
v 0.11977684 0.0144747645 -0.01610136
v 0.11977684 0.018370122 -0.011458755
v 0.09905609 0.009616107 -0.004113272
v 0.09905609 0.0057207644 -0.008755863
v 0.09905609 -0.009616122 0.004113257
v 0.09905609 -0.0057207793 0.008755848
v 0.11977684 -0.014474779 0.016101345
v 0.11977684 -0.018370137 0.01145874
v 0.09521824 0.0052499175 -0.008360758
v 0.09521824 0.009145558 -0.0037184358
v 0.0668958 0.0049877465 -0.00022958219
v 0.0668958 0.0010921061 -0.004871905
v 0.036419876 0.0019478053 0.002321288
v 0.036419876 -0.0019478202 -0.002321303
v 0.0668958 -0.0049877614 0.00022958219
v 0.09521824 -0.0052499324 0.0083607435
v 0.09521824 -0.009145573 0.0037184209
v 0.0668958 -0.001092121 0.00487189
v 0.036419876 -0.0019478202 -0.002321303
v 0.036419876 0.0019478053 0.002321288
v 0.14924619 -0.0019478202 -0.002321303
v 0.14924619 0.0019478053 0.002321288
v 0.13464773 0.008194491 -0.0029205233
v 0.13464773 0.004299149 -0.007562831
v 0.12873638 0.011745691 -0.005900115
v 0.12873638 0.007850051 -0.010542706
v 0.12429988 0.03288631 -0.023639277
v 0.12429988 0.028990969 -0.028281875
v 0.10573575 0.06079656 -0.047058932
v 0.10573575 0.0569012 -0.051701248
v 0.07682149 0.08294605 -0.06564441
v 0.07682149 0.07905069 -0.07028701
v 0.040387534 0.097167045 -0.07757728
v 0.040387534 0.09327169 -0.08221988
v 0.0127901435 0.10056566 -0.08042905
v 0.0127901435 0.09667002 -0.08507136
v 0.00815466 0.10509381 -0.084228754
v 0.00815466 0.101198465 -0.08887106
v -1.3411045E-07 0.11627686 -0.09361245
v -1.3411045E-07 0.11238152 -0.098254755
v -0.03799121 0.08762166 -0.07747878
v -0.021437958 0.09370209 -0.074669994
v -0.021437958 0.08980675 -0.07931231
v -0.03799121 0.09151702 -0.072836466
v -0.07226342 0.07424469 -0.06625417
v -0.07226342 0.07814005 -0.061611854
v -0.099462 0.05340922 -0.048771195
v -0.099462 0.057304576 -0.04412888
v -0.116924495 0.02715516 -0.026741557
v -0.116924495 0.031050518 -0.022098958
v -0.119776815 0.0144747645 -0.01610136
v -0.119776815 0.018370122 -0.011458755
v -0.029858619 0.06844807 -0.061390385
v -0.009396061 0.07488917 -0.058883913
v -0.009396061 0.070993826 -0.06352651
v -0.029858619 0.07234341 -0.056747787
v -0.056794167 0.057934538 -0.05256834
v -0.056794167 0.061829895 -0.047926024
v -0.07817079 0.041559204 -0.03882785
v -0.07817079 0.045454547 -0.034185544
v -0.091895044 0.020925269 -0.021513969
v -0.091895044 0.024820626 -0.016871378
v -0.09521823 0.0052499175 -0.008360758
v -0.09521823 0.009145558 -0.0037184358
v -0.010010377 0.07393384 -0.06599341
v -0.010010377 0.0778292 -0.061350815
v -0.031087235 0.075240165 -0.05917854
v -0.031087235 0.07134481 -0.063820854
v -0.059131265 0.06429395 -0.049993545
v -0.059131265 0.060398594 -0.054636143
v -0.08138722 0.0472451 -0.035687715
v -0.08138722 0.04334946 -0.04033003
v -0.09567653 0.025762007 -0.017661318
v -0.09567653 0.021866381 -0.02230364
v -0.09905608 0.009616107 -0.004113272
v -0.09905608 0.0057207644 -0.008755863
v -0.021437958 0.08980675 -0.07931231
v -0.021437958 0.09370209 -0.074669994
v -0.010010377 0.0778292 -0.061350815
v -0.010010377 0.07393384 -0.06599341
v 0.0100103915 0.07393384 -0.06599341
v 0.0100103915 0.0778292 -0.061350815
v 0.021437973 0.09370209 -0.074669994
v 0.021437973 0.08980675 -0.07931231
v -0.009396061 0.070993826 -0.06352651
v -0.009396061 0.07488917 -0.058883913
v -0.003968358 0.053192884 -0.040678747
v -0.003968358 0.049297526 -0.045321055
v -1.3411045E-07 0.029846951 -0.021088973
v -1.3411045E-07 0.025951594 -0.025731564
v 0.003968373 0.049297526 -0.045321055
v 0.009396076 0.07488917 -0.058883913
v 0.009396076 0.070993826 -0.06352651
v 0.003968373 0.053192884 -0.040678747
v -1.3411045E-07 0.025951594 -0.025731564
v -1.3411045E-07 0.029846951 -0.021088973
v -1.3411045E-07 0.11238152 -0.098254755
v -1.3411045E-07 0.11627686 -0.09361245
v -0.008154646 0.10509381 -0.084228754
v -0.008154646 0.101198465 -0.08887106
v -0.012790129 0.10056566 -0.08042905
v -0.012790129 0.09667002 -0.08507136
v -0.040387526 0.097167045 -0.07757728
v -0.040387526 0.09327169 -0.08221988
v -0.076821476 0.08294605 -0.06564441
v -0.076821476 0.07905069 -0.07028701
v -0.10573572 0.06079656 -0.047058932
v -0.10573572 0.0569012 -0.051701248
v -0.124299854 0.03288631 -0.023639277
v -0.124299854 0.028990969 -0.028281875
v -0.12873635 0.011745691 -0.005900115
v -0.12873635 0.007850051 -0.010542706
v -0.1346477 0.008194491 -0.0029205233
v -0.1346477 0.004299149 -0.007562831
v -0.14924619 0.0019478053 0.002321288
v -0.14924619 -0.0019478202 -0.002321303
v -0.09905608 0.0057207644 -0.008755863
v -0.09905608 0.009616107 -0.004113272
v -0.119776815 0.018370122 -0.011458755
v -0.119776815 0.0144747645 -0.01610136
v -0.119776815 -0.018370137 0.01145874
v -0.119776815 -0.014474779 0.016101345
v -0.09905608 -0.0057207793 0.008755848
v -0.09905608 -0.009616122 0.004113257
v -0.06689578 0.0010921061 -0.004871905
v -0.09521823 0.009145558 -0.0037184358
v -0.09521823 0.0052499175 -0.008360758
v -0.06689578 0.0049877465 -0.00022958219
v -0.03641987 -0.0019478202 -0.002321303
v -0.03641987 0.0019478053 0.002321288
v -0.09521823 -0.009145573 0.0037184209
v -0.09521823 -0.0052499324 0.0083607435
v -0.06689578 -0.001092121 0.00487189
v -0.06689578 -0.0049877614 0.00022958219
v -0.03641987 0.0019478053 0.002321288
v -0.03641987 -0.0019478202 -0.002321303
vt 0.51279646 0.7156613
vt 0.5000073 0.6174152
vt 0.48720345 0.7156613
vt 0.4697156 0.80696213
vt 0.5302843 0.80696213
vt 0.46773335 0.8193402
vt 0.40374345 0.7962433
vt 0.39977893 0.8084452
vt 0.30937374 0.7623689
vt 0.31690627 0.7520025
vt 0.24799743 0.68309367
vt 0.23763101 0.69062614
vt 0.20375659 0.5962565
vt 0.19155474 0.6002209
vt 0.18065971 0.5322666
vt 0.19303776 0.5302843
vt 0.5322666 0.8193402
vt 0.5962565 0.7962433
vt 0.4308929 0.8861346
vt 0.6002209 0.8084452
vt 0.69062614 0.7623689
vt 0.68309367 0.7520025
vt 0.7623689 0.69062614
vt 0.7520025 0.68309367
vt 0.7962433 0.5962565
vt 0.8084452 0.6002209
vt 0.8193402 0.5322666
vt 0.56910706 0.8861346
vt 0.80696213 0.5302843
vt 0.54123807 0.9150168
vt 0.62248087 0.8769429
vt 0.6302043 0.90071523
vt 0.7476562 0.84086597
vt 0.7329582 0.820647
vt 0.84086597 0.7476562
vt 0.820647 0.7329582
vt 0.8769429 0.62248087
vt 0.90071523 0.6302043
vt 0.9150168 0.54123807
vt 0.8861346 0.56910706
vt 0.45876184 0.9150168
vt 0.377519 0.8769429
vt 0.47370946 0.9340757
vt 0.5262904 0.9340757
vt 0.5000073 0.9811357
vt 0.3697956 0.90071523
vt 0.2523437 0.84086597
vt 0.26704168 0.820647
vt 0.1793529 0.7329582
vt 0.15913397 0.7476562
vt 0.123057045 0.62248087
vt 0.099284746 0.6302043
vt 0.084983185 0.54123807
vt 0.11386528 0.56910706
vt 0.084983185 0.45876184
vt 0.065924235 0.47370946
vt 0.065924235 0.5262904
vt 0.018864185 0.4999926
vt 0.11386528 0.4308929
vt 0.18065971 0.46773335
vt 0.123057045 0.377519
vt 0.099284746 0.3697956
vt 0.15913397 0.2523437
vt 0.1793529 0.26704168
vt 0.26704168 0.1793529
vt 0.2523437 0.15913397
vt 0.377519 0.123057045
vt 0.3697956 0.099284746
vt 0.45876184 0.084983185
vt 0.4308929 0.11386528
vt 0.19303776 0.4697156
vt 0.28433865 0.48720345
vt 0.28433865 0.51279646
vt 0.38258478 0.4999926
vt 0.20375659 0.40374345
vt 0.19155474 0.39977893
vt 0.23763101 0.30937374
vt 0.24799743 0.31690627
vt 0.31690627 0.24799743
vt 0.30937374 0.23763101
vt 0.40374345 0.20375659
vt 0.39977893 0.19155474
vt 0.46773335 0.18065971
vt 0.4697156 0.19303776
vt 0.5302843 0.19303776
vt 0.51279646 0.28433865
vt 0.48720345 0.28433865
vt 0.5000073 0.38258478
vt 0.5322666 0.18065971
vt 0.5962565 0.20375659
vt 0.6002209 0.19155474
vt 0.69062614 0.23763101
vt 0.68309367 0.24799743
vt 0.7520025 0.31690627
vt 0.7623689 0.30937374
vt 0.7962433 0.40374345
vt 0.8084452 0.39977893
vt 0.8193402 0.46773335
vt 0.56910706 0.11386528
vt 0.80696213 0.4697156
vt 0.54123807 0.084983185
vt 0.47370946 0.065924235
vt 0.62248087 0.123057045
vt 0.5262904 0.065924235
vt 0.5000073 0.018864185
vt 0.6302043 0.099284746
vt 0.7476562 0.15913397
vt 0.7329582 0.1793529
vt 0.820647 0.26704168
vt 0.84086597 0.2523437
vt 0.8769429 0.377519
vt 0.90071523 0.3697956
vt 0.9150168 0.45876184
vt 0.8861346 0.4308929
vt 0.9340757 0.47370946
vt 0.9340757 0.5262904
vt 0.9811357 0.4999926
vt 0.7156613 0.48720345
vt 0.7156613 0.51279646
vt 0.6174152 0.4999926
vt 0.377519 0.8769429
vt 0.4308929 0.8861346
vt 0.4308929 0.8861346
vt 0.377519 0.8769429
vt 0.26704168 0.820647
vt 0.26704168 0.820647
vt 0.1793529 0.7329582
vt 0.1793529 0.7329582
vt 0.123057045 0.62248087
vt 0.123057045 0.62248087
vt 0.11386528 0.56910706
vt 0.11386528 0.56910706
vt 0.40374345 0.7962433
vt 0.4697156 0.80696213
vt 0.4697156 0.80696213
vt 0.40374345 0.7962433
vt 0.31690627 0.7520025
vt 0.31690627 0.7520025
vt 0.24799743 0.68309367
vt 0.24799743 0.68309367
vt 0.20375659 0.5962565
vt 0.20375659 0.5962565
vt 0.19303776 0.5302843
vt 0.19303776 0.5302843
vt 0.46773335 0.8193402
vt 0.46773335 0.8193402
vt 0.39977893 0.8084452
vt 0.39977893 0.8084452
vt 0.30937374 0.7623689
vt 0.30937374 0.7623689
vt 0.23763101 0.69062614
vt 0.23763101 0.69062614
vt 0.19155474 0.6002209
vt 0.19155474 0.6002209
vt 0.18065971 0.5322666
vt 0.18065971 0.5322666
vt 0.48720345 0.7156613
vt 0.5000073 0.6174152
vt 0.5000073 0.6174152
vt 0.48720345 0.7156613
vt 0.4697156 0.80696213
vt 0.4697156 0.80696213
vt 0.5000073 0.6174152
vt 0.5000073 0.6174152
vt 0.51279646 0.7156613
vt 0.51279646 0.7156613
vt 0.5302843 0.80696213
vt 0.5302843 0.80696213
vt 0.56910706 0.8861346
vt 0.56910706 0.8861346
vt 0.62248087 0.8769429
vt 0.62248087 0.8769429
vt 0.7329582 0.820647
vt 0.7329582 0.820647
vt 0.820647 0.7329582
vt 0.820647 0.7329582
vt 0.8769429 0.62248087
vt 0.8769429 0.62248087
vt 0.8861346 0.56910706
vt 0.8861346 0.56910706
vt 0.6002209 0.8084452
vt 0.5322666 0.8193402
vt 0.5322666 0.8193402
vt 0.6002209 0.8084452
vt 0.69062614 0.7623689
vt 0.69062614 0.7623689
vt 0.7623689 0.69062614
vt 0.7623689 0.69062614
vt 0.8084452 0.6002209
vt 0.8084452 0.6002209
vt 0.8193402 0.5322666
vt 0.8193402 0.5322666
vt 0.5302843 0.80696213
vt 0.5302843 0.80696213
vt 0.5962565 0.7962433
vt 0.5962565 0.7962433
vt 0.68309367 0.7520025
vt 0.68309367 0.7520025
vt 0.7520025 0.68309367
vt 0.7520025 0.68309367
vt 0.7962433 0.5962565
vt 0.7962433 0.5962565
vt 0.80696213 0.5302843
vt 0.80696213 0.5302843
vt 0.5322666 0.8193402
vt 0.5322666 0.8193402
vt 0.56910706 0.8861346
vt 0.56910706 0.8861346
vt 0.4308929 0.8861346
vt 0.4308929 0.8861346
vt 0.46773335 0.8193402
vt 0.46773335 0.8193402
vt 0.5000073 0.9811357
vt 0.5000073 0.9811357
vt 0.47370946 0.9340757
vt 0.47370946 0.9340757
vt 0.45876184 0.9150168
vt 0.45876184 0.9150168
vt 0.3697956 0.90071523
vt 0.3697956 0.90071523
vt 0.2523437 0.84086597
vt 0.2523437 0.84086597
vt 0.15913397 0.7476562
vt 0.15913397 0.7476562
vt 0.099284746 0.6302043
vt 0.099284746 0.6302043
vt 0.084983185 0.54123807
vt 0.084983185 0.54123807
vt 0.065924235 0.5262904
vt 0.065924235 0.5262904
vt 0.018864185 0.4999926
vt 0.018864185 0.4999926
vt 0.5262904 0.9340757
vt 0.5000073 0.9811357
vt 0.5000073 0.9811357
vt 0.5262904 0.9340757
vt 0.54123807 0.9150168
vt 0.54123807 0.9150168
vt 0.6302043 0.90071523
vt 0.6302043 0.90071523
vt 0.7476562 0.84086597
vt 0.7476562 0.84086597
vt 0.84086597 0.7476562
vt 0.84086597 0.7476562
vt 0.90071523 0.6302043
vt 0.90071523 0.6302043
vt 0.9150168 0.54123807
vt 0.9150168 0.54123807
vt 0.9340757 0.5262904
vt 0.9340757 0.5262904
vt 0.9811357 0.4999926
vt 0.9811357 0.4999926
vt 0.4308929 0.11386528
vt 0.4308929 0.11386528
vt 0.377519 0.123057045
vt 0.377519 0.123057045
vt 0.26704168 0.1793529
vt 0.26704168 0.1793529
vt 0.1793529 0.26704168
vt 0.1793529 0.26704168
vt 0.123057045 0.377519
vt 0.123057045 0.377519
vt 0.11386528 0.4308929
vt 0.11386528 0.4308929
vt 0.39977893 0.19155474
vt 0.46773335 0.18065971
vt 0.46773335 0.18065971
vt 0.39977893 0.19155474
vt 0.30937374 0.23763101
vt 0.30937374 0.23763101
vt 0.23763101 0.30937374
vt 0.23763101 0.30937374
vt 0.19155474 0.39977893
vt 0.19155474 0.39977893
vt 0.18065971 0.46773335
vt 0.18065971 0.46773335
vt 0.4697156 0.19303776
vt 0.4697156 0.19303776
vt 0.40374345 0.20375659
vt 0.40374345 0.20375659
vt 0.31690627 0.24799743
vt 0.31690627 0.24799743
vt 0.24799743 0.31690627
vt 0.24799743 0.31690627
vt 0.20375659 0.40374345
vt 0.20375659 0.40374345
vt 0.19303776 0.4697156
vt 0.19303776 0.4697156
vt 0.11386528 0.4308929
vt 0.11386528 0.4308929
vt 0.18065971 0.46773335
vt 0.18065971 0.46773335
vt 0.18065971 0.5322666
vt 0.18065971 0.5322666
vt 0.11386528 0.56910706
vt 0.11386528 0.56910706
vt 0.19303776 0.4697156
vt 0.19303776 0.4697156
vt 0.28433865 0.48720345
vt 0.28433865 0.48720345
vt 0.38258478 0.4999926
vt 0.38258478 0.4999926
vt 0.28433865 0.51279646
vt 0.19303776 0.5302843
vt 0.19303776 0.5302843
vt 0.28433865 0.51279646
vt 0.38258478 0.4999926
vt 0.38258478 0.4999926
vt 0.018864185 0.4999926
vt 0.018864185 0.4999926
vt 0.065924235 0.47370946
vt 0.065924235 0.47370946
vt 0.084983185 0.45876184
vt 0.084983185 0.45876184
vt 0.099284746 0.3697956
vt 0.099284746 0.3697956
vt 0.15913397 0.2523437
vt 0.15913397 0.2523437
vt 0.2523437 0.15913397
vt 0.2523437 0.15913397
vt 0.3697956 0.099284746
vt 0.3697956 0.099284746
vt 0.45876184 0.084983185
vt 0.45876184 0.084983185
vt 0.47370946 0.065924235
vt 0.47370946 0.065924235
vt 0.5000073 0.018864185
vt 0.5000073 0.018864185
vt 0.62248087 0.123057045
vt 0.56910706 0.11386528
vt 0.56910706 0.11386528
vt 0.62248087 0.123057045
vt 0.7329582 0.1793529
vt 0.7329582 0.1793529
vt 0.820647 0.26704168
vt 0.820647 0.26704168
vt 0.8769429 0.377519
vt 0.8769429 0.377519
vt 0.8861346 0.4308929
vt 0.8861346 0.4308929
vt 0.5962565 0.20375659
vt 0.5302843 0.19303776
vt 0.5302843 0.19303776
vt 0.5962565 0.20375659
vt 0.68309367 0.24799743
vt 0.68309367 0.24799743
vt 0.7520025 0.31690627
vt 0.7520025 0.31690627
vt 0.7962433 0.40374345
vt 0.7962433 0.40374345
vt 0.80696213 0.4697156
vt 0.80696213 0.4697156
vt 0.5322666 0.18065971
vt 0.5322666 0.18065971
vt 0.6002209 0.19155474
vt 0.6002209 0.19155474
vt 0.69062614 0.23763101
vt 0.69062614 0.23763101
vt 0.7623689 0.30937374
vt 0.7623689 0.30937374
vt 0.8084452 0.39977893
vt 0.8084452 0.39977893
vt 0.8193402 0.46773335
vt 0.8193402 0.46773335
vt 0.56910706 0.11386528
vt 0.56910706 0.11386528
vt 0.5322666 0.18065971
vt 0.5322666 0.18065971
vt 0.46773335 0.18065971
vt 0.46773335 0.18065971
vt 0.4308929 0.11386528
vt 0.4308929 0.11386528
vt 0.5302843 0.19303776
vt 0.5302843 0.19303776
vt 0.51279646 0.28433865
vt 0.51279646 0.28433865
vt 0.5000073 0.38258478
vt 0.5000073 0.38258478
vt 0.48720345 0.28433865
vt 0.4697156 0.19303776
vt 0.4697156 0.19303776
vt 0.48720345 0.28433865
vt 0.5000073 0.38258478
vt 0.5000073 0.38258478
vt 0.5000073 0.018864185
vt 0.5000073 0.018864185
vt 0.5262904 0.065924235
vt 0.5262904 0.065924235
vt 0.54123807 0.084983185
vt 0.54123807 0.084983185
vt 0.6302043 0.099284746
vt 0.6302043 0.099284746
vt 0.7476562 0.15913397
vt 0.7476562 0.15913397
vt 0.84086597 0.2523437
vt 0.84086597 0.2523437
vt 0.90071523 0.3697956
vt 0.90071523 0.3697956
vt 0.9150168 0.45876184
vt 0.9150168 0.45876184
vt 0.9340757 0.47370946
vt 0.9340757 0.47370946
vt 0.9811357 0.4999926
vt 0.9811357 0.4999926
vt 0.8193402 0.46773335
vt 0.8193402 0.46773335
vt 0.8861346 0.4308929
vt 0.8861346 0.4308929
vt 0.8861346 0.56910706
vt 0.8861346 0.56910706
vt 0.8193402 0.5322666
vt 0.8193402 0.5322666
vt 0.7156613 0.48720345
vt 0.80696213 0.4697156
vt 0.80696213 0.4697156
vt 0.7156613 0.48720345
vt 0.6174152 0.4999926
vt 0.6174152 0.4999926
vt 0.80696213 0.5302843
vt 0.80696213 0.5302843
vt 0.7156613 0.51279646
vt 0.7156613 0.51279646
vt 0.6174152 0.4999926
vt 0.6174152 0.4999926
vn -0.00096929073 0.6426685 0.7661438
vn -0.00096929073 0.6426685 0.7661438
vn -0.00096929073 0.6426685 0.7661438
vn -0.00096929073 0.6426685 0.7661438
vn -0.00096929073 0.6426685 0.7661438
vn -0.00096929073 0.6426685 0.7661438
vn 0.00096935034 0.6426685 0.7661438
vn 0.00096935034 0.6426685 0.7661438
vn -0.00096929073 0.6426685 0.7661438
vn -0.00096929073 0.6426685 0.7661438
vn -0.00096929073 0.6426685 0.7661438
vn -0.00096929073 0.6426685 0.7661438
vn 0.00096935034 0.6426685 0.7661438
vn 0.00096935034 0.6426685 0.7661438
vn 0.00096935034 0.6426685 0.7661438
vn 0.00096935034 0.6426685 0.7661438
vn -0.00096929073 0.6426685 0.7661438
vn -0.00096929073 0.6426685 0.7661438
vn 0.00096935034 0.6426685 0.7661438
vn -0.00096929073 0.6426685 0.7661438
vn -0.00096929073 0.6426685 0.7661438
vn -0.00096929073 0.6426685 0.7661438
vn 0.00096935034 0.6426685 0.7661438
vn 0.00096935034 0.6426685 0.7661438
vn -0.00096929073 0.6426685 0.7661438
vn -0.00096929073 0.6426685 0.7661438
vn -0.00096929073 0.6426685 0.7661438
vn -0.00096929073 0.6426685 0.7661438
vn -0.00096929073 0.6426685 0.7661438
vn -0.00096929073 0.6426685 0.7661438
vn -0.00096929073 0.6426685 0.7661438
vn -0.00096929073 0.6426685 0.7661438
vn 0.00096935034 0.6426685 0.7661438
vn 0.00096935034 0.6426685 0.7661438
vn -0.00096929073 0.6426685 0.7661438
vn -0.00096929073 0.6426685 0.7661438
vn -0.00096929073 0.6426685 0.7661438
vn -0.00096929073 0.6426685 0.7661438
vn -0.00096929073 0.6426685 0.7661438
vn -0.00096929073 0.6426685 0.7661438
vn -0.00096929073 0.6426685 0.7661438
vn -0.00096929073 0.6426685 0.7661438
vn -0.00096929073 0.6426685 0.7661438
vn -0.00096929073 0.6426685 0.7661438
vn -0.00096929073 0.6426685 0.7661438
vn -0.00096929073 0.6426685 0.7661438
vn -0.00096929073 0.6426685 0.7661438
vn -0.00096929073 0.6426685 0.7661438
vn -0.00096929073 0.6426685 0.7661438
vn -0.00096929073 0.6426685 0.7661438
vn -0.00096929073 0.6426685 0.7661438
vn -0.00096929073 0.6426685 0.7661438
vn -0.00096929073 0.6426685 0.7661438
vn -0.00096929073 0.6426685 0.7661438
vn 0.00096935034 0.6426685 0.7661438
vn -0.00096929073 0.6426685 0.7661438
vn -0.00096929073 0.6426685 0.7661438
vn -0.00096929073 0.6426685 0.7661438
vn -0.00096929073 0.6426685 0.7661438
vn 0.00096935034 0.6426685 0.7661438
vn -0.00096929073 0.6426685 0.7661438
vn -0.00096929073 0.6426685 0.7661438
vn 0.00096935034 0.6426685 0.7661438
vn 0.00096935034 0.6426685 0.7661438
vn 0.00096935034 0.6426685 0.7661438
vn 0.00096935034 0.6426685 0.7661438
vn -0.00096929073 0.6426685 0.7661438
vn -0.00096929073 0.6426685 0.7661438
vn -0.00096929073 0.6426685 0.7661438
vn -0.00096929073 0.6426685 0.7661438
vn 0.00096935034 0.6426685 0.7661438
vn -0.00096929073 0.6426685 0.7661438
vn -0.00096929073 0.6426685 0.7661438
vn -0.00096929073 0.6426685 0.7661438
vn 0.00096935034 0.6426685 0.7661438
vn 0.00096935034 0.6426685 0.7661438
vn 0.00096935034 0.6426685 0.7661438
vn 0.00096935034 0.6426685 0.7661438
vn -0.00096929073 0.6426685 0.7661438
vn -0.00096929073 0.6426685 0.7661438
vn -0.00096929073 0.6426685 0.7661438
vn -0.00096929073 0.6426685 0.7661438
vn -0.00096929073 0.6426685 0.7661438
vn -0.00096929073 0.6426685 0.7661438
vn -0.00096929073 0.6426685 0.7661438
vn -0.00096929073 0.6426685 0.7661438
vn -0.00096929073 0.6426685 0.7661438
vn -0.00096929073 0.6426685 0.7661438
vn -0.00096929073 0.6426685 0.7661438
vn -0.00096929073 0.6426685 0.7661438
vn -0.00096929073 0.6426685 0.7661438
vn -0.00096929073 0.6426685 0.7661438
vn -0.00096929073 0.6426685 0.7661438
vn -0.00096929073 0.6426685 0.7661438
vn -0.00096929073 0.6426685 0.7661438
vn -0.00096929073 0.6426685 0.7661438
vn -0.00096929073 0.6426685 0.7661438
vn -0.00096929073 0.6426685 0.7661438
vn -0.00096929073 0.6426685 0.7661438
vn -0.00096929073 0.6426685 0.7661438
vn -0.00096929073 0.6426685 0.7661438
vn -0.00096929073 0.6426685 0.7661438
vn -0.00096929073 0.6426685 0.7661438
vn -0.00096929073 0.6426685 0.7661438
vn -0.00096929073 0.6426685 0.7661438
vn -0.00096929073 0.6426685 0.7661438
vn -0.00096929073 0.6426685 0.7661438
vn -0.00096929073 0.6426685 0.7661438
vn -0.00096929073 0.6426685 0.7661438
vn -0.00096929073 0.6426685 0.7661438
vn -0.00096929073 0.6426685 0.7661438
vn -0.00096929073 0.6426685 0.7661438
vn -0.00096929073 0.6426685 0.7661438
vn -0.00096929073 0.6426685 0.7661438
vn -0.00096929073 0.6426685 0.7661438
vn -0.00096929073 0.6426685 0.7661438
vn -0.00096929073 0.6426685 0.7661438
vn -0.00096929073 0.6426685 0.7661438
vn -0.00096929073 0.6426685 0.7661438
vn -0.00096929073 0.6426685 0.7661438
vn -0.31503356 0.7260312 -0.6112549
vn -0.16963339 0.7551112 -0.6332705
vn -0.16963339 0.7551112 -0.6332705
vn -0.31503356 0.7260312 -0.6112549
vn -0.5883857 0.61940444 -0.51975036
vn -0.5883857 0.61940444 -0.51975036
vn -0.8093939 0.45074034 -0.3764501
vn -0.8093939 0.45074034 -0.3764501
vn -0.94897795 0.24136412 -0.20293899
vn -0.94897795 0.24136412 -0.20293899
vn -0.98581266 0.13086009 -0.10511433
vn -0.98581266 0.13086009 -0.10511433
vn -0.31115615 0.7279699 -0.6109351
vn -0.15994012 0.7570498 -0.6334783
vn -0.15994012 0.7570498 -0.6334783
vn -0.31115615 0.7279699 -0.6109351
vn -0.5883857 0.61940444 -0.51975036
vn -0.5883857 0.61940444 -0.51975036
vn -0.8093939 0.45074034 -0.3764501
vn -0.8093939 0.45074034 -0.3764501
vn -0.95091665 0.23748684 -0.19838737
vn -0.95091665 0.23748684 -0.19838737
vn -0.98775136 0.12310541 -0.09587651
vn -0.98775136 0.12310541 -0.09587651
vn 0.15800148 -0.7570499 0.6339645
vn 0.15800148 -0.7570499 0.6339645
vn 0.30921757 -0.7279699 0.61191857
vn 0.30921757 -0.7279699 0.61191857
vn 0.5883858 -0.6194045 0.5197502
vn 0.5883858 -0.6194045 0.5197502
vn 0.809394 -0.4507404 0.3764498
vn 0.809394 -0.4507404 0.3764498
vn 0.95091677 -0.2374869 0.19838668
vn 0.95091677 -0.2374869 0.19838668
vn 0.9877514 -0.121166766 0.0983145
vn 0.9877514 -0.121166766 0.0983145
vn 0.9877514 0.121166706 -0.098314576
vn 0.99162877 0.09984136 -0.08187842
vn 0.99162877 0.09984136 -0.08187842
vn 0.9877514 0.121166706 -0.098314576
vn 0.98193544 0.14443076 -0.12223967
vn 0.98193544 0.14443076 -0.12223967
vn -0.99162865 0.09984136 -0.08187988
vn -0.99162865 0.09984136 -0.08187988
vn -0.98775136 0.121166706 -0.09831518
vn -0.98775136 0.121166706 -0.09831518
vn -0.9819354 0.14443076 -0.12224016
vn -0.9819354 0.14443076 -0.12224016
vn 0.16963351 0.7551112 -0.6332705
vn 0.16963351 0.7551112 -0.6332705
vn 0.3150336 0.7260312 -0.6112549
vn 0.3150336 0.7260312 -0.6112549
vn 0.5883858 0.61940444 -0.51975024
vn 0.5883858 0.61940444 -0.51975024
vn 0.809394 0.45074034 -0.37644985
vn 0.809394 0.45074034 -0.37644985
vn 0.94897807 0.24136412 -0.20293841
vn 0.94897807 0.24136412 -0.20293841
vn 0.9858128 0.13086009 -0.1051132
vn 0.9858128 0.13086009 -0.1051132
vn -0.30921757 -0.7279699 0.61191857
vn -0.15800142 -0.7570499 0.6339645
vn -0.15800142 -0.7570499 0.6339645
vn -0.30921757 -0.7279699 0.61191857
vn -0.5883857 -0.6194045 0.5197503
vn -0.5883857 -0.6194045 0.5197503
vn -0.8093939 -0.4507404 0.37645003
vn -0.8093939 -0.4507404 0.37645003
vn -0.95091665 -0.2374869 0.1983873
vn -0.95091665 -0.2374869 0.1983873
vn -0.98775136 -0.121166766 0.09831511
vn -0.98775136 -0.121166766 0.09831511
vn 0.15994018 0.7570498 -0.6334783
vn 0.15994018 0.7570498 -0.6334783
vn 0.31115627 0.7279699 -0.6109351
vn 0.31115627 0.7279699 -0.6109351
vn 0.5883858 0.61940444 -0.51975024
vn 0.5883858 0.61940444 -0.51975024
vn 0.809394 0.45074034 -0.37644985
vn 0.809394 0.45074034 -0.37644985
vn 0.95091677 0.23748684 -0.19838676
vn 0.95091677 0.23748684 -0.19838676
vn 0.9877514 0.12310541 -0.09587589
vn 0.9877514 0.12310541 -0.09587589
vn -0.87530863 0.36931622 -0.31215435
vn -0.87530863 0.36931622 -0.31215435
vn -0.87530863 0.36931622 -0.31215435
vn -0.87530863 0.36931622 -0.31215435
vn 0.8753087 0.36931622 -0.31215414
vn 0.8753087 0.36931622 -0.31215414
vn 0.8753087 0.36931622 -0.31215414
vn 0.8753087 0.36931622 -0.31215414
vn 0.87337 -0.37319362 0.3129719
vn 0.87337 -0.37319362 0.3129719
vn 0.832658 -0.423599 0.35671356
vn 0.832658 -0.423599 0.35671356
vn 0.5069617 -0.66011655 0.55428874
vn 0.5069617 -0.66011655 0.55428874
vn 0.30921757 -0.7279699 0.61191857
vn 0.30921757 -0.7279699 0.61191857
vn 0.5883858 -0.6194045 0.5197502
vn 0.5883858 -0.6194045 0.5197502
vn 0.809394 -0.4507404 0.3764498
vn 0.809394 -0.4507404 0.3764498
vn 0.95091677 -0.2374869 0.19838668
vn 0.95091677 -0.2374869 0.19838668
vn 0.861738 -0.388703 0.3260637
vn 0.861738 -0.388703 0.3260637
vn 0.5534898 -0.6368525 0.5367196
vn 0.5534898 -0.6368525 0.5367196
vn 0.48757505 -0.66787124 0.56233317
vn 0.48757505 -0.66787124 0.56233317
vn -0.83265793 -0.423599 0.35671365
vn -0.87336993 -0.37319362 0.31297198
vn -0.87336993 -0.37319362 0.31297198
vn -0.83265793 -0.423599 0.35671365
vn -0.5069617 -0.66011655 0.55428874
vn -0.5069617 -0.66011655 0.55428874
vn -0.30921757 -0.7279699 0.61191857
vn -0.30921757 -0.7279699 0.61191857
vn -0.5883857 -0.6194045 0.5197503
vn -0.5883857 -0.6194045 0.5197503
vn -0.8093939 -0.4507404 0.37645003
vn -0.8093939 -0.4507404 0.37645003
vn -0.95091665 -0.2374869 0.1983873
vn -0.95091665 -0.2374869 0.1983873
vn -0.86173797 -0.388703 0.32606387
vn -0.86173797 -0.388703 0.32606387
vn -0.5534897 -0.6368525 0.53671974
vn -0.5534897 -0.6368525 0.53671974
vn -0.48757493 -0.66787124 0.5623333
vn -0.48757493 -0.66787124 0.5623333
vn -0.16963339 -0.7551113 0.63327044
vn -0.16963339 -0.7551113 0.63327044
vn -0.31503356 -0.72603124 0.6112549
vn -0.31503356 -0.72603124 0.6112549
vn -0.5883857 -0.6194045 0.5197503
vn -0.5883857 -0.6194045 0.5197503
vn -0.8093939 -0.4507404 0.37645003
vn -0.8093939 -0.4507404 0.37645003
vn -0.94897795 -0.24136424 0.20293885
vn -0.94897795 -0.24136424 0.20293885
vn -0.98581266 -0.13086015 0.10511426
vn -0.98581266 -0.13086015 0.10511426
vn 0.30921757 0.7279699 -0.61191857
vn 0.15800148 0.7570498 -0.6339646
vn 0.15800148 0.7570498 -0.6339646
vn 0.30921757 0.7279699 -0.61191857
vn 0.5883858 0.61940444 -0.51975024
vn 0.5883858 0.61940444 -0.51975024
vn 0.809394 0.45074034 -0.37644985
vn 0.809394 0.45074034 -0.37644985
vn 0.95091677 0.23748684 -0.19838676
vn 0.95091677 0.23748684 -0.19838676
vn 0.9877514 0.121166706 -0.098314576
vn 0.9877514 0.121166706 -0.098314576
vn -0.15994012 -0.7570499 0.63347816
vn -0.15994012 -0.7570499 0.63347816
vn -0.31115615 -0.7279699 0.6109351
vn -0.31115615 -0.7279699 0.6109351
vn -0.5883857 -0.6194045 0.5197503
vn -0.5883857 -0.6194045 0.5197503
vn -0.8093939 -0.4507404 0.37645003
vn -0.8093939 -0.4507404 0.37645003
vn -0.95091665 -0.2374869 0.1983873
vn -0.95091665 -0.2374869 0.1983873
vn -0.98775136 -0.12310547 0.09587643
vn -0.98775136 -0.12310547 0.09587643
vn -0.48369765 0.6717484 -0.5610621
vn -0.48369765 0.6717484 -0.5610621
vn -0.48369765 0.6717484 -0.5610621
vn -0.48369765 0.6717484 -0.5610621
vn -0.48369765 -0.6717485 0.5610619
vn -0.48369765 -0.6717485 0.5610619
vn -0.48369765 -0.6717485 0.5610619
vn -0.48369765 -0.6717485 0.5610619
vn -0.18902016 0.7531725 -0.63008136
vn -0.18902016 0.7531725 -0.63008136
vn -0.15800142 0.7570498 -0.6339646
vn -0.15800142 0.7570498 -0.6339646
vn -0.12892139 0.7589885 -0.6382129
vn -0.12892139 0.7589885 -0.6382129
vn -0.15800142 -0.7570499 0.6339645
vn -0.18902016 -0.7531726 0.6300813
vn -0.18902016 -0.7531726 0.6300813
vn -0.15800142 -0.7570499 0.6339645
vn -0.12892139 -0.7589886 0.63821274
vn -0.12892139 -0.7589886 0.63821274
vn 0.48757505 0.6678711 -0.5623333
vn 0.48757505 0.6678711 -0.5623333
vn 0.5534898 0.6368524 -0.53671974
vn 0.5534898 0.6368524 -0.53671974
vn 0.861738 0.38870287 -0.32606384
vn 0.861738 0.38870287 -0.32606384
vn 0.95091677 0.23748684 -0.19838676
vn 0.95091677 0.23748684 -0.19838676
vn 0.809394 0.45074034 -0.37644985
vn 0.809394 0.45074034 -0.37644985
vn 0.5883858 0.61940444 -0.51975024
vn 0.5883858 0.61940444 -0.51975024
vn 0.30921757 0.7279699 -0.61191857
vn 0.30921757 0.7279699 -0.61191857
vn 0.5069617 0.66011643 -0.55428886
vn 0.5069617 0.66011643 -0.55428886
vn 0.832658 0.4235989 -0.3567137
vn 0.832658 0.4235989 -0.3567137
vn 0.87337 0.37319362 -0.3129719
vn 0.87337 0.37319362 -0.3129719
vn 0.3150336 -0.72603124 0.6112548
vn 0.16963351 -0.7551113 0.63327044
vn 0.16963351 -0.7551113 0.63327044
vn 0.3150336 -0.72603124 0.6112548
vn 0.5883858 -0.6194045 0.5197502
vn 0.5883858 -0.6194045 0.5197502
vn 0.809394 -0.4507404 0.3764498
vn 0.809394 -0.4507404 0.3764498
vn 0.94897807 -0.24136424 0.20293826
vn 0.94897807 -0.24136424 0.20293826
vn 0.9858128 -0.13086015 0.10511313
vn 0.9858128 -0.13086015 0.10511313
vn 0.31115627 -0.7279699 0.6109351
vn 0.15994018 -0.7570499 0.6334781
vn 0.15994018 -0.7570499 0.6334781
vn 0.31115627 -0.7279699 0.6109351
vn 0.5883858 -0.6194045 0.5197502
vn 0.5883858 -0.6194045 0.5197502
vn 0.809394 -0.4507404 0.3764498
vn 0.809394 -0.4507404 0.3764498
vn 0.95091677 -0.2374869 0.19838668
vn 0.95091677 -0.2374869 0.19838668
vn 0.9877514 -0.12310547 0.09587581
vn 0.9877514 -0.12310547 0.09587581
vn -0.15800142 0.7570498 -0.6339646
vn -0.15800142 0.7570498 -0.6339646
vn -0.30921757 0.7279699 -0.61191857
vn -0.30921757 0.7279699 -0.61191857
vn -0.5883857 0.61940444 -0.51975036
vn -0.5883857 0.61940444 -0.51975036
vn -0.8093939 0.45074034 -0.3764501
vn -0.8093939 0.45074034 -0.3764501
vn -0.95091665 0.23748684 -0.19838737
vn -0.95091665 0.23748684 -0.19838737
vn -0.98775136 0.121166706 -0.09831518
vn -0.98775136 0.121166706 -0.09831518
vn -0.87530863 -0.36931634 0.3121542
vn -0.87530863 -0.36931634 0.3121542
vn -0.87530863 -0.36931634 0.3121542
vn -0.87530863 -0.36931634 0.3121542
vn 0.8753087 -0.36931634 0.312154
vn 0.8753087 -0.36931634 0.312154
vn 0.8753087 -0.36931634 0.312154
vn 0.8753087 -0.36931634 0.312154
vn -0.9819354 -0.14443082 0.1222401
vn -0.9819354 -0.14443082 0.1222401
vn -0.98775136 -0.121166766 0.09831511
vn -0.98775136 -0.121166766 0.09831511
vn -0.99162865 -0.099841475 0.081879735
vn -0.99162865 -0.099841475 0.081879735
vn 0.9877514 -0.121166766 0.0983145
vn 0.98193544 -0.14443082 0.122239605
vn 0.98193544 -0.14443082 0.122239605
vn 0.9877514 -0.121166766 0.0983145
vn 0.99162877 -0.099841475 0.08187828
vn 0.99162877 -0.099841475 0.08187828
vn -0.87336993 0.37319362 -0.31297198
vn -0.87336993 0.37319362 -0.31297198
vn -0.83265793 0.4235989 -0.3567138
vn -0.83265793 0.4235989 -0.3567138
vn -0.5069617 0.66011643 -0.55428886
vn -0.5069617 0.66011643 -0.55428886
vn -0.30921757 0.7279699 -0.61191857
vn -0.30921757 0.7279699 -0.61191857
vn -0.5883857 0.61940444 -0.51975036
vn -0.5883857 0.61940444 -0.51975036
vn -0.8093939 0.45074034 -0.3764501
vn -0.8093939 0.45074034 -0.3764501
vn -0.95091665 0.23748684 -0.19838737
vn -0.95091665 0.23748684 -0.19838737
vn -0.86173797 0.38870287 -0.32606402
vn -0.86173797 0.38870287 -0.32606402
vn -0.5534897 0.6368524 -0.53671986
vn -0.5534897 0.6368524 -0.53671986
vn -0.48757493 0.6678711 -0.5623334
vn -0.48757493 0.6678711 -0.5623334
vn 0.4836977 0.6717484 -0.56106204
vn 0.4836977 0.6717484 -0.56106204
vn 0.4836977 0.6717484 -0.56106204
vn 0.4836977 0.6717484 -0.56106204
vn 0.4836977 -0.6717485 0.56106186
vn 0.4836977 -0.6717485 0.56106186
vn 0.4836977 -0.6717485 0.56106186
vn 0.4836977 -0.6717485 0.56106186
vn 0.15800148 0.7570498 -0.6339646
vn 0.18902016 0.7531725 -0.63008136
vn 0.18902016 0.7531725 -0.63008136
vn 0.15800148 0.7570498 -0.6339646
vn 0.12892145 0.7589885 -0.6382129
vn 0.12892145 0.7589885 -0.6382129
vn 0.18902016 -0.7531726 0.6300813
vn 0.18902016 -0.7531726 0.6300813
vn 0.15800148 -0.7570499 0.6339645
vn 0.15800148 -0.7570499 0.6339645
vn 0.12892145 -0.7589886 0.63821274
vn 0.12892145 -0.7589886 0.63821274
g Midori_Original_Halo_0
f 3/3/3 2/2/2 1/1/1
f 4/4/4 3/3/3 1/1/1
f 5/5/5 4/4/4 1/1/1
f 6/6/6 4/4/4 5/5/5
f 4/4/4 6/6/6 7/7/7
f 6/6/6 8/8/8 7/7/7
f 8/8/8 9/9/9 7/7/7
f 9/9/9 10/10/10 7/7/7
f 10/10/10 9/9/9 11/11/11
f 9/9/9 12/12/12 11/11/11
f 11/11/11 12/12/12 13/13/13
f 12/12/12 14/14/14 13/13/13
f 14/14/14 15/15/15 13/13/13
f 15/15/15 16/16/16 13/13/13
f 17/17/17 6/6/6 5/5/5
f 17/17/17 5/5/5 18/18/18
f 19/19/19 6/6/6 17/17/17
f 20/20/20 17/17/17 18/18/18
f 21/21/21 20/20/20 18/18/18
f 22/22/22 21/21/21 18/18/18
f 23/23/23 21/21/21 22/22/22
f 24/24/24 23/23/23 22/22/22
f 23/23/23 24/24/24 25/25/25
f 26/26/26 23/23/23 25/25/25
f 27/27/27 26/26/26 25/25/25
f 28/28/28 19/19/19 17/17/17
f 29/29/29 27/27/27 25/25/25
f 19/19/19 28/28/28 30/30/30
f 30/30/30 28/28/28 31/31/31
f 32/32/32 30/30/30 31/31/31
f 33/33/33 32/32/32 31/31/31
f 34/34/34 33/33/33 31/31/31
f 35/35/35 33/33/33 34/34/34
f 36/36/36 35/35/35 34/34/34
f 35/35/35 36/36/36 37/37/37
f 38/38/38 35/35/35 37/37/37
f 39/39/39 38/38/38 37/37/37
f 40/40/40 39/39/39 37/37/37
f 41/41/41 19/19/19 30/30/30
f 19/19/19 41/41/41 42/42/42
f 43/43/43 41/41/41 30/30/30
f 44/44/44 43/43/43 30/30/30
f 45/45/45 43/43/43 44/44/44
f 41/41/41 46/46/46 42/42/42
f 46/46/46 47/47/47 42/42/42
f 47/47/47 48/48/48 42/42/42
f 48/48/48 47/47/47 49/49/49
f 47/47/47 50/50/50 49/49/49
f 49/49/49 50/50/50 51/51/51
f 50/50/50 52/52/52 51/51/51
f 52/52/52 53/53/53 51/51/51
f 53/53/53 54/54/54 51/51/51
f 53/53/53 55/55/55 54/54/54
f 56/56/56 55/55/55 53/53/53
f 57/57/57 56/56/56 53/53/53
f 56/56/56 57/57/57 58/58/58
f 55/55/55 59/59/59 54/54/54
f 59/59/59 60/60/60 54/54/54
f 59/59/59 55/55/55 61/61/61
f 55/55/55 62/62/62 61/61/61
f 62/62/62 63/63/63 61/61/61
f 63/63/63 64/64/64 61/61/61
f 64/64/64 63/63/63 65/65/65
f 63/63/63 66/66/66 65/65/65
f 65/65/65 66/66/66 67/67/67
f 66/66/66 68/68/68 67/67/67
f 68/68/68 69/69/69 67/67/67
f 60/60/60 15/15/15 54/54/54
f 69/69/69 70/70/70 67/67/67
f 60/60/60 71/71/71 15/15/15
f 71/71/71 16/16/16 15/15/15
f 71/71/71 72/72/72 16/16/16
f 72/72/72 73/73/73 16/16/16
f 72/72/72 74/74/74 73/73/73
f 71/71/71 60/60/60 75/75/75
f 60/60/60 76/76/76 75/75/75
f 76/76/76 77/77/77 75/75/75
f 77/77/77 78/78/78 75/75/75
f 78/78/78 77/77/77 79/79/79
f 77/77/77 80/80/80 79/79/79
f 79/79/79 80/80/80 81/81/81
f 80/80/80 82/82/82 81/81/81
f 82/82/82 83/83/83 81/81/81
f 83/83/83 84/84/84 81/81/81
f 85/85/85 84/84/84 83/83/83
f 85/85/85 86/86/86 84/84/84
f 86/86/86 87/87/87 84/84/84
f 86/86/86 88/88/88 87/87/87
f 89/89/89 85/85/85 83/83/83
f 89/89/89 83/83/83 70/70/70
f 85/85/85 89/89/89 90/90/90
f 89/89/89 91/91/91 90/90/90
f 91/91/91 92/92/92 90/90/90
f 92/92/92 93/93/93 90/90/90
f 93/93/93 92/92/92 94/94/94
f 92/92/92 95/95/95 94/94/94
f 94/94/94 95/95/95 96/96/96
f 95/95/95 97/97/97 96/96/96
f 97/97/97 98/98/98 96/96/96
f 99/99/99 89/89/89 70/70/70
f 98/98/98 100/100/100 96/96/96
f 101/101/101 99/99/99 70/70/70
f 69/69/69 101/101/101 70/70/70
f 101/101/101 69/69/69 102/102/102
f 99/99/99 101/101/101 103/103/103
f 104/104/104 101/101/101 102/102/102
f 104/104/104 102/102/102 105/105/105
f 101/101/101 106/106/106 103/103/103
f 106/106/106 107/107/107 103/103/103
f 107/107/107 108/108/108 103/103/103
f 108/108/108 107/107/107 109/109/109
f 107/107/107 110/110/110 109/109/109
f 109/109/109 110/110/110 111/111/111
f 110/110/110 112/112/112 111/111/111
f 112/112/112 113/113/113 111/111/111
f 113/113/113 114/114/114 111/111/111
f 40/40/40 114/114/114 113/113/113
f 114/114/114 40/40/40 98/98/98
f 39/39/39 40/40/40 113/113/113
f 40/40/40 27/27/27 98/98/98
f 39/39/39 113/113/113 115/115/115
f 116/116/116 39/39/39 115/115/115
f 117/117/117 116/116/116 115/115/115
f 98/98/98 27/27/27 100/100/100
f 27/27/27 29/29/29 100/100/100
f 100/100/100 29/29/29 118/118/118
f 29/29/29 119/119/119 118/118/118
f 119/119/119 120/120/120 118/118/118
f 123/123/123 122/122/122 121/121/121
f 122/122/122 124/124/124 121/121/121
f 121/121/121 124/124/124 125/125/125
f 124/124/124 126/126/126 125/125/125
f 125/125/125 126/126/126 127/127/127
f 126/126/126 128/128/128 127/127/127
f 127/127/127 128/128/128 129/129/129
f 128/128/128 130/130/130 129/129/129
f 129/129/129 130/130/130 131/131/131
f 130/130/130 132/132/132 131/131/131
f 135/135/135 134/134/134 133/133/133
f 134/134/134 136/136/136 133/133/133
f 133/133/133 136/136/136 137/137/137
f 136/136/136 138/138/138 137/137/137
f 137/137/137 138/138/138 139/139/139
f 138/138/138 140/140/140 139/139/139
f 139/139/139 140/140/140 141/141/141
f 140/140/140 142/142/142 141/141/141
f 141/141/141 142/142/142 143/143/143
f 142/142/142 144/144/144 143/143/143
f 147/147/147 146/146/146 145/145/145
f 148/148/148 147/147/147 145/145/145
f 149/149/149 147/147/147 148/148/148
f 150/150/150 149/149/149 148/148/148
f 151/151/151 149/149/149 150/150/150
f 152/152/152 151/151/151 150/150/150
f 153/153/153 151/151/151 152/152/152
f 154/154/154 153/153/153 152/152/152
f 155/155/155 153/153/153 154/154/154
f 156/156/156 155/155/155 154/154/154
f 159/159/159 158/158/158 157/157/157
f 158/158/158 160/160/160 157/157/157
f 157/157/157 160/160/160 161/161/161
f 160/160/160 162/162/162 161/161/161
f 165/165/165 164/164/164 163/163/163
f 166/166/166 165/165/165 163/163/163
f 167/167/167 165/165/165 166/166/166
f 168/168/168 167/167/167 166/166/166
f 171/171/171 170/170/170 169/169/169
f 172/172/172 171/171/171 169/169/169
f 173/173/173 171/171/171 172/172/172
f 174/174/174 173/173/173 172/172/172
f 175/175/175 173/173/173 174/174/174
f 176/176/176 175/175/175 174/174/174
f 177/177/177 175/175/175 176/176/176
f 178/178/178 177/177/177 176/176/176
f 179/179/179 177/177/177 178/178/178
f 180/180/180 179/179/179 178/178/178
f 183/183/183 182/182/182 181/181/181
f 182/182/182 184/184/184 181/181/181
f 181/181/181 184/184/184 185/185/185
f 184/184/184 186/186/186 185/185/185
f 185/185/185 186/186/186 187/187/187
f 186/186/186 188/188/188 187/187/187
f 187/187/187 188/188/188 189/189/189
f 188/188/188 190/190/190 189/189/189
f 189/189/189 190/190/190 191/191/191
f 190/190/190 192/192/192 191/191/191
f 195/195/195 194/194/194 193/193/193
f 196/196/196 195/195/195 193/193/193
f 197/197/197 195/195/195 196/196/196
f 198/198/198 197/197/197 196/196/196
f 199/199/199 197/197/197 198/198/198
f 200/200/200 199/199/199 198/198/198
f 201/201/201 199/199/199 200/200/200
f 202/202/202 201/201/201 200/200/200
f 203/203/203 201/201/201 202/202/202
f 204/204/204 203/203/203 202/202/202
f 207/207/207 206/206/206 205/205/205
f 208/208/208 207/207/207 205/205/205
f 211/211/211 210/210/210 209/209/209
f 212/212/212 211/211/211 209/209/209
f 215/215/215 214/214/214 213/213/213
f 216/216/216 215/215/215 213/213/213
f 217/217/217 215/215/215 216/216/216
f 218/218/218 217/217/217 216/216/216
f 219/219/219 217/217/217 218/218/218
f 220/220/220 219/219/219 218/218/218
f 221/221/221 219/219/219 220/220/220
f 222/222/222 221/221/221 220/220/220
f 223/223/223 221/221/221 222/222/222
f 224/224/224 223/223/223 222/222/222
f 225/225/225 223/223/223 224/224/224
f 226/226/226 225/225/225 224/224/224
f 227/227/227 225/225/225 226/226/226
f 228/228/228 227/227/227 226/226/226
f 229/229/229 227/227/227 228/228/228
f 230/230/230 229/229/229 228/228/228
f 231/231/231 229/229/229 230/230/230
f 232/232/232 231/231/231 230/230/230
f 235/235/235 234/234/234 233/233/233
f 234/234/234 236/236/236 233/233/233
f 233/233/233 236/236/236 237/237/237
f 236/236/236 238/238/238 237/237/237
f 237/237/237 238/238/238 239/239/239
f 238/238/238 240/240/240 239/239/239
f 239/239/239 240/240/240 241/241/241
f 240/240/240 242/242/242 241/241/241
f 241/241/241 242/242/242 243/243/243
f 242/242/242 244/244/244 243/243/243
f 243/243/243 244/244/244 245/245/245
f 244/244/244 246/246/246 245/245/245
f 245/245/245 246/246/246 247/247/247
f 246/246/246 248/248/248 247/247/247
f 247/247/247 248/248/248 249/249/249
f 248/248/248 250/250/250 249/249/249
f 249/249/249 250/250/250 251/251/251
f 250/250/250 252/252/252 251/251/251
f 255/255/255 254/254/254 253/253/253
f 256/256/256 255/255/255 253/253/253
f 257/257/257 255/255/255 256/256/256
f 258/258/258 257/257/257 256/256/256
f 259/259/259 257/257/257 258/258/258
f 260/260/260 259/259/259 258/258/258
f 261/261/261 259/259/259 260/260/260
f 262/262/262 261/261/261 260/260/260
f 263/263/263 261/261/261 262/262/262
f 264/264/264 263/263/263 262/262/262
f 267/267/267 266/266/266 265/265/265
f 266/266/266 268/268/268 265/265/265
f 265/265/265 268/268/268 269/269/269
f 268/268/268 270/270/270 269/269/269
f 269/269/269 270/270/270 271/271/271
f 270/270/270 272/272/272 271/271/271
f 271/271/271 272/272/272 273/273/273
f 272/272/272 274/274/274 273/273/273
f 273/273/273 274/274/274 275/275/275
f 274/274/274 276/276/276 275/275/275
f 279/279/279 278/278/278 277/277/277
f 280/280/280 279/279/279 277/277/277
f 281/281/281 279/279/279 280/280/280
f 282/282/282 281/281/281 280/280/280
f 283/283/283 281/281/281 282/282/282
f 284/284/284 283/283/283 282/282/282
f 285/285/285 283/283/283 284/284/284
f 286/286/286 285/285/285 284/284/284
f 287/287/287 285/285/285 286/286/286
f 288/288/288 287/287/287 286/286/286
f 291/291/291 290/290/290 289/289/289
f 292/292/292 291/291/291 289/289/289
f 295/295/295 294/294/294 293/293/293
f 296/296/296 295/295/295 293/293/293
f 299/299/299 298/298/298 297/297/297
f 300/300/300 299/299/299 297/297/297
f 301/301/301 299/299/299 300/300/300
f 302/302/302 301/301/301 300/300/300
f 305/305/305 304/304/304 303/303/303
f 304/304/304 306/306/306 303/303/303
f 303/303/303 306/306/306 307/307/307
f 306/306/306 308/308/308 307/307/307
f 311/311/311 310/310/310 309/309/309
f 312/312/312 311/311/311 309/309/309
f 313/313/313 311/311/311 312/312/312
f 314/314/314 313/313/313 312/312/312
f 315/315/315 313/313/313 314/314/314
f 316/316/316 315/315/315 314/314/314
f 317/317/317 315/315/315 316/316/316
f 318/318/318 317/317/317 316/316/316
f 319/319/319 317/317/317 318/318/318
f 320/320/320 319/319/319 318/318/318
f 321/321/321 319/319/319 320/320/320
f 322/322/322 321/321/321 320/320/320
f 323/323/323 321/321/321 322/322/322
f 324/324/324 323/323/323 322/322/322
f 325/325/325 323/323/323 324/324/324
f 326/326/326 325/325/325 324/324/324
f 327/327/327 325/325/325 326/326/326
f 328/328/328 327/327/327 326/326/326
f 331/331/331 330/330/330 329/329/329
f 330/330/330 332/332/332 329/329/329
f 329/329/329 332/332/332 333/333/333
f 332/332/332 334/334/334 333/333/333
f 333/333/333 334/334/334 335/335/335
f 334/334/334 336/336/336 335/335/335
f 335/335/335 336/336/336 337/337/337
f 336/336/336 338/338/338 337/337/337
f 337/337/337 338/338/338 339/339/339
f 338/338/338 340/340/340 339/339/339
f 343/343/343 342/342/342 341/341/341
f 342/342/342 344/344/344 341/341/341
f 341/341/341 344/344/344 345/345/345
f 344/344/344 346/346/346 345/345/345
f 345/345/345 346/346/346 347/347/347
f 346/346/346 348/348/348 347/347/347
f 347/347/347 348/348/348 349/349/349
f 348/348/348 350/350/350 349/349/349
f 349/349/349 350/350/350 351/351/351
f 350/350/350 352/352/352 351/351/351
f 355/355/355 354/354/354 353/353/353
f 356/356/356 355/355/355 353/353/353
f 357/357/357 355/355/355 356/356/356
f 358/358/358 357/357/357 356/356/356
f 359/359/359 357/357/357 358/358/358
f 360/360/360 359/359/359 358/358/358
f 361/361/361 359/359/359 360/360/360
f 362/362/362 361/361/361 360/360/360
f 363/363/363 361/361/361 362/362/362
f 364/364/364 363/363/363 362/362/362
f 367/367/367 366/366/366 365/365/365
f 368/368/368 367/367/367 365/365/365
f 371/371/371 370/370/370 369/369/369
f 372/372/372 371/371/371 369/369/369
f 375/375/375 374/374/374 373/373/373
f 376/376/376 375/375/375 373/373/373
f 377/377/377 375/375/375 376/376/376
f 378/378/378 377/377/377 376/376/376
f 381/381/381 380/380/380 379/379/379
f 380/380/380 382/382/382 379/379/379
f 379/379/379 382/382/382 383/383/383
f 382/382/382 384/384/384 383/383/383
f 387/387/387 386/386/386 385/385/385
f 388/388/388 387/387/387 385/385/385
f 389/389/389 387/387/387 388/388/388
f 390/390/390 389/389/389 388/388/388
f 391/391/391 389/389/389 390/390/390
f 392/392/392 391/391/391 390/390/390
f 393/393/393 391/391/391 392/392/392
f 394/394/394 393/393/393 392/392/392
f 395/395/395 393/393/393 394/394/394
f 396/396/396 395/395/395 394/394/394
f 397/397/397 395/395/395 396/396/396
f 398/398/398 397/397/397 396/396/396
f 399/399/399 397/397/397 398/398/398
f 400/400/400 399/399/399 398/398/398
f 401/401/401 399/399/399 400/400/400
f 402/402/402 401/401/401 400/400/400
f 403/403/403 401/401/401 402/402/402
f 404/404/404 403/403/403 402/402/402
f 407/407/407 406/406/406 405/405/405
f 408/408/408 407/407/407 405/405/405
f 411/411/411 410/410/410 409/409/409
f 412/412/412 411/411/411 409/409/409
f 415/415/415 414/414/414 413/413/413
f 414/414/414 416/416/416 413/413/413
f 413/413/413 416/416/416 417/417/417
f 416/416/416 418/418/418 417/417/417
f 421/421/421 420/420/420 419/419/419
f 422/422/422 421/421/421 419/419/419
f 423/423/423 421/421/421 422/422/422
f 424/424/424 423/423/423 422/422/422
