g CH0222_Halo
v -0.09475365 -0.04944691 0.02797571
v -0.1097032 -0.009401953 0.005319361
v -0.1435682 -0.04110136 0.02325403
v -0.0147985 0.00381881 -0.002160585
v -0.008745886 -0.01106949 0.006262808
v -0.0004000889 0.01342964 -0.007598134
v -0.08331221 0.06315308 -0.0357303
v -0.04417389 0.08790224 -0.04973271
v -0.08927741 0.1061386 -0.06005035
v 0.009393243 -0.01066013 0.006031207
v 0.02475121 -0.09371296 0.05302024
v -0.02362644 -0.09371296 0.05302024
v 0.000547303 -0.1315406 0.07442215
v 0.01455123 0.004481164 -0.002535327
v 0.09510126 -0.04851583 0.02744894
v 0.04326388 0.08847766 -0.05005827
v 0.1100508 -0.008470871 0.004792585
v 0.1439065 -0.04019523 0.02274136
v 0.08240224 0.06372851 -0.03605587
v 0.0883918 0.1066986 -0.0603672
v -0.1097032 -0.007305765 0.009024357
v -0.09475365 -0.04735072 0.03168071
v -0.1435682 -0.03900517 0.02695902
v -0.008745886 -0.0089733 0.009967807
v -0.0147985 0.005914996 0.001544411
v -0.0004000889 0.01552583 -0.003893138
v -0.04417389 0.08999842 -0.04602771
v -0.08331221 0.06524926 -0.03202531
v -0.08927741 0.1082348 -0.05634537
v 0.009393243 -0.008563945 0.009736203
v 0.02475121 -0.09161676 0.05672525
v -0.02362644 -0.09161676 0.05672524
v 0.0005473027 -0.1294445 0.07812713
v 0.01455123 0.00657735 0.001169669
v 0.09510126 -0.04641965 0.03115393
v 0.1100508 -0.006374685 0.00849758
v 0.1439065 -0.03809904 0.02644636
v 0.08240224 0.0658247 -0.03235088
v 0.04326388 0.09057386 -0.04635326
v 0.0883918 0.1087948 -0.05666222
v -0.02393574 0.07484622 -0.04936927
v -0.03753804 0.08797079 -0.05679481
v -0.0455821 0.06975364 -0.04648803
v -0.004637835 0.1070691 -0.06760011
v 0.001328757 0.1016038 -0.06450799
v -0.0005095786 0.1136969 -0.0713499
v -0.0416836 0.1197134 -0.07475393
v -0.03154545 0.1350285 -0.08341879
v -0.05393748 0.1360577 -0.08400104
v 0.009144572 0.1048538 -0.06634678
v 0.030576 0.07567241 -0.0498367
v 0.01203116 0.06846872 -0.04576105
v 0.02945169 0.05618079 -0.03880887
v 0.008008418 0.1123277 -0.0705753
v 0.04865924 0.1034735 -0.06556583
v 0.001859381 0.1482691 -0.09090994
v 0.04651827 0.1210503 -0.07551025
v 0.06746978 0.1140963 -0.07157593
v 0.02172741 0.1446098 -0.08883958
v 0.01593244 0.163463 -0.09950622
v -0.03753804 0.08945206 -0.05417668
v -0.02393574 0.07632748 -0.04675114
v -0.0455821 0.0712349 -0.04386991
v 0.001328757 0.1030851 -0.06188986
v -0.004637835 0.1085504 -0.06498197
v -0.0005095789 0.1151781 -0.06873178
v -0.03154545 0.1365098 -0.08080068
v -0.0416836 0.1211947 -0.0721358
v -0.05393748 0.1375389 -0.08138293
v 0.009144572 0.1063351 -0.06372864
v 0.030576 0.07715368 -0.04721858
v 0.01203116 0.06994998 -0.04314293
v 0.02945169 0.05766205 -0.03619075
v 0.008008418 0.113809 -0.06795719
v 0.04865924 0.1049548 -0.06294771
v 0.04651827 0.1225315 -0.07289211
v 0.06746978 0.1155776 -0.06895781
v 0.02172741 0.146091 -0.08622149
v 0.001859381 0.1497503 -0.08829179
v 0.01593244 0.1649442 -0.09688808
v 0.009144572 0.1048538 -0.06634678
v 0.01089625 0.1047194 -0.06454261
v 0.04919354 0.1025189 -0.06329764
v 0.04865924 0.1034735 -0.06556583
v 0.030576 0.07567241 -0.0498367
v 0.06947825 0.1150223 -0.07037171
v 0.06746978 0.1140963 -0.07157593
v 0.03252822 0.07686377 -0.04878265
v 0.02945169 0.05618079 -0.03880887
v 0.04662903 0.1235461 -0.07519425
v 0.04651827 0.1210503 -0.07551025
v 0.03027485 0.05531616 -0.03659159
v 0.01203116 0.06846872 -0.04576105
v 0.009505961 0.1142479 -0.0699336
v 0.008008418 0.1123277 -0.0705753
v 0.01034383 0.06824323 -0.0439054
v 0.001328757 0.1016038 -0.06450799
v 0.02374497 0.1452688 -0.08748437
v 0.02172741 0.1446098 -0.08883958
v 0.0009138102 0.1006241 -0.06222559
v -0.02393574 0.07484622 -0.04936927
v 0.01635058 0.1659234 -0.09917016
v 0.01593244 0.163463 -0.09950622
v -0.02283996 0.07411018 -0.04722476
v -0.0455821 0.06975364 -0.04648803
v -2.437887E-05 0.1496438 -0.08995962
v 0.001859381 0.1482691 -0.09090994
v -0.04708184 0.06931684 -0.04451282
v -0.03753804 0.08797079 -0.05679481
v -0.001335723 0.1160416 -0.07094839
v -0.0005095786 0.1136969 -0.0713499
v -0.03911517 0.08980957 -0.05610704
v -0.004637835 0.1070691 -0.06760011
v -0.03083282 0.137414 -0.08304034
v -0.03154545 0.1350285 -0.08341879
v -0.006645963 0.1076216 -0.06618459
v -0.0416836 0.1197134 -0.07475393
v -0.05568753 0.1376759 -0.08318848
v -0.05393748 0.1360577 -0.08400104
v -0.04295858 0.1190907 -0.07267351
v -0.0005095789 0.1151781 -0.06873178
v 0.001859381 0.1497503 -0.08829179
v -0.03154545 0.1365098 -0.08080068
v -0.05393748 0.1375389 -0.08138293
v 0.01593244 0.1649442 -0.09688808
v -0.0416836 0.1211947 -0.0721358
v -0.004637835 0.1085504 -0.06498197
v 0.02172741 0.146091 -0.08622149
v -0.03753804 0.08945206 -0.05417668
v 0.008008418 0.113809 -0.06795719
v -0.0455821 0.0712349 -0.04386991
v 0.04651827 0.1225315 -0.07289211
v -0.02393574 0.07632748 -0.04675114
v 0.06746978 0.1155776 -0.06895781
v 0.001328757 0.1030851 -0.06188986
v 0.04865924 0.1049548 -0.06294771
v 0.01203116 0.06994998 -0.04314293
v 0.009144572 0.1063351 -0.06372864
v 0.02945169 0.05766205 -0.03619075
v 0.030576 0.07715368 -0.04721858
v 0.009393243 -0.01066013 0.006031207
v 0.01379832 -0.01478196 0.0108087
v 0.09634154 -0.05270569 0.03226492
v 0.09510126 -0.04851583 0.02744894
v 0.02475121 -0.09371296 0.05302024
v 0.1556276 -0.04243727 0.02645534
v 0.1439065 -0.04019523 0.02274136
v 0.0301163 -0.0953033 0.0563655
v 0.000547303 -0.1315406 0.07442215
v 0.1145917 -0.003797105 0.004593776
v 0.1100508 -0.008470871 0.004792585
v 0.0005741145 -0.1412115 0.08233912
v -0.02362644 -0.09371296 0.05302024
v 0.02156176 0.007578 -0.001841952
v 0.01455123 0.004481164 -0.002535327
v -0.02896679 -0.09531015 0.05636937
v -0.008745886 -0.01106949 0.006262808
v 0.08850913 0.06418466 -0.03386846
v 0.08240224 0.06372851 -0.03605587
v -0.01303393 -0.01526532 0.01108218
v -0.09475365 -0.04944691 0.02797571
v 0.09560902 0.1164322 -0.06342874
v 0.0883918 0.1066986 -0.0603672
v -0.09597882 -0.05365514 0.0328021
v -0.1435682 -0.04110136 0.02325403
v 0.04070527 0.09440498 -0.0509663
v 0.04326388 0.08847766 -0.05005827
v -0.1552728 -0.04338779 0.02699311
v -0.1097032 -0.009401953 0.005319361
v -0.0004724216 0.02091385 -0.009387013
v -0.0004000889 0.01342964 -0.007598134
v -0.114244 -0.004750779 0.005133334
v -0.0147985 0.00381881 -0.002160585
v -0.04163991 0.09382242 -0.05063671
v -0.04417389 0.08790224 -0.04973271
v -0.02185373 0.006795897 -0.00139946
v -0.08331221 0.06315308 -0.0357303
v -0.09653801 0.1158448 -0.06309638
v -0.08927741 0.1061386 -0.06005035
v -0.08943452 0.06359103 -0.0335326
v -0.0004000889 0.01552583 -0.003893138
v 0.04326388 0.09057386 -0.04635326
v -0.04417389 0.08999842 -0.04602771
v -0.08927741 0.1082348 -0.05634537
v 0.0883918 0.1087948 -0.05666222
v -0.08331221 0.06524926 -0.03202531
v -0.0147985 0.005914996 0.001544411
v 0.08240224 0.0658247 -0.03235088
v -0.1097032 -0.007305765 0.009024357
v 0.01455123 0.00657735 0.001169669
v -0.1435682 -0.03900517 0.02695902
v 0.1100508 -0.006374685 0.00849758
v -0.09475365 -0.04735072 0.03168071
v 0.1439065 -0.03809904 0.02644636
v -0.008745886 -0.0089733 0.009967807
v 0.09510126 -0.04641965 0.03115393
v -0.02362644 -0.09161676 0.05672524
v 0.009393243 -0.008563945 0.009736203
v 0.0005473027 -0.1294445 0.07812713
v 0.02475121 -0.09161676 0.05672525
vt 0.229887 0.4659257
vt 0.229887 0.4659257
vt 0.2386753 0.4738766
vt 0.2348576 0.4502967
vt 0.2348576 0.4502967
vt 0.2348576 0.4502967
vt 0.229887 0.4659257
vt 0.229887 0.4659257
vt 0.2386753 0.4738766
vt 0.2348576 0.4502967
vt 0.229887 0.4659257
vt 0.229887 0.4659257
vt 0.2386753 0.4738766
vt 0.2348576 0.4502967
vt 0.229887 0.4659257
vt 0.229887 0.4659257
vt 0.229887 0.4659257
vt 0.2386753 0.4738766
vt 0.229887 0.4659257
vt 0.2386753 0.4738766
vt 0.229887 0.4659257
vt 0.229887 0.4659257
vt 0.2386753 0.4738766
vt 0.2348576 0.4502967
vt 0.2348576 0.4502967
vt 0.2348576 0.4502967
vt 0.229887 0.4659257
vt 0.229887 0.4659257
vt 0.2386753 0.4738766
vt 0.2348576 0.4502967
vt 0.229887 0.4659257
vt 0.229887 0.4659257
vt 0.2386753 0.4738766
vt 0.2348576 0.4502967
vt 0.229887 0.4659257
vt 0.229887 0.4659257
vt 0.2386753 0.4738766
vt 0.229887 0.4659257
vt 0.229887 0.4659257
vt 0.2386753 0.4738766
vt 0.229887 0.4659257
vt 0.229887 0.4659257
vt 0.2386753 0.4738766
vt 0.2348576 0.4502967
vt 0.2348576 0.4502967
vt 0.2348576 0.4502967
vt 0.229887 0.4659257
vt 0.229887 0.4659257
vt 0.2386753 0.4738766
vt 0.2348576 0.4502967
vt 0.229887 0.4659257
vt 0.229887 0.4659257
vt 0.2386753 0.4738766
vt 0.2348576 0.4502967
vt 0.229887 0.4659257
vt 0.229887 0.4659257
vt 0.229887 0.4659257
vt 0.2386753 0.4738766
vt 0.229887 0.4659257
vt 0.2386753 0.4738766
vt 0.229887 0.4659257
vt 0.229887 0.4659257
vt 0.2386753 0.4738766
vt 0.2348576 0.4502967
vt 0.2348576 0.4502967
vt 0.2348576 0.4502967
vt 0.229887 0.4659257
vt 0.229887 0.4659257
vt 0.2386753 0.4738766
vt 0.2348576 0.4502967
vt 0.229887 0.4659257
vt 0.229887 0.4659257
vt 0.2386753 0.4738766
vt 0.2348576 0.4502967
vt 0.229887 0.4659257
vt 0.229887 0.4659257
vt 0.2386753 0.4738766
vt 0.229887 0.4659257
vt 0.229887 0.4659257
vt 0.2386753 0.4738766
vt 0.7787173 0.4502967
vt 0.7787173 0.4502967
vt 0.7737467 0.4659257
vt 0.7737467 0.4659257
vt 0.7737467 0.4659257
vt 0.782535 0.4738766
vt 0.782535 0.4738766
vt 0.7737467 0.4659257
vt 0.782535 0.4738766
vt 0.7737467 0.4659257
vt 0.7737467 0.4659257
vt 0.782535 0.4738766
vt 0.7737467 0.4659257
vt 0.7787173 0.4502967
vt 0.7787173 0.4502967
vt 0.7737467 0.4659257
vt 0.7787173 0.4502967
vt 0.7737467 0.4659257
vt 0.7737467 0.4659257
vt 0.7787173 0.4502967
vt 0.7737467 0.4659257
vt 0.782535 0.4738766
vt 0.782535 0.4738766
vt 0.7737467 0.4659257
vt 0.782535 0.4738766
vt 0.7737467 0.4659257
vt 0.7737467 0.4659257
vt 0.782535 0.4738766
vt 0.7737467 0.4659257
vt 0.7787173 0.4502967
vt 0.7787173 0.4502967
vt 0.7737467 0.4659257
vt 0.7787173 0.4502967
vt 0.7737467 0.4659257
vt 0.7737467 0.4659257
vt 0.7787173 0.4502967
vt 0.7737467 0.4659257
vt 0.782535 0.4738766
vt 0.782535 0.4738766
vt 0.7737467 0.4659257
vt 0.7787173 0.4502967
vt 0.7737467 0.4659257
vt 0.7737467 0.4659257
vt 0.782535 0.4738766
vt 0.782535 0.4738766
vt 0.7737467 0.4659257
vt 0.7787173 0.4502967
vt 0.7737467 0.4659257
vt 0.7737467 0.4659257
vt 0.7787173 0.4502967
vt 0.782535 0.4738766
vt 0.7737467 0.4659257
vt 0.7737467 0.4659257
vt 0.782535 0.4738766
vt 0.7787173 0.4502967
vt 0.7737467 0.4659257
vt 0.7737467 0.4659257
vt 0.7787173 0.4502967
vt 0.782535 0.4738766
vt 0.7737467 0.4659257
vt 0.7787173 0.4502967
vt 0.7787173 0.4502967
vt 0.7737467 0.4659257
vt 0.7737467 0.4659257
vt 0.7737467 0.4659257
vt 0.782535 0.4738766
vt 0.782535 0.4738766
vt 0.7737467 0.4659257
vt 0.782535 0.4738766
vt 0.7737467 0.4659257
vt 0.7737467 0.4659257
vt 0.782535 0.4738766
vt 0.7737467 0.4659257
vt 0.7787173 0.4502967
vt 0.7787173 0.4502967
vt 0.7737467 0.4659257
vt 0.7787173 0.4502967
vt 0.7737467 0.4659257
vt 0.7737467 0.4659257
vt 0.7787173 0.4502967
vt 0.7737467 0.4659257
vt 0.782535 0.4738766
vt 0.782535 0.4738766
vt 0.7737467 0.4659257
vt 0.782535 0.4738766
vt 0.7737467 0.4659257
vt 0.7737467 0.4659257
vt 0.782535 0.4738766
vt 0.7737467 0.4659257
vt 0.7787173 0.4502967
vt 0.7787173 0.4502967
vt 0.7737467 0.4659257
vt 0.7787173 0.4502967
vt 0.7737467 0.4659257
vt 0.7737467 0.4659257
vt 0.7787173 0.4502967
vt 0.7737467 0.4659257
vt 0.782535 0.4738766
vt 0.782535 0.4738766
vt 0.7737467 0.4659257
vt 0.7787173 0.4502967
vt 0.7737467 0.4659257
vt 0.7737467 0.4659257
vt 0.782535 0.4738766
vt 0.782535 0.4738766
vt 0.7737467 0.4659257
vt 0.7787173 0.4502967
vt 0.7737467 0.4659257
vt 0.7737467 0.4659257
vt 0.7787173 0.4502967
vt 0.782535 0.4738766
vt 0.7737467 0.4659257
vt 0.7737467 0.4659257
vt 0.782535 0.4738766
vt 0.7787173 0.4502967
vt 0.7737467 0.4659257
vt 0.7737467 0.4659257
vt 0.7787173 0.4502967
vt 0.782535 0.4738766
vt 0.7737467 0.4659257
vn 0.1170181 -0.975008 -0.1888551
vn -0.3503811 0.2736816 -0.8957296
vn -0.7934471 -0.4959522 -0.3528074
vn -0.2507331 -0.4045132 -0.8794896
vn -0.1545374 -0.660767 -0.7345101
vn -0.0004269175 -0.2456898 -0.9693484
vn -0.6824409 -0.6174488 -0.3911923
vn 0.5377728 0.1551616 -0.8286889
vn -0.4903782 0.3161424 -0.8121473
vn 0.1552164 -0.6603119 -0.7347761
vn 0.754809 -0.4237173 -0.5007265
vn -0.7543659 -0.4248538 -0.5004311
vn 0 -0.9976169 -0.06899682
vn 0.2504705 -0.4038123 -0.8798864
vn -0.115869 -0.9750635 -0.1892765
vn -0.5388261 0.1547814 -0.8280756
vn 0.3494207 0.2744869 -0.8958583
vn 0.7934338 -0.4959438 -0.3528492
vn 0.6827193 -0.6165836 -0.3920701
vn 0.4903741 0.3160443 -0.812188
vn -0.3503805 0.9087457 0.2267483
vn 0.117016 -0.3401763 0.9330528
vn -0.7934611 0.04701639 0.6068022
vn -0.1545374 0.2892978 0.9446824
vn -0.2507333 0.5455384 0.7997004
vn -0.0004261738 0.7043492 0.7098536
vn 0.5377387 0.7903239 0.2936415
vn -0.6824476 0.01740451 0.7307273
vn -0.4903747 0.8589664 0.1473413
vn 0.1552101 0.2897315 0.9444393
vn 0.7547623 0.2109463 0.6211566
vn -0.754356 0.2100943 0.6219383
vn 0 -0.4544279 0.8907835
vn 0.2504703 0.54624 0.7993037
vn -0.1158714 -0.3399848 0.9332653
vn 0.3494216 0.9092686 0.226131
vn 0.7934505 0.04699192 0.606818
vn 0.6827303 0.01845345 0.7304375
vn -0.5388195 0.7895374 0.2937758
vn 0.4903678 0.8589543 0.1474346
vn 0.1170144 -0.9749773 -0.189016
vn -0.3504619 0.2736173 -0.8957176
vn -0.7935157 -0.4958698 -0.352769
vn -0.2507438 -0.4046423 -0.8794271
vn -0.1545247 -0.6608059 -0.7344778
vn -0.0004261696 -0.2458552 -0.9693065
vn -0.6824462 -0.6175013 -0.3911
vn 0.5376499 0.1551674 -0.8287676
vn -0.4904209 0.315853 -0.8122342
vn 0.1552041 -0.6602523 -0.7348323
vn 0.7547167 -0.4237667 -0.5008239
vn -0.7542374 -0.4248554 -0.5006235
vn 0 -0.9976218 -0.06892564
vn 0.250396 -0.4037904 -0.8799177
vn -0.1157808 -0.9750763 -0.1892644
vn -0.5388053 0.1544902 -0.8281435
vn 0.3494803 0.2742817 -0.8958979
vn 0.793497 -0.4959058 -0.3527607
vn 0.6828369 -0.6164606 -0.392059
vn 0.4906308 0.3158423 -0.8121115
vn -0.3504175 0.9086965 0.226888
vn 0.1169899 -0.3401696 0.9330584
vn -0.7934743 0.04696948 0.6067885
vn -0.1545439 0.2892457 0.9446974
vn -0.2507115 0.5456023 0.7996636
vn -0.0004265595 0.7042158 0.7099858
vn 0.5376238 0.7903302 0.2938346
vn -0.6823157 0.017071 0.7308583
vn -0.4903178 0.8589502 0.1476246
vn 0.1552436 0.2898167 0.9444076
vn 0.7547846 0.2109525 0.6211274
vn -0.7543179 0.2102367 0.6219364
vn 0 -0.4547603 0.8906139
vn 0.2504615 0.5461623 0.7993596
vn -0.1157787 -0.340088 0.9332392
vn 0.3494419 0.9092738 0.2260786
vn 0.7934054 0.04711128 0.6068677
vn 0.6826546 0.0185964 0.7305046
vn -0.538739 0.7895701 0.2938357
vn 0.4905188 0.858852 0.1475288
vn 0.1552041 -0.6602523 -0.7348323
vn 0.5890914 -0.7033287 0.3978694
vn -0.1514867 -0.8602841 0.4867886
vn -0.1157808 -0.9750763 -0.1892644
vn 0.7547167 -0.4237667 -0.5008239
vn 0.9510055 -0.2690319 0.1523497
vn 0.793497 -0.4959058 -0.3527607
vn 0.9871386 -0.1391397 0.07872504
vn 0 -0.9976218 -0.06892564
vn 0.4571422 0.7739993 -0.4381164
vn 0.3494803 0.2742817 -0.8958979
vn 0 -0.8703567 0.4924217
vn -0.7542374 -0.4248554 -0.5006235
vn 0.9505122 0.2703658 -0.1530642
vn 0.250396 -0.4037904 -0.8799177
vn -0.9869018 -0.1403797 0.07948811
vn -0.1545247 -0.6608059 -0.7344778
vn 0.893204 -0.3913951 0.2213519
vn 0.6828369 -0.6164606 -0.392059
vn -0.5863284 -0.7050422 0.3989167
vn 0.1170144 -0.9749773 -0.189016
vn 0.5876443 0.7041671 -0.3985258
vn 0.4906308 0.3158423 -0.8121115
vn 0.1530423 -0.8600789 0.4866644
vn -0.7935157 -0.4958698 -0.352769
vn -0.7046314 0.6176839 -0.3492293
vn -0.5388053 0.1544902 -0.8281435
vn -0.9510552 -0.2689371 0.152207
vn -0.3504619 0.2736173 -0.8957176
vn -0.001618229 0.8703031 -0.4925137
vn -0.0004261696 -0.2458552 -0.9693065
vn -0.458349 0.7735474 -0.4376536
vn -0.2507438 -0.4046423 -0.8794271
vn 0.7035596 0.6184668 -0.3500035
vn 0.5376499 0.1551674 -0.8287676
vn -0.9515548 0.2675984 -0.151442
vn -0.6824462 -0.6175013 -0.3911
vn -0.5875518 0.7041848 -0.3986312
vn -0.4904209 0.315853 -0.8122342
vn -0.8926508 -0.3922514 0.222066
vn -0.0004265595 0.7042158 0.7099858
vn -0.538739 0.7895701 0.2938357
vn 0.5376238 0.7903302 0.2938346
vn -0.4903178 0.8589502 0.1476246
vn 0.4905188 0.858852 0.1475288
vn -0.6823157 0.017071 0.7308583
vn -0.2507115 0.5456023 0.7996636
vn 0.6826546 0.0185964 0.7305046
vn -0.3504175 0.9086965 0.226888
vn 0.2504615 0.5461623 0.7993596
vn -0.7934743 0.04696948 0.6067885
vn 0.3494419 0.9092738 0.2260786
vn 0.1169899 -0.3401696 0.9330584
vn 0.7934054 0.04711128 0.6068677
vn -0.1545439 0.2892457 0.9446974
vn -0.1157787 -0.340088 0.9332392
vn -0.7543179 0.2102367 0.6219364
vn 0.1552436 0.2898167 0.9444076
vn 0 -0.4547603 0.8906139
vn 0.7547846 0.2109525 0.6211274
vn 0.1552164 -0.6603119 -0.7347761
vn 0.5890845 -0.7032989 0.3979324
vn -0.1514436 -0.8603103 0.4867557
vn -0.115869 -0.9750635 -0.1892765
vn 0.754809 -0.4237173 -0.5007265
vn 0.9510701 -0.2689278 0.1521302
vn 0.7934338 -0.4959438 -0.3528492
vn 0.9871349 -0.1391392 0.07877243
vn 0 -0.9976169 -0.06899682
vn 0.4569944 0.7741583 -0.4379897
vn 0.3494207 0.2744869 -0.8958583
vn 0 -0.8703887 0.4923652
vn -0.7543659 -0.4248538 -0.5004311
vn 0.9505589 0.2702795 -0.1529274
vn 0.2504705 -0.4038123 -0.8798864
vn -0.9869055 -0.1403802 0.07944072
vn -0.1545374 -0.660767 -0.7345101
vn 0.8932899 -0.3911899 0.2213675
vn 0.6827193 -0.6165836 -0.3920701
vn -0.5864956 -0.7049415 0.398849
vn 0.1170181 -0.975008 -0.1888551
vn 0.5877436 0.7041861 -0.3983458
vn 0.4903741 0.3160443 -0.812188
vn 0.1531605 -0.8600732 0.4866373
vn -0.7934471 -0.4959522 -0.3528074
vn -0.7046923 0.6175237 -0.3493896
vn -0.5388261 0.1547814 -0.8280756
vn -0.9510701 -0.2689278 0.1521302
vn -0.3503811 0.2736816 -0.8957296
vn -0.001618257 0.8703421 -0.4924449
vn -0.0004269175 -0.2456898 -0.9693484
vn -0.4585337 0.7734715 -0.4375942
vn -0.2507331 -0.4045132 -0.8794896
vn 0.7034703 0.6185465 -0.3500424
vn 0.5377728 0.1551616 -0.8286889
vn -0.9515561 0.267608 -0.1514158
vn -0.6824409 -0.6174488 -0.3911923
vn -0.5879474 0.704011 -0.3983546
vn -0.4903782 0.3161424 -0.8121473
vn -0.8925407 -0.392531 0.2220146
vn -0.0004261738 0.7043492 0.7098536
vn -0.5388195 0.7895374 0.2937758
vn 0.5377387 0.7903239 0.2936415
vn -0.4903747 0.8589664 0.1473413
vn 0.4903678 0.8589543 0.1474346
vn -0.6824476 0.01740451 0.7307273
vn -0.2507333 0.5455384 0.7997004
vn 0.6827303 0.01845345 0.7304375
vn -0.3503805 0.9087457 0.2267483
vn 0.2504703 0.54624 0.7993037
vn -0.7934611 0.04701639 0.6068022
vn 0.3494216 0.9092686 0.226131
vn 0.117016 -0.3401763 0.9330528
vn 0.7934505 0.04699192 0.606818
vn -0.1545374 0.2892978 0.9446824
vn -0.1158714 -0.3399848 0.9332653
vn -0.754356 0.2100943 0.6219383
vn 0.1552101 0.2897315 0.9444393
vn 0 -0.4544279 0.8907835
vn 0.7547623 0.2109463 0.6211566
g CH0222_Halo_0
f 3/3/3 2/2/2 1/1/1
f 2/2/2 4/4/4 1/1/1
f 4/4/4 5/5/5 1/1/1
f 4/4/4 6/6/6 5/5/5
f 6/6/6 4/4/4 7/7/7
f 8/8/8 6/6/6 7/7/7
f 9/9/9 8/8/8 7/7/7
f 5/5/5 6/6/6 10/10/10
f 5/5/5 10/10/10 11/11/11
f 12/12/12 5/5/5 11/11/11
f 13/13/13 12/12/12 11/11/11
f 6/6/6 14/14/14 10/10/10
f 15/15/15 10/10/10 14/14/14
f 14/14/14 6/6/6 16/16/16
f 17/17/17 15/15/15 14/14/14
f 18/18/18 15/15/15 17/17/17
f 19/19/19 14/14/14 16/16/16
f 20/20/20 19/19/19 16/16/16
f 23/23/23 22/22/22 21/21/21
f 22/22/22 24/24/24 21/21/21
f 24/24/24 25/25/25 21/21/21
f 25/25/25 24/24/24 26/26/26
f 25/25/25 26/26/26 27/27/27
f 28/28/28 25/25/25 27/27/27
f 29/29/29 28/28/28 27/27/27
f 26/26/26 24/24/24 30/30/30
f 31/31/31 30/30/30 24/24/24
f 32/32/32 31/31/31 24/24/24
f 33/33/33 31/31/31 32/32/32
f 34/34/34 26/26/26 30/30/30
f 34/34/34 30/30/30 35/35/35
f 36/36/36 34/34/34 35/35/35
f 37/37/37 36/36/36 35/35/35
f 26/26/26 34/34/34 38/38/38
f 39/39/39 26/26/26 38/38/38
f 40/40/40 39/39/39 38/38/38
f 43/43/43 42/42/42 41/41/41
f 42/42/42 44/44/44 41/41/41
f 44/44/44 45/45/45 41/41/41
f 44/44/44 46/46/46 45/45/45
f 46/46/46 44/44/44 47/47/47
f 48/48/48 46/46/46 47/47/47
f 49/49/49 48/48/48 47/47/47
f 45/45/45 46/46/46 50/50/50
f 45/45/45 50/50/50 51/51/51
f 52/52/52 45/45/45 51/51/51
f 53/53/53 52/52/52 51/51/51
f 46/46/46 54/54/54 50/50/50
f 55/55/55 50/50/50 54/54/54
f 54/54/54 46/46/46 56/56/56
f 57/57/57 55/55/55 54/54/54
f 58/58/58 55/55/55 57/57/57
f 59/59/59 54/54/54 56/56/56
f 60/60/60 59/59/59 56/56/56
f 63/63/63 62/62/62 61/61/61
f 62/62/62 64/64/64 61/61/61
f 64/64/64 65/65/65 61/61/61
f 65/65/65 64/64/64 66/66/66
f 65/65/65 66/66/66 67/67/67
f 68/68/68 65/65/65 67/67/67
f 69/69/69 68/68/68 67/67/67
f 66/66/66 64/64/64 70/70/70
f 71/71/71 70/70/70 64/64/64
f 72/72/72 71/71/71 64/64/64
f 73/73/73 71/71/71 72/72/72
f 74/74/74 66/66/66 70/70/70
f 74/74/74 70/70/70 75/75/75
f 76/76/76 74/74/74 75/75/75
f 77/77/77 76/76/76 75/75/75
f 66/66/66 74/74/74 78/78/78
f 79/79/79 66/66/66 78/78/78
f 80/80/80 79/79/79 78/78/78
f 83/83/83 82/82/82 81/81/81
f 84/84/84 83/83/83 81/81/81
f 81/81/81 82/82/82 85/85/85
f 86/86/86 83/83/83 84/84/84
f 87/87/87 86/86/86 84/84/84
f 82/82/82 88/88/88 85/85/85
f 85/85/85 88/88/88 89/89/89
f 90/90/90 86/86/86 87/87/87
f 91/91/91 90/90/90 87/87/87
f 88/88/88 92/92/92 89/89/89
f 89/89/89 92/92/92 93/93/93
f 94/94/94 90/90/90 91/91/91
f 95/95/95 94/94/94 91/91/91
f 92/92/92 96/96/96 93/93/93
f 93/93/93 96/96/96 97/97/97
f 98/98/98 94/94/94 95/95/95
f 99/99/99 98/98/98 95/95/95
f 96/96/96 100/100/100 97/97/97
f 97/97/97 100/100/100 101/101/101
f 102/102/102 98/98/98 99/99/99
f 103/103/103 102/102/102 99/99/99
f 100/100/100 104/104/104 101/101/101
f 101/101/101 104/104/104 105/105/105
f 106/106/106 102/102/102 103/103/103
f 107/107/107 106/106/106 103/103/103
f 104/104/104 108/108/108 105/105/105
f 105/105/105 108/108/108 109/109/109
f 110/110/110 106/106/106 107/107/107
f 111/111/111 110/110/110 107/107/107
f 108/108/108 112/112/112 109/109/109
f 109/109/109 112/112/112 113/113/113
f 114/114/114 110/110/110 111/111/111
f 115/115/115 114/114/114 111/111/111
f 112/112/112 116/116/116 113/113/113
f 113/113/113 116/116/116 117/117/117
f 118/118/118 114/114/114 115/115/115
f 119/119/119 118/118/118 115/115/115
f 117/117/117 120/120/120 119/119/119
f 116/116/116 120/120/120 117/117/117
f 120/120/120 118/118/118 119/119/119
f 110/110/110 121/121/121 106/106/106
f 121/121/121 122/122/122 106/106/106
f 123/123/123 121/121/121 110/110/110
f 114/114/114 123/123/123 110/110/110
f 106/106/106 122/122/122 102/102/102
f 124/124/124 123/123/123 114/114/114
f 118/118/118 124/124/124 114/114/114
f 122/122/122 125/125/125 102/102/102
f 126/126/126 124/124/124 118/118/118
f 120/120/120 126/126/126 118/118/118
f 102/102/102 125/125/125 98/98/98
f 127/127/127 126/126/126 120/120/120
f 116/116/116 127/127/127 120/120/120
f 125/125/125 128/128/128 98/98/98
f 129/129/129 127/127/127 116/116/116
f 98/98/98 128/128/128 94/94/94
f 112/112/112 129/129/129 116/116/116
f 128/128/128 130/130/130 94/94/94
f 131/131/131 129/129/129 112/112/112
f 94/94/94 130/130/130 90/90/90
f 108/108/108 131/131/131 112/112/112
f 130/130/130 132/132/132 90/90/90
f 133/133/133 131/131/131 108/108/108
f 90/90/90 132/132/132 86/86/86
f 104/104/104 133/133/133 108/108/108
f 132/132/132 134/134/134 86/86/86
f 135/135/135 133/133/133 104/104/104
f 86/86/86 134/134/134 83/83/83
f 100/100/100 135/135/135 104/104/104
f 134/134/134 136/136/136 83/83/83
f 137/137/137 135/135/135 100/100/100
f 83/83/83 136/136/136 82/82/82
f 96/96/96 137/137/137 100/100/100
f 136/136/136 138/138/138 82/82/82
f 139/139/139 137/137/137 96/96/96
f 82/82/82 138/138/138 88/88/88
f 92/92/92 139/139/139 96/96/96
f 138/138/138 140/140/140 88/88/88
f 140/140/140 139/139/139 92/92/92
f 88/88/88 140/140/140 92/92/92
f 143/143/143 142/142/142 141/141/141
f 144/144/144 143/143/143 141/141/141
f 141/141/141 142/142/142 145/145/145
f 146/146/146 143/143/143 144/144/144
f 147/147/147 146/146/146 144/144/144
f 142/142/142 148/148/148 145/145/145
f 145/145/145 148/148/148 149/149/149
f 150/150/150 146/146/146 147/147/147
f 151/151/151 150/150/150 147/147/147
f 148/148/148 152/152/152 149/149/149
f 149/149/149 152/152/152 153/153/153
f 154/154/154 150/150/150 151/151/151
f 155/155/155 154/154/154 151/151/151
f 152/152/152 156/156/156 153/153/153
f 153/153/153 156/156/156 157/157/157
f 158/158/158 154/154/154 155/155/155
f 159/159/159 158/158/158 155/155/155
f 156/156/156 160/160/160 157/157/157
f 157/157/157 160/160/160 161/161/161
f 162/162/162 158/158/158 159/159/159
f 163/163/163 162/162/162 159/159/159
f 160/160/160 164/164/164 161/161/161
f 161/161/161 164/164/164 165/165/165
f 166/166/166 162/162/162 163/163/163
f 167/167/167 166/166/166 163/163/163
f 164/164/164 168/168/168 165/165/165
f 165/165/165 168/168/168 169/169/169
f 170/170/170 166/166/166 167/167/167
f 171/171/171 170/170/170 167/167/167
f 168/168/168 172/172/172 169/169/169
f 169/169/169 172/172/172 173/173/173
f 174/174/174 170/170/170 171/171/171
f 175/175/175 174/174/174 171/171/171
f 172/172/172 176/176/176 173/173/173
f 173/173/173 176/176/176 177/177/177
f 178/178/178 174/174/174 175/175/175
f 179/179/179 178/178/178 175/175/175
f 177/177/177 180/180/180 179/179/179
f 176/176/176 180/180/180 177/177/177
f 180/180/180 178/178/178 179/179/179
f 170/170/170 181/181/181 166/166/166
f 181/181/181 182/182/182 166/166/166
f 183/183/183 181/181/181 170/170/170
f 174/174/174 183/183/183 170/170/170
f 166/166/166 182/182/182 162/162/162
f 184/184/184 183/183/183 174/174/174
f 178/178/178 184/184/184 174/174/174
f 182/182/182 185/185/185 162/162/162
f 186/186/186 184/184/184 178/178/178
f 180/180/180 186/186/186 178/178/178
f 162/162/162 185/185/185 158/158/158
f 187/187/187 186/186/186 180/180/180
f 176/176/176 187/187/187 180/180/180
f 185/185/185 188/188/188 158/158/158
f 189/189/189 187/187/187 176/176/176
f 158/158/158 188/188/188 154/154/154
f 172/172/172 189/189/189 176/176/176
f 188/188/188 190/190/190 154/154/154
f 191/191/191 189/189/189 172/172/172
f 154/154/154 190/190/190 150/150/150
f 168/168/168 191/191/191 172/172/172
f 190/190/190 192/192/192 150/150/150
f 193/193/193 191/191/191 168/168/168
f 150/150/150 192/192/192 146/146/146
f 164/164/164 193/193/193 168/168/168
f 192/192/192 194/194/194 146/146/146
f 195/195/195 193/193/193 164/164/164
f 146/146/146 194/194/194 143/143/143
f 160/160/160 195/195/195 164/164/164
f 194/194/194 196/196/196 143/143/143
f 197/197/197 195/195/195 160/160/160
f 143/143/143 196/196/196 142/142/142
f 156/156/156 197/197/197 160/160/160
f 196/196/196 198/198/198 142/142/142
f 199/199/199 197/197/197 156/156/156
f 142/142/142 198/198/198 148/148/148
f 152/152/152 199/199/199 156/156/156
f 198/198/198 200/200/200 148/148/148
f 200/200/200 199/199/199 152/152/152
f 148/148/148 200/200/200 152/152/152
