g Mutsuki_Original_Halo
v -0.016632825 0.15985073 0.99064296
v -0.02050674 0.16680206 0.97813946
v -0.016632825 0.15656544 0.98672813
v -0.017245978 0.15359081 0.9892251
v -0.02050674 0.17008619 0.9820542
v -0.017245978 0.15687494 0.9931399
v -0.016632825 0.18032162 0.9734655
v -0.034842655 0.14175187 1.0024935
v -0.020476371 0.13523383 1.0079639
v -0.04320714 0.15281533 0.9932111
v -0.04260449 0.1655419 0.98253185
v -0.013361543 0.15406032 0.98883146
v 3.427267E-07 0.1510927 0.9913215
v 3.427267E-07 0.15437682 0.99523515
v -0.013361543 0.15734445 0.9927451
v -0.0029077083 0.13593106 1.0073788
v -0.038082406 0.16844411 0.9800969
v 3.427267E-07 0.13927124 1.0045758
v -0.04260449 0.17134519 0.9776618
v 0.0029084086 0.13593106 1.0073788
v -0.04320714 0.1840729 0.96698254
v -0.034842655 0.19513522 0.9577001
v 0.020477071 0.13523383 1.0079639
v 0.017245501 0.15359081 0.9892251
v 0.017245501 0.15687494 0.9931399
v 0.0133610815 0.15406032 0.98883146
v 0.0133610815 0.15734445 0.9927451
v -0.017245978 0.18329625 0.97096974
v -0.020476371 0.20165442 0.9522309
v -0.017245978 0.18001212 0.9670549
v -0.016632825 0.17703749 0.96955186
v -0.013361543 0.17954265 0.96744853
v 3.427267E-07 0.18251027 0.9649586
v 3.427267E-07 0.1857944 0.9688733
v -0.013361543 0.18282677 0.97136325
v -0.0029077083 0.200956 0.95281595
v 3.427267E-07 0.19761582 0.9556189
v 0.0029084086 0.200956 0.95281595
v 0.020477071 0.20165442 0.9522309
v 0.017245501 0.18001212 0.9670549
v 0.017245501 0.18329625 0.97096974
v 0.0133610815 0.17954265 0.96744853
v 0.0133610815 0.18282677 0.97136325
v 0.034843355 0.19513522 0.9577001
v 0.020506263 0.17008619 0.9820542
v 0.016632356 0.18032162 0.9734655
v 0.043207824 0.1840729 0.96698254
v 0.020506263 0.16680206 0.97813946
v 0.04260403 0.17134519 0.9776618
v 0.016632356 0.17703749 0.96955186
v 0.03808193 0.16844411 0.9800969
v 0.04260403 0.1655419 0.98253185
v 0.043207824 0.15281533 0.9932111
v 0.034843355 0.14175187 1.0024935
v 0.016632356 0.15985073 0.99064296
v 0.016632356 0.15656544 0.98672813
v 0.10861935 0.14625527 1.0249475
v 0.0949865 0.18300311 0.99744827
v 0.114031374 0.16676001 1.007742
v 0.13823369 0.18136106 0.99549085
v 0.0949865 0.17971782 0.99353343
v 0.114031374 0.19596092 0.9832396
v 0.10861935 0.21646567 0.96603423
v 0.087508455 0.15466763 1.0212243
v 0.087508455 0.21133743 0.9736722
v 0.09429978 0.23272745 0.95238966
v 0.087508455 0.2080533 0.96975857
v 0.07813376 0.22198515 0.96473783
v 0.07813376 0.21869986 0.9608242
v 0.087508455 0.1513835 1.0173094
v 0.09429978 0.12999465 1.038592
v 0.07813376 0.14402108 1.0301574
v 0.07813376 0.14073579 1.0262438
v 0.07968706 0.12863521 1.0362889
v 0.041271456 0.15149094 1.0240996
v 0.041271456 0.14799894 1.0199395
v 0.07968706 0.13202678 1.040331
v 0.055276863 0.1409425 1.033319
v 0.13947983 0.074512586 1.0851467
v 0.10818255 0.09707634 1.0633467
v 0.10818255 0.099900305 1.0667114
v 0.06705393 0.10912201 1.0561057
v 0.0666148 0.1186205 1.0446919
v 0.055276863 0.13708846 1.0287256
v 0.0666148 0.12201209 1.0487341
v 0.050887913 0.12314962 1.0476712
v 0.050887913 0.11986433 1.0437565
v 0.03698878 0.11596705 1.0536976
v 0.03698878 0.11268292 1.0497828
v 3.427267E-07 0.11023852 1.0585046
v 3.427267E-07 0.106954396 1.0545899
v 0.04582625 0.09815313 1.06531
v 0.013582975 0.09315921 1.0695003
v 3.427267E-07 0.076679036 1.0833294
v -0.0135834515 0.09315921 1.0695003
v -0.045825556 0.09815313 1.06531
v -0.03698808 0.11596705 1.0536976
v -0.03698808 0.11268292 1.0497828
v -0.067054406 0.10912201 1.0561057
v -0.050887212 0.12314962 1.0476712
v -0.050887212 0.11986433 1.0437565
v -0.06661411 0.12201209 1.0487341
v -0.041270763 0.15149094 1.0240996
v -0.055277333 0.1409425 1.033319
v -0.06661411 0.1186205 1.0446919
v -0.041270763 0.14799894 1.0199395
v -0.079687536 0.13202678 1.040331
v -0.07813306 0.14402108 1.0301574
v -0.09430024 0.12999465 1.038592
v -0.055277333 0.13708846 1.0287256
v -0.10818303 0.09707634 1.0633467
v -0.07813306 0.14073579 1.0262438
v -0.079687536 0.12863521 1.0362889
v -0.13948031 0.074512586 1.0851467
v -0.10818303 0.09989914 1.0667126
v -0.08750893 0.15466763 1.0212231
v -0.08750893 0.1513835 1.0173094
v -0.094986975 0.18300311 0.99744827
v -0.094986975 0.17971782 0.99353343
v -0.10861865 0.14625527 1.0249475
v -0.114030674 0.16676001 1.007742
v -0.13823299 0.18136106 0.99549085
v -0.114030674 0.19596092 0.9832396
v -0.108619824 0.21646567 0.96603423
v -0.08750893 0.21133743 0.9736722
v -0.08750893 0.2080533 0.96975857
v -0.09430024 0.23272745 0.95238966
v -0.07813306 0.22198515 0.96473783
v -0.07813306 0.21869986 0.9608242
v -0.079687536 0.23408572 0.9546928
v -0.041270763 0.214722 0.9710421
v -0.055277333 0.22563247 0.962256
v -0.06661411 0.24410044 0.9462897
v -0.041270763 0.21123 0.96688205
v -0.079687536 0.23069416 0.95065063
v -0.050887212 0.2428566 0.9472253
v -0.067054406 0.25359893 0.9348759
v -0.055277333 0.22177844 0.95766276
v -0.10818303 0.2628218 0.924269
v -0.050887212 0.23957248 0.94331044
v -0.13948031 0.28820837 0.905835
v -0.06661411 0.24070884 0.9422477
v -0.10818303 0.2656446 0.9276349
v -0.03698808 0.25003803 0.9411989
v -0.03698808 0.24675389 0.93728405
v 3.427267E-07 0.2557665 0.9363918
v 3.427267E-07 0.2524824 0.93247706
v -0.045825556 0.2645678 0.92567176
v -0.0135834515 0.2695617 0.9214813
v 3.427267E-07 0.28604192 0.9076522
v 0.013582975 0.2695617 0.9214813
v 0.04582625 0.2645678 0.92567176
v 0.03698878 0.25003803 0.9411989
v 0.03698878 0.24675389 0.93728405
v 0.06705393 0.25359893 0.9348759
v 0.050887913 0.2428566 0.9472253
v 0.050887913 0.23957248 0.94331044
v 0.0666148 0.24070884 0.9422477
v 0.041271456 0.214722 0.9710421
v 0.041271456 0.21123 0.96688205
v 0.0666148 0.24410044 0.9462897
v 0.055276863 0.22563247 0.962256
v 0.13947983 0.28820837 0.905835
v 0.10818255 0.2628218 0.924269
v 0.10818255 0.2656458 0.9276349
v 0.055276863 0.22177844 0.95766276
v 0.07968706 0.23408572 0.9546928
v 0.07968706 0.23069416 0.95065063
v 0.009614468 0.16934456 0.9811713
v 3.427267E-07 0.1702462 0.98224455
v 0.0067986697 0.17455338 0.976801
v 3.427267E-07 0.16844411 0.9800969
v 3.427267E-07 0.1767105 0.9749908
v 0.0067986697 0.16413693 0.9855415
v -0.0067991465 0.17455338 0.976801
v 3.427267E-07 0.16197981 0.98735183
v -0.009614944 0.16934456 0.9811713
v -0.0067991465 0.16413693 0.9855415
v 0.05269698 0.13330562 1.0202035
v 0.055343434 0.15739582 1.0033239
v 0.06869365 0.15147226 1.004959
v 0.042472057 0.1427796 1.0155879
v 0.042472057 0.13949548 1.0116732
v 0.028981686 0.12105091 1.0304856
v 0.023392133 0.1296361 1.0199466
v 0.055343434 0.1541117 0.99940914
v 0.023392133 0.13292141 1.0238613
v 0.060072243 0.17531602 0.98828727
v 0.060072243 0.1720319 0.98437244
v 0.07455299 0.17367397 0.98632985
v 3.427267E-07 0.12929742 1.0269014
v 3.427267E-07 0.11656268 1.034252
v 3.427267E-07 0.1260133 1.0229865
v 0.055343434 0.18995093 0.96933705
v 0.055343434 0.19323505 0.97325057
v 0.06869365 0.1958745 0.9677008
v -0.028980985 0.12105091 1.0304856
v -0.023392603 0.13292141 1.0238613
v -0.023392603 0.1296361 1.0199466
v 0.042472057 0.20456715 0.9570717
v 0.042472057 0.20785244 0.96098655
v 0.05269698 0.21404229 0.95245737
v -0.05269745 0.13330562 1.0202035
v -0.042472526 0.1427796 1.0155879
v -0.042472526 0.13949548 1.0116732
v 0.023392133 0.21442653 0.94879955
v 0.023392133 0.21771066 0.9527132
v 0.028981686 0.22629584 0.942174
v -0.06869413 0.15147226 1.004959
v -0.055342734 0.15739582 1.0033239
v -0.055342734 0.1541117 0.99940914
v 3.427267E-07 0.21804933 0.9457595
v 3.427267E-07 0.22133462 0.9496731
v 3.427267E-07 0.23078524 0.9384076
v -0.07455346 0.17367397 0.98632985
v -0.06007272 0.17531602 0.98828727
v -0.06007272 0.1720319 0.98437244
v -0.023392603 0.21442653 0.94879955
v -0.023392603 0.21771066 0.9527132
v -0.028980985 0.22629584 0.942174
v -0.06869413 0.1958745 0.9677008
v -0.055342734 0.19323505 0.97325057
v -0.055342734 0.18995093 0.96933705
v -0.042472526 0.20456715 0.9570717
v -0.042472526 0.20785244 0.96098655
v -0.05269745 0.21404229 0.95245737
vt 0.15974015 0.53633875
vt 0.1560896 0.5384189
vt 0.15867943 0.53581524
vt 0.16868055 0.5417939
vt 0.15571767 0.53901124
vt 0.17012699 0.5419041
vt 0.1670137 0.539948
vt 0.26512384 0.5450725
vt 0.2770811 0.51903653
vt 0.27571732 0.5214886
vt 0.25589415 0.54898477
vt 0.15655798 0.53808826
vt 0.1525906 0.54096735
vt 0.15468448 0.54107755
vt 0.1576187 0.5386117
vt 0.25837377 0.5423036
vt 0.23790318 0.5428546
vt 0.23563018 0.54516894
vt 0.26212075 0.53885967
vt 0.25359362 0.5500731
vt 0.2786102 0.5167911
vt 0.27478057 0.54313016
vt 0.2770811 0.51903653
vt 0.16868055 0.5417939
vt 0.17012699 0.5419041
vt 0.15655798 0.53808826
vt 0.1576187 0.5386117
vt 0.18005922 0.54267555
vt 0.2934741 0.51986307
vt 0.18150568 0.54278576
vt 0.16807443 0.54047143
vt 0.17799288 0.53571886
vt 0.17109129 0.5419041
vt 0.16899738 0.5417939
vt 0.17616072 0.5360219
vt 0.27478057 0.54313016
vt 0.252037 0.5459955
vt 0.26998663 0.5508996
vt 0.2934741 0.51986307
vt 0.18150568 0.54278576
vt 0.18005922 0.54267555
vt 0.17799288 0.53571886
vt 0.17616072 0.5360219
vt 0.27478057 0.54313016
vt 0.15571767 0.53901124
vt 0.1670137 0.539948
vt 0.2786102 0.5167911
vt 0.1560896 0.5384189
vt 0.26212075 0.53885967
vt 0.16807443 0.54047143
vt 0.23790318 0.5428546
vt 0.25589415 0.54898477
vt 0.27571732 0.5214886
vt 0.26512384 0.5450725
vt 0.15974015 0.53633875
vt 0.15867943 0.53581524
vt 0.6032608 0.50057715
vt 0.5017756 0.55891705
vt 0.6064843 0.53763366
vt 0.7037266 0.5688079
vt 0.5021476 0.55831087
vt 0.6064843 0.53763366
vt 0.6032608 0.50057715
vt 0.49768427 0.5071206
vt 0.49731234 0.50771296
vt 0.6087986 0.5407883
vt 0.49768427 0.5071206
vt 0.5036491 0.5324953
vt 0.5046961 0.5330188
vt 0.49731234 0.50771296
vt 0.6087986 0.5407883
vt 0.50470984 0.5330188
vt 0.5036491 0.5324953
vt 0.5472491 0.54990774
vt 0.33093008 0.5465189
vt 0.32938722 0.5464087
vt 0.5483511 0.5504588
vt 0.42164272 0.55348945
vt 0.9657256 0.59525716
vt 0.7625624 0.57966316
vt 0.7638022 0.57975954
vt 0.61528695 0.5397138
vt 0.5533379 0.5492741
vt 0.4199483 0.55335164
vt 0.5552389 0.5489572
vt 0.5115839 0.53153104
vt 0.50975174 0.5318341
vt 0.50592214 0.50783694
vt 0.5038282 0.5077267
vt 0.51038545 0.559041
vt 0.50829154 0.5589308
vt 0.6106446 0.5009491
vt 0.6145293 0.5455822
vt 0.7037266 0.5688079
vt 0.6145293 0.5455822
vt 0.6106446 0.5009491
vt 0.50592214 0.50783694
vt 0.5038282 0.5077267
vt 0.61528695 0.5397138
vt 0.5115839 0.53153104
vt 0.50973797 0.5318341
vt 0.5552389 0.5489572
vt 0.33091632 0.5465189
vt 0.42164272 0.55348945
vt 0.5533379 0.5492741
vt 0.32938722 0.5464087
vt 0.5483511 0.5504588
vt 0.50470984 0.5330188
vt 0.6087986 0.5407883
vt 0.4199483 0.55335164
vt 0.7625624 0.57966316
vt 0.5036491 0.5324953
vt 0.5472491 0.54990774
vt 0.9657256 0.59525716
vt 0.7638022 0.57975954
vt 0.49768427 0.5071206
vt 0.49731234 0.50771296
vt 0.5017756 0.55891705
vt 0.5021476 0.55831087
vt 0.6032608 0.50057715
vt 0.6064843 0.53763366
vt 0.7037266 0.5688079
vt 0.6064843 0.53763366
vt 0.6032608 0.50057715
vt 0.49731234 0.50771296
vt 0.49768427 0.5071206
vt 0.6087986 0.5407883
vt 0.5036491 0.5324953
vt 0.50470984 0.5330188
vt 0.5472491 0.54990774
vt 0.32938722 0.5464087
vt 0.4199483 0.55335164
vt 0.5533379 0.5492741
vt 0.33091632 0.5465189
vt 0.5483511 0.5504588
vt 0.50973797 0.5318341
vt 0.61528695 0.5397138
vt 0.42164272 0.55348945
vt 0.7638022 0.57975954
vt 0.5115839 0.53153104
vt 0.9657256 0.59525716
vt 0.5552389 0.5489572
vt 0.7625624 0.57966316
vt 0.5038282 0.5077267
vt 0.50592214 0.50783694
vt 0.50829154 0.5589308
vt 0.51038545 0.559041
vt 0.6106446 0.5009491
vt 0.6145293 0.5455822
vt 0.7037266 0.5688079
vt 0.6145293 0.5455822
vt 0.6106446 0.5009491
vt 0.5038282 0.5077267
vt 0.50592214 0.50783694
vt 0.61528695 0.5397138
vt 0.50973797 0.5318341
vt 0.5115839 0.53153104
vt 0.5552389 0.5489572
vt 0.32938722 0.5464087
vt 0.33091632 0.5465189
vt 0.5533379 0.5492741
vt 0.4199483 0.55335164
vt 0.9657256 0.59525716
vt 0.7638022 0.57975954
vt 0.7625624 0.57966316
vt 0.42164272 0.55348945
vt 0.5472491 0.54990774
vt 0.5483511 0.5504588
vt 0.10499574 0.5363112
vt 0.0629387 0.535402
vt 0.10058753 0.5278392
vt 0.063613705 0.53526425
vt 0.118647404 0.5392592
vt 0.09160581 0.5296438
vt 0.10058753 0.5278392
vt 0.10339777 0.53848773
vt 0.10499574 0.5363112
vt 0.09160581 0.5296438
vt 0.4007175 0.5518777
vt 0.3355587 0.51910543
vt 0.40226036 0.5150829
vt 0.33526942 0.5468633
vt 0.33382297 0.5467531
vt 0.40562162 0.5138018
vt 0.33769393 0.51807225
vt 0.33520055 0.5196978
vt 0.33977404 0.51818246
vt 0.33973274 0.54928786
vt 0.34010467 0.5486955
vt 0.40748134 0.5524011
vt 0.34259805 0.550569
vt 0.40912065 0.5539302
vt 0.34051794 0.5504588
vt 0.33728066 0.51630896
vt 0.3369225 0.5169013
vt 0.40398234 0.5122865
vt 0.40562162 0.5138018
vt 0.33977404 0.51818246
vt 0.33769393 0.51807225
vt 0.34203327 0.54737306
vt 0.3405868 0.54726285
vt 0.40748134 0.5524011
vt 0.4007175 0.5518777
vt 0.33526942 0.5468633
vt 0.33382297 0.5467531
vt 0.34954098 0.51867837
vt 0.34746087 0.51856816
vt 0.41538855 0.5142977
vt 0.40226036 0.5150829
vt 0.3355587 0.51910543
vt 0.33520055 0.5196978
vt 0.352365 0.5510649
vt 0.3502711 0.5509547
vt 0.4188876 0.55441236
vt 0.40748134 0.5524011
vt 0.33973274 0.54928786
vt 0.34010467 0.5486955
vt 0.34954098 0.51867837
vt 0.34746087 0.51856816
vt 0.41538855 0.5142977
vt 0.40398234 0.5122865
vt 0.3369225 0.5169013
vt 0.33728066 0.51630896
vt 0.34203327 0.54737306
vt 0.3405868 0.54726285
vt 0.40748134 0.5524011
vn 0.7223848 0.46432042 0.51241267
vn 0.58162236 -0.5229714 -0.62307006
vn 0.7223848 -0.42326468 -0.5468155
vn 0.1925708 -0.47214055 -0.8602324
vn 0.58162236 0.5229714 0.62307006
vn 0.1925708 0.7653955 0.6140734
vn 0.7223848 0.42326474 0.5468155
vn -0.7086996 -0.5405667 0.453357
vn -0.1378299 -0.7595304 0.63570154
vn -0.99022436 -0.10263926 0.094450586
vn -0.97067404 0.18670571 -0.15143602
vn 0.026392937 0.11045933 -0.99353015
vn -0.0009775162 -0.075268805 -0.99716276
vn -0.0009775162 0.968719 0.24815823
vn 0.026392937 0.9980445 0.056662194
vn 0.24926674 -0.74193513 0.62241334
vn -0.9999995 -0.0009775162 -0
vn -0.0009775162 -0.7653955 0.6435594
vn -0.97067404 -0.18670571 0.15143602
vn -0.24926674 -0.74193513 0.62241334
vn -0.99022436 0.1026392 -0.09445065
vn -0.7086996 0.5405667 -0.453357
vn 0.13782984 -0.7595304 0.63570154
vn -0.1925708 -0.47214055 -0.8602324
vn -0.1925708 0.7653955 0.6140734
vn -0.026392937 0.11045933 -0.99353015
vn -0.026392937 0.9980445 0.056662194
vn 0.1925708 0.47214055 0.8602324
vn -0.1378299 0.7595304 -0.63570154
vn 0.1925708 -0.7653955 -0.6140734
vn 0.7223848 -0.46432042 -0.51241267
vn 0.026392937 -0.9980445 -0.056662194
vn -0.0009775162 -0.968719 -0.24815823
vn -0.0009775162 0.075268745 0.9971628
vn 0.026392937 -0.11045939 0.99353015
vn 0.24926674 0.74193513 -0.62241334
vn -0.0009775162 0.7653955 -0.6435594
vn -0.24926674 0.74193513 -0.62241334
vn 0.13782984 0.7595304 -0.63570154
vn -0.1925708 -0.7653955 -0.6140734
vn -0.1925708 0.47214055 0.8602324
vn -0.026392937 -0.9980445 -0.056662194
vn -0.026392937 -0.11045939 0.99353015
vn 0.7086996 0.5405667 -0.453357
vn -0.58162236 0.5229714 0.62307006
vn -0.7223848 0.42326474 0.5468155
vn 0.99022436 0.1026392 -0.09445065
vn -0.58162236 -0.5229714 -0.62307006
vn 0.97067404 -0.18670571 0.15143602
vn -0.7223848 -0.46432042 -0.51241267
vn 0.9999995 -0.0009775162 -0
vn 0.97067404 0.18670571 -0.15143602
vn 0.99022436 -0.10263926 0.094450586
vn 0.7086996 -0.5405667 0.453357
vn -0.7223848 0.46432042 0.51241267
vn -0.7223848 -0.42326468 -0.5468155
vn 0.92179817 -0.29618752 0.25012207
vn -0.61681294 0.5053761 0.6034374
vn 0.8885626 -0.3509285 0.29547536
vn 0.9999995 0.0009775162 -0
vn -0.61681294 -0.5053761 -0.6034374
vn 0.8885626 0.35092843 -0.29547542
vn 0.92179817 0.29618752 -0.25012207
vn -0.560117 0.6911043 0.45677543
vn -0.560117 0.3313781 0.75924796
vn 0.966764 -0.19648087 0.163593
vn -0.560117 -0.6911043 -0.45677543
vn -0.11827946 0.20234597 0.9721451
vn -0.11827946 -0.92179817 -0.3691857
vn -0.560117 -0.33137816 -0.75924796
vn 0.966764 0.19648087 -0.163593
vn -0.11827946 0.9217982 0.3691856
vn -0.11827946 -0.20234597 -0.9721451
vn -0.32746804 -0.89051765 -0.31582117
vn -0.58748746 0.80840623 0.03657631
vn -0.58748746 0.09286404 -0.80388725
vn -0.32746804 0.15347016 0.9323152
vn 0.13000971 0.5307915 0.8374711
vn 0.70674455 -0.5425217 0.454073
vn -0.0361681 -0.614858 -0.78780806
vn -0.0361681 0.66959894 0.7418417
vn -0.25708687 -0.7399801 0.62155914
vn 0.4819157 -0.2707721 -0.8333305
vn 0.13000971 -0.73216 -0.6686099
vn 0.4819157 0.77321565 0.412183
vn -0.47018552 0.65200365 0.594825
vn -0.47018552 -0.47214055 -0.74566007
vn -0.23558152 0.9393935 0.24908064
vn -0.23558152 -0.0811339 -0.968462
vn -0.0009775162 0.97849417 0.20627224
vn -0.0009775162 -0.0361681 -0.99934524
vn 0.38611907 -0.70674455 0.59281045
vn 0.5718472 -0.6285432 0.5271852
vn -0.0009775162 -0.7653955 0.6435594
vn -0.5718472 -0.6285432 0.5271852
vn -0.38611913 -0.70674455 0.5928104
vn 0.23558152 0.9393935 0.24908064
vn 0.23558152 -0.0811339 -0.968462
vn 0.25708687 -0.7399801 0.62155914
vn 0.47018552 0.65200365 0.594825
vn 0.47018552 -0.47214055 -0.74566007
vn -0.4819157 0.77321565 0.412183
vn 0.58748746 0.80840623 0.03657631
vn -0.13000977 0.5307915 0.83747107
vn -0.4819157 -0.2707721 -0.8333305
vn 0.58748746 0.09286404 -0.80388725
vn 0.3274681 0.15347016 0.9323152
vn 0.11827952 0.9217982 0.3691856
vn -0.966764 0.19648087 -0.163593
vn -0.13000977 -0.73216 -0.6686099
vn 0.0361681 -0.614858 -0.78780806
vn 0.11827952 -0.20234597 -0.9721451
vn 0.3274681 -0.89051765 -0.31582108
vn -0.70674455 -0.5425217 0.454073
vn 0.0361681 0.66959894 0.7418417
vn 0.560117 0.6911043 0.45677543
vn 0.560117 -0.33137816 -0.75924796
vn 0.616813 0.5053761 0.6034374
vn 0.616813 -0.5053761 -0.6034374
vn -0.9217982 -0.29618752 0.25012198
vn -0.8885627 -0.3509285 0.29547516
vn -0.9999995 -0.0009775162 -0
vn -0.8885627 0.35092843 -0.29547524
vn -0.9217982 0.29618752 -0.25012198
vn 0.560117 0.3313781 0.75924796
vn 0.560117 -0.6911043 -0.45677543
vn -0.966764 -0.19648087 0.163593
vn 0.11827952 0.20234597 0.9721451
vn 0.11827952 -0.92179817 -0.3691857
vn 0.3274681 0.8905177 0.31582087
vn 0.58748746 -0.092864096 0.80388725
vn -0.13000977 0.73216 0.6686099
vn -0.4819157 0.2707721 0.8333305
vn 0.58748746 -0.80840623 -0.03657631
vn 0.3274681 -0.1534701 -0.9323152
vn 0.47018552 0.47214055 0.74566007
vn 0.25708687 0.7399801 -0.62155914
vn -0.13000977 -0.5307915 -0.83747107
vn 0.0361681 -0.66959894 -0.7418417
vn 0.47018552 -0.6520036 -0.59482515
vn -0.70674455 0.5425217 -0.454073
vn -0.4819157 -0.77321565 -0.412183
vn 0.0361681 0.6148579 0.7878081
vn 0.23558152 0.08113384 0.968462
vn 0.23558152 -0.9393935 -0.24908064
vn 0.0009775162 0.0361681 0.99934524
vn -0.0009775162 -0.97849417 -0.20627224
vn -0.38611913 0.70674455 -0.5928104
vn -0.5718472 0.62854326 -0.52718514
vn -0.0009775162 0.7653955 -0.6435594
vn 0.5718472 0.62854326 -0.52718514
vn 0.38611907 0.70674455 -0.59281045
vn -0.23558152 0.08113384 0.968462
vn -0.23558152 -0.9393935 -0.24908064
vn -0.25708687 0.7399801 -0.62155914
vn -0.47018552 0.47214055 0.74566007
vn -0.47018552 -0.6520036 -0.59482515
vn 0.4819157 -0.77321565 -0.412183
vn -0.58748746 -0.092864096 0.80388725
vn -0.58748746 -0.80840623 -0.03657631
vn 0.4819157 0.2707721 0.8333305
vn 0.13000971 0.73216 0.6686099
vn 0.70674455 0.5425217 -0.454073
vn -0.0361681 -0.66959894 -0.7418417
vn -0.0361681 0.6148579 0.7878081
vn 0.13000971 -0.5307915 -0.8374711
vn -0.32746804 0.8905177 0.31582096
vn -0.32746804 -0.1534701 -0.9323152
vn 0.9999995 -0.0009775162 -0
vn -0.0009775162 0.6422285 0.76651263
vn 0.70674455 0.5425217 -0.454073
vn -0.0009775162 -0.6422284 -0.7665127
vn -0.0009775162 0.7653955 -0.6435594
vn 0.70674455 -0.5425217 0.454073
vn -0.70674455 0.5425217 -0.454073
vn -0.0009775162 -0.7653955 0.6435594
vn -0.9999995 0.0009775162 -0
vn -0.70674455 -0.5425217 0.454073
vn 0.70674455 -0.5425217 0.454073
vn -0.5347016 0.69501436 0.48067585
vn 0.92179817 -0.29618752 0.25012207
vn -0.41153455 0.8377317 0.35894966
vn -0.41153455 -0.20821106 -0.8872922
vn 0.38611907 -0.70674455 0.59281045
vn -0.22385132 -0.11436945 -0.9678896
vn -0.5347016 -0.35288352 -0.76783293
vn -0.22385132 0.9335284 0.28002727
vn -0.5777123 0.5249264 0.6250606
vn -0.5777123 -0.5249264 -0.6250606
vn 0.9999995 -0.0009775162 -0
vn -0.0009775162 0.966764 0.25566864
vn 0.0009775162 -0.7653955 0.6435594
vn -0.0009775162 -0.0811339 -0.99670273
vn -0.5347016 -0.69501436 -0.48067585
vn -0.5347016 0.35288346 0.767833
vn 0.92179817 0.29618752 -0.25012207
vn -0.38611913 -0.70674455 0.5928104
vn 0.22385132 0.9335284 0.28002727
vn 0.22385132 -0.11436945 -0.9678896
vn -0.41153455 -0.8377318 -0.35894957
vn -0.41153455 0.20821106 0.8872922
vn 0.70674455 0.5425217 -0.454073
vn -0.70674455 -0.5425217 0.454073
vn 0.4115345 0.8377317 0.35894975
vn 0.4115345 -0.20821106 -0.88729227
vn -0.22385132 -0.9335284 -0.28002727
vn -0.22385132 0.11436939 0.9678896
vn 0.38611907 0.70674455 -0.59281045
vn -0.9217982 -0.29618752 0.25012198
vn 0.5347016 0.69501436 0.48067585
vn 0.5347016 -0.35288352 -0.76783293
vn 0.0009775162 -0.966764 -0.25566864
vn -0.0009775162 0.08113384 0.99670273
vn -0.0009775162 0.7653955 -0.6435594
vn -0.9999995 -0.0009775162 -0
vn 0.5777123 0.5249264 0.6250606
vn 0.5777123 -0.5249264 -0.6250606
vn 0.22385132 -0.9335284 -0.28002727
vn 0.22385132 0.11436939 0.9678896
vn -0.38611913 0.70674455 -0.5928104
vn -0.9217982 0.29618752 -0.25012198
vn 0.5347016 0.35288346 0.767833
vn 0.5347016 -0.69501436 -0.48067585
vn 0.4115345 -0.8377318 -0.35894966
vn 0.4115345 0.20821106 0.88729227
vn -0.70674455 0.5425217 -0.454073
g Mutsuki_Original_Halo_0
f 3/3/3 2/2/2 1/1/1
f 3/3/3 1/1/1 4/4/4
f 2/2/2 3/3/3 4/4/4
f 2/2/2 5/5/5 1/1/1
f 6/6/6 1/1/1 5/5/5
f 1/1/1 6/6/6 4/4/4
f 7/7/7 5/5/5 2/2/2
f 5/5/5 8/8/8 6/6/6
f 4/4/4 8/8/8 2/2/2
f 9/9/9 8/8/8 4/4/4
f 6/6/6 8/8/8 9/9/9
f 5/5/5 10/10/10 8/8/8
f 8/8/8 10/10/10 2/2/2
f 10/10/10 11/11/11 2/2/2
f 10/10/10 5/5/5 11/11/11
f 4/4/4 6/6/6 12/12/12
f 9/9/9 4/4/4 12/12/12
f 12/12/12 13/13/13 9/9/9
f 13/13/13 12/12/12 14/14/14
f 6/6/6 15/15/15 12/12/12
f 12/12/12 15/15/15 14/14/14
f 9/9/9 14/14/14 15/15/15
f 15/15/15 6/6/6 9/9/9
f 14/14/14 9/9/9 16/16/16
f 16/16/16 9/9/9 13/13/13
f 11/11/11 17/17/17 2/2/2
f 5/5/5 17/17/17 11/11/11
f 18/18/18 14/14/14 16/16/16
f 18/18/18 16/16/16 13/13/13
f 17/17/17 19/19/19 2/2/2
f 19/19/19 17/17/17 5/5/5
f 18/18/18 20/20/20 14/14/14
f 20/20/20 18/18/18 13/13/13
f 19/19/19 21/21/21 2/2/2
f 21/21/21 19/19/19 5/5/5
f 22/22/22 21/21/21 5/5/5
f 2/2/2 21/21/21 22/22/22
f 20/20/20 23/23/23 14/14/14
f 23/23/23 20/20/20 13/13/13
f 23/23/23 13/13/13 24/24/24
f 25/25/25 14/14/14 23/23/23
f 13/13/13 14/14/14 26/26/26
f 13/13/13 26/26/26 24/24/24
f 24/24/24 26/26/26 25/25/25
f 14/14/14 27/27/27 26/26/26
f 25/25/25 27/27/27 14/14/14
f 26/26/26 27/27/27 25/25/25
f 28/28/28 22/22/22 5/5/5
f 29/29/29 22/22/22 28/28/28
f 5/5/5 7/7/7 28/28/28
f 2/2/2 22/22/22 30/30/30
f 30/30/30 22/22/22 29/29/29
f 30/30/30 28/28/28 7/7/7
f 31/31/31 7/7/7 2/2/2
f 30/30/30 31/31/31 2/2/2
f 31/31/31 30/30/30 7/7/7
f 30/30/30 32/32/32 28/28/28
f 32/32/32 30/30/30 29/29/29
f 29/29/29 33/33/33 32/32/32
f 33/33/33 34/34/34 32/32/32
f 32/32/32 35/35/35 28/28/28
f 34/34/34 35/35/35 32/32/32
f 35/35/35 34/34/34 29/29/29
f 29/29/29 28/28/28 35/35/35
f 36/36/36 29/29/29 34/34/34
f 29/29/29 36/36/36 33/33/33
f 37/37/37 36/36/36 34/34/34
f 36/36/36 37/37/37 33/33/33
f 37/37/37 34/34/34 38/38/38
f 37/37/37 38/38/38 33/33/33
f 34/34/34 39/39/39 38/38/38
f 38/38/38 39/39/39 33/33/33
f 40/40/40 33/33/33 39/39/39
f 39/39/39 34/34/34 41/41/41
f 33/33/33 42/42/42 34/34/34
f 40/40/40 42/42/42 33/33/33
f 40/40/40 41/41/41 42/42/42
f 42/42/42 43/43/43 34/34/34
f 34/34/34 43/43/43 41/41/41
f 41/41/41 43/43/43 42/42/42
f 41/41/41 44/44/44 39/39/39
f 39/39/39 44/44/44 40/40/40
f 44/44/44 41/41/41 45/45/45
f 41/41/41 46/46/46 45/45/45
f 46/46/46 41/41/41 40/40/40
f 45/45/45 47/47/47 44/44/44
f 48/48/48 45/45/45 46/46/46
f 48/48/48 40/40/40 44/44/44
f 44/44/44 47/47/47 48/48/48
f 47/47/47 45/45/45 49/49/49
f 47/47/47 49/49/49 48/48/48
f 50/50/50 48/48/48 46/46/46
f 48/48/48 50/50/50 40/40/40
f 50/50/50 46/46/46 40/40/40
f 49/49/49 51/51/51 48/48/48
f 45/45/45 51/51/51 49/49/49
f 51/51/51 52/52/52 48/48/48
f 52/52/52 51/51/51 45/45/45
f 52/52/52 53/53/53 48/48/48
f 53/53/53 52/52/52 45/45/45
f 48/48/48 53/53/53 54/54/54
f 54/54/54 53/53/53 45/45/45
f 55/55/55 45/45/45 48/48/48
f 45/45/45 25/25/25 54/54/54
f 45/45/45 55/55/55 25/25/25
f 23/23/23 54/54/54 25/25/25
f 24/24/24 54/54/54 23/23/23
f 54/54/54 24/24/24 48/48/48
f 24/24/24 25/25/25 55/55/55
f 56/56/56 55/55/55 48/48/48
f 24/24/24 56/56/56 48/48/48
f 56/56/56 24/24/24 55/55/55
f 59/59/59 58/58/58 57/57/57
f 60/60/60 58/58/58 59/59/59
f 60/60/60 59/59/59 61/61/61
f 59/59/59 57/57/57 61/61/61
f 60/60/60 62/62/62 58/58/58
f 60/60/60 61/61/61 62/62/62
f 58/58/58 62/62/62 63/63/63
f 62/62/62 61/61/61 63/63/63
f 58/58/58 64/64/64 57/57/57
f 58/58/58 61/61/61 64/64/64
f 65/65/65 58/58/58 63/63/63
f 65/65/65 63/63/63 66/66/66
f 65/65/65 67/67/67 58/58/58
f 67/67/67 61/61/61 58/58/58
f 61/61/61 67/67/67 63/63/63
f 67/67/67 65/65/65 68/68/68
f 68/68/68 65/65/65 66/66/66
f 63/63/63 67/67/67 69/69/69
f 66/66/66 63/63/63 69/69/69
f 69/69/69 67/67/67 68/68/68
f 57/57/57 70/70/70 61/61/61
f 61/61/61 70/70/70 64/64/64
f 57/57/57 71/71/71 70/70/70
f 64/64/64 72/72/72 57/57/57
f 72/72/72 71/71/71 57/57/57
f 70/70/70 73/73/73 64/64/64
f 71/71/71 73/73/73 70/70/70
f 73/73/73 72/72/72 64/64/64
f 71/71/71 74/74/74 73/73/73
f 75/75/75 72/72/72 73/73/73
f 73/73/73 74/74/74 76/76/76
f 76/76/76 75/75/75 73/73/73
f 72/72/72 77/77/77 71/71/71
f 75/75/75 78/78/78 72/72/72
f 78/78/78 77/77/77 72/72/72
f 74/74/74 77/77/77 78/78/78
f 71/71/71 77/77/77 79/79/79
f 80/80/80 74/74/74 71/71/71
f 79/79/79 80/80/80 71/71/71
f 77/77/77 81/81/81 79/79/79
f 77/77/77 74/74/74 81/81/81
f 74/74/74 80/80/80 81/81/81
f 79/79/79 81/81/81 82/82/82
f 83/83/83 80/80/80 79/79/79
f 80/80/80 83/83/83 81/81/81
f 82/82/82 83/83/83 79/79/79
f 84/84/84 74/74/74 78/78/78
f 74/74/74 84/84/84 76/76/76
f 85/85/85 78/78/78 75/75/75
f 78/78/78 85/85/85 84/84/84
f 81/81/81 85/85/85 82/82/82
f 83/83/83 85/85/85 81/81/81
f 85/85/85 83/83/83 84/84/84
f 86/86/86 85/85/85 75/75/75
f 75/75/75 76/76/76 86/86/86
f 82/82/82 85/85/85 86/86/86
f 84/84/84 83/83/83 87/87/87
f 76/76/76 84/84/84 87/87/87
f 76/76/76 87/87/87 86/86/86
f 87/87/87 83/83/83 82/82/82
f 86/86/86 88/88/88 82/82/82
f 87/87/87 89/89/89 86/86/86
f 89/89/89 88/88/88 86/86/86
f 88/88/88 89/89/89 90/90/90
f 89/89/89 91/91/91 90/90/90
f 89/89/89 92/92/92 91/91/91
f 92/92/92 89/89/89 87/87/87
f 82/82/82 92/92/92 87/87/87
f 88/88/88 92/92/92 82/82/82
f 88/88/88 90/90/90 92/92/92
f 92/92/92 93/93/93 91/91/91
f 90/90/90 93/93/93 92/92/92
f 94/94/94 91/91/91 93/93/93
f 94/94/94 93/93/93 90/90/90
f 94/94/94 95/95/95 91/91/91
f 94/94/94 90/90/90 95/95/95
f 95/95/95 90/90/90 96/96/96
f 95/95/95 96/96/96 91/91/91
f 90/90/90 91/91/91 97/97/97
f 90/90/90 97/97/97 96/96/96
f 91/91/91 98/98/98 97/97/97
f 96/96/96 98/98/98 91/91/91
f 96/96/96 99/99/99 98/98/98
f 97/97/97 100/100/100 96/96/96
f 100/100/100 99/99/99 96/96/96
f 98/98/98 101/101/101 97/97/97
f 99/99/99 101/101/101 98/98/98
f 101/101/101 100/100/100 97/97/97
f 100/100/100 102/102/102 99/99/99
f 103/103/103 100/100/100 101/101/101
f 104/104/104 102/102/102 100/100/100
f 103/103/103 104/104/104 100/100/100
f 99/99/99 105/105/105 101/101/101
f 105/105/105 102/102/102 104/104/104
f 106/106/106 103/103/103 101/101/101
f 101/101/101 105/105/105 106/106/106
f 107/107/107 104/104/104 103/103/103
f 103/103/103 106/106/106 108/108/108
f 108/108/108 107/107/107 103/103/103
f 109/109/109 107/107/107 108/108/108
f 110/110/110 105/105/105 104/104/104
f 110/110/110 104/104/104 107/107/107
f 105/105/105 110/110/110 106/106/106
f 111/111/111 105/105/105 99/99/99
f 105/105/105 111/111/111 102/102/102
f 106/106/106 110/110/110 112/112/112
f 106/106/106 112/112/112 108/108/108
f 113/113/113 110/110/110 107/107/107
f 110/110/110 113/113/113 112/112/112
f 112/112/112 113/113/113 109/109/109
f 99/99/99 102/102/102 114/114/114
f 114/114/114 111/111/111 99/99/99
f 113/113/113 111/111/111 114/114/114
f 109/109/109 113/113/113 114/114/114
f 107/107/107 115/115/115 113/113/113
f 115/115/115 111/111/111 113/113/113
f 111/111/111 115/115/115 102/102/102
f 102/102/102 115/115/115 114/114/114
f 115/115/115 107/107/107 109/109/109
f 114/114/114 115/115/115 109/109/109
f 108/108/108 116/116/116 109/109/109
f 112/112/112 117/117/117 108/108/108
f 117/117/117 116/116/116 108/108/108
f 116/116/116 117/117/117 118/118/118
f 117/117/117 119/119/119 118/118/118
f 117/117/117 120/120/120 119/119/119
f 120/120/120 117/117/117 112/112/112
f 109/109/109 120/120/120 112/112/112
f 116/116/116 120/120/120 109/109/109
f 116/116/116 118/118/118 120/120/120
f 120/120/120 121/121/121 119/119/119
f 118/118/118 121/121/121 120/120/120
f 122/122/122 119/119/119 121/121/121
f 122/122/122 121/121/121 118/118/118
f 122/122/122 123/123/123 119/119/119
f 122/122/122 118/118/118 123/123/123
f 123/123/123 118/118/118 124/124/124
f 123/123/123 124/124/124 119/119/119
f 118/118/118 119/119/119 125/125/125
f 118/118/118 125/125/125 124/124/124
f 119/119/119 126/126/126 125/125/125
f 124/124/124 126/126/126 119/119/119
f 124/124/124 127/127/127 126/126/126
f 125/125/125 128/128/128 124/124/124
f 128/128/128 127/127/127 124/124/124
f 126/126/126 129/129/129 125/125/125
f 127/127/127 129/129/129 126/126/126
f 129/129/129 128/128/128 125/125/125
f 128/128/128 130/130/130 127/127/127
f 131/131/131 128/128/128 129/129/129
f 132/132/132 130/130/130 128/128/128
f 131/131/131 132/132/132 128/128/128
f 133/133/133 132/132/132 131/131/131
f 134/134/134 131/131/131 129/129/129
f 127/127/127 135/135/135 129/129/129
f 129/129/129 135/135/135 134/134/134
f 130/130/130 132/132/132 135/135/135
f 136/136/136 133/133/133 131/131/131
f 131/131/131 134/134/134 136/136/136
f 137/137/137 133/133/133 136/136/136
f 132/132/132 138/138/138 135/135/135
f 132/132/132 133/133/133 138/138/138
f 135/135/135 138/138/138 134/134/134
f 139/139/139 135/135/135 127/127/127
f 130/130/130 135/135/135 139/139/139
f 134/134/134 138/138/138 140/140/140
f 134/134/134 140/140/140 136/136/136
f 127/127/127 130/130/130 141/141/141
f 141/141/141 139/139/139 127/127/127
f 133/133/133 142/142/142 138/138/138
f 138/138/138 142/142/142 140/140/140
f 142/142/142 133/133/133 139/139/139
f 142/142/142 139/139/139 141/141/141
f 137/137/137 142/142/142 141/141/141
f 140/140/140 142/142/142 137/137/137
f 130/130/130 143/143/143 141/141/141
f 143/143/143 130/130/130 139/139/139
f 133/133/133 143/143/143 139/139/139
f 143/143/143 133/133/133 137/137/137
f 141/141/141 143/143/143 137/137/137
f 136/136/136 144/144/144 137/137/137
f 140/140/140 145/145/145 136/136/136
f 145/145/145 144/144/144 136/136/136
f 144/144/144 145/145/145 146/146/146
f 145/145/145 147/147/147 146/146/146
f 145/145/145 148/148/148 147/147/147
f 148/148/148 145/145/145 140/140/140
f 137/137/137 148/148/148 140/140/140
f 144/144/144 148/148/148 137/137/137
f 144/144/144 146/146/146 148/148/148
f 148/148/148 149/149/149 147/147/147
f 146/146/146 149/149/149 148/148/148
f 150/150/150 147/147/147 149/149/149
f 150/150/150 149/149/149 146/146/146
f 150/150/150 151/151/151 147/147/147
f 150/150/150 146/146/146 151/151/151
f 151/151/151 146/146/146 152/152/152
f 151/151/151 152/152/152 147/147/147
f 146/146/146 147/147/147 153/153/153
f 146/146/146 153/153/153 152/152/152
f 147/147/147 154/154/154 153/153/153
f 152/152/152 154/154/154 147/147/147
f 152/152/152 155/155/155 154/154/154
f 153/153/153 156/156/156 152/152/152
f 156/156/156 155/155/155 152/152/152
f 154/154/154 157/157/157 153/153/153
f 155/155/155 157/157/157 154/154/154
f 157/157/157 156/156/156 153/153/153
f 155/155/155 158/158/158 157/157/157
f 159/159/159 156/156/156 157/157/157
f 157/157/157 158/158/158 160/160/160
f 160/160/160 159/159/159 157/157/157
f 156/156/156 161/161/161 155/155/155
f 159/159/159 162/162/162 156/156/156
f 162/162/162 161/161/161 156/156/156
f 158/158/158 161/161/161 162/162/162
f 155/155/155 161/161/161 163/163/163
f 164/164/164 158/158/158 155/155/155
f 163/163/163 164/164/164 155/155/155
f 161/161/161 165/165/165 163/163/163
f 161/161/161 158/158/158 165/165/165
f 158/158/158 164/164/164 165/165/165
f 166/166/166 158/158/158 162/162/162
f 158/158/158 166/166/166 160/160/160
f 167/167/167 162/162/162 159/159/159
f 162/162/162 167/167/167 166/166/166
f 168/168/168 164/164/164 163/163/163
f 164/164/164 168/168/168 165/165/165
f 167/167/167 168/168/168 166/166/166
f 168/168/168 167/167/167 165/165/165
f 163/163/163 165/165/165 66/66/66
f 165/165/165 167/167/167 66/66/66
f 66/66/66 168/168/168 163/163/163
f 68/68/68 167/167/167 159/159/159
f 66/66/66 167/167/167 68/68/68
f 159/159/159 160/160/160 68/68/68
f 69/69/69 168/168/168 66/66/66
f 166/166/166 168/168/168 69/69/69
f 160/160/160 69/69/69 68/68/68
f 160/160/160 166/166/166 69/69/69
f 171/171/171 170/170/170 169/169/169
f 169/169/169 172/172/172 171/171/171
f 173/173/173 170/170/170 171/171/171
f 171/171/171 172/172/172 173/173/173
f 169/169/169 170/170/170 174/174/174
f 174/174/174 172/172/172 169/169/169
f 175/175/175 170/170/170 173/173/173
f 173/173/173 172/172/172 175/175/175
f 174/174/174 170/170/170 176/176/176
f 176/176/176 172/172/172 174/174/174
f 177/177/177 170/170/170 175/175/175
f 175/175/175 172/172/172 177/177/177
f 176/176/176 170/170/170 178/178/178
f 178/178/178 170/170/170 177/177/177
f 178/178/178 172/172/172 176/176/176
f 177/177/177 172/172/172 178/178/178
f 181/181/181 180/180/180 179/179/179
f 180/180/180 182/182/182 179/179/179
f 181/181/181 179/179/179 183/183/183
f 179/179/179 182/182/182 184/184/184
f 183/183/183 179/179/179 185/185/185
f 179/179/179 184/184/184 185/185/185
f 180/180/180 186/186/186 182/182/182
f 186/186/186 183/183/183 182/182/182
f 186/186/186 181/181/181 183/183/183
f 182/182/182 183/183/183 187/187/187
f 183/183/183 185/185/185 187/187/187
f 182/182/182 187/187/187 184/184/184
f 188/188/188 180/180/180 181/181/181
f 189/189/189 186/186/186 180/180/180
f 188/188/188 189/189/189 180/180/180
f 190/190/190 181/181/181 186/186/186
f 189/189/189 190/190/190 186/186/186
f 190/190/190 188/188/188 181/181/181
f 187/187/187 185/185/185 191/191/191
f 184/184/184 187/187/187 192/192/192
f 187/187/187 191/191/191 192/192/192
f 185/185/185 184/184/184 193/193/193
f 184/184/184 192/192/192 193/193/193
f 185/185/185 193/193/193 191/191/191
f 194/194/194 189/189/189 188/188/188
f 195/195/195 188/188/188 190/190/190
f 195/195/195 194/194/194 188/188/188
f 196/196/196 190/190/190 189/189/189
f 194/194/194 196/196/196 189/189/189
f 196/196/196 195/195/195 190/190/190
f 192/192/192 191/191/191 197/197/197
f 191/191/191 193/193/193 198/198/198
f 191/191/191 198/198/198 197/197/197
f 193/193/193 192/192/192 199/199/199
f 192/192/192 197/197/197 199/199/199
f 193/193/193 199/199/199 198/198/198
f 200/200/200 194/194/194 195/195/195
f 201/201/201 195/195/195 196/196/196
f 201/201/201 200/200/200 195/195/195
f 202/202/202 196/196/196 194/194/194
f 200/200/200 202/202/202 194/194/194
f 202/202/202 201/201/201 196/196/196
f 197/197/197 198/198/198 203/203/203
f 198/198/198 199/199/199 204/204/204
f 198/198/198 204/204/204 203/203/203
f 199/199/199 197/197/197 205/205/205
f 197/197/197 203/203/203 205/205/205
f 199/199/199 205/205/205 204/204/204
f 206/206/206 200/200/200 201/201/201
f 207/207/207 201/201/201 202/202/202
f 207/207/207 206/206/206 201/201/201
f 208/208/208 202/202/202 200/200/200
f 206/206/206 208/208/208 200/200/200
f 208/208/208 207/207/207 202/202/202
f 203/203/203 204/204/204 209/209/209
f 204/204/204 205/205/205 210/210/210
f 204/204/204 210/210/210 209/209/209
f 205/205/205 203/203/203 211/211/211
f 203/203/203 209/209/209 211/211/211
f 205/205/205 211/211/211 210/210/210
f 212/212/212 206/206/206 207/207/207
f 213/213/213 207/207/207 208/208/208
f 213/213/213 212/212/212 207/207/207
f 214/214/214 208/208/208 206/206/206
f 212/212/212 214/214/214 206/206/206
f 214/214/214 213/213/213 208/208/208
f 209/209/209 210/210/210 215/215/215
f 210/210/210 211/211/211 216/216/216
f 210/210/210 216/216/216 215/215/215
f 211/211/211 209/209/209 217/217/217
f 209/209/209 215/215/215 217/217/217
f 211/211/211 217/217/217 216/216/216
f 218/218/218 212/212/212 213/213/213
f 219/219/219 213/213/213 214/214/214
f 219/219/219 218/218/218 213/213/213
f 220/220/220 214/214/214 212/212/212
f 218/218/218 220/220/220 212/212/212
f 220/220/220 219/219/219 214/214/214
f 215/215/215 216/216/216 221/221/221
f 216/216/216 217/217/217 222/222/222
f 216/216/216 222/222/222 221/221/221
f 217/217/217 215/215/215 223/223/223
f 215/215/215 221/221/221 223/223/223
f 217/217/217 223/223/223 222/222/222
f 224/224/224 218/218/218 219/219/219
f 223/223/223 221/221/221 224/224/224
f 225/225/225 219/219/219 220/220/220
f 225/225/225 224/224/224 219/219/219
f 222/222/222 223/223/223 225/225/225
f 223/223/223 224/224/224 225/225/225
f 226/226/226 220/220/220 218/218/218
f 226/226/226 225/225/225 220/220/220
f 222/222/222 225/225/225 226/226/226
f 221/221/221 222/222/222 226/226/226
f 224/224/224 226/226/226 218/218/218
f 221/221/221 226/226/226 224/224/224
