g CH0137_Halo
v -0.028916255 -0.004007913 0.0033636987
v -0.031725734 -0.012388118 0.010395691
v -0.05592577 -0.011517137 0.009664834
v -0.05251327 -0.011938177 -3.197044E-05
v -0.049100995 -0.0024617985 0.0020664334
v -0.07892817 -0.0075901 0.0063694715
v -0.06839314 0.002803214 -0.0023514777
v -0.07366066 -0.0073421597 -0.0038884878
v -0.10037923 0.0034182891 -0.0028676018
v -0.08174129 0.014699191 -0.012333296
v -0.09106025 0.0041100234 -0.013498165
v -0.11429627 0.026755065 -0.022449322
v -0.08564307 0.02749367 -0.023069173
v -0.099969774 0.022175655 -0.028656967
v -0.11925943 0.05185111 -0.043507315
v -0.08732225 0.037725925 -0.031655014
v -0.10329084 0.039839804 -0.043478876
v -0.07491492 0.04172802 -0.035013147
v -0.08166076 0.046468496 -0.049040966
v -0.08840659 0.061106384 -0.051273577
v -0.058499813 0.04553677 -0.038209096
v -0.056782648 0.049590737 -0.05166073
v -0.055065468 0.063541904 -0.053317167
v -0.038377166 0.04262948 -0.03576971
v -0.035135955 0.043773666 -0.046779692
v -0.031894743 0.054815263 -0.04599469
v -0.022778675 0.032463416 -0.027239144
v -0.019366175 0.03204237 -0.036935948
v -0.015953913 0.041518524 -0.034837537
v -0.010938436 0.019845456 -0.016651578
v -0.002869174 0.02589956 -0.021731429
v 0.010938451 0.019845456 -0.016651578
v 0.0028691962 0.02589956 -0.021731429
v 0.015953928 0.041518524 -0.034837537
v 0.019366197 0.03204237 -0.036935948
v 0.022778697 0.032463416 -0.027239144
v 0.031894766 0.054815263 -0.04599469
v 0.038377196 0.04262948 -0.03576971
v 0.035135977 0.043773666 -0.046779692
v 0.055065267 0.063541904 -0.053317167
v 0.05849983 0.04553677 -0.038209096
v 0.056782663 0.049590737 -0.05166073
v 0.088406615 0.061106384 -0.051273577
v 0.074914716 0.04172802 -0.035013147
v 0.08166078 0.046468496 -0.049040966
v 0.11925945 0.05185111 -0.043507315
v 0.087322265 0.037725925 -0.031655014
v 0.103290856 0.039839804 -0.043478876
v 0.08564308 0.02749367 -0.023069173
v 0.099969804 0.022175655 -0.028656967
v 0.11429652 0.026755065 -0.022449322
v 0.0817413 0.014699191 -0.012333296
v 0.09106027 0.0041100234 -0.013498165
v 0.10037924 0.0034182891 -0.0028676018
v 0.06839316 0.002803214 -0.0023514777
v 0.07366067 -0.0073421597 -0.0038884878
v 0.07892819 -0.0075901 0.0063694715
v 0.049101017 -0.0024617985 0.0020664334
v 0.052513286 -0.011938177 -3.197044E-05
v 0.055925786 -0.011517137 0.009664834
v 0.028916277 -0.004007913 0.0033636987
v 0.031725757 -0.012388118 0.010395691
v 0.017977722 -0.018521376 0.015541956
v 0.028856456 -0.016195044 0.013590038
v 0.039971754 -0.03268522 0.027426794
v 0.033147216 -0.03763382 0.021529183
v 0.026322447 -0.03268522 0.027426794
v 0.04703355 -0.04990899 0.041879296
v 0.030016094 -0.048116527 0.040375262
v 0.03852482 -0.05396136 0.035229683
v 0.04531388 -0.06964402 0.058439076
v 0.023241594 -0.062919796 0.05279669
v 0.034277737 -0.07123062 0.049720168
v 0.025889799 -0.09054528 0.075977206
v 0.01072827 -0.07190552 0.06033662
v 0.018308923 -0.086174004 0.062259197
v -1.0430813E-07 -0.10638581 0.08926894
v -1.0430813E-07 -0.07813546 0.065564334
v -1.0430813E-07 -0.09720946 0.07151903
v -0.010728255 -0.07190552 0.06033662
v -0.018309131 -0.086174004 0.062259197
v -0.02588977 -0.09054528 0.075977206
v -0.02324158 -0.062919796 0.05279669
v -0.034277722 -0.07123062 0.049720168
v -0.04531385 -0.06964402 0.058439076
v -0.03001608 -0.048116527 0.040375262
v -0.038524806 -0.05396136 0.035229683
v -0.04703352 -0.04990899 0.041879296
v -0.026322424 -0.03268522 0.027426794
v -0.033147186 -0.03763382 0.021529183
v -0.03997174 -0.03268522 0.027426794
v -0.0179777 -0.018521376 0.015541956
v -0.028856441 -0.016195044 0.013590038
v 0.06423342 -0.02991601 0.021219373
v 0.06853124 -0.035085253 0.029440805
v 0.074193865 -0.03240885 0.027194992
v 0.06423342 -0.02800367 0.02349861
v 0.060717203 -0.033775255 0.028341666
v 0.074388124 -0.027313985 0.022919938
v 0.05532913 -0.029246338 0.024541333
v 0.069000274 -0.022785068 0.019119829
v 0.050520882 -0.021938875 0.01840967
v 0.061186247 -0.02147507 0.018020466
v -0.06423341 -0.02991601 0.021219373
v -0.055329114 -0.029246338 0.024541333
v -0.050520867 -0.021938875 0.01840967
v -0.06423341 -0.02800367 0.02349861
v -0.061186224 -0.02147507 0.018020466
v -0.06071718 -0.033775255 0.028341666
v -0.06900026 -0.022785068 0.019119829
v -0.068531215 -0.035085253 0.029440805
v -0.0743881 -0.027313985 0.022919938
v -0.07419385 -0.03240885 0.027194992
v 0.006141804 0.0027342886 -0.0022582114
v -1.0430813E-07 -0.0022320524 -0.0026601553
v 0.0071203783 1.784414E-05 2.1256506E-05
v 0.0035602525 0.004741706 -0.0039426237
v 0.006141804 -0.0026985928 0.0023005009
v -1.0430813E-07 0.005498953 -0.0045779496
v 0.0035602525 -0.00470601 0.003984913
v -1.0430813E-07 1.784414E-05 2.1256506E-05
v -1.0430813E-07 -0.0054634884 0.0046204627
v -0.0035602301 0.004741706 -0.0039426237
v -0.0035602301 -0.00470601 0.003984913
v -0.006141782 0.0027342886 -0.0022582114
v -0.006141782 -0.0026985928 0.0023005009
v -0.0071205795 1.784414E-05 2.1256506E-05
v 0.000458017 0.056435972 -0.051238544
v -0.005399093 0.05132997 -0.043070115
v 0.000458017 0.044486314 -0.037327647
v 0.000458017 0.05661568 -0.047505543
v 0.0063151345 0.05132997 -0.043070115
v -0.007825062 0.057168886 -0.04796958
v 0.008741096 0.057168886 -0.04796958
v -0.005399093 0.0630078 -0.05286905
v 0.0063151345 0.0630078 -0.05286905
v 0.000458017 0.06542626 -0.05489853
v 0.006367907 0.003957391 -0.0010112226
v 0.018730648 0.009192377 -0.0054036602
v 0.013484292 0.0037228689 -0.0008142367
v 0.012993865 0.0005769655 -0.010861337
v 0.011083581 0.009427577 -0.0056013316
v 0.025955535 0.0071160346 -0.003661476
v 0.019811355 0.0010514706 0.0014272481
v 0.019770868 0.01695159 -0.011914521
v 0.023634888 -0.0021715462 -0.008555025
v 0.015028581 0.010354057 -0.019065253
v 0.009560667 0.015194163 -0.010440066
v 0.013724498 0.028450862 -0.021563552
v 0.0093407035 0.01939711 -0.026653409
v 0.0046068355 0.02131696 -0.015577465
v -8.061528E-06 0.04159996 -0.03259696
v -8.061528E-06 0.029243365 -0.034915335
v -8.061528E-06 0.025970533 -0.01948221
v 0.03716319 -0.0027497783 0.004616827
v 0.025178045 -0.005893402 0.007254556
v 0.032125644 -0.010840185 -0.0012812316
v -0.004622966 0.02131696 -0.015577465
v -0.009356603 0.01939711 -0.026653409
v -0.013740629 0.028450862 -0.021563552
v 0.04616666 -0.018570058 0.01789172
v 0.027978875 -0.011222564 0.011726379
v 0.039018653 -0.022001207 0.00808391
v 0.020838156 -0.0119129345 0.012305751
v 0.023612142 -0.02383484 0.009622514
v 0.024805225 -0.02226302 0.020990312
v 0.011421822 -0.011449121 0.0119163245
v 0.010604523 -0.022653133 0.008630976
v 0.008920573 -0.020398684 0.019426003
v -8.061528E-06 -0.01996626 0.0063765347
v 0.004381418 -0.009660527 0.010415703
v -8.061528E-06 -0.01671891 0.016338333
v -8.061528E-06 -0.0046077445 0.0061759055
v -0.0043973178 -0.009660527 0.01041548
v -0.008936465 -0.020398684 0.019426003
v -0.0114379525 -0.01144889 0.0119163245
v -0.010620654 -0.022653133 0.008630976
v -0.024821118 -0.02226302 0.020990312
v -0.020854056 -0.0119129345 0.012305528
v -0.023628041 -0.023834608 0.009622514
v -0.046182558 -0.018570058 0.01789172
v -0.027995005 -0.011222564 0.011726379
v -0.03903456 -0.022001207 0.00808391
v -0.025193945 -0.005893402 0.007254556
v -0.03214155 -0.010840185 -0.0012812316
v -0.037179083 -0.0027497783 0.004616827
v -0.019827262 0.0010514706 0.0014272481
v -0.023651019 -0.0021715462 -0.008555025
v -0.025971666 0.0071160346 -0.003661476
v -0.015080199 0.0014613643 -0.0116035715
v -0.013500199 0.0037228689 -0.0008142367
v -0.018776804 0.009169862 -0.0053850114
v -0.0063838065 0.003957391 -0.0010112226
v -0.011099473 0.009427577 -0.0056013316
v -0.019786775 0.01695159 -0.011914521
v -0.009576574 0.015194163 -0.010440066
v -0.015044481 0.010354057 -0.019065253
vt 0.34089538 0.8881302
vt 0.2617219 0.88751394
vt 0.18080688 0.89189464
vt 0.2304812 0.89189464
vt 0.28015554 0.89189464
vt 0.12941779 0.8964762
vt 0.25326872 0.89599395
vt 0.19134995 0.8962351
vt 0.14193016 0.90171427
vt 0.3025813 0.89993256
vt 0.22225574 0.90081674
vt 0.28330374 0.9072738
vt 0.39366433 0.9023171
vt 0.33848402 0.90479547
vt 0.4717527 0.91148037
vt 0.4717527 0.9039783
vt 0.4717527 0.9077293
vt 0.5498277 0.9023171
vt 0.60500795 0.90479547
vt 0.66018826 0.9072738
vt 0.6409107 0.89993256
vt 0.7212362 0.90081674
vt 0.80156183 0.90171427
vt 0.6902233 0.89599395
vt 0.7521554 0.8962351
vt 0.81407416 0.8964762
vt 0.66333646 0.89189464
vt 0.7130108 0.89189464
vt 0.7626851 0.89189464
vt 0.6025966 0.8881302
vt 0.68178344 0.88751394
vt 0.09050088 0.8951366
vt 0.061577775 0.89297974
vt 0.21061416 0.8903406
vt 0.21494123 0.8917339
vt 0.2192683 0.89311373
vt 0.36914867 0.8885187
vt 0.36298627 0.8920018
vt 0.36606747 0.8902602
vt 0.5570484 0.8884115
vt 0.5074009 0.8930333
vt 0.53222466 0.8907291
vt 0.76719975 0.8918678
vt 0.60038614 0.89536434
vt 0.68379295 0.8936094
vt 0.9335578 0.8967442
vt 0.6661631 0.8974006
vt 0.7998605 0.89707905
vt 0.61399704 0.89971817
vt 0.70702255 0.9010444
vt 0.800048 0.9023707
vt 0.5368866 0.9024645
vt 0.57570976 0.9046347
vt 0.6145329 0.90679157
vt 0.4010726 0.9041926
vt 0.4149514 0.905894
vt 0.4288302 0.90759534
vt 0.25266588 0.9037907
vt 0.25699294 0.905184
vt 0.26132 0.9065638
vt 0.11330177 0.9024243
vt 0.09819049 0.9046883
vt 0.59930104 0.8878087
vt 0.67847455 0.8871924
vt 0.75937617 0.89157313
vt 0.70970184 0.89157313
vt 0.6600409 0.89157313
vt 0.8107786 0.8961547
vt 0.6869143 0.89567244
vt 0.7488465 0.8959136
vt 0.7982663 0.90140617
vt 0.6376151 0.899611
vt 0.7179407 0.9005086
vt 0.6568927 0.9069523
vt 0.54653215 0.9019956
vt 0.6017124 0.90447396
vt 0.46844375 0.9111722
vt 0.46844375 0.9036568
vt 0.46844375 0.9074078
vt 0.3903688 0.9019956
vt 0.33518848 0.90447396
vt 0.28000817 0.9069523
vt 0.29928577 0.899611
vt 0.2189602 0.9005086
vt 0.1386346 0.90140617
vt 0.24997316 0.89567244
vt 0.188041 0.8959136
vt 0.12610886 0.8961547
vt 0.27686 0.89157313
vt 0.22718567 0.89157313
vt 0.17751133 0.89157313
vt 0.33759984 0.8878087
vt 0.25841296 0.8871924
vt 0.5015733 0.42163628
vt 0.05561632 0.4231099
vt 0.05561632 0.42369935
vt 0.5015733 0.42163628
vt 0.05561632 0.42163628
vt 0.05561632 0.4231099
vt 0.05561632 0.42018944
vt 0.05561632 0.42163628
vt 0.05561632 0.4184747
vt 0.05561632 0.42018944
vt 0.5015733 0.42163628
vt 0.05561632 0.42018944
vt 0.05561632 0.4184747
vt 0.5015733 0.42163628
vt 0.05561632 0.42018944
vt 0.05561632 0.42163628
vt 0.05561632 0.42163628
vt 0.05561632 0.4231099
vt 0.05561632 0.4231099
vt 0.05561632 0.42369935
vt 0.851062 0.18128915
vt 0.7938454 0.214325
vt 0.8601716 0.214325
vt 0.8270152 0.15686728
vt 0.851062 0.24736084
vt 0.7938454 0.14766386
vt 0.8270152 0.27176932
vt 0.7938454 0.214325
vt 0.7938454 0.28097272
vt 0.7606756 0.15686728
vt 0.7606756 0.27176932
vt 0.73662883 0.18128915
vt 0.73662883 0.24736084
vt 0.7275058 0.214325
vt 0.5015733 0.42163628
vt 0.05561632 0.42018944
vt 0.05561632 0.4184747
vt 0.5015733 0.42163628
vt 0.05561632 0.42018944
vt 0.05561632 0.42163628
vt 0.05561632 0.42163628
vt 0.05561632 0.4231099
vt 0.05561632 0.4231099
vt 0.05561632 0.42369935
vt 0.7063393 0.59070045
vt 0.6378295 0.6098039
vt 0.63670415 0.59885895
vt 0.662747 0.6025698
vt 0.63670415 0.59885895
vt 0.5428079 0.61841786
vt 0.5415888 0.60661554
vt 0.5428079 0.61841786
vt 0.54220504 0.6125502
vt 0.54220504 0.6125502
vt 0.5415888 0.60661554
vt 0.36352214 0.6253975
vt 0.40042958 0.61702466
vt 0.43834174 0.6085714
vt 0.14506495 0.624808
vt 0.25490308 0.61660933
vt 0.3659335 0.6083437
vt 0.36352214 0.6253975
vt 0.43834174 0.6085714
vt 0.40042958 0.61702466
vt 0.43834174 0.6085714
vt 0.40042958 0.61702466
vt 0.36352214 0.6253975
vt 0.14506495 0.624808
vt 0.3659335 0.6083437
vt 0.25490308 0.61660933
vt 0.43834174 0.6085714
vt 0.40042958 0.61702466
vt 0.36352214 0.6253975
vt 0.5415888 0.60661554
vt 0.54220504 0.6125502
vt 0.5428079 0.61841786
vt 0.662747 0.6025698
vt 0.63670415 0.59885895
vt 0.6378295 0.6098039
vt 0.7063393 0.59070045
vt 0.63670415 0.59885895
vt 0.5428079 0.61841786
vt 0.5415888 0.60661554
vt 0.54220504 0.6125502
vt 0.36352214 0.6253975
vt 0.43834174 0.6085714
vt 0.40042958 0.61702466
vt 0.14506495 0.624808
vt 0.3659335 0.6083437
vt 0.25490308 0.61660933
vt 0.43834174 0.6085714
vt 0.40042958 0.61702466
vt 0.36352214 0.6253975
vt 0.5415888 0.60661554
vt 0.54220504 0.6125502
vt 0.5428079 0.61841786
vt 0.662747 0.6025698
vt 0.63670415 0.59885895
vt 0.6378295 0.6098039
vt 0.7063393 0.59070045
vt 0.63670415 0.59885895
vt 0.5428079 0.61841786
vt 0.5415888 0.60661554
vt 0.54220504 0.6125502
vn 0.8787873 0.43020946 -0.20652537
vn 0.70090294 -0.44761115 0.55531913
vn -0.14598113 -0.43987703 0.8861138
vn 0.0725072 -0.6931689 -0.7171189
vn 0.16724992 0.9599953 -0.22458059
vn -0.41667467 -0.44567758 0.7923091
vn 0.44954467 0.87298673 -0.18921891
vn 0.0029003024 -0.72797227 -0.68560046
vn -0.75504166 -0.30066317 0.5826781
vn 0.80531335 0.590692 -0.050531212
vn -0.051238477 -0.6989694 -0.71331364
vn -0.9387266 -0.039637268 0.34237587
vn 0.936793 0.34320074 0.06805932
vn -0.031903207 -0.6660995 -0.7451803
vn -0.85558504 0.47468048 -0.2065253
vn 0.80724686 -0.12471241 0.5768876
vn -0.13824707 -0.5732903 -0.8076051
vn 0.27552736 -0.5346198 0.79891574
vn 0.012567937 -0.61002725 -0.79228073
vn -0.25232512 0.87105316 -0.42142427
vn -0.018368542 -0.5017499 0.8648177
vn 0.041570783 -0.5771573 -0.8155742
vn 0.1459812 0.89618903 -0.41896865
vn -0.45921224 -0.3335331 0.8233346
vn 0.10344362 -0.5964926 -0.79592466
vn 0.5288192 0.80724686 -0.2621121
vn -0.67963415 -0.16338289 0.7151248
vn 0.09764302 -0.66029894 -0.7446282
vn 0.71250415 0.6989694 -0.06147813
vn 0.037703753 -0.68543476 0.72715724
vn 0.9561283 -0.10924417 0.2718168
vn -0.037703693 -0.68543476 0.72715724
vn -0.9561283 -0.10924417 0.2718168
vn -0.7125041 0.6989694 -0.0614791
vn -0.09764308 -0.66029894 -0.7446282
vn 0.6796342 -0.16338289 0.7151247
vn -0.52881914 0.80724686 -0.26211223
vn 0.4592123 -0.3335331 0.8233345
vn -0.10344356 -0.5964926 -0.79592466
vn -0.14598113 0.89618903 -0.41896865
vn 0.018368483 -0.5017499 0.8648177
vn -0.041570842 -0.5771573 -0.8155742
vn 0.25232506 0.87105316 -0.42142427
vn -0.27552742 -0.5346198 0.79891574
vn -0.012567937 -0.61002725 -0.79228073
vn 0.855585 0.47468048 -0.20652543
vn -0.80724686 -0.12471241 0.5768876
vn 0.13824707 -0.5732903 -0.8076051
vn -0.936793 0.34320074 0.06805932
vn 0.031903148 -0.6660995 -0.7451803
vn 0.93872654 -0.039637268 0.34237605
vn -0.8053133 0.590692 -0.050532393
vn 0.051238418 -0.6989694 -0.71331364
vn 0.75504166 -0.30066317 0.5826781
vn -0.4495446 0.87298673 -0.18921891
vn -0.0029003024 -0.72797227 -0.68560046
vn 0.41667473 -0.44567758 0.7923091
vn -0.16724998 0.9599953 -0.22458045
vn -0.0725072 -0.6931689 -0.7171189
vn 0.1459812 -0.43987703 0.8861138
vn -0.87878734 0.43020946 -0.20652522
vn -0.700903 -0.44761115 0.5553191
vn -0.8401168 0.4804811 -0.25167772
vn 0.2561921 0.8207815 -0.51057154
vn 0.859452 0.5036834 0.08743729
vn 0.024169087 -0.56555617 -0.82435554
vn -0.8459174 0.058972538 0.5300434
vn 0.94452715 0.25619215 0.20550932
vn -0.9097237 0.26199263 0.32212213
vn 0.09957653 -0.59069204 -0.8007293
vn 0.9019896 -0.10537714 0.41870087
vn -0.8227151 0.5655562 -0.05732368
vn 0.09184247 -0.6448307 -0.7587874
vn 0.68543476 -0.37413716 0.6246604
vn -0.66223246 0.70863706 -0.24347822
vn 0.043504298 -0.6506313 -0.75814664
vn -0.00096678734 -0.66223246 0.7492978
vn -0.00096678734 0.94646066 -0.3228177
vn -0.00096678734 -0.7569752 -0.6534429
vn 0.66223246 0.70863706 -0.24347822
vn -0.043504298 -0.6506313 -0.75814664
vn -0.68543476 -0.37413716 0.6246604
vn 0.82271504 0.5655562 -0.05732472
vn -0.09184247 -0.6448307 -0.7587874
vn -0.90198964 -0.10537714 0.4187008
vn 0.9097237 0.26199263 0.32212213
vn -0.09957653 -0.59069204 -0.8007293
vn -0.9445272 0.25619215 0.20550902
vn 0.84591734 0.058972538 0.5300435
vn -0.024169028 -0.56555617 -0.82435554
vn -0.85945207 0.5036834 0.087436944
vn 0.8401168 0.4804811 -0.25167772
vn -0.25619215 0.8207815 -0.5105715
vn 0.0029003024 -0.6448307 -0.7643199
vn 0.211721 -0.6660995 0.7151823
vn 0.8613856 -0.3161314 0.39758745
vn -0.00096678734 0.6428972 0.7659519
vn -0.48434812 -0.56748974 0.6658546
vn 0.94646066 0.30839735 -0.095411204
vn -0.83044916 -0.3083973 0.46394533
vn 0.5056169 0.745374 -0.4344756
vn -0.8633191 0.42440885 -0.2730518
vn 0.047371387 0.8575185 -0.5122675
vn -0.0029003024 -0.6448307 -0.7643199
vn 0.83044916 -0.3083973 0.46394533
vn 0.8633191 0.42440885 -0.2730518
vn -0.00096678734 0.6428972 0.7659519
vn -0.047371328 0.8575185 -0.5122675
vn 0.48434812 -0.56748974 0.6658546
vn -0.50561684 0.745374 -0.43447572
vn -0.211721 -0.6660995 0.7151823
vn -0.94646066 0.30839735 -0.095411204
vn -0.8613855 -0.3161314 0.3975876
vn 0.84785086 0.5036834 -0.16568634
vn -0.00096678734 -0.6428972 -0.7659519
vn 0.9812641 0.12664586 0.14519499
vn 0.49594927 0.7743769 -0.39290547
vn 0.84785086 -0.24845803 0.46842024
vn -0.00096678734 0.87685376 -0.48075622
vn 0.49594927 -0.5210851 0.69462556
vn -0.00096678734 0.6428972 0.7659519
vn -0.00096678734 -0.62549543 0.78022724
vn -0.4959492 0.7743769 -0.39290556
vn -0.4959492 -0.5210851 0.6946256
vn -0.84785086 0.5036834 -0.16568634
vn -0.84785086 -0.24845803 0.46842024
vn -0.9812642 0.12664586 0.14519458
vn -0.00096678734 -0.6003596 -0.7997296
vn -0.8749202 -0.2639262 0.4060266
vn -0.00096678734 -0.72797227 0.6856059
vn -0.00096678734 0.6428972 0.7659519
vn 0.87492025 -0.2639262 0.40602645
vn -0.98899823 0.07444078 0.1278321
vn 0.98899823 0.07444078 0.1278321
vn -0.74924105 0.5848914 -0.31070873
vn 0.7492411 0.5848914 -0.31070855
vn -0.00096678734 0.8401168 -0.54240465
vn -0.8401168 -0.13438004 0.5254957
vn 0.58682495 0.7473076 0.31171748
vn -0.18465167 -0.20011985 0.962214
vn -0.31226438 -0.73183936 -0.60572445
vn -0.71057063 0.5790909 0.39967874
vn 0.5017499 0.8575185 -0.11361802
vn -0.50561684 -0.10731065 0.8560585
vn 0.87685376 0.39153892 0.27897093
vn 0.060906053 -0.4901487 -0.8695083
vn 0.18271816 -0.67190003 -0.71774954
vn -0.7975792 0.22912282 0.5580055
vn 0.7511746 0.6544984 0.085839994
vn 0.11117768 -0.6177614 -0.7784667
vn -0.7473076 -0.049304903 0.6626465
vn -0.00096678734 0.91939133 -0.3933429
vn -0.00096678734 -0.2619927 -0.96506935
vn -0.00096678734 -0.053171933 0.9985849
vn 0.74730754 0.6602989 0.07440964
vn -0.7589087 -0.020301998 0.6508805
vn 0.07637423 -0.56168914 -0.8238157
vn 0.74730754 -0.049304903 0.66264653
vn -0.11117774 -0.6177614 -0.7784667
vn -0.7511746 0.6544984 0.085839994
vn 0.85171795 -0.1459812 0.5032554
vn -0.6061602 0.7221717 0.33322334
vn 0.37413716 -0.72410524 -0.57939017
vn -0.0067673326 0.9793306 -0.20215286
vn -0.012567937 -0.73570645 -0.6771839
vn 0.033836722 -0.3857383 0.92198753
vn 0.18078464 0.96966296 -0.16453159
vn -0.07637423 -0.7105706 -0.6994687
vn -0.23685688 -0.3393337 0.9103579
vn 0.00096678734 -0.59069204 -0.80689645
vn 0.4998163 0.86525255 -0.039009057
vn -0.00096678734 -0.13438004 0.99092937
vn 0.00096678734 0.8981225 -0.4397443
vn -0.49981636 0.86525255 -0.03900753
vn 0.23685688 -0.3393337 0.9103579
vn -0.18078464 0.96966296 -0.16453159
vn 0.07637423 -0.7105706 -0.6994687
vn -0.033836663 -0.3857383 0.92198753
vn 0.0067673326 0.9793306 -0.20215286
vn 0.012567937 -0.73570645 -0.6771839
vn -0.8517179 -0.1459812 0.50325555
vn 0.60616016 0.7221717 0.33322343
vn -0.37413722 -0.72410524 -0.57939017
vn 0.75890875 -0.020301998 0.6508804
vn -0.07637423 -0.56168914 -0.8238157
vn -0.7473076 0.6602989 0.07440924
vn 0.553955 -0.10537714 0.8258508
vn -0.058972538 -0.5036833 -0.8618732
vn -0.5326863 0.84205025 -0.08483316
vn 0.18658519 -0.7028365 -0.68644506
vn 0.22138864 -0.24072391 0.94500744
vn -0.5713567 0.7473076 0.33923864
vn 0.85365146 -0.1691835 0.49260136
vn 0.7511746 0.5423539 0.37628296
vn -0.8633191 0.4263423 0.27002296
vn 0.80144626 0.17691761 0.5713003
vn -0.17305058 -0.6738336 -0.71833265
g CH0137_Halo_0
f 3/3/3 2/2/2 1/1/1
f 4/4/4 1/1/1 2/2/2
f 2/2/2 3/3/3 4/4/4
f 5/5/5 3/3/3 1/1/1
f 5/5/5 1/1/1 4/4/4
f 6/6/6 3/3/3 5/5/5
f 7/7/7 5/5/5 4/4/4
f 7/7/7 6/6/6 5/5/5
f 4/4/4 3/3/3 8/8/8
f 3/3/3 6/6/6 8/8/8
f 8/8/8 7/7/7 4/4/4
f 9/9/9 6/6/6 7/7/7
f 10/10/10 7/7/7 8/8/8
f 10/10/10 9/9/9 7/7/7
f 8/8/8 6/6/6 11/11/11
f 6/6/6 9/9/9 11/11/11
f 11/11/11 10/10/10 8/8/8
f 12/12/12 9/9/9 10/10/10
f 13/13/13 10/10/10 11/11/11
f 13/13/13 12/12/12 10/10/10
f 11/11/11 9/9/9 14/14/14
f 9/9/9 12/12/12 14/14/14
f 14/14/14 13/13/13 11/11/11
f 15/15/15 12/12/12 13/13/13
f 16/16/16 13/13/13 14/14/14
f 16/16/16 15/15/15 13/13/13
f 14/14/14 12/12/12 17/17/17
f 17/17/17 16/16/16 14/14/14
f 12/12/12 15/15/15 17/17/17
f 18/18/18 16/16/16 17/17/17
f 15/15/15 16/16/16 18/18/18
f 17/17/17 15/15/15 19/19/19
f 19/19/19 18/18/18 17/17/17
f 20/20/20 15/15/15 18/18/18
f 15/15/15 20/20/20 19/19/19
f 21/21/21 18/18/18 19/19/19
f 20/20/20 18/18/18 21/21/21
f 19/19/19 20/20/20 22/22/22
f 22/22/22 21/21/21 19/19/19
f 23/23/23 20/20/20 21/21/21
f 20/20/20 23/23/23 22/22/22
f 24/24/24 21/21/21 22/22/22
f 23/23/23 21/21/21 24/24/24
f 22/22/22 23/23/23 25/25/25
f 25/25/25 24/24/24 22/22/22
f 26/26/26 23/23/23 24/24/24
f 23/23/23 26/26/26 25/25/25
f 27/27/27 24/24/24 25/25/25
f 26/26/26 24/24/24 27/27/27
f 25/25/25 26/26/26 28/28/28
f 28/28/28 27/27/27 25/25/25
f 29/29/29 26/26/26 27/27/27
f 26/26/26 29/29/29 28/28/28
f 29/29/29 27/27/27 30/30/30
f 30/30/30 27/27/27 28/28/28
f 31/31/31 29/29/29 30/30/30
f 28/28/28 31/31/31 30/30/30
f 29/29/29 31/31/31 28/28/28
f 34/34/34 33/33/33 32/32/32
f 35/35/35 32/32/32 33/33/33
f 33/33/33 34/34/34 35/35/35
f 36/36/36 34/34/34 32/32/32
f 36/36/36 32/32/32 35/35/35
f 37/37/37 34/34/34 36/36/36
f 38/38/38 36/36/36 35/35/35
f 38/38/38 37/37/37 36/36/36
f 35/35/35 34/34/34 39/39/39
f 34/34/34 37/37/37 39/39/39
f 39/39/39 38/38/38 35/35/35
f 40/40/40 37/37/37 38/38/38
f 41/41/41 38/38/38 39/39/39
f 41/41/41 40/40/40 38/38/38
f 39/39/39 37/37/37 42/42/42
f 37/37/37 40/40/40 42/42/42
f 42/42/42 41/41/41 39/39/39
f 43/43/43 40/40/40 41/41/41
f 44/44/44 41/41/41 42/42/42
f 44/44/44 43/43/43 41/41/41
f 42/42/42 40/40/40 45/45/45
f 40/40/40 43/43/43 45/45/45
f 45/45/45 44/44/44 42/42/42
f 46/46/46 43/43/43 44/44/44
f 47/47/47 44/44/44 45/45/45
f 47/47/47 46/46/46 44/44/44
f 45/45/45 43/43/43 48/48/48
f 48/48/48 47/47/47 45/45/45
f 43/43/43 46/46/46 48/48/48
f 49/49/49 47/47/47 48/48/48
f 46/46/46 47/47/47 49/49/49
f 48/48/48 46/46/46 50/50/50
f 50/50/50 49/49/49 48/48/48
f 51/51/51 46/46/46 49/49/49
f 46/46/46 51/51/51 50/50/50
f 52/52/52 49/49/49 50/50/50
f 51/51/51 49/49/49 52/52/52
f 50/50/50 51/51/51 53/53/53
f 53/53/53 52/52/52 50/50/50
f 54/54/54 51/51/51 52/52/52
f 51/51/51 54/54/54 53/53/53
f 55/55/55 52/52/52 53/53/53
f 54/54/54 52/52/52 55/55/55
f 53/53/53 54/54/54 56/56/56
f 56/56/56 55/55/55 53/53/53
f 57/57/57 54/54/54 55/55/55
f 54/54/54 57/57/57 56/56/56
f 58/58/58 55/55/55 56/56/56
f 57/57/57 55/55/55 58/58/58
f 56/56/56 57/57/57 59/59/59
f 59/59/59 58/58/58 56/56/56
f 60/60/60 57/57/57 58/58/58
f 57/57/57 60/60/60 59/59/59
f 60/60/60 58/58/58 61/61/61
f 61/61/61 58/58/58 59/59/59
f 62/62/62 60/60/60 61/61/61
f 60/60/60 62/62/62 59/59/59
f 62/62/62 61/61/61 59/59/59
f 65/65/65 64/64/64 63/63/63
f 63/63/63 64/64/64 66/66/66
f 64/64/64 65/65/65 66/66/66
f 67/67/67 65/65/65 63/63/63
f 67/67/67 63/63/63 66/66/66
f 68/68/68 65/65/65 67/67/67
f 69/69/69 67/67/67 66/66/66
f 69/69/69 68/68/68 67/67/67
f 66/66/66 65/65/65 70/70/70
f 65/65/65 68/68/68 70/70/70
f 70/70/70 69/69/69 66/66/66
f 71/71/71 68/68/68 69/69/69
f 72/72/72 69/69/69 70/70/70
f 72/72/72 71/71/71 69/69/69
f 70/70/70 68/68/68 73/73/73
f 68/68/68 71/71/71 73/73/73
f 73/73/73 72/72/72 70/70/70
f 74/74/74 71/71/71 72/72/72
f 75/75/75 72/72/72 73/73/73
f 75/75/75 74/74/74 72/72/72
f 73/73/73 71/71/71 76/76/76
f 71/71/71 74/74/74 76/76/76
f 76/76/76 75/75/75 73/73/73
f 77/77/77 74/74/74 75/75/75
f 78/78/78 75/75/75 76/76/76
f 78/78/78 77/77/77 75/75/75
f 76/76/76 74/74/74 79/79/79
f 79/79/79 78/78/78 76/76/76
f 74/74/74 77/77/77 79/79/79
f 80/80/80 78/78/78 79/79/79
f 77/77/77 78/78/78 80/80/80
f 79/79/79 77/77/77 81/81/81
f 81/81/81 80/80/80 79/79/79
f 82/82/82 77/77/77 80/80/80
f 77/77/77 82/82/82 81/81/81
f 83/83/83 80/80/80 81/81/81
f 82/82/82 80/80/80 83/83/83
f 81/81/81 82/82/82 84/84/84
f 84/84/84 83/83/83 81/81/81
f 85/85/85 82/82/82 83/83/83
f 82/82/82 85/85/85 84/84/84
f 86/86/86 83/83/83 84/84/84
f 85/85/85 83/83/83 86/86/86
f 84/84/84 85/85/85 87/87/87
f 87/87/87 86/86/86 84/84/84
f 88/88/88 85/85/85 86/86/86
f 85/85/85 88/88/88 87/87/87
f 89/89/89 86/86/86 87/87/87
f 88/88/88 86/86/86 89/89/89
f 87/87/87 88/88/88 90/90/90
f 90/90/90 89/89/89 87/87/87
f 91/91/91 88/88/88 89/89/89
f 88/88/88 91/91/91 90/90/90
f 91/91/91 89/89/89 92/92/92
f 92/92/92 89/89/89 90/90/90
f 93/93/93 91/91/91 92/92/92
f 91/91/91 93/93/93 90/90/90
f 93/93/93 92/92/92 90/90/90
f 96/96/96 95/95/95 94/94/94
f 97/97/97 95/95/95 96/96/96
f 95/95/95 98/98/98 94/94/94
f 97/97/97 98/98/98 95/95/95
f 99/99/99 96/96/96 94/94/94
f 97/97/97 96/96/96 99/99/99
f 98/98/98 100/100/100 94/94/94
f 97/97/97 100/100/100 98/98/98
f 101/101/101 99/99/99 94/94/94
f 97/97/97 99/99/99 101/101/101
f 100/100/100 102/102/102 94/94/94
f 97/97/97 102/102/102 100/100/100
f 103/103/103 101/101/101 94/94/94
f 102/102/102 103/103/103 94/94/94
f 97/97/97 103/103/103 102/102/102
f 97/97/97 101/101/101 103/103/103
f 106/106/106 105/105/105 104/104/104
f 106/106/106 107/107/107 105/105/105
f 108/108/108 106/106/106 104/104/104
f 108/108/108 107/107/107 106/106/106
f 105/105/105 109/109/109 104/104/104
f 105/105/105 107/107/107 109/109/109
f 110/110/110 108/108/108 104/104/104
f 110/110/110 107/107/107 108/108/108
f 109/109/109 111/111/111 104/104/104
f 109/109/109 107/107/107 111/111/111
f 112/112/112 110/110/110 104/104/104
f 112/112/112 107/107/107 110/110/110
f 111/111/111 113/113/113 104/104/104
f 111/111/111 107/107/107 113/113/113
f 113/113/113 112/112/112 104/104/104
f 113/113/113 107/107/107 112/112/112
f 116/116/116 115/115/115 114/114/114
f 114/114/114 115/115/115 117/117/117
f 118/118/118 115/115/115 116/116/116
f 117/117/117 115/115/115 119/119/119
f 118/118/118 120/120/120 115/115/115
f 117/117/117 121/121/121 114/114/114
f 114/114/114 121/121/121 116/116/116
f 116/116/116 121/121/121 118/118/118
f 119/119/119 121/121/121 117/117/117
f 118/118/118 121/121/121 120/120/120
f 120/120/120 122/122/122 115/115/115
f 120/120/120 121/121/121 122/122/122
f 123/123/123 119/119/119 115/115/115
f 123/123/123 121/121/121 119/119/119
f 124/124/124 115/115/115 122/122/122
f 122/122/122 121/121/121 124/124/124
f 125/125/125 123/123/123 115/115/115
f 125/125/125 121/121/121 123/123/123
f 126/126/126 115/115/115 124/124/124
f 124/124/124 121/121/121 126/126/126
f 125/125/125 115/115/115 127/127/127
f 126/126/126 127/127/127 115/115/115
f 127/127/127 121/121/121 125/125/125
f 126/126/126 121/121/121 127/127/127
f 130/130/130 129/129/129 128/128/128
f 130/130/130 131/131/131 129/129/129
f 132/132/132 130/130/130 128/128/128
f 132/132/132 131/131/131 130/130/130
f 129/129/129 133/133/133 128/128/128
f 129/129/129 131/131/131 133/133/133
f 134/134/134 132/132/132 128/128/128
f 134/134/134 131/131/131 132/132/132
f 133/133/133 135/135/135 128/128/128
f 133/133/133 131/131/131 135/135/135
f 136/136/136 134/134/134 128/128/128
f 136/136/136 131/131/131 134/134/134
f 135/135/135 137/137/137 128/128/128
f 135/135/135 131/131/131 137/137/137
f 137/137/137 136/136/136 128/128/128
f 137/137/137 131/131/131 136/136/136
f 140/140/140 139/139/139 138/138/138
f 140/140/140 138/138/138 141/141/141
f 138/138/138 139/139/139 142/142/142
f 138/138/138 142/142/142 141/141/141
f 143/143/143 139/139/139 140/140/140
f 144/144/144 140/140/140 141/141/141
f 144/144/144 143/143/143 140/140/140
f 139/139/139 145/145/145 142/142/142
f 145/145/145 139/139/139 141/141/141
f 139/139/139 143/143/143 146/146/146
f 141/141/141 139/139/139 146/146/146
f 146/146/146 144/144/144 141/141/141
f 141/141/141 142/142/142 147/147/147
f 147/147/147 145/145/145 141/141/141
f 145/145/145 148/148/148 142/142/142
f 142/142/142 148/148/148 147/147/147
f 149/149/149 145/145/145 147/147/147
f 145/145/145 149/149/149 148/148/148
f 147/147/147 148/148/148 150/150/150
f 150/150/150 149/149/149 147/147/147
f 149/149/149 151/151/151 148/148/148
f 148/148/148 151/151/151 150/150/150
f 152/152/152 149/149/149 150/150/150
f 149/149/149 152/152/152 151/151/151
f 150/150/150 151/151/151 153/153/153
f 153/153/153 152/152/152 150/150/150
f 152/152/152 154/154/154 151/151/151
f 151/151/151 154/154/154 153/153/153
f 155/155/155 143/143/143 144/144/144
f 156/156/156 144/144/144 146/146/146
f 156/156/156 155/155/155 144/144/144
f 146/146/146 143/143/143 157/157/157
f 143/143/143 155/155/155 157/157/157
f 157/157/157 156/156/156 146/146/146
f 154/154/154 152/152/152 158/158/158
f 153/153/153 154/154/154 159/159/159
f 154/154/154 158/158/158 159/159/159
f 160/160/160 152/152/152 153/153/153
f 159/159/159 160/160/160 153/153/153
f 152/152/152 160/160/160 158/158/158
f 161/161/161 155/155/155 156/156/156
f 162/162/162 156/156/156 157/157/157
f 162/162/162 161/161/161 156/156/156
f 157/157/157 155/155/155 163/163/163
f 163/163/163 162/162/162 157/157/157
f 155/155/155 161/161/161 163/163/163
f 164/164/164 162/162/162 163/163/163
f 161/161/161 162/162/162 164/164/164
f 163/163/163 161/161/161 165/165/165
f 165/165/165 164/164/164 163/163/163
f 166/166/166 161/161/161 164/164/164
f 161/161/161 166/166/166 165/165/165
f 167/167/167 164/164/164 165/165/165
f 166/166/166 164/164/164 167/167/167
f 165/165/165 166/166/166 168/168/168
f 168/168/168 167/167/167 165/165/165
f 169/169/169 166/166/166 167/167/167
f 166/166/166 169/169/169 168/168/168
f 168/168/168 169/169/169 170/170/170
f 171/171/171 167/167/167 168/168/168
f 169/169/169 167/167/167 171/171/171
f 170/170/170 171/171/171 168/168/168
f 172/172/172 169/169/169 171/171/171
f 169/169/169 172/172/172 170/170/170
f 173/173/173 172/172/172 171/171/171
f 173/173/173 171/171/171 170/170/170
f 174/174/174 172/172/172 173/173/173
f 174/174/174 173/173/173 170/170/170
f 175/175/175 172/172/172 174/174/174
f 176/176/176 174/174/174 170/170/170
f 176/176/176 175/175/175 174/174/174
f 170/170/170 172/172/172 177/177/177
f 172/172/172 175/175/175 177/177/177
f 177/177/177 176/176/176 170/170/170
f 178/178/178 175/175/175 176/176/176
f 179/179/179 176/176/176 177/177/177
f 179/179/179 178/178/178 176/176/176
f 177/177/177 175/175/175 180/180/180
f 175/175/175 178/178/178 180/180/180
f 180/180/180 179/179/179 177/177/177
f 181/181/181 178/178/178 179/179/179
f 182/182/182 179/179/179 180/180/180
f 182/182/182 181/181/181 179/179/179
f 180/180/180 178/178/178 183/183/183
f 183/183/183 182/182/182 180/180/180
f 178/178/178 181/181/181 183/183/183
f 184/184/184 182/182/182 183/183/183
f 181/181/181 182/182/182 184/184/184
f 183/183/183 181/181/181 185/185/185
f 185/185/185 184/184/184 183/183/183
f 186/186/186 181/181/181 184/184/184
f 181/181/181 186/186/186 185/185/185
f 187/187/187 184/184/184 185/185/185
f 186/186/186 184/184/184 187/187/187
f 185/185/185 186/186/186 188/188/188
f 188/188/188 187/187/187 185/185/185
f 189/189/189 186/186/186 187/187/187
f 186/186/186 189/189/189 188/188/188
f 188/188/188 189/189/189 190/190/190
f 191/191/191 187/187/187 188/188/188
f 189/189/189 187/187/187 191/191/191
f 190/190/190 191/191/191 188/188/188
f 192/192/192 189/189/189 191/191/191
f 189/189/189 192/192/192 190/190/190
f 193/193/193 192/192/192 191/191/191
f 193/193/193 191/191/191 190/190/190
f 194/194/194 192/192/192 193/193/193
f 190/190/190 194/194/194 193/193/193
f 195/195/195 192/192/192 194/194/194
f 196/196/196 194/194/194 190/190/190
f 196/196/196 195/195/195 194/194/194
f 190/190/190 192/192/192 197/197/197
f 192/192/192 195/195/195 197/197/197
f 197/197/197 196/196/196 190/190/190
f 160/160/160 195/195/195 196/196/196
f 158/158/158 160/160/160 196/196/196
f 158/158/158 196/196/196 197/197/197
f 195/195/195 160/160/160 159/159/159
f 159/159/159 158/158/158 197/197/197
f 197/197/197 195/195/195 159/159/159
