g CH0243_Halo
v -0.09357698 0.03290647 -0.02108477
v -0.09988633 0.03627489 -0.0239112
v -0.07716416 0.06232509 -0.04576994
v -0.09673166 0.03137675 -0.02632821
v -0.07439244 0.0569879 -0.04781854
v -0.07162072 0.05807858 -0.04220668
v -0.04176095 0.08044638 -0.06097551
v -0.0402609 0.07445828 -0.06247793
v -0.03876086 0.07489805 -0.0563199
v -4.977551E-09 0.08680974 -0.06631502
v -4.61936E-09 0.08059305 -0.06762563
v -4.757587E-09 0.08080425 -0.0612758
v 0.04176094 0.08044638 -0.06097551
v 0.0402609 0.07445828 -0.06247793
v 0.03876085 0.07489805 -0.0563199
v 0.07716416 0.0623251 -0.04576994
v 0.07439244 0.0569879 -0.04781854
v 0.07162072 0.05807858 -0.04220669
v 0.1008198 0.03520467 -0.02301318
v 0.0971984 0.03084163 -0.02587919
v 0.1091266 0.00321395 0.003830237
v 0.09357698 0.03290647 -0.02108477
v 0.1052068 9.536746E-09 1.430511E-08
v 0.101287 0.00321395 0.003830237
v 0.09357698 -0.02647858 0.02874523
v 0.0971984 -0.03084161 0.02587921
v 0.1008198 -0.02877677 0.03067365
v 0.07162072 -0.0516507 0.04986715
v 0.07439244 -0.05698789 0.04781855
v 0.07716416 -0.05589722 0.0534304
v 0.03876085 -0.06847017 0.06398036
v 0.0402609 -0.07445829 0.06247794
v 0.04176094 -0.07401851 0.06863597
v -4.757587E-09 -0.07437638 0.06893626
v -4.61936E-09 -0.08059305 0.06762563
v -4.977551E-09 -0.08038186 0.07397545
v -0.03876086 -0.06847017 0.06398036
v -0.0402609 -0.07445829 0.06247794
v -0.04176095 -0.07401851 0.06863597
v -0.07162072 -0.0516507 0.04986714
v -0.07439244 -0.05698789 0.04781855
v -0.07716416 -0.05589722 0.0534304
v -0.09357698 -0.02647858 0.02874523
v -0.09673166 -0.03137673 0.02632823
v -0.09988633 -0.029847 0.03157167
v -0.2310249 0.00321395 0.003830237
v -0.1308252 -0.03101615 0.0325527
v -0.2713061 0.00321395 0.003830237
v -0.1308252 0.03744404 -0.02489224
v -0.2511655 9.536746E-09 1.430511E-08
v -0.1283873 -0.02833868 0.023779
v -0.1283873 0.02833869 -0.02377899
v -0.1331628 -0.02126399 0.02436967
v -0.0737357 0.00321394 0.003830227
v -0.1196672 -0.02617959 0.02849434
v -0.1331628 0.02769189 -0.01670921
v -0.1196672 0.03260748 -0.02083389
v -0.1205741 -0.05017198 0.04862636
v -0.1205741 0.05659987 -0.0409659
v -0.0515909 0.003213945 0.003830227
v -0.0626631 4.768373E-09 4.768371E-09
v -0.1148089 -0.05155658 0.04326113
v -0.1148089 0.05155659 -0.04326112
v -0.1090436 -0.0465133 0.04555636
v -0.1090436 0.05294119 -0.0378959
v -0.09244861 -0.07702188 0.0711561
v -0.09244861 0.08344975 -0.06349566
v -0.08818199 -0.0767553 0.06440537
v -0.08818199 0.07675531 -0.06440536
v -0.08391538 -0.07006085 0.0653151
v -0.08391538 0.07648873 -0.05765464
v -0.05346561 -0.09566503 0.08679957
v -0.05346561 0.1020929 -0.07913912
v -0.05107757 -0.09446255 0.07926353
v -0.05107757 0.09446255 -0.07926353
v -0.04868954 -0.08683219 0.07938793
v -0.04868954 0.09326006 -0.07172749
v -6.116919E-09 -0.1038119 0.0936356
v -6.116919E-09 0.1102398 -0.08597517
v -5.662441E-09 -0.1022455 0.08579423
v -5.662441E-09 0.1022455 -0.08579422
v -5.583075E-09 -0.0942513 0.0856133
v -5.583075E-09 0.1006792 -0.07795286
v 0.0534656 -0.09566503 0.08679957
v 0.0534656 0.1020929 -0.07913912
v 0.05107756 -0.09446255 0.07926353
v 0.05107756 0.09446255 -0.07926353
v 0.04868953 -0.08683219 0.07938793
v 0.04868953 0.09326006 -0.07172749
v 0.09065299 -0.07875059 0.07260665
v 0.09065299 0.08517846 -0.0649462
v 0.0866076 -0.07837538 0.06576478
v 0.0866076 0.07837538 -0.06576476
v 0.08256221 -0.07157228 0.06658334
v 0.08256221 0.07800017 -0.05892289
v 0.116665 -0.05599225 0.05351014
v 0.116665 0.06242014 -0.04584969
v 0.1116893 -0.05631071 0.04725033
v 0.1116893 0.05631072 -0.04725032
v 0.1067137 -0.05020129 0.04865095
v 0.1067137 0.05662917 -0.0409905
v 0.1212708 -0.02515928 0.0276382
v 0.1258471 -0.03207337 0.02691277
v 0.1304233 -0.03255958 0.03384779
v 0.1212708 0.03158717 -0.01997774
v 0.1258471 0.03207337 -0.02691276
v 0.1304233 0.03898747 -0.02618733
v 0.2755482 0.00321395 0.003830237
v 0.1272319 0.00321395 0.003830237
v 0.1338697 9.536746E-09 1.430511E-08
v 0.0318367 -0.01086666 0.01564526
v 0.03676186 0.00321395 0.003830237
v 0.05156976 0.00321395 0.003830237
v 0.04416581 9.536746E-09 1.430511E-08
v 0.0318367 0.01729454 -0.007984804
v 0.04466072 -0.01653841 0.02040443
v 0.03824871 -0.01691647 0.01419462
v 0.01838093 -0.02117438 0.02429448
v 0.03824871 0.01691648 -0.01419461
v 0.0220829 -0.0293002 0.0245858
v 0.04466072 0.0229663 -0.01274397
v 0.02578488 -0.03099814 0.03253759
v 0.01838093 0.02760227 -0.01663401
v -3.576279E-09 -0.02494727 0.02746031
v 0.0220829 0.02930021 -0.02458579
v -2.980232E-09 -0.03383296 0.02838924
v 0.02578488 0.03742603 -0.02487713
v -2.384186E-09 -0.03629077 0.03697863
v -3.576279E-09 0.03137516 -0.01979984
v -0.01838094 -0.02117437 0.02429447
v -2.980232E-09 0.03383297 -0.02838923
v -0.02208291 -0.0293002 0.0245858
v -2.384186E-09 0.04271865 -0.02931817
v -0.02578488 -0.03099814 0.03253759
v -0.01838094 0.02760227 -0.01663401
v -0.0318367 -0.01086666 0.01564526
v -0.02208291 0.02930021 -0.02458579
v -0.03824871 -0.01691648 0.01419462
v -0.03676187 0.00321395 0.003830237
v -0.04466072 -0.01653841 0.02040443
v -0.02578488 0.03742603 -0.02487713
v -0.04416581 9.536746E-09 1.430511E-08
v -0.0318367 0.01729455 -0.007984809
v -0.03824871 0.01691649 -0.01419461
v -0.04466072 0.0229663 -0.01274397
v -0.05156976 0.00321395 0.003830237
vt 0.5623354 0.6570377
vt 0.569407 0.6673911
vt 0.624096 0.6301048
vt 0.5754542 0.6622144
vt 0.6292214 0.6255565
vt 0.615181 0.6210082
vt 0.6621392 0.5720094
vt 0.6658982 0.5695479
vt 0.6504912 0.5670863
vt 0.6754983 0.5034811
vt 0.6787773 0.5034811
vt 0.6628906 0.5034811
vt 0.6621392 0.4349529
vt 0.6658982 0.4374145
vt 0.6504912 0.439876
vt 0.624096 0.3768575
vt 0.6292214 0.3814058
vt 0.615181 0.3859541
vt 0.5671602 0.3380394
vt 0.5743308 0.343982
vt 0.4999999 0.3244083
vt 0.5623355 0.3499246
vt 0.5095829 0.3308405
vt 0.4999999 0.3372728
vt 0.4376644 0.3499246
vt 0.444835 0.343982
vt 0.4328397 0.3380394
vt 0.3848189 0.3859541
vt 0.3899443 0.3814058
vt 0.3759039 0.3768575
vt 0.3495086 0.4398759
vt 0.3532676 0.4374144
vt 0.3378606 0.4349529
vt 0.3371094 0.5034811
vt 0.3403884 0.5034811
vt 0.3245017 0.5034811
vt 0.3495086 0.5670863
vt 0.3532676 0.5695478
vt 0.3378606 0.5720093
vt 0.3848189 0.6210082
vt 0.3899443 0.6255564
vt 0.3759039 0.6301048
vt 0.4376644 0.6570377
vt 0.4437116 0.6622144
vt 0.4305928 0.6673911
vt 0.4999999 0.8825849
vt 0.4281384 0.7181606
vt 0.4999999 0.9486848
vt 0.5718615 0.7181606
vt 0.5001966 0.9156348
vt 0.4500895 0.7141602
vt 0.5690762 0.7141602
vt 0.4486117 0.7219965
vt 0.4999999 0.6244789
vt 0.4382921 0.6998509
vt 0.5513881 0.7219965
vt 0.5617077 0.6998509
vt 0.3879232 0.7013389
vt 0.6120766 0.701339
vt 0.4999999 0.58814
vt 0.5095829 0.6063091
vt 0.4013466 0.6918784
vt 0.6178191 0.6918784
vt 0.3956042 0.6824178
vt 0.6043957 0.6824179
vt 0.3315555 0.6551859
vt 0.6684445 0.6551861
vt 0.3484453 0.6481845
vt 0.6707205 0.6481847
vt 0.3461692 0.6411833
vt 0.6538306 0.6411833
vt 0.2924166 0.5912163
vt 0.7075833 0.5912163
vt 0.3112713 0.5872976
vt 0.7078946 0.5872977
vt 0.31096 0.5833789
vt 0.6890399 0.583379
vt 0.2753134 0.5034811
vt 0.7246866 0.5034811
vt 0.2949319 0.5034811
vt 0.7242339 0.5034811
vt 0.2953846 0.5034811
vt 0.7046154 0.5034811
vt 0.2924166 0.415746
vt 0.7075833 0.415746
vt 0.3112713 0.4196647
vt 0.7078946 0.4196647
vt 0.31096 0.4235833
vt 0.6890399 0.4235834
vt 0.3279263 0.3547228
vt 0.6720736 0.3547228
vt 0.3450442 0.3613611
vt 0.6741216 0.3613611
vt 0.3429962 0.3679995
vt 0.6570037 0.3679995
vt 0.3757044 0.3120381
vt 0.6242955 0.3120381
vt 0.391366 0.3202029
vt 0.6277998 0.3202029
vt 0.3878617 0.3283677
vt 0.6121382 0.3283677
vt 0.4404341 0.30448
vt 0.4422491 0.2969705
vt 0.4248982 0.2894611
vt 0.5595658 0.30448
vt 0.5769167 0.2969706
vt 0.5751017 0.2894611
vt 0.4999999 0.05131633
vt 0.4999999 0.2946981
vt 0.5095829 0.2838058
vt 0.4704396 0.4512382
vt 0.4999999 0.4431562
vt 0.4999999 0.418857
vt 0.5095829 0.4310066
vt 0.5295603 0.4512382
vt 0.4585325 0.4301945
vt 0.474069 0.4407163
vt 0.4487999 0.4733187
vt 0.5450968 0.4407163
vt 0.448071 0.4672439
vt 0.5414674 0.4301945
vt 0.4281762 0.4611691
vt 0.5512 0.4733187
vt 0.4408792 0.5034811
vt 0.5710948 0.4672439
vt 0.4385551 0.5034811
vt 0.5718237 0.4611691
vt 0.4170651 0.5034811
vt 0.5591207 0.5034811
vt 0.4487999 0.5336436
vt 0.5806108 0.5034811
vt 0.448071 0.5397185
vt 0.5829349 0.5034811
vt 0.4281762 0.5457932
vt 0.5511999 0.5336436
vt 0.4704396 0.555724
vt 0.5710948 0.5397185
vt 0.474069 0.5662459
vt 0.4999999 0.5638061
vt 0.4585325 0.5767679
vt 0.5718237 0.5457932
vt 0.5095829 0.5759557
vt 0.5295603 0.555724
vt 0.5450968 0.5662459
vt 0.5414674 0.5767679
vt 0.4999999 0.5881053
vn 0.307906 -0.4365084 0.8453723
vn -0.9282042 0.2138802 0.3044541
vn -0.6484033 0.7531339 -0.1111867
vn -0.316253 -0.8889648 -0.3312485
vn -0.06895268 -0.5869036 -0.8067154
vn 0.6170242 -0.158712 0.7707733
vn -0.3509135 0.9054053 -0.2389579
vn -0.03731681 -0.5707111 -0.8203026
vn 0.3339308 -0.3036141 0.8923612
vn 0 0.9588759 -0.2838255
vn 0 -0.5650252 -0.8250737
vn 0 -0.3544972 0.935057
vn 0.3509135 0.9054054 -0.2389578
vn 0.03731679 -0.5707111 -0.8203026
vn -0.3339309 -0.3036143 0.8923612
vn 0.6484031 0.753134 -0.1111866
vn 0.06895262 -0.5869037 -0.8067153
vn -0.6170243 -0.1587124 0.7707732
vn 0.8471797 0.5252436 0.08003653
vn 0.09009088 -0.6111382 -0.7863802
vn 0.9169806 0.2564284 0.3055994
vn -0.8061813 0.05814937 0.5888042
vn 0.09751325 -0.6397244 -0.7623935
vn -0.8726041 0.3139558 0.3741577
vn -0.8061811 0.5697616 0.1595108
vn 0.09009054 -0.6683105 -0.7384069
vn 0.8471798 -0.012387 0.531162
vn -0.6170242 0.7866237 -0.02245789
vn 0.06895244 -0.6925448 -0.7180719
vn 0.6484033 -0.2402779 0.7223847
vn -0.3339309 0.9315262 -0.1440454
vn 0.03731653 -0.7087374 -0.7044846
vn 0.3509133 -0.3925493 0.8501558
vn 0 0.9824091 -0.1867414
vn 0 -0.7144236 -0.6997135
vn 0 -0.4460196 0.8950232
vn 0.333931 0.9315261 -0.1440455
vn -0.03731674 -0.7087377 -0.7044845
vn -0.3509132 -0.3925489 0.8501561
vn 0.6170244 0.7866235 -0.02245829
vn -0.06895284 -0.6925449 -0.7180716
vn -0.6484033 -0.2402772 0.722385
vn 0.3079065 0.9083278 -0.28308
vn -0.3162531 -0.171849 -0.9329801
vn -0.9282042 0.2626891 0.2634983
vn 0.5335188 0.5436619 0.6479116
vn -0.6785673 -0.1932726 0.7086552
vn -0.9896364 -0.09230141 -0.1100013
vn -0.6785674 0.7314504 -0.06727942
vn -0.154667 -0.6350528 -0.7568263
vn -0.05983167 -0.6107861 -0.7895317
vn -0.05983173 -0.6714754 -0.7386075
vn 0.03532968 0.9781279 -0.2049819
vn -0.7299678 0.4393336 0.523577
vn 0.7762835 0.04158288 0.629011
vn 0.03532971 -0.3717175 0.9276734
vn 0.7762834 0.6122342 0.1501777
vn -0.8178689 -0.1627834 0.5518984
vn -0.8178691 0.5717807 -0.06447474
vn 0.9896412 0.09228069 0.1099754
vn 0.257901 -0.621043 -0.7401302
vn -0.05968997 -0.6737602 -0.7365354
vn -0.05968994 -0.6083488 -0.791422
vn 0.7933772 0.6070418 -0.04530796
vn 0.7933775 -0.1500312 0.5899516
vn -0.6336007 -0.3481691 0.6908897
vn -0.6336008 0.7408519 -0.2229088
vn -0.04324884 -0.6798912 -0.7320366
vn -0.04324875 -0.602854 -0.7966785
vn 0.6131211 0.7721825 -0.1667832
vn 0.6131212 -0.2983374 0.7314897
vn -0.3521498 -0.4842524 0.8009307
vn -0.35215 0.8728518 -0.3378166
vn -0.0254388 -0.6923919 -0.721073
vn -0.02543884 -0.5898864 -0.8070855
vn 0.3401393 0.900409 -0.2712361
vn 0.3401394 -0.4234701 0.8396297
vn 0 -0.538232 0.8427967
vn 0 0.9234552 -0.3837062
vn 0 -0.7003858 -0.7137645
vn 0 -0.5813007 -0.8136888
vn 0 0.9511058 -0.308865
vn 0 -0.4693309 0.8830223
vn 0.3426178 -0.4852467 0.8044555
vn 0.3426179 0.8764958 -0.3381834
vn 0.02258858 -0.6897336 -0.7237108
vn 0.02258872 -0.5929455 -0.8049257
vn -0.3294124 0.9027671 -0.2765848
vn -0.3294127 -0.429147 0.8410233
vn 0.6099756 -0.3642396 0.7037466
vn 0.6099754 0.7563047 -0.2365019
vn 0.03962842 -0.6795455 -0.7325623
vn 0.03962849 -0.6034315 -0.7964296
vn -0.5940695 0.784146 -0.1794338
vn -0.5940697 -0.3128729 0.7410747
vn 0.7982867 -0.1992626 0.5683597
vn 0.7982866 0.5943267 -0.09754098
vn 0.05165758 -0.6634303 -0.7464527
vn 0.05165783 -0.6199091 -0.7829714
vn -0.7886698 0.6135007 -0.04021003
vn -0.7886701 -0.1461325 0.5971975
vn -0.8974197 0.423518 0.1235731
vn -0.1701489 -0.6258883 -0.7611262
vn 0.7918443 -0.09232215 0.6037045
vn -0.89742 0.04815245 0.4385415
vn -0.1701487 -0.6408789 -0.7485476
vn 0.7918441 0.6105648 0.01391279
vn 0.9994703 0.0209198 0.02493032
vn -0.9283375 0.238949 0.2847683
vn -0.2678299 -0.6193042 -0.7380579
vn -0.8116432 0.5831612 -0.03403192
vn -0.9372048 0.2241914 0.2671806
vn 0.9665982 0.1647441 0.1963342
vn 0.09253734 -0.6400296 -0.7627574
vn -0.8116433 -0.1347792 0.5683922
vn 0.8370987 -0.2054846 0.506993
vn 0.08013945 -0.6754733 -0.7330167
vn -0.4686024 0.845946 -0.2545332
vn 0.08013949 -0.6045861 -0.7924982
vn 0.04626832 -0.7014199 -0.7112449
vn 0.8370987 0.5349725 -0.1143248
vn 0.4832991 -0.4765109 0.7344108
vn -0.4686025 -0.397563 0.788895
vn 0 0.9421319 -0.3352424
vn 0.04626846 -0.5786396 -0.8142699
vn 0 -0.7109168 -0.7032761
vn 0.4832992 0.8059987 -0.3417426
vn 0 -0.5757137 0.8176514
vn 0 -0.4937488 0.8696046
vn 0.4686025 0.845946 -0.2545332
vn 0 -0.5691423 -0.822239
vn -0.04626843 -0.7014199 -0.7112449
vn 0 0.9052011 -0.4249836
vn -0.4832993 -0.476511 0.7344107
vn 0.4686026 -0.3975631 0.788895
vn 0.8116432 0.5831614 -0.03403164
vn -0.04626856 -0.5786394 -0.81427
vn -0.08013961 -0.6754734 -0.7330167
vn 0.9372047 0.2241914 0.2671808
vn -0.8370987 -0.2054846 0.506993
vn -0.4832992 0.8059988 -0.3417425
vn -0.09253722 -0.6400297 -0.7627574
vn 0.8116432 -0.1347793 0.5683924
vn -0.08013953 -0.6045861 -0.7924982
vn -0.8370986 0.5349727 -0.1143246
vn -0.9665982 0.1647442 0.1963345
g CH0243_Halo_0
f 3/3/3 2/2/2 1/1/1
f 1/1/1 2/2/2 4/4/4
f 2/2/2 3/3/3 4/4/4
f 1/1/1 4/4/4 5/5/5
f 3/3/3 5/5/5 4/4/4
f 6/6/6 3/3/3 1/1/1
f 6/6/6 1/1/1 5/5/5
f 3/3/3 7/7/7 5/5/5
f 7/7/7 3/3/3 6/6/6
f 6/6/6 5/5/5 8/8/8
f 7/7/7 8/8/8 5/5/5
f 9/9/9 7/7/7 6/6/6
f 9/9/9 6/6/6 8/8/8
f 7/7/7 10/10/10 8/8/8
f 10/10/10 7/7/7 9/9/9
f 9/9/9 8/8/8 11/11/11
f 10/10/10 11/11/11 8/8/8
f 12/12/12 10/10/10 9/9/9
f 12/12/12 9/9/9 11/11/11
f 10/10/10 13/13/13 11/11/11
f 13/13/13 10/10/10 12/12/12
f 12/12/12 11/11/11 14/14/14
f 13/13/13 14/14/14 11/11/11
f 15/15/15 13/13/13 12/12/12
f 15/15/15 12/12/12 14/14/14
f 13/13/13 16/16/16 14/14/14
f 16/16/16 13/13/13 15/15/15
f 15/15/15 14/14/14 17/17/17
f 16/16/16 17/17/17 14/14/14
f 18/18/18 16/16/16 15/15/15
f 18/18/18 15/15/15 17/17/17
f 16/16/16 19/19/19 17/17/17
f 19/19/19 16/16/16 18/18/18
f 18/18/18 17/17/17 20/20/20
f 19/19/19 20/20/20 17/17/17
f 19/19/19 21/21/21 20/20/20
f 22/22/22 19/19/19 18/18/18
f 22/22/22 18/18/18 20/20/20
f 21/21/21 19/19/19 22/22/22
f 22/22/22 20/20/20 23/23/23
f 21/21/21 23/23/23 20/20/20
f 24/24/24 21/21/21 22/22/22
f 24/24/24 22/22/22 23/23/23
f 25/25/25 24/24/24 23/23/23
f 21/21/21 24/24/24 25/25/25
f 23/23/23 21/21/21 26/26/26
f 26/26/26 25/25/25 23/23/23
f 27/27/27 21/21/21 25/25/25
f 21/21/21 27/27/27 26/26/26
f 28/28/28 25/25/25 26/26/26
f 27/27/27 25/25/25 28/28/28
f 26/26/26 27/27/27 29/29/29
f 29/29/29 28/28/28 26/26/26
f 30/30/30 27/27/27 28/28/28
f 27/27/27 30/30/30 29/29/29
f 31/31/31 28/28/28 29/29/29
f 30/30/30 28/28/28 31/31/31
f 29/29/29 30/30/30 32/32/32
f 32/32/32 31/31/31 29/29/29
f 33/33/33 30/30/30 31/31/31
f 30/30/30 33/33/33 32/32/32
f 34/34/34 31/31/31 32/32/32
f 33/33/33 31/31/31 34/34/34
f 32/32/32 33/33/33 35/35/35
f 35/35/35 34/34/34 32/32/32
f 36/36/36 33/33/33 34/34/34
f 33/33/33 36/36/36 35/35/35
f 37/37/37 34/34/34 35/35/35
f 36/36/36 34/34/34 37/37/37
f 35/35/35 36/36/36 38/38/38
f 38/38/38 37/37/37 35/35/35
f 39/39/39 36/36/36 37/37/37
f 36/36/36 39/39/39 38/38/38
f 40/40/40 37/37/37 38/38/38
f 39/39/39 37/37/37 40/40/40
f 38/38/38 39/39/39 41/41/41
f 41/41/41 40/40/40 38/38/38
f 42/42/42 39/39/39 40/40/40
f 39/39/39 42/42/42 41/41/41
f 43/43/43 40/40/40 41/41/41
f 42/42/42 40/40/40 43/43/43
f 41/41/41 42/42/42 44/44/44
f 44/44/44 43/43/43 41/41/41
f 45/45/45 42/42/42 43/43/43
f 42/42/42 45/45/45 44/44/44
f 45/45/45 43/43/43 44/44/44
f 48/48/48 47/47/47 46/46/46
f 49/49/49 48/48/48 46/46/46
f 47/47/47 48/48/48 50/50/50
f 48/48/48 49/49/49 50/50/50
f 50/50/50 46/46/46 51/51/51
f 51/51/51 47/47/47 50/50/50
f 49/49/49 52/52/52 50/50/50
f 46/46/46 50/50/50 52/52/52
f 47/47/47 53/53/53 46/46/46
f 46/46/46 53/53/53 51/51/51
f 53/53/53 54/54/54 51/51/51
f 53/53/53 47/47/47 55/55/55
f 54/54/54 53/53/53 55/55/55
f 56/56/56 49/49/49 46/46/46
f 56/56/56 46/46/46 52/52/52
f 56/56/56 52/52/52 54/54/54
f 49/49/49 56/56/56 57/57/57
f 56/56/56 54/54/54 57/57/57
f 58/58/58 47/47/47 51/51/51
f 47/47/47 58/58/58 55/55/55
f 49/49/49 59/59/59 52/52/52
f 59/59/59 49/49/49 57/57/57
f 60/60/60 54/54/54 55/55/55
f 54/54/54 60/60/60 57/57/57
f 54/54/54 61/61/61 51/51/51
f 52/52/52 61/61/61 54/54/54
f 60/60/60 55/55/55 61/61/61
f 60/60/60 61/61/61 57/57/57
f 55/55/55 51/51/51 61/61/61
f 61/61/61 52/52/52 57/57/57
f 51/51/51 55/55/55 62/62/62
f 62/62/62 58/58/58 51/51/51
f 57/57/57 52/52/52 63/63/63
f 59/59/59 63/63/63 52/52/52
f 58/58/58 64/64/64 55/55/55
f 55/55/55 64/64/64 62/62/62
f 65/65/65 59/59/59 57/57/57
f 65/65/65 57/57/57 63/63/63
f 66/66/66 58/58/58 62/62/62
f 58/58/58 66/66/66 64/64/64
f 59/59/59 67/67/67 63/63/63
f 67/67/67 59/59/59 65/65/65
f 62/62/62 64/64/64 68/68/68
f 68/68/68 66/66/66 62/62/62
f 65/65/65 63/63/63 69/69/69
f 67/67/67 69/69/69 63/63/63
f 66/66/66 70/70/70 64/64/64
f 64/64/64 70/70/70 68/68/68
f 71/71/71 67/67/67 65/65/65
f 71/71/71 65/65/65 69/69/69
f 72/72/72 66/66/66 68/68/68
f 66/66/66 72/72/72 70/70/70
f 67/67/67 73/73/73 69/69/69
f 73/73/73 67/67/67 71/71/71
f 68/68/68 70/70/70 74/74/74
f 74/74/74 72/72/72 68/68/68
f 71/71/71 69/69/69 75/75/75
f 73/73/73 75/75/75 69/69/69
f 72/72/72 76/76/76 70/70/70
f 70/70/70 76/76/76 74/74/74
f 77/77/77 73/73/73 71/71/71
f 77/77/77 71/71/71 75/75/75
f 78/78/78 72/72/72 74/74/74
f 72/72/72 78/78/78 76/76/76
f 73/73/73 79/79/79 75/75/75
f 79/79/79 73/73/73 77/77/77
f 74/74/74 76/76/76 80/80/80
f 80/80/80 78/78/78 74/74/74
f 77/77/77 75/75/75 81/81/81
f 79/79/79 81/81/81 75/75/75
f 78/78/78 82/82/82 76/76/76
f 76/76/76 82/82/82 80/80/80
f 83/83/83 79/79/79 77/77/77
f 83/83/83 77/77/77 81/81/81
f 84/84/84 78/78/78 80/80/80
f 78/78/78 84/84/84 82/82/82
f 79/79/79 85/85/85 81/81/81
f 85/85/85 79/79/79 83/83/83
f 80/80/80 82/82/82 86/86/86
f 86/86/86 84/84/84 80/80/80
f 83/83/83 81/81/81 87/87/87
f 85/85/85 87/87/87 81/81/81
f 84/84/84 88/88/88 82/82/82
f 82/82/82 88/88/88 86/86/86
f 89/89/89 85/85/85 83/83/83
f 89/89/89 83/83/83 87/87/87
f 90/90/90 84/84/84 86/86/86
f 84/84/84 90/90/90 88/88/88
f 85/85/85 91/91/91 87/87/87
f 91/91/91 85/85/85 89/89/89
f 86/86/86 88/88/88 92/92/92
f 92/92/92 90/90/90 86/86/86
f 89/89/89 87/87/87 93/93/93
f 91/91/91 93/93/93 87/87/87
f 90/90/90 94/94/94 88/88/88
f 88/88/88 94/94/94 92/92/92
f 95/95/95 91/91/91 89/89/89
f 95/95/95 89/89/89 93/93/93
f 96/96/96 90/90/90 92/92/92
f 90/90/90 96/96/96 94/94/94
f 91/91/91 97/97/97 93/93/93
f 97/97/97 91/91/91 95/95/95
f 92/92/92 94/94/94 98/98/98
f 98/98/98 96/96/96 92/92/92
f 95/95/95 93/93/93 99/99/99
f 97/97/97 99/99/99 93/93/93
f 96/96/96 100/100/100 94/94/94
f 94/94/94 100/100/100 98/98/98
f 101/101/101 97/97/97 95/95/95
f 101/101/101 95/95/95 99/99/99
f 100/100/100 96/96/96 102/102/102
f 98/98/98 100/100/100 103/103/103
f 100/100/100 102/102/102 103/103/103
f 104/104/104 96/96/96 98/98/98
f 103/103/103 104/104/104 98/98/98
f 96/96/96 104/104/104 102/102/102
f 97/97/97 101/101/101 105/105/105
f 101/101/101 99/99/99 106/106/106
f 105/105/105 101/101/101 106/106/106
f 97/97/97 107/107/107 99/99/99
f 107/107/107 106/106/106 99/99/99
f 107/107/107 97/97/97 105/105/105
f 108/108/108 104/104/104 103/103/103
f 107/107/107 108/108/108 106/106/106
f 102/102/102 104/104/104 109/109/109
f 104/104/104 108/108/108 109/109/109
f 107/107/107 105/105/105 109/109/109
f 108/108/108 107/107/107 109/109/109
f 110/110/110 108/108/108 103/103/103
f 108/108/108 110/110/110 106/106/106
f 103/103/103 102/102/102 110/110/110
f 105/105/105 106/106/106 110/110/110
f 102/102/102 109/109/109 110/110/110
f 109/109/109 105/105/105 110/110/110
f 113/113/113 112/112/112 111/111/111
f 111/111/111 112/112/112 114/114/114
f 112/112/112 113/113/113 115/115/115
f 112/112/112 115/115/115 114/114/114
f 116/116/116 113/113/113 111/111/111
f 117/117/117 111/111/111 114/114/114
f 114/114/114 113/113/113 117/117/117
f 113/113/113 116/116/116 117/117/117
f 118/118/118 111/111/111 117/117/117
f 116/116/116 111/111/111 118/118/118
f 113/113/113 114/114/114 119/119/119
f 115/115/115 119/119/119 114/114/114
f 117/117/117 116/116/116 120/120/120
f 120/120/120 118/118/118 117/117/117
f 113/113/113 121/121/121 115/115/115
f 121/121/121 113/113/113 119/119/119
f 122/122/122 116/116/116 118/118/118
f 116/116/116 122/122/122 120/120/120
f 115/115/115 123/123/123 119/119/119
f 115/115/115 121/121/121 123/123/123
f 124/124/124 118/118/118 120/120/120
f 122/122/122 118/118/118 124/124/124
f 121/121/121 119/119/119 125/125/125
f 123/123/123 125/125/125 119/119/119
f 120/120/120 122/122/122 126/126/126
f 126/126/126 124/124/124 120/120/120
f 121/121/121 127/127/127 123/123/123
f 127/127/127 121/121/121 125/125/125
f 128/128/128 122/122/122 124/124/124
f 122/122/122 128/128/128 126/126/126
f 123/123/123 129/129/129 125/125/125
f 123/123/123 127/127/127 129/129/129
f 130/130/130 124/124/124 126/126/126
f 128/128/128 124/124/124 130/130/130
f 127/127/127 125/125/125 131/131/131
f 129/129/129 131/131/131 125/125/125
f 126/126/126 128/128/128 132/132/132
f 132/132/132 130/130/130 126/126/126
f 127/127/127 133/133/133 129/129/129
f 133/133/133 127/127/127 131/131/131
f 134/134/134 128/128/128 130/130/130
f 128/128/128 134/134/134 132/132/132
f 129/129/129 135/135/135 131/131/131
f 129/129/129 133/133/133 135/135/135
f 136/136/136 130/130/130 132/132/132
f 134/134/134 130/130/130 136/136/136
f 133/133/133 131/131/131 137/137/137
f 135/135/135 137/137/137 131/131/131
f 132/132/132 134/134/134 138/138/138
f 138/138/138 136/136/136 132/132/132
f 139/139/139 136/136/136 138/138/138
f 140/140/140 134/134/134 136/136/136
f 134/134/134 140/140/140 138/138/138
f 140/140/140 136/136/136 139/139/139
f 133/133/133 141/141/141 135/135/135
f 141/141/141 133/133/133 137/137/137
f 138/138/138 140/140/140 142/142/142
f 142/142/142 139/139/139 138/138/138
f 135/135/135 143/143/143 137/137/137
f 135/135/135 141/141/141 143/143/143
f 141/141/141 137/137/137 144/144/144
f 143/143/143 144/144/144 137/137/137
f 143/143/143 139/139/139 144/144/144
f 139/139/139 142/142/142 144/144/144
f 141/141/141 145/145/145 143/143/143
f 145/145/145 141/141/141 144/144/144
f 145/145/145 144/144/144 142/142/142
f 143/143/143 145/145/145 139/139/139
f 146/146/146 140/140/140 139/139/139
f 140/140/140 146/146/146 142/142/142
f 145/145/145 146/146/146 139/139/139
f 146/146/146 145/145/145 142/142/142
