g Ibuki_Original_Halo
v -0.06434721 0.1009945 -0.07471137
v -0.09315429 0.07481734 -0.05274612
v -0.1166794 0.1009548 -0.07493751
v -0.07868545 0.08442242 -0.06800071
v -0.1021144 0.1141902 -0.08604332
v -0.1093639 0.1058112 -0.0826503
v -0.1554319 0.1373864 -0.1053285
v -0.1061934 -0.01324708 0.02046634
v -0.07637676 -0.0402384 0.0431148
v -0.1134443 -0.05405387 0.05452722
v -0.09135262 -0.03034038 0.0273788
v -0.1300009 -0.0390661 0.04195102
v -0.1217602 -0.04855768 0.04578936
v -0.1738492 -0.08025402 0.07671442
v 0.1554319 0.1373864 -0.1053285
v 0.1093639 0.1058112 -0.08265032
v 0.1166794 0.1009548 -0.07493751
v 0.1021144 0.1141902 -0.08604328
v 0.07868543 0.08442242 -0.0680007
v 0.06434719 0.1009945 -0.07471138
v 0.09315427 0.07481734 -0.05274608
v 0.1735265 -0.07840628 0.0759826
v 0.1214374 -0.04670995 0.04505749
v 0.1131216 -0.05220615 0.05379542
v 0.1296782 -0.03721837 0.04121916
v 0.09102987 -0.02849265 0.02664697
v 0.1058706 -0.01139935 0.01973452
v 0.076054 -0.03839067 0.04238298
v -7.717077E-09 -0.08962823 0.08533895
v -0.0235275 -0.07939336 0.07675085
v -0.04199683 -0.04440637 0.04739326
v -7.717076E-09 -0.09258073 0.08182023
v -0.009969908 -0.118062 0.1091976
v -7.717077E-09 -0.1659508 0.1493812
v 0.009969893 -0.118062 0.1091977
v 0.02352749 -0.07939336 0.07675084
v 0.04199682 -0.04440637 0.04739326
v 0.0124302 0.07876086 -0.0562401
v -7.081339E-09 0.1030085 -0.08162741
v -5.829066E-09 0.07734649 -0.0579257
v -7.081339E-09 0.03422068 -0.01878294
v -5.990117E-09 0.1054904 -0.07866942
v -0.01243022 0.07876086 -0.05624012
v 0.02217663 0.1055318 -0.07862015
v -0.02217665 0.1055318 -0.07862014
v 0.01208049 0.1320626 -0.1010621
v -0.01208049 0.1320626 -0.1010621
v -7.08134E-09 0.176843 -0.1384574
v -5.486414E-09 0.130688 -0.1027003
v 0.08330985 0.08892143 -0.06451309
v 0.09263659 0.05855135 -0.04440768
v 0.1021947 0.06386452 -0.04348784
v 0.07551801 0.0812647 -0.06346646
v 0.1087534 0.03537082 -0.01957878
v 0.07551801 0.08504317 -0.05896347
v 0.09263659 0.06232981 -0.03990467
v 0.09858181 0.03650108 -0.01823178
v 0.09858181 0.03272261 -0.02273478
v 0.05437662 0.1075193 -0.08011858
v 0.04929085 0.09812316 -0.07761239
v 0.04929085 0.1019016 -0.0731094
v 0.0926366 0.006893928 -0.001061923
v 0.0926366 0.01067239 0.003441076
v 0.1021947 0.006877153 0.004330263
v 0.01888476 0.117415 -0.0884221
v 0.01711849 0.1070933 -0.08513929
v 0.01711849 0.1108718 -0.08063629
v 0.07551806 -0.01204098 0.02249986
v 0.07551806 -0.01581943 0.01799686
v 0.0833099 -0.01817975 0.0253555
v -0.01888488 0.117415 -0.08842207
v -0.01711861 0.1070933 -0.08513928
v -0.01711861 0.1108718 -0.08063627
v 0.0492909 -0.02889945 0.03664581
v 0.0492909 -0.03267791 0.0321428
v 0.05437667 -0.03677765 0.04096101
v -0.05437672 0.1075193 -0.08011856
v -0.04929095 0.09812311 -0.07761236
v -0.04929095 0.1019016 -0.07310935
v 0.01711853 -0.03786967 0.04417271
v 0.01711853 -0.04164813 0.03966971
v 0.01888481 -0.0466734 0.04926454
v -0.08330993 0.08892136 -0.06451305
v -0.07551807 0.08126464 -0.0634664
v -0.07551807 0.08504312 -0.0589634
v -0.01711858 -0.03786967 0.04417271
v -0.01711858 -0.04164813 0.03966971
v -0.01888485 -0.0466734 0.04926454
v -0.1021947 0.06386446 -0.04348779
v -0.09263663 0.05855129 -0.04440762
v -0.09263663 0.06232975 -0.03990463
v -0.04929092 -0.02889945 0.0366458
v -0.04929092 -0.03267791 0.0321428
v -0.0543767 -0.03677765 0.04096101
v -0.1087534 0.0353708 -0.01957877
v -0.09858183 0.0327226 -0.02273477
v -0.09858183 0.03650107 -0.01823177
v -0.07551806 -0.01204098 0.02249986
v -0.07551806 -0.01581943 0.01799686
v -0.08330993 -0.01817975 0.0253555
v -0.1021947 0.006877153 0.004330263
v -0.09263662 0.006893921 -0.001061921
v -0.09263662 0.01067238 0.003441079
vt 0.9322336 0.1360169
vt 0.8777649 0.2366081
vt 0.8457338 0.3001561
vt 0.9052516 0.1859554
vt 0.8797766 0.2372866
vt 0.8629129 0.2684982
vt 0.7923484 0.4060695
vt 0.6046221 0.5189568
vt 0.4962452 0.5776412
vt 0.465462 0.6610154
vt 0.5508184 0.5480272
vt 0.5331975 0.6243377
vt 0.4995702 0.6425067
vt 0.4141565 0.7999725
vt 0.7923484 0.4060695
vt 0.8629129 0.2684982
vt 0.8457338 0.3001561
vt 0.8797766 0.2372866
vt 0.9052516 0.1859554
vt 0.9322336 0.1360169
vt 0.8777649 0.2366081
vt 0.4141565 0.7999725
vt 0.4995702 0.6425067
vt 0.465462 0.6610154
vt 0.5331975 0.6243377
vt 0.5508184 0.5480272
vt 0.6046221 0.5189568
vt 0.4962452 0.5776412
vt 0.2943715 0.701059
vt 0.3144912 0.6520749
vt 0.4265786 0.5173287
vt 0.2944702 0.7009602
vt 0.1922664 0.7909328
vt 0.03671357 0.9587167
vt 0.2044978 0.8031642
vt 0.3433556 0.6809393
vt 0.4781017 0.568852
vt 0.8477131 0.1681009
vt 0.9239106 0.07151999
vt 0.8375793 0.1578513
vt 0.6936938 0.3017369
vt 0.6925405 0.3028902
vt 0.8273296 0.1477174
vt 0.9401248 0.08791938
vt 0.9075112 0.05530577
vt 0.8466485 0.1691656
vt 0.8262651 0.1487821
vt 0.6908548 0.3045759
vt 0.8365147 0.158916
vt 0.9092858 0.1978548
vt 0.8340596 0.2855872
vt 0.8482206 0.2842428
vt 0.8894135 0.2072791
vt 0.7687789 0.3724789
vt 0.8892871 0.2074055
vt 0.8339332 0.2857137
vt 0.7619215 0.3656973
vt 0.7620479 0.3655708
vt 0.9446094 0.1237347
vt 0.9214334 0.1400912
vt 0.921307 0.1402176
vt 0.6820646 0.4375824
vt 0.6819381 0.4377088
vt 0.6805428 0.4519205
vt 0.9499309 0.07082232
vt 0.9262571 0.0921277
vt 0.9261307 0.09225409
vt 0.6036299 0.4930627
vt 0.6037563 0.4929362
vt 0.594155 0.5129858
vt 0.9246082 0.0454997
vt 0.9033028 0.06917345
vt 0.9031764 0.0692999
vt 0.5364421 0.5250825
vt 0.5365686 0.524956
vt 0.5200348 0.5483095
vt 0.8716959 0.05082109
vt 0.8553392 0.07399722
vt 0.8552128 0.07412364
vt 0.4884785 0.5299062
vt 0.488605 0.5297797
vt 0.4671224 0.5536308
vt 0.7975757 0.08614474
vt 0.7881515 0.106017
vt 0.788025 0.1061435
vt 0.4655243 0.5069519
vt 0.4656508 0.5068254
vt 0.4417998 0.5283081
vt 0.7111877 0.14721
vt 0.7098433 0.161371
vt 0.7097168 0.1614974
vt 0.470348 0.4589883
vt 0.4704745 0.4588619
vt 0.4471212 0.4753957
vt 0.6229517 0.2266515
vt 0.6298598 0.2333824
vt 0.6297334 0.2335089
vt 0.502368 0.3918005
vt 0.5024945 0.391674
vt 0.4824448 0.4012756
vt 0.5435101 0.3148876
vt 0.5578483 0.3133659
vt 0.5577219 0.3134923
vn 0.9132137 0.3651528 -0.1808434
vn -0.2359465 -0.6795238 0.6946774
vn -0.7978385 -0.3722836 0.4741927
vn 0.4848657 -0.8095918 -0.3308572
vn 0.4465398 0.7590771 -0.4737131
vn -0.04197046 -0.6136524 -0.7884601
vn -0.7646627 0.5048886 -0.4004728
vn -0.2311291 0.8033555 -0.5488163
vn 0.9166325 -0.2362487 0.322446
vn 0.4571401 -0.5952145 0.6608651
vn 0.4837458 -0.1822998 -0.8560121
vn -0.7928669 0.5371199 -0.2878616
vn -0.04208855 -0.6680859 -0.7428928
vn -0.7630309 -0.4835269 0.4289355
vn 0.7646611 0.5049002 -0.4004613
vn 0.04196993 -0.6136519 -0.7884604
vn 0.7978371 -0.3722844 0.4741943
vn -0.4465406 0.759078 -0.473711
vn -0.4848657 -0.8095917 -0.3308575
vn -0.9132122 0.3651553 -0.1808454
vn 0.2359457 -0.6795234 0.6946781
vn 0.7630353 -0.4834952 0.4289634
vn 0.04208839 -0.6680862 -0.7428927
vn -0.4571402 -0.5952139 0.6608656
vn 0.7928658 0.5371211 -0.2878624
vn -0.4837465 -0.1822987 -0.8560119
vn 0.2311282 0.8033555 -0.5488165
vn -0.9166316 -0.2362505 0.3224475
vn 0 0.8646516 0.502372
vn -0.9255484 -0.364426 0.1027323
vn -0.5140235 0.6705275 -0.5349512
vn 1.172863E-07 -0.4032992 -0.9150682
vn -0.9750856 -0.03893842 0.2183844
vn -1.223967E-05 -0.7560208 0.6545475
vn 0.9750853 -0.03893676 0.2183862
vn 0.9255484 -0.3644266 0.1027301
vn 0.5141817 0.670431 -0.53492
vn 0.9673846 -0.123042 0.2214222
vn 0 -0.6428442 -0.7659969
vn 2.455404E-07 -0.6753103 -0.7375337
vn 0 -0.7572235 0.6531559
vn 0 0.6434246 0.7655095
vn -0.9673846 -0.1230421 0.2214217
vn 0.9969405 0.05362173 0.05687146
vn -0.9969406 0.05362045 0.05687098
vn 0.9687015 0.2341664 -0.08236299
vn -0.9687015 0.2341665 -0.08236295
vn -9.525035E-07 0.7750093 -0.6319499
vn 0 -0.6090788 -0.7931098
vn 0.7624419 0.5523494 -0.3370347
vn -0.4594181 -0.6888224 -0.5607662
vn 0.9352741 0.3230312 -0.1446139
vn -0.3745213 -0.8014662 -0.4662464
vn 0.9952981 0.0622601 0.0741985
vn -0.4509963 0.2296871 0.8624652
vn -0.5532295 0.3653325 0.748645
vn -0.5887345 0.5195824 0.6192139
vn -0.4889032 -0.5607283 -0.6682495
vn 0.4976484 0.7225553 -0.4798541
vn -0.2444514 -0.8850738 -0.3960909
vn -0.2943665 0.1290082 0.9469453
vn -0.459419 -0.4326344 -0.775733
vn -0.5532292 0.6738323 0.4897829
vn 0.9352742 -0.1985107 0.2930112
vn 0.1728313 0.8131195 -0.5558471
vn -0.08489694 -0.9295599 -0.3587631
vn -0.1022325 0.07543708 0.991896
vn -0.4509962 0.8094776 0.3759634
vn -0.3745218 -0.3199901 -0.8702527
vn 0.7624424 -0.4278288 0.4854318
vn -0.1728321 0.8131195 -0.5558468
vn 0.08489714 -0.9295594 -0.3587642
vn 0.1022331 0.0754373 0.991896
vn -0.2943667 0.910157 0.2914833
vn -0.2444518 -0.2363825 -0.9404077
vn 0.4976488 -0.5980344 0.6282518
vn -0.4976491 0.7225544 -0.4798546
vn 0.244452 -0.8850732 -0.3960918
vn 0.2943678 0.1290076 0.9469449
vn -0.1022326 0.9637274 0.2465322
vn -0.08489721 -0.1918963 -0.9777363
vn 0.1728318 -0.6885991 0.7042447
vn -0.7624426 0.5523483 -0.3370352
vn 0.3745217 -0.8014662 -0.4662461
vn 0.4509965 0.2296875 0.8624649
vn 0.1022327 0.9637274 0.2465321
vn 0.08489731 -0.1918965 -0.9777363
vn -0.1728318 -0.6885991 0.7042447
vn -0.9352743 0.3230304 -0.1446141
vn 0.4594185 -0.6888222 -0.560766
vn 0.5532292 0.3653327 0.7486451
vn 0.2943673 0.910157 0.2914829
vn 0.2444521 -0.2363827 -0.9404076
vn -0.4976492 -0.5980344 0.6282517
vn -0.9952981 0.06226007 0.07419869
vn 0.4889031 -0.5607283 -0.6682497
vn 0.5887344 0.5195825 0.6192138
vn 0.4509964 0.8094776 0.3759631
vn 0.3745221 -0.3199899 -0.8702527
vn -0.7624425 -0.4278287 0.4854318
vn -0.9352743 -0.1985107 0.2930111
vn 0.4594188 -0.4326342 -0.7757332
vn 0.5532291 0.6738326 0.4897828
g Ibuki_Original_Halo_0
f 3/3/3 2/2/2 1/1/1
f 2/2/2 4/4/4 1/1/1
f 4/4/4 2/2/2 3/3/3
f 5/5/5 1/1/1 4/4/4
f 5/5/5 3/3/3 1/1/1
f 6/6/6 5/5/5 4/4/4
f 6/6/6 4/4/4 3/3/3
f 6/6/6 7/7/7 5/5/5
f 6/6/6 3/3/3 7/7/7
f 5/5/5 7/7/7 3/3/3
f 10/10/10 9/9/9 8/8/8
f 9/9/9 11/11/11 8/8/8
f 11/11/11 9/9/9 10/10/10
f 12/12/12 8/8/8 11/11/11
f 12/12/12 10/10/10 8/8/8
f 13/13/13 12/12/12 11/11/11
f 13/13/13 11/11/11 10/10/10
f 13/13/13 14/14/14 12/12/12
f 13/13/13 10/10/10 14/14/14
f 12/12/12 14/14/14 10/10/10
f 17/17/17 16/16/16 15/15/15
f 15/15/15 16/16/16 18/18/18
f 15/15/15 18/18/18 17/17/17
f 16/16/16 19/19/19 18/18/18
f 19/19/19 16/16/16 17/17/17
f 19/19/19 20/20/20 18/18/18
f 18/18/18 20/20/20 17/17/17
f 21/21/21 19/19/19 17/17/17
f 20/20/20 21/21/21 17/17/17
f 20/20/20 19/19/19 21/21/21
f 24/24/24 23/23/23 22/22/22
f 22/22/22 23/23/23 25/25/25
f 22/22/22 25/25/25 24/24/24
f 23/23/23 26/26/26 25/25/25
f 26/26/26 23/23/23 24/24/24
f 26/26/26 27/27/27 25/25/25
f 25/25/25 27/27/27 24/24/24
f 28/28/28 26/26/26 24/24/24
f 27/27/27 28/28/28 24/24/24
f 27/27/27 26/26/26 28/28/28
f 31/31/31 30/30/30 29/29/29
f 32/32/32 30/30/30 31/31/31
f 31/31/31 29/29/29 32/32/32
f 30/30/30 33/33/33 29/29/29
f 33/33/33 30/30/30 32/32/32
f 33/33/33 34/34/34 29/29/29
f 34/34/34 33/33/33 32/32/32
f 34/34/34 35/35/35 29/29/29
f 35/35/35 34/34/34 32/32/32
f 35/35/35 36/36/36 29/29/29
f 36/36/36 35/35/35 32/32/32
f 36/36/36 37/37/37 29/29/29
f 36/36/36 32/32/32 37/37/37
f 32/32/32 29/29/29 37/37/37
f 40/40/40 39/39/39 38/38/38
f 41/41/41 40/40/40 38/38/38
f 41/41/41 38/38/38 42/42/42
f 41/41/41 43/43/43 40/40/40
f 40/40/40 43/43/43 39/39/39
f 41/41/41 42/42/42 43/43/43
f 39/39/39 44/44/44 38/38/38
f 38/38/38 44/44/44 42/42/42
f 43/43/43 45/45/45 39/39/39
f 43/43/43 42/42/42 45/45/45
f 44/44/44 46/46/46 42/42/42
f 44/44/44 39/39/39 46/46/46
f 45/45/45 42/42/42 47/47/47
f 45/45/45 47/47/47 39/39/39
f 42/42/42 46/46/46 48/48/48
f 47/47/47 42/42/42 48/48/48
f 39/39/39 49/49/49 46/46/46
f 46/46/46 49/49/49 48/48/48
f 49/49/49 47/47/47 48/48/48
f 47/47/47 49/49/49 39/39/39
f 52/52/52 51/51/51 50/50/50
f 51/51/51 53/53/53 50/50/50
f 51/51/51 52/52/52 54/54/54
f 52/52/52 50/50/50 55/55/55
f 54/54/54 52/52/52 56/56/56
f 56/56/56 52/52/52 55/55/55
f 56/56/56 55/55/55 53/53/53
f 51/51/51 56/56/56 53/53/53
f 57/57/57 56/56/56 51/51/51
f 57/57/57 54/54/54 56/56/56
f 58/58/58 51/51/51 54/54/54
f 58/58/58 57/57/57 51/51/51
f 50/50/50 53/53/53 59/59/59
f 53/53/53 55/55/55 60/60/60
f 53/53/53 60/60/60 59/59/59
f 55/55/55 50/50/50 61/61/61
f 50/50/50 59/59/59 61/61/61
f 55/55/55 61/61/61 60/60/60
f 62/62/62 58/58/58 54/54/54
f 63/63/63 57/57/57 58/58/58
f 62/62/62 63/63/63 58/58/58
f 64/64/64 54/54/54 57/57/57
f 63/63/63 64/64/64 57/57/57
f 64/64/64 62/62/62 54/54/54
f 59/59/59 60/60/60 65/65/65
f 60/60/60 61/61/61 66/66/66
f 60/60/60 66/66/66 65/65/65
f 61/61/61 59/59/59 67/67/67
f 59/59/59 65/65/65 67/67/67
f 61/61/61 67/67/67 66/66/66
f 68/68/68 63/63/63 62/62/62
f 69/69/69 62/62/62 64/64/64
f 69/69/69 68/68/68 62/62/62
f 70/70/70 64/64/64 63/63/63
f 68/68/68 70/70/70 63/63/63
f 70/70/70 69/69/69 64/64/64
f 65/65/65 66/66/66 71/71/71
f 66/66/66 67/67/67 72/72/72
f 66/66/66 72/72/72 71/71/71
f 67/67/67 65/65/65 73/73/73
f 65/65/65 71/71/71 73/73/73
f 67/67/67 73/73/73 72/72/72
f 74/74/74 68/68/68 69/69/69
f 75/75/75 69/69/69 70/70/70
f 75/75/75 74/74/74 69/69/69
f 76/76/76 70/70/70 68/68/68
f 74/74/74 76/76/76 68/68/68
f 76/76/76 75/75/75 70/70/70
f 71/71/71 72/72/72 77/77/77
f 72/72/72 73/73/73 78/78/78
f 72/72/72 78/78/78 77/77/77
f 73/73/73 71/71/71 79/79/79
f 71/71/71 77/77/77 79/79/79
f 73/73/73 79/79/79 78/78/78
f 80/80/80 74/74/74 75/75/75
f 81/81/81 75/75/75 76/76/76
f 81/81/81 80/80/80 75/75/75
f 82/82/82 76/76/76 74/74/74
f 80/80/80 82/82/82 74/74/74
f 82/82/82 81/81/81 76/76/76
f 77/77/77 78/78/78 83/83/83
f 78/78/78 79/79/79 84/84/84
f 78/78/78 84/84/84 83/83/83
f 79/79/79 77/77/77 85/85/85
f 77/77/77 83/83/83 85/85/85
f 79/79/79 85/85/85 84/84/84
f 86/86/86 80/80/80 81/81/81
f 87/87/87 81/81/81 82/82/82
f 87/87/87 86/86/86 81/81/81
f 88/88/88 82/82/82 80/80/80
f 86/86/86 88/88/88 80/80/80
f 88/88/88 87/87/87 82/82/82
f 83/83/83 84/84/84 89/89/89
f 84/84/84 85/85/85 90/90/90
f 84/84/84 90/90/90 89/89/89
f 85/85/85 83/83/83 91/91/91
f 83/83/83 89/89/89 91/91/91
f 85/85/85 91/91/91 90/90/90
f 92/92/92 86/86/86 87/87/87
f 93/93/93 87/87/87 88/88/88
f 93/93/93 92/92/92 87/87/87
f 94/94/94 88/88/88 86/86/86
f 92/92/92 94/94/94 86/86/86
f 94/94/94 93/93/93 88/88/88
f 89/89/89 90/90/90 95/95/95
f 90/90/90 91/91/91 96/96/96
f 90/90/90 96/96/96 95/95/95
f 91/91/91 89/89/89 97/97/97
f 89/89/89 95/95/95 97/97/97
f 91/91/91 97/97/97 96/96/96
f 98/98/98 92/92/92 93/93/93
f 99/99/99 93/93/93 94/94/94
f 99/99/99 98/98/98 93/93/93
f 100/100/100 94/94/94 92/92/92
f 98/98/98 100/100/100 92/92/92
f 100/100/100 99/99/99 94/94/94
f 95/95/95 96/96/96 101/101/101
f 101/101/101 100/100/100 98/98/98
f 96/96/96 97/97/97 102/102/102
f 96/96/96 102/102/102 101/101/101
f 102/102/102 99/99/99 100/100/100
f 101/101/101 102/102/102 100/100/100
f 95/95/95 101/101/101 103/103/103
f 103/103/103 101/101/101 98/98/98
f 97/97/97 95/95/95 103/103/103
f 103/103/103 98/98/98 99/99/99
f 102/102/102 103/103/103 99/99/99
f 97/97/97 103/103/103 102/102/102
