g CH0335_Halo
v 0.04527091 0.1641602 1.081021
v -0.003143945 0.1641602 1.081021
v -0.003143945 0.1759572 1.071122
v 0.04527091 0.1759572 1.071122
v -0.003143945 0.1727433 1.067292
v 0.04527091 0.1727433 1.067292
v 0.04527091 0.1609462 1.077191
v -0.003143945 0.1609462 1.077191
v -0.08200899 0.1745019 1.072049
v -0.1135591 0.1745019 1.072049
v -0.1275591 0.1852265 1.06305
v -0.08200899 0.171288 1.068219
v -0.06800899 0.1852265 1.06305
v -0.08200899 0.1651474 1.073371
v -0.08200899 0.1683614 1.077201
v -0.1135591 0.171288 1.068219
v -0.1275591 0.1576367 1.086201
v -0.1135591 0.1683614 1.077201
v -0.1275591 0.1820126 1.05922
v -0.1275591 0.1544228 1.08237
v -0.06800899 0.1544228 1.08237
v -0.1135591 0.1651474 1.073371
v -0.06800899 0.1820126 1.05922
v -0.06800899 0.1576367 1.086201
v 0.08121179 0.331816 0.9193853
v -0.003480029 0.331816 0.9193853
v -0.01748003 0.3425407 0.9103863
v 0.08121179 0.3286021 0.915555
v 0.09521179 0.3425407 0.9103863
v 0.08121179 0.2619798 0.9714579
v 0.08121179 0.2651937 0.9752881
v -0.003480029 0.3286021 0.915555
v -0.01748003 0.2544691 0.9842871
v -0.003480029 0.2651937 0.9752881
v -0.01748003 0.3393267 0.906556
v -0.01748003 0.2512551 0.9804569
v 0.09521179 0.2512551 0.9804569
v -0.003480029 0.2619798 0.9714579
v 0.09521179 0.3393267 0.906556
v 0.09521179 0.2544691 0.9842871
v -0.002038336 0.307808 0.9683077
v -0.1244461 0.307808 0.9683077
v -0.1409661 0.320463 0.9576889
v -0.002038336 0.304594 0.9644775
v 0.01448166 0.320463 0.9576889
v -0.002038336 0.2061726 1.047063
v -0.002038336 0.2093866 1.050893
v -0.1244461 0.304594 0.9644775
v -0.1409661 0.1967315 1.061512
v -0.1244461 0.2093866 1.050893
v -0.1409661 0.3172491 0.9538586
v -0.1409661 0.1935176 1.057682
v 0.01448166 0.1935176 1.057682
v -0.1244461 0.2061726 1.047063
v 0.01448166 0.3172491 0.9538586
v 0.01448166 0.1967315 1.061512
v 0.1166691 0.2727781 0.9801168
v -0.02737362 0.2727781 0.9801168
v -0.05167061 0.2913907 0.9644991
v 0.1166691 0.2695642 0.9762866
v 0.1409661 0.2913907 0.9644991
v 0.1166691 0.1594637 1.068672
v 0.1166691 0.1626776 1.072502
v -0.02737362 0.2695642 0.9762866
v -0.05167061 0.144065 1.08812
v -0.02737362 0.1626776 1.072502
v -0.05167061 0.2881767 0.9606689
v -0.05167061 0.1408511 1.08429
v 0.1409661 0.1408511 1.08429
v -0.02737362 0.1594637 1.068672
v 0.1409661 0.2881767 0.9606689
v 0.1409661 0.144065 1.08812
vt 0.3489332 0.8998886
vt 0.5104912 0.8998886
vt 0.5104912 0.8454802
vt 0.3489332 0.8454802
vt 0.5104912 0.8454802
vt 0.3489332 0.8454802
vt 0.3489332 0.8998886
vt 0.5104912 0.8998886
vt 0.7736599 0.8515241
vt 0.8789408 0.8515241
vt 0.9256582 0.8020619
vt 0.7736599 0.8515241
vt 0.7269425 0.8020619
vt 0.7736599 0.8798445
vt 0.7736599 0.8798445
vt 0.8789408 0.8515241
vt 0.9256582 0.9293067
vt 0.8789408 0.8798445
vt 0.9256582 0.8020619
vt 0.9256582 0.9293067
vt 0.7269425 0.9293067
vt 0.8789408 0.8798445
vt 0.7269425 0.8020619
vt 0.7269425 0.9293067
vt 0.2290003 0.07906551
vt 0.5116127 0.07906551
vt 0.5583299 0.02960325
vt 0.2290003 0.07906551
vt 0.182283 0.02960325
vt 0.2290003 0.3863295
vt 0.2290003 0.3863295
vt 0.5116127 0.07906551
vt 0.5583299 0.4357917
vt 0.5116127 0.3863295
vt 0.5583299 0.02960325
vt 0.5583299 0.4357917
vt 0.182283 0.4357917
vt 0.5116127 0.3863295
vt 0.182283 0.02960325
vt 0.182283 0.4357917
vt 0.5068018 0.2551439
vt 0.9152702 0.2551439
vt 0.9703966 0.1967785
vt 0.5068018 0.2551439
vt 0.4516754 0.1967785
vt 0.5068018 0.7090659
vt 0.5068018 0.7090659
vt 0.9152702 0.2551439
vt 0.9703966 0.7674313
vt 0.9152702 0.7090659
vt 0.9703966 0.1967785
vt 0.9703966 0.7674313
vt 0.4516754 0.7674313
vt 0.9152702 0.7090659
vt 0.4516754 0.1967785
vt 0.4516754 0.7674313
vt 0.1106812 0.3767688
vt 0.5913444 0.3767688
vt 0.6724222 0.2909271
vt 0.1106812 0.3767688
vt 0.02960336 0.2909271
vt 0.1106812 0.884555
vt 0.1106812 0.884555
vt 0.5913444 0.3767688
vt 0.6724222 0.9703966
vt 0.5913444 0.884555
vt 0.6724222 0.2909271
vt 0.6724222 0.9703966
vt 0.02960336 0.9703966
vt 0.5913444 0.884555
vt 0.02960336 0.2909271
vt 0.02960336 0.9703966
vn 0.5773499 -0.07116286 0.8133898
vn -0.5773499 -0.07116286 0.8133898
vn -0.5773501 0.8133899 0.07115882
vn 0.5773501 0.8133899 0.07115882
vn -0.5773506 0.07116041 -0.8133896
vn 0.5773506 0.07116041 -0.8133896
vn 0.5773505 -0.8133892 -0.07116442
vn -0.5773505 -0.8133892 -0.07116442
vn -0.3015108 0.350453 0.886721
vn 0.3015108 0.3504529 0.886721
vn -0.5773498 0.8133901 0.07116026
vn -0.3015128 -0.8123941 -0.499105
vn 0.5773498 0.8133901 0.07116024
vn -0.3015099 -0.3504526 -0.8867214
vn -0.3015134 0.8123952 0.4991029
vn 0.3015128 -0.8123941 -0.499105
vn -0.5773497 -0.0711633 0.8133898
vn 0.3015135 0.8123952 0.4991029
vn -0.5773505 0.07116033 -0.8133896
vn -0.5773505 -0.8133892 -0.07116447
vn 0.5773505 -0.8133892 -0.07116445
vn 0.3015099 -0.3504526 -0.8867213
vn 0.5773506 0.07116036 -0.8133896
vn 0.5773497 -0.07116333 0.8133898
vn -0.301515 0.3504502 0.8867205
vn 0.301515 0.3504502 0.8867205
vn -0.5773504 0.8133894 0.07116337
vn -0.3015083 -0.8123952 -0.499106
vn 0.5773504 0.8133894 0.07116337
vn -0.3015107 -0.3504528 -0.886721
vn -0.3015128 0.8123942 0.4991049
vn 0.3015083 -0.8123952 -0.4991061
vn -0.5773504 -0.07116022 0.8133897
vn 0.3015128 0.8123942 0.4991049
vn -0.57735 0.07116247 -0.8133897
vn -0.5773498 -0.8133901 -0.07116033
vn 0.5773498 -0.8133901 -0.07116033
vn 0.3015107 -0.3504528 -0.886721
vn 0.57735 0.07116245 -0.8133897
vn 0.5773504 -0.07116022 0.8133897
vn -0.3015097 0.3504532 0.8867212
vn 0.3015098 0.3504532 0.8867212
vn -0.5773507 0.8133889 0.0711666
vn -0.3015139 -0.8123944 -0.4991038
vn 0.5773507 0.8133889 0.07116656
vn -0.3015106 -0.3504522 -0.8867212
vn -0.3015129 0.8123947 0.4991039
vn 0.3015139 -0.8123944 -0.4991039
vn -0.57735 -0.07116378 0.8133897
vn 0.301513 0.8123947 0.4991039
vn -0.5773495 0.07116634 -0.8133897
vn -0.5773503 -0.8133892 -0.07116453
vn 0.5773503 -0.8133892 -0.07116453
vn 0.3015106 -0.3504522 -0.8867212
vn 0.5773495 0.07116636 -0.8133897
vn 0.57735 -0.0711638 0.8133897
vn -0.30151 0.350453 0.8867212
vn 0.30151 0.350453 0.8867211
vn -0.5773499 0.81339 0.0711602
vn -0.3015132 -0.8123943 -0.4991046
vn 0.5773499 0.81339 0.07116023
vn -0.3015105 -0.3504519 -0.8867214
vn -0.3015126 0.8123944 0.4991047
vn 0.3015131 -0.8123943 -0.4991046
vn -0.5773501 -0.07116415 0.8133895
vn 0.3015127 0.8123944 0.4991047
vn -0.5773505 0.0711602 -0.8133897
vn -0.5773504 -0.8133892 -0.07116465
vn 0.5773504 -0.8133892 -0.0711647
vn 0.3015105 -0.350452 -0.8867214
vn 0.5773504 0.07116026 -0.8133897
vn 0.5773501 -0.07116418 0.8133895
g CH0335_Halo_0
f 3/3/3 2/2/2 1/1/1
f 4/4/4 3/3/3 1/1/1
f 5/5/5 3/3/3 4/4/4
f 3/3/3 5/5/5 2/2/2
f 4/4/4 1/1/1 6/6/6
f 6/6/6 5/5/5 4/4/4
f 1/1/1 2/2/2 7/7/7
f 1/1/1 7/7/7 6/6/6
f 8/8/8 5/5/5 6/6/6
f 5/5/5 8/8/8 2/2/2
f 7/7/7 8/8/8 6/6/6
f 2/2/2 8/8/8 7/7/7
f 11/11/11 10/10/10 9/9/9
f 9/9/9 10/10/10 12/12/12
f 13/13/13 11/11/11 9/9/9
f 9/9/9 12/12/12 14/14/14
f 13/13/13 9/9/9 15/15/15
f 15/15/15 9/9/9 14/14/14
f 10/10/10 16/16/16 12/12/12
f 11/11/11 17/17/17 10/10/10
f 10/10/10 18/18/18 16/16/16
f 17/17/17 18/18/18 10/10/10
f 19/19/19 11/11/11 13/13/13
f 20/20/20 17/17/17 11/11/11
f 19/19/19 20/20/20 11/11/11
f 14/14/14 12/12/12 21/21/21
f 20/20/20 21/21/21 17/17/17
f 14/14/14 21/21/21 20/20/20
f 22/22/22 14/14/14 20/20/20
f 15/15/15 14/14/14 22/22/22
f 22/22/22 20/20/20 19/19/19
f 16/16/16 22/22/22 19/19/19
f 18/18/18 15/15/15 22/22/22
f 18/18/18 22/22/22 16/16/16
f 12/12/12 16/16/16 23/23/23
f 16/16/16 19/19/19 23/23/23
f 23/23/23 19/19/19 13/13/13
f 12/12/12 23/23/23 21/21/21
f 17/17/17 24/24/24 18/18/18
f 24/24/24 15/15/15 18/18/18
f 24/24/24 13/13/13 15/15/15
f 21/21/21 24/24/24 17/17/17
f 23/23/23 13/13/13 24/24/24
f 21/21/21 23/23/23 24/24/24
f 27/27/27 26/26/26 25/25/25
f 25/25/25 26/26/26 28/28/28
f 29/29/29 27/27/27 25/25/25
f 25/25/25 28/28/28 30/30/30
f 29/29/29 25/25/25 31/31/31
f 31/31/31 25/25/25 30/30/30
f 26/26/26 32/32/32 28/28/28
f 27/27/27 33/33/33 26/26/26
f 26/26/26 34/34/34 32/32/32
f 33/33/33 34/34/34 26/26/26
f 35/35/35 27/27/27 29/29/29
f 36/36/36 33/33/33 27/27/27
f 35/35/35 36/36/36 27/27/27
f 30/30/30 28/28/28 37/37/37
f 36/36/36 37/37/37 33/33/33
f 30/30/30 37/37/37 36/36/36
f 38/38/38 30/30/30 36/36/36
f 31/31/31 30/30/30 38/38/38
f 38/38/38 36/36/36 35/35/35
f 32/32/32 38/38/38 35/35/35
f 34/34/34 31/31/31 38/38/38
f 34/34/34 38/38/38 32/32/32
f 28/28/28 32/32/32 39/39/39
f 32/32/32 35/35/35 39/39/39
f 39/39/39 35/35/35 29/29/29
f 28/28/28 39/39/39 37/37/37
f 33/33/33 40/40/40 34/34/34
f 40/40/40 31/31/31 34/34/34
f 40/40/40 29/29/29 31/31/31
f 37/37/37 40/40/40 33/33/33
f 39/39/39 29/29/29 40/40/40
f 37/37/37 39/39/39 40/40/40
f 43/43/43 42/42/42 41/41/41
f 41/41/41 42/42/42 44/44/44
f 45/45/45 43/43/43 41/41/41
f 41/41/41 44/44/44 46/46/46
f 45/45/45 41/41/41 47/47/47
f 47/47/47 41/41/41 46/46/46
f 42/42/42 48/48/48 44/44/44
f 43/43/43 49/49/49 42/42/42
f 42/42/42 50/50/50 48/48/48
f 49/49/49 50/50/50 42/42/42
f 51/51/51 43/43/43 45/45/45
f 52/52/52 49/49/49 43/43/43
f 51/51/51 52/52/52 43/43/43
f 46/46/46 44/44/44 53/53/53
f 52/52/52 53/53/53 49/49/49
f 46/46/46 53/53/53 52/52/52
f 54/54/54 46/46/46 52/52/52
f 47/47/47 46/46/46 54/54/54
f 54/54/54 52/52/52 51/51/51
f 48/48/48 54/54/54 51/51/51
f 50/50/50 47/47/47 54/54/54
f 50/50/50 54/54/54 48/48/48
f 44/44/44 48/48/48 55/55/55
f 48/48/48 51/51/51 55/55/55
f 55/55/55 51/51/51 45/45/45
f 44/44/44 55/55/55 53/53/53
f 49/49/49 56/56/56 50/50/50
f 56/56/56 47/47/47 50/50/50
f 56/56/56 45/45/45 47/47/47
f 53/53/53 56/56/56 49/49/49
f 55/55/55 45/45/45 56/56/56
f 53/53/53 55/55/55 56/56/56
f 59/59/59 58/58/58 57/57/57
f 57/57/57 58/58/58 60/60/60
f 61/61/61 59/59/59 57/57/57
f 57/57/57 60/60/60 62/62/62
f 61/61/61 57/57/57 63/63/63
f 63/63/63 57/57/57 62/62/62
f 58/58/58 64/64/64 60/60/60
f 59/59/59 65/65/65 58/58/58
f 58/58/58 66/66/66 64/64/64
f 65/65/65 66/66/66 58/58/58
f 67/67/67 59/59/59 61/61/61
f 68/68/68 65/65/65 59/59/59
f 67/67/67 68/68/68 59/59/59
f 62/62/62 60/60/60 69/69/69
f 68/68/68 69/69/69 65/65/65
f 62/62/62 69/69/69 68/68/68
f 70/70/70 62/62/62 68/68/68
f 63/63/63 62/62/62 70/70/70
f 70/70/70 68/68/68 67/67/67
f 64/64/64 70/70/70 67/67/67
f 66/66/66 63/63/63 70/70/70
f 66/66/66 70/70/70 64/64/64
f 60/60/60 64/64/64 71/71/71
f 64/64/64 67/67/67 71/71/71
f 71/71/71 67/67/67 61/61/61
f 60/60/60 71/71/71 69/69/69
f 65/65/65 72/72/72 66/66/66
f 72/72/72 63/63/63 66/66/66
f 72/72/72 61/61/61 63/63/63
f 69/69/69 72/72/72 65/65/65
f 71/71/71 61/61/61 72/72/72
f 69/69/69 71/71/71 72/72/72
