g Sakurako_Original_Halo
v 0.10989425 -0.05516618 0.051342674
v 0.119735695 -0.04170363 0.04004625
v 0.11657236 -0.05462766 0.050890796
v 0.12487611 -0.0499591 0.036866523
v 0.12395353 -0.055973914 0.052020445
v 0.13309205 -0.05462766 0.050890796
v 0.14047308 -0.050319664 0.04727596
v 0.14223057 -0.03981889 0.03846477
v 0.13363917 -0.035225797 0.024503818
v 0.15628977 -0.031472124 0.031460997
v 0.14699808 -0.021130087 0.0114973625
v 0.12219473 -0.018547816 0.020616215
v 0.12678905 -0.008255992 0.011980969
v 0.13379505 0.005953646 5.704641E-05
v 0.16788861 -0.019894356 0.021746095
v 0.14897233 0.015718188 -0.0081363795
v 0.16060878 -0.007813514 0.0013045216
v 0.16367094 0.018339148 -0.010335624
v 0.13002767 -0.0061872588 0.00013790361
v 0.18300231 0.008915377 -0.0024281405
v 0.13050249 0.0097042555 -0.0030894685
v 0.18071774 0.008515961 -0.012199877
v 0.12227665 0.006914737 -0.010855666
v 0.17843315 0.018069882 -0.010109684
v 0.114051 0.014078536 -0.0067599225
v 0.19530419 0.027902002 -0.028466698
v 0.13080789 0.023302205 -0.014499499
v 0.19846752 0.030993912 -0.020954235
v 0.12290561 0.018325532 -0.020430459
v 0.19214085 0.03476343 -0.024117239
v 0.11500333 0.023302197 -0.014499495
v 0.20901187 0.05280318 -0.03925439
v 0.21287823 0.047018755 -0.04450756
v 0.21674456 0.051187657 -0.037898798
v 0.10937464 0.050525893 -0.03734289
v 0.11808183 0.04771647 -0.045092385
v 0.12678902 0.054860387 -0.040979967
v 0.10044637 0.07423042 -0.06734023
v 0.09303961 0.07508474 -0.05795021
v 0.10785315 0.083329424 -0.06486833
v 0.07297854 0.095272 -0.08499622
v 0.0675972 0.094574735 -0.07430427
v 0.07835987 0.10592258 -0.08382624
v 0.03836702 0.10878151 -0.09633204
v 0.035537895 0.10708807 -0.0848042
v 0.04119615 0.12042827 -0.09599795
v -0 0.11343654 -0.100238085
v -0 0.11139986 -0.08842222
v -0 0.12542656 -0.10019202
v -0.035537895 0.10708807 -0.0848042
v -0.04119615 0.12042827 -0.09599795
v -0.03836702 0.10878151 -0.09633204
v -0.07835987 0.10592258 -0.08382624
v -0.0675972 0.094574735 -0.07430427
v -0.07297854 0.095272 -0.08499622
v -0.10785315 0.083329424 -0.06486833
v -0.09303961 0.07508474 -0.05795021
v -0.10044637 0.07423042 -0.06734023
v -0.12678902 0.054860387 -0.040979967
v -0.10937464 0.050525893 -0.03734289
v -0.11808183 0.04771647 -0.045092385
v -0.13080789 0.023302205 -0.014499499
v -0.11500333 0.023302197 -0.014499495
v -0.12290561 0.018325532 -0.020430459
v -0.114051 0.014078536 -0.0067599225
v -0.12227665 0.006914737 -0.010855666
v -0.12678905 -0.008255992 0.011980969
v -0.13050249 0.0097042555 -0.0030894685
v -0.13002767 -0.0061872588 0.00013790361
v -0.14699808 -0.021130087 0.0114973625
v -0.13379505 0.005953646 5.704641E-05
v -0.15628977 -0.031472124 0.031460997
v -0.12219473 -0.018547816 0.020616215
v -0.14897233 0.015718188 -0.0081363795
v -0.16060878 -0.007813514 0.0013045216
v -0.16788861 -0.019894356 0.021746095
v -0.16367094 0.018339148 -0.010335624
v -0.13363917 -0.035225797 0.024503818
v -0.119735695 -0.04170363 0.04004625
v -0.12487611 -0.0499591 0.036866523
v -0.14223057 -0.03981889 0.03846477
v -0.18300231 0.008915377 -0.0024281405
v -0.18071774 0.008515961 -0.012199877
v -0.17843315 0.018069882 -0.010109684
v -0.19530419 0.027902002 -0.028466698
v -0.19846752 0.030993912 -0.020954235
v -0.14047308 -0.050319664 0.04727596
v -0.19214085 0.03476343 -0.024117239
v -0.13309205 -0.05462766 0.050890796
v -0.12395353 -0.055973914 0.052020445
v -0.11657236 -0.05462766 0.050890796
v -0.10989425 -0.05516618 0.051342674
v -0.20901187 0.05280318 -0.03925439
v -0.21287823 0.047018755 -0.04450756
v -0.21674456 0.051187657 -0.037898798
v 0.10206905 0.012140655 -0.0051338407
v 0.09815546 0.012922878 -0.0057902024
v 0.10016075 0.01661799 -0.008890767
v 0.10011225 0.0075550983 -0.011392982
v 0.100910276 0.0027948045 0.0027082514
v 0.09802883 -0.0017990541 -0.0035439108
v 0.09514737 0.0035604143 0.002065835
v 0.0966076 -0.011174832 0.014430175
v 0.088747516 -0.009446473 0.012979913
v 0.09267756 -0.015287323 0.0077740834
v 0.08847837 -0.026208987 0.027045328
v 0.07992431 -0.022425722 0.023870794
v 0.08420134 -0.029294018 0.019527098
v 0.07139003 -0.04634507 0.033834618
v 0.06396077 -0.036073927 0.03532299
v 0.072242275 -0.04241794 0.040646248
v 0.08473025 -0.04307647 0.041198816
v 0.08630076 -0.053877138 0.050261658
v 0.07251916 -0.053426526 0.049883556
v 0.051083006 -0.054855492 0.0510826
v 0.0452271 -0.047085717 0.044562977
v 0.04815505 -0.055947274 0.04189182
v 0.026442504 -0.062674075 0.057643168
v 0.023411265 -0.054008 0.050371464
v 0.024926884 -0.06331771 0.048076358
v -0 -0.06534085 0.059880853
v -0 -0.05636907 0.052352637
v -0 -0.065831624 0.05018578
v -0.023411265 -0.054008 0.050371464
v -0.024926884 -0.06331771 0.048076358
v -0.026442504 -0.062674075 0.057643168
v -0.04815505 -0.055947274 0.04189182
v -0.0452271 -0.047085717 0.044562977
v -0.07139003 -0.04634507 0.033834618
v -0.051083006 -0.054855492 0.0510826
v -0.06396077 -0.036073927 0.03532299
v -0.07251916 -0.053426526 0.049883556
v -0.072242275 -0.04241794 0.040646248
v -0.08630076 -0.053877138 0.050261658
v -0.08473025 -0.04307647 0.041198816
v -0.08847837 -0.026208987 0.027045328
v -0.07992431 -0.022425722 0.023870794
v -0.08420134 -0.029294018 0.019527098
v -0.088747516 -0.009446473 0.012979913
v -0.09267756 -0.015287323 0.0077740834
v -0.0966076 -0.011174832 0.014430175
v -0.09802883 -0.0017990541 -0.0035439108
v -0.100910276 0.0027948045 0.0027082514
v -0.09514737 0.0035604143 0.002065835
v -0.09815546 0.012922878 -0.0057902024
v -0.10011225 0.0075550983 -0.011392982
v -0.10206905 0.012140655 -0.0051338407
v -0.10016075 0.01661799 -0.008890767
v -0.005422043 -0.09905595 0.08817121
v -0.005422043 -0.07406878 0.06720447
v 0.005422043 -0.07406878 0.06720447
v -0 -0.079045445 0.061273497
v 0.005422043 -0.09905595 0.08817121
v 0.005422043 -0.10837083 0.0959873
v -0.005422043 -0.10837083 0.0959873
v -0 -0.108428955 0.0862031
v -0.017948208 -0.10869007 0.08614828
v -0 -0.10869009 0.08614827
v -0 -0.10868144 0.086414956
v -0.017948208 -0.09905595 0.08817121
v -0.017948208 -0.10837083 0.0959873
v 0.017948208 -0.09905595 0.08817121
v 0.017948208 -0.10869007 0.08614828
v 0.017948208 -0.10837083 0.0959873
v -0 -0.12542658 0.100191884
v 0.005422043 -0.1204499 0.10612285
v -0.005422043 -0.1204499 0.10612285
vt 0.7399277 0.69120896
vt 0.7614142 0.64656067
vt 0.7545078 0.68942297
vt 0.772637 0.6574347
vt 0.7706228 0.6938877
vt 0.79057455 0.68942297
vt 0.80668926 0.6751355
vt 0.8105263 0.64030993
vt 0.791769 0.608572
vt 0.84122115 0.6126281
vt 0.820935 0.559899
vt 0.7667829 0.56976485
vt 0.77681345 0.5356332
vt 0.7921094 0.4885063
vt 0.8665445 0.5742307
vt 0.8252453 0.45612237
vt 0.8506507 0.51733696
vt 0.8573362 0.44742998
vt 0.7838842 0.5122669
vt 0.8995417 0.47868374
vt 0.7849209 0.47606847
vt 0.8945538 0.4635034
vt 0.76696175 0.46881482
vt 0.88956594 0.448323
vt 0.74900293 0.46156123
vt 0.92639977 0.39920998
vt 0.7855876 0.43097115
vt 0.93330616 0.40546075
vt 0.76833487 0.43097115
vt 0.91949344 0.39295918
vt 0.7510822 0.43097118
vt 0.9563272 0.33313072
vt 0.9647685 0.33580965
vt 0.9732097 0.33848858
vt 0.73879325 0.34068432
vt 0.7578033 0.33349672
vt 0.7768133 0.32630906
vt 0.71930057 0.24556372
vt 0.70312965 0.2592354
vt 0.7354715 0.23189205
vt 0.65933114 0.17577974
vt 0.64758223 0.19459721
vt 0.67108 0.15696234
vt 0.5837652 0.13097575
vt 0.57758844 0.153097
vt 0.5899419 0.1088545
vt 0.5 0.115537435
vt 0.5 0.13879704
vt 0.5 0.092277795
vt 0.42241153 0.153097
vt 0.41005808 0.1088545
vt 0.41623482 0.13097575
vt 0.32892004 0.15696234
vt 0.35241774 0.19459721
vt 0.3406689 0.17577974
vt 0.2645285 0.23189205
vt 0.29687035 0.2592354
vt 0.28069946 0.24556372
vt 0.22318663 0.32630906
vt 0.26120675 0.34068432
vt 0.24219668 0.33349672
vt 0.21441238 0.43097115
vt 0.24891782 0.43097118
vt 0.2316651 0.43097115
vt 0.25099704 0.46156123
vt 0.23303829 0.46881482
vt 0.22318654 0.5356332
vt 0.21507914 0.47606847
vt 0.21611579 0.5122669
vt 0.17906499 0.559899
vt 0.20789064 0.4885063
vt 0.1587788 0.6126281
vt 0.23321715 0.56976485
vt 0.17475465 0.45612237
vt 0.14934929 0.51733696
vt 0.13345549 0.5742307
vt 0.1426638 0.44742998
vt 0.20823094 0.608572
vt 0.23858586 0.64656067
vt 0.22736298 0.6574347
vt 0.18947369 0.64030993
vt 0.10045836 0.47868374
vt 0.10544622 0.4635034
vt 0.110434055 0.448323
vt 0.07360022 0.39920998
vt 0.06669382 0.40546075
vt 0.19331077 0.6751355
vt 0.080506586 0.39295918
vt 0.20942546 0.68942297
vt 0.22937723 0.6938877
vt 0.24549223 0.68942297
vt 0.2600723 0.69120896
vt 0.043672748 0.33313072
vt 0.035231493 0.33580965
vt 0.02679032 0.33848858
vt 0.7228433 0.46798822
vt 0.71429884 0.465394
vt 0.718677 0.45313922
vt 0.71857107 0.4666911
vt 0.7203134 0.49898353
vt 0.7140224 0.49771395
vt 0.7077314 0.49644437
vt 0.7109195 0.5453135
vt 0.6937589 0.53958154
vt 0.70233923 0.54244757
vt 0.6931713 0.59517395
vt 0.6744956 0.5826268
vt 0.6838334 0.58890045
vt 0.655863 0.6454499
vt 0.63964295 0.6278908
vt 0.65772367 0.64893067
vt 0.68498814 0.6511147
vt 0.688417 0.6869348
vt 0.6583282 0.6854404
vt 0.61152744 0.6901796
vt 0.59874254 0.6644112
vt 0.60513496 0.67729545
vt 0.55773085 0.71610963
vt 0.5511129 0.68736887
vt 0.5544219 0.7017393
vt 0.5 0.724954
vt 0.5 0.6951994
vt 0.5 0.7100766
vt 0.44888714 0.68736887
vt 0.44557813 0.7017393
vt 0.44226915 0.71610963
vt 0.394865 0.67729545
vt 0.4012575 0.6644112
vt 0.344137 0.6454499
vt 0.3884725 0.6901796
vt 0.36035702 0.6278908
vt 0.34167182 0.6854404
vt 0.34227633 0.64893067
vt 0.311583 0.6869348
vt 0.31501183 0.6511147
vt 0.3068287 0.59517395
vt 0.32550445 0.5826268
vt 0.31616658 0.58890045
vt 0.30624112 0.53958154
vt 0.29766077 0.54244757
vt 0.2890805 0.5453135
vt 0.28597757 0.49771395
vt 0.27968663 0.49898353
vt 0.29226857 0.49644437
vt 0.28570113 0.465394
vt 0.2814289 0.4666911
vt 0.27715674 0.46798822
vt 0.28132305 0.45313922
vt 0.48816228 0.83676946
vt 0.48816228 0.75390005
vt 0.5118377 0.75390005
vt 0.5 0.75390005
vt 0.5118377 0.83676946
vt 0.5118377 0.8676621
vt 0.48816228 0.8676621
vt 0.5 0.8517971
vt 0.4608144 0.85221577
vt 0.5 0.85221577
vt 0.5 0.85263443
vt 0.4608144 0.83676946
vt 0.4608144 0.8676621
vt 0.5391856 0.83676946
vt 0.5391856 0.85221577
vt 0.5391856 0.8676621
vt 0.5 0.9077221
vt 0.5118377 0.9077221
vt 0.48816228 0.9077221
vn -0.80399674 -0.3629834 0.47099078
vn -0.84524995 0.52029115 0.12185849
vn -0.007641618 -0.5361263 0.84410316
vn -0.15363519 -0.6964908 -0.7009257
vn -0.025499675 -0.6068072 0.79444003
vn 0.41436985 -0.543197 0.7302292
vn 0.81858176 -0.29658613 0.49189484
vn 0.84559625 -0.15020296 0.5122559
vn -0.10745903 -0.6702474 -0.7343167
vn 0.732352 -0.3766846 0.5672471
vn 0.023772746 -0.688271 -0.72506404
vn -0.91143924 0.40818745 -0.05159046
vn -0.8683196 0.018740585 0.4956509
vn 0.60716456 0.7937636 -0.03592467
vn 0.80817705 -0.28081706 0.5176791
vn -0.442216 0.7611457 -0.4744495
vn 0.12802702 -0.6335941 -0.7629992
vn -0.41439128 0.8138795 -0.4072837
vn -0.13263392 -0.6352136 -0.7608626
vn 0.7872335 -0.07917458 0.61155117
vn 0.8475476 0.49369302 0.1947569
vn 0.19072098 -0.618139 -0.762581
vn -0.11091132 -0.6880255 -0.7171608
vn -0.6398315 0.7661879 0.05976389
vn -0.93273324 0.12604508 0.3378187
vn -0.009656201 -0.62231123 -0.7827103
vn 0.93375 0.25681272 0.24931574
vn 0.7209622 -0.005207144 0.69295484
vn 0.03700264 -0.6399443 -0.7675298
vn -0.7215575 0.68739873 0.08269033
vn -0.9189159 0.22298971 0.32537544
vn -0.39520648 0.90604407 -0.15131423
vn 0.2902429 -0.18883829 -0.93813604
vn 0.889736 0.42608476 0.16377312
vn -0.88044214 0.03785418 0.47264016
vn 0.07152507 -0.6307126 -0.77271324
vn 0.9076361 0.41364923 0.0713519
vn 0.052042224 -0.61249155 -0.7887621
vn -0.748908 -0.17367753 0.6395099
vn 0.7673102 0.6307784 -0.1155582
vn 0.03781122 -0.6015893 -0.7979102
vn -0.5441133 -0.33055964 0.7711492
vn 0.5574831 0.7915153 -0.250432
vn 0.019878494 -0.5945898 -0.80378336
vn -0.28605708 -0.43128395 0.8556666
vn 0.29308572 0.89471453 -0.33702633
vn -0 -0.59217817 -0.805807
vn -0 -0.46599117 0.8847894
vn -0 0.9302742 -0.3668649
vn 0.28605708 -0.43128413 0.8556666
vn -0.29308575 0.89471453 -0.33702636
vn -0.019878509 -0.5945898 -0.80378336
vn -0.5574831 0.7915153 -0.250432
vn 0.5441132 -0.33055955 0.7711493
vn -0.037811212 -0.6015893 -0.7979102
vn -0.76731014 0.63077855 -0.11555822
vn 0.748908 -0.17367753 0.6395099
vn -0.05204219 -0.61249155 -0.7887621
vn -0.9076361 0.41364926 0.07135191
vn 0.8804421 0.037854183 0.47264028
vn -0.071525045 -0.6307126 -0.77271324
vn -0.93375 0.25681272 0.24931574
vn 0.9189159 0.22298971 0.32537538
vn -0.03700264 -0.6399443 -0.7675298
vn 0.93273324 0.12604503 0.33781865
vn 0.11091132 -0.6880255 -0.7171608
vn 0.8683197 0.018740589 0.4956508
vn -0.84754765 0.49369296 0.19475691
vn 0.13263392 -0.6352136 -0.7608626
vn -0.023772739 -0.688271 -0.72506404
vn -0.60716456 0.7937636 -0.03592467
vn -0.73235196 -0.37668467 0.5672471
vn 0.9114392 0.40818742 -0.05159064
vn 0.44221607 0.7611457 -0.4744495
vn -0.12802699 -0.6335941 -0.7629992
vn -0.80817705 -0.28081712 0.5176789
vn 0.41439128 0.8138795 -0.4072837
vn 0.10745901 -0.6702474 -0.7343167
vn 0.84525007 0.52029127 0.121858455
vn 0.15363516 -0.6964908 -0.7009257
vn -0.84559613 -0.15020314 0.51225585
vn -0.7872335 -0.07917458 0.61155117
vn -0.19072098 -0.618139 -0.762581
vn 0.6398315 0.7661879 0.05976389
vn 0.009656161 -0.62231123 -0.7827103
vn -0.7209622 -0.005207144 0.69295484
vn -0.81858176 -0.29658628 0.49189484
vn 0.7215575 0.6873988 0.08269033
vn -0.41436985 -0.543197 0.7302292
vn 0.025499675 -0.6068072 0.79444003
vn 0.007641618 -0.5361263 0.84410316
vn 0.80399674 -0.3629834 0.47099078
vn 0.3952064 0.90604407 -0.15131423
vn -0.2902429 -0.1888383 -0.9381359
vn -0.889736 0.42608485 0.16377312
vn 0.8257722 0.41149458 0.38571024
vn -0.7764356 0.5582936 0.2923288
vn 0.030521136 0.9353183 -0.35248846
vn 0.077285014 -0.28135583 -0.9564862
vn 0.8186742 0.22932686 0.5264806
vn 0.05423126 -0.5810795 -0.81203794
vn -0.7844389 0.53836304 0.30792972
vn 0.8160292 0.10564773 0.56827366
vn -0.77979857 0.5922357 0.20290677
vn 0.052585155 -0.6165065 -0.78559184
vn 0.8205055 0.04168694 0.57011664
vn -0.75343883 0.6521346 0.083965585
vn 0.035422653 -0.57680213 -0.8161155
vn -0.0035233411 -0.6178338 -0.78630084
vn -0.62656033 0.7702041 -0.11919653
vn 1.08895435E-07 0.64278764 0.76604444
vn 0.9343237 0.116667785 0.3367902
vn 0.7104771 -0.45356628 0.538052
vn 0.14856732 -0.5409975 0.827798
vn 0.31340382 -0.37373224 0.8729847
vn -0.4092232 0.89704674 -0.16686359
vn -0.06356712 -0.65093416 -0.75646806
vn 0.23510283 -0.40334356 0.88433063
vn -0.22733927 0.95718277 -0.17921506
vn 0.017133212 -0.6903598 -0.72326326
vn -0 -0.42705402 0.904226
vn -0 0.9801103 -0.19845337
vn -0 -0.6920876 -0.72181356
vn 0.22733931 0.95718277 -0.17921506
vn -0.017133197 -0.6903598 -0.72326326
vn -0.23510283 -0.40334356 0.88433063
vn 0.06356714 -0.65093416 -0.75646806
vn 0.4092232 0.89704674 -0.16686359
vn 0.0035233235 -0.61783373 -0.7863009
vn -0.3134038 -0.37373215 0.8729847
vn 0.62656033 0.7702041 -0.1191964
vn -0.14856732 -0.5409974 0.827798
vn -1.08895435E-07 0.64278764 0.76604444
vn -0.7104771 -0.45356628 0.538052
vn -0.9343237 0.11666785 0.3367902
vn -0.8205055 0.041686982 0.5701166
vn 0.75343883 0.6521347 0.08396572
vn -0.03542278 -0.57680213 -0.8161155
vn 0.77979857 0.5922357 0.20290674
vn -0.05258528 -0.61650646 -0.7855918
vn -0.81602925 0.10564775 0.56827354
vn -0.05423131 -0.5810795 -0.81203794
vn -0.8186742 0.22932689 0.5264805
vn 0.7844389 0.53836304 0.30792972
vn 0.7764356 0.5582936 0.2923288
vn -0.0772851 -0.2813559 -0.9564862
vn -0.8257722 0.41149458 0.38571024
vn -0.030521136 0.9353183 -0.35248846
vn -0.53811866 0.82063526 0.19231798
vn -0.7402103 0.66947407 -0.06239454
vn 0.7402103 0.66947407 -0.062394578
vn -0 -0.10669462 -0.9942919
vn 0.53811866 0.82063526 0.19231795
vn 0.5384277 0.047846664 0.8413123
vn -0.5384277 0.047846694 0.8413123
vn -0 0.05419476 -0.9985304
vn -0.5657954 -0.53000736 -0.6316388
vn -0 -0.6427876 -0.7660445
vn -0 -0.99268264 -0.12075238
vn -0.55019104 0.80998445 -0.20301466
vn -0.5501911 -0.34058383 0.7624253
vn 0.55019104 0.80998445 -0.20301466
vn 0.5657954 -0.53000736 -0.6316388
vn 0.5501911 -0.34058383 0.7624253
vn -0 -0.96052593 -0.27819067
vn 0.74079055 -0.17648077 0.64813864
vn -0.74079055 -0.17648076 0.64813864
g Sakurako_Original_Halo_0
f 3/3/3 2/2/2 1/1/1
f 1/1/1 2/2/2 4/4/4
f 4/4/4 3/3/3 1/1/1
f 5/5/5 2/2/2 3/3/3
f 4/4/4 5/5/5 3/3/3
f 6/6/6 2/2/2 5/5/5
f 4/4/4 6/6/6 5/5/5
f 7/7/7 2/2/2 6/6/6
f 4/4/4 7/7/7 6/6/6
f 8/8/8 7/7/7 4/4/4
f 8/8/8 2/2/2 7/7/7
f 4/4/4 2/2/2 9/9/9
f 9/9/9 8/8/8 4/4/4
f 10/10/10 8/8/8 9/9/9
f 11/11/11 10/10/10 9/9/9
f 12/12/12 2/2/2 8/8/8
f 2/2/2 12/12/12 9/9/9
f 12/12/12 8/8/8 10/10/10
f 9/9/9 12/12/12 11/11/11
f 12/12/12 10/10/10 13/13/13
f 12/12/12 13/13/13 11/11/11
f 13/13/13 10/10/10 14/14/14
f 15/15/15 10/10/10 11/11/11
f 14/14/14 10/10/10 16/16/16
f 10/10/10 15/15/15 16/16/16
f 16/16/16 17/17/17 14/14/14
f 17/17/17 15/15/15 11/11/11
f 14/14/14 17/17/17 11/11/11
f 16/16/16 15/15/15 18/18/18
f 16/16/16 18/18/18 17/17/17
f 19/19/19 14/14/14 11/11/11
f 13/13/13 19/19/19 11/11/11
f 20/20/20 15/15/15 17/17/17
f 15/15/15 20/20/20 18/18/18
f 21/21/21 14/14/14 19/19/19
f 13/13/13 14/14/14 21/21/21
f 17/17/17 18/18/18 22/22/22
f 22/22/22 20/20/20 17/17/17
f 19/19/19 13/13/13 23/23/23
f 23/23/23 21/21/21 19/19/19
f 18/18/18 24/24/24 22/22/22
f 20/20/20 24/24/24 18/18/18
f 21/21/21 25/25/25 13/13/13
f 13/13/13 25/25/25 23/23/23
f 20/20/20 22/22/22 26/26/26
f 22/22/22 24/24/24 26/26/26
f 27/27/27 21/21/21 23/23/23
f 21/21/21 27/27/27 25/25/25
f 20/20/20 28/28/28 24/24/24
f 28/28/28 20/20/20 26/26/26
f 23/23/23 25/25/25 29/29/29
f 29/29/29 27/27/27 23/23/23
f 28/28/28 30/30/30 24/24/24
f 24/24/24 30/30/30 26/26/26
f 27/27/27 31/31/31 25/25/25
f 25/25/25 31/31/31 29/29/29
f 30/30/30 28/28/28 32/32/32
f 26/26/26 30/30/30 33/33/33
f 30/30/30 32/32/32 33/33/33
f 28/28/28 34/34/34 32/32/32
f 34/34/34 28/28/28 26/26/26
f 32/32/32 34/34/34 33/33/33
f 33/33/33 34/34/34 26/26/26
f 31/31/31 27/27/27 35/35/35
f 29/29/29 31/31/31 36/36/36
f 31/31/31 35/35/35 36/36/36
f 37/37/37 27/27/27 29/29/29
f 36/36/36 37/37/37 29/29/29
f 27/27/27 37/37/37 35/35/35
f 36/36/36 35/35/35 38/38/38
f 35/35/35 37/37/37 39/39/39
f 35/35/35 39/39/39 38/38/38
f 40/40/40 37/37/37 36/36/36
f 38/38/38 40/40/40 36/36/36
f 37/37/37 40/40/40 39/39/39
f 38/38/38 39/39/39 41/41/41
f 39/39/39 40/40/40 42/42/42
f 39/39/39 42/42/42 41/41/41
f 43/43/43 40/40/40 38/38/38
f 41/41/41 43/43/43 38/38/38
f 40/40/40 43/43/43 42/42/42
f 41/41/41 42/42/42 44/44/44
f 42/42/42 43/43/43 45/45/45
f 42/42/42 45/45/45 44/44/44
f 46/46/46 43/43/43 41/41/41
f 44/44/44 46/46/46 41/41/41
f 43/43/43 46/46/46 45/45/45
f 44/44/44 45/45/45 47/47/47
f 45/45/45 46/46/46 48/48/48
f 45/45/45 48/48/48 47/47/47
f 49/49/49 46/46/46 44/44/44
f 47/47/47 49/49/49 44/44/44
f 46/46/46 49/49/49 48/48/48
f 48/48/48 50/50/50 47/47/47
f 49/49/49 51/51/51 48/48/48
f 51/51/51 50/50/50 48/48/48
f 49/49/49 47/47/47 52/52/52
f 50/50/50 52/52/52 47/47/47
f 51/51/51 49/49/49 52/52/52
f 51/51/51 53/53/53 50/50/50
f 50/50/50 54/54/54 52/52/52
f 53/53/53 54/54/54 50/50/50
f 51/51/51 52/52/52 55/55/55
f 54/54/54 55/55/55 52/52/52
f 53/53/53 51/51/51 55/55/55
f 53/53/53 56/56/56 54/54/54
f 54/54/54 57/57/57 55/55/55
f 56/56/56 57/57/57 54/54/54
f 53/53/53 55/55/55 58/58/58
f 57/57/57 58/58/58 55/55/55
f 56/56/56 53/53/53 58/58/58
f 56/56/56 59/59/59 57/57/57
f 57/57/57 60/60/60 58/58/58
f 59/59/59 60/60/60 57/57/57
f 56/56/56 58/58/58 61/61/61
f 60/60/60 61/61/61 58/58/58
f 59/59/59 56/56/56 61/61/61
f 59/59/59 62/62/62 60/60/60
f 60/60/60 63/63/63 61/61/61
f 62/62/62 63/63/63 60/60/60
f 59/59/59 61/61/61 64/64/64
f 63/63/63 64/64/64 61/61/61
f 62/62/62 59/59/59 64/64/64
f 63/63/63 65/65/65 64/64/64
f 63/63/63 62/62/62 65/65/65
f 62/62/62 64/64/64 66/66/66
f 65/65/65 66/66/66 64/64/64
f 65/65/65 67/67/67 66/66/66
f 62/62/62 68/68/68 65/65/65
f 68/68/68 62/62/62 66/66/66
f 65/65/65 68/68/68 67/67/67
f 68/68/68 66/66/66 69/69/69
f 67/67/67 69/69/69 66/66/66
f 69/69/69 67/67/67 70/70/70
f 71/71/71 68/68/68 69/69/69
f 71/71/71 69/69/69 70/70/70
f 71/71/71 67/67/67 68/68/68
f 72/72/72 67/67/67 71/71/71
f 70/70/70 67/67/67 73/73/73
f 72/72/72 73/73/73 67/67/67
f 72/72/72 71/71/71 74/74/74
f 75/75/75 71/71/71 70/70/70
f 75/75/75 74/74/74 71/71/71
f 76/76/76 72/72/72 74/74/74
f 76/76/76 75/75/75 70/70/70
f 72/72/72 76/76/76 70/70/70
f 76/76/76 74/74/74 77/77/77
f 77/77/77 74/74/74 75/75/75
f 72/72/72 70/70/70 78/78/78
f 78/78/78 70/70/70 73/73/73
f 73/73/73 79/79/79 78/78/78
f 79/79/79 80/80/80 78/78/78
f 81/81/81 73/73/73 72/72/72
f 81/81/81 72/72/72 78/78/78
f 81/81/81 78/78/78 80/80/80
f 79/79/79 73/73/73 81/81/81
f 76/76/76 82/82/82 75/75/75
f 82/82/82 76/76/76 77/77/77
f 77/77/77 75/75/75 83/83/83
f 82/82/82 83/83/83 75/75/75
f 84/84/84 77/77/77 83/83/83
f 84/84/84 82/82/82 77/77/77
f 85/85/85 83/83/83 82/82/82
f 84/84/84 83/83/83 85/85/85
f 86/86/86 82/82/82 84/84/84
f 86/86/86 85/85/85 82/82/82
f 87/87/87 81/81/81 80/80/80
f 79/79/79 81/81/81 87/87/87
f 88/88/88 86/86/86 84/84/84
f 88/88/88 84/84/84 85/85/85
f 87/87/87 80/80/80 89/89/89
f 79/79/79 87/87/87 89/89/89
f 89/89/89 80/80/80 90/90/90
f 79/79/79 89/89/89 90/90/90
f 90/90/90 80/80/80 91/91/91
f 79/79/79 90/90/90 91/91/91
f 91/91/91 80/80/80 92/92/92
f 79/79/79 91/91/91 92/92/92
f 79/79/79 92/92/92 80/80/80
f 86/86/86 88/88/88 93/93/93
f 88/88/88 85/85/85 94/94/94
f 93/93/93 88/88/88 94/94/94
f 95/95/95 86/86/86 93/93/93
f 86/86/86 95/95/95 85/85/85
f 95/95/95 93/93/93 94/94/94
f 95/95/95 94/94/94 85/85/85
f 98/98/98 97/97/97 96/96/96
f 99/99/99 98/98/98 96/96/96
f 97/97/97 98/98/98 99/99/99
f 96/96/96 100/100/100 99/99/99
f 100/100/100 96/96/96 97/97/97
f 97/97/97 99/99/99 101/101/101
f 100/100/100 101/101/101 99/99/99
f 102/102/102 100/100/100 97/97/97
f 102/102/102 97/97/97 101/101/101
f 100/100/100 103/103/103 101/101/101
f 100/100/100 102/102/102 104/104/104
f 103/103/103 100/100/100 104/104/104
f 102/102/102 101/101/101 105/105/105
f 104/104/104 102/102/102 105/105/105
f 103/103/103 105/105/105 101/101/101
f 106/106/106 103/103/103 104/104/104
f 107/107/107 104/104/104 105/105/105
f 107/107/107 106/106/106 104/104/104
f 105/105/105 103/103/103 108/108/108
f 103/103/103 106/106/106 108/108/108
f 108/108/108 107/107/107 105/105/105
f 108/108/108 106/106/106 109/109/109
f 110/110/110 107/107/107 108/108/108
f 109/109/109 110/110/110 108/108/108
f 111/111/111 106/106/106 107/107/107
f 110/110/110 111/111/111 107/107/107
f 106/106/106 112/112/112 109/109/109
f 112/112/112 106/106/106 111/111/111
f 112/112/112 113/113/113 109/109/109
f 112/112/112 111/111/111 113/113/113
f 113/113/113 111/111/111 114/114/114
f 113/113/113 114/114/114 109/109/109
f 115/115/115 111/111/111 110/110/110
f 114/114/114 111/111/111 115/115/115
f 116/116/116 110/110/110 109/109/109
f 116/116/116 115/115/115 110/110/110
f 109/109/109 114/114/114 117/117/117
f 114/114/114 115/115/115 117/117/117
f 117/117/117 116/116/116 109/109/109
f 118/118/118 115/115/115 116/116/116
f 119/119/119 116/116/116 117/117/117
f 119/119/119 118/118/118 116/116/116
f 117/117/117 115/115/115 120/120/120
f 115/115/115 118/118/118 120/120/120
f 120/120/120 119/119/119 117/117/117
f 121/121/121 118/118/118 119/119/119
f 122/122/122 119/119/119 120/120/120
f 122/122/122 121/121/121 119/119/119
f 120/120/120 118/118/118 123/123/123
f 118/118/118 121/121/121 123/123/123
f 123/123/123 122/122/122 120/120/120
f 121/121/121 122/122/122 124/124/124
f 122/122/122 123/123/123 125/125/125
f 124/124/124 122/122/122 125/125/125
f 121/121/121 126/126/126 123/123/123
f 126/126/126 125/125/125 123/123/123
f 126/126/126 121/121/121 124/124/124
f 124/124/124 125/125/125 127/127/127
f 126/126/126 124/124/124 128/128/128
f 128/128/128 124/124/124 127/127/127
f 128/128/128 127/127/127 129/129/129
f 126/126/126 130/130/130 125/125/125
f 130/130/130 127/127/127 125/125/125
f 130/130/130 126/126/126 128/128/128
f 131/131/131 128/128/128 129/129/129
f 130/130/130 128/128/128 131/131/131
f 130/130/130 132/132/132 127/127/127
f 132/132/132 129/129/129 127/127/127
f 133/133/133 132/132/132 130/130/130
f 133/133/133 130/130/130 131/131/131
f 132/132/132 134/134/134 129/129/129
f 133/133/133 134/134/134 132/132/132
f 134/134/134 135/135/135 129/129/129
f 133/133/133 135/135/135 134/134/134
f 135/135/135 136/136/136 129/129/129
f 136/136/136 135/135/135 133/133/133
f 133/133/133 131/131/131 137/137/137
f 136/136/136 133/133/133 137/137/137
f 131/131/131 129/129/129 138/138/138
f 137/137/137 131/131/131 138/138/138
f 136/136/136 138/138/138 129/129/129
f 136/136/136 137/137/137 139/139/139
f 137/137/137 138/138/138 140/140/140
f 139/139/139 137/137/137 140/140/140
f 136/136/136 141/141/141 138/138/138
f 141/141/141 140/140/140 138/138/138
f 141/141/141 136/136/136 139/139/139
f 142/142/142 140/140/140 141/141/141
f 141/141/141 139/139/139 143/143/143
f 143/143/143 142/142/142 141/141/141
f 139/139/139 140/140/140 144/144/144
f 140/140/140 142/142/142 144/144/144
f 139/139/139 144/144/144 143/143/143
f 144/144/144 142/142/142 145/145/145
f 143/143/143 144/144/144 145/145/145
f 146/146/146 142/142/142 143/143/143
f 142/142/142 146/146/146 145/145/145
f 147/147/147 143/143/143 145/145/145
f 147/147/147 146/146/146 143/143/143
f 145/145/145 148/148/148 147/147/147
f 148/148/148 145/145/145 146/146/146
f 148/148/148 146/146/146 147/147/147
f 151/151/151 150/150/150 149/149/149
f 150/150/150 152/152/152 149/149/149
f 150/150/150 151/151/151 152/152/152
f 151/151/151 153/153/153 152/152/152
f 153/153/153 151/151/151 149/149/149
f 153/153/153 149/149/149 154/154/154
f 149/149/149 155/155/155 154/154/154
f 152/152/152 156/156/156 149/149/149
f 153/153/153 156/156/156 152/152/152
f 157/157/157 149/149/149 156/156/156
f 158/158/158 156/156/156 153/153/153
f 156/156/156 158/158/158 157/157/157
f 157/157/157 158/158/158 159/159/159
f 157/157/157 160/160/160 149/149/149
f 155/155/155 149/149/149 160/160/160
f 160/160/160 157/157/157 161/161/161
f 159/159/159 161/161/161 157/157/157
f 161/161/161 155/155/155 160/160/160
f 159/159/159 155/155/155 161/161/161
f 158/158/158 153/153/153 162/162/162
f 153/153/153 154/154/154 162/162/162
f 162/162/162 163/163/163 158/158/158
f 159/159/159 158/158/158 163/163/163
f 163/163/163 162/162/162 164/164/164
f 154/154/154 164/164/164 162/162/162
f 163/163/163 164/164/164 159/159/159
f 164/164/164 154/154/154 159/159/159
f 159/159/159 154/154/154 165/165/165
f 155/155/155 159/159/159 165/165/165
f 166/166/166 154/154/154 155/155/155
f 154/154/154 166/166/166 165/165/165
f 167/167/167 166/166/166 155/155/155
f 165/165/165 166/166/166 167/167/167
f 167/167/167 155/155/155 165/165/165
