g Chise_Original_Halo
v -0.14665698 -0.04765205 0.037081778
v -0.061335996 -0.11188334 0.09678458
v -0.061335996 -0.11474243 0.09337723
v -0.14665698 -0.044792973 0.040489122
v -0.14665698 0.04479298 -0.0404891
v -0.14665698 0.047652066 -0.037081756
v -0.061335996 0.11188336 -0.09678456
v -0.061335996 0.11474244 -0.093376935
v -0.055917412 -0.10490361 0.08512139
v -0.055917412 -0.102044255 0.08852874
v -0.13381307 -0.040792607 0.037132397
v -0.13381307 -0.04365197 0.033725053
v -0.13381307 0.043651983 -0.033725046
v -0.13381307 0.040792614 -0.03713239
v -0.055917412 0.10490362 -0.085121095
v -0.055917412 0.10204427 -0.08852872
v -0.055917412 0.10204427 -0.08852872
v -0.055917412 0.10490362 -0.085121095
v 0.055917397 0.10490362 -0.085121095
v 0.055917397 0.10204427 -0.08852872
v 0.061335973 0.11188336 -0.09678456
v 0.061335973 0.11474244 -0.093376935
v -0.061335996 0.11474244 -0.093376935
v -0.061335996 0.11188336 -0.09678456
v -0.111689225 -0.04898718 0.013461411
v -0.04654044 -0.09735604 0.059854567
v -0.04654044 -0.100215405 0.056447223
v -0.111689225 -0.04612782 0.016869038
v -0.11168896 0.0217634 -0.045905158
v -0.11168896 0.024622768 -0.042497814
v -0.04654044 0.072991624 -0.08889097
v -0.04654044 0.07585099 -0.08548334
v -0.041347876 -0.090844296 0.048583835
v -0.041347876 -0.087984934 0.05199118
v -0.09941876 -0.042322144 0.01367569
v -0.09941876 -0.045181505 0.010268331
v -0.09941876 0.020817086 -0.039304458
v -0.09941876 0.017958015 -0.042712085
v -0.041347876 0.06647988 -0.07762024
v -0.041347876 0.06362052 -0.08102758
v -0.041347876 0.06362052 -0.08102758
v -0.041347876 0.06647988 -0.07762024
v 0.04134786 0.06647988 -0.07762024
v 0.04134786 0.06362052 -0.08102758
v 0.046540417 0.072991624 -0.08889097
v 0.046540417 0.07585099 -0.08548334
v -0.04654044 0.07585099 -0.08548334
v -0.04654044 0.072991624 -0.08889097
v 0.13381304 -0.04365197 0.033725053
v 0.055917397 -0.102044255 0.08852874
v 0.055917397 -0.10490361 0.08512111
v 0.13381304 -0.040792607 0.037132397
v 0.13381304 0.040792614 -0.03713239
v 0.13381304 0.043651983 -0.033725046
v 0.055917397 0.10204427 -0.08852872
v 0.055917397 0.10490362 -0.085121095
v 0.061335973 -0.11474243 0.09337695
v 0.061335973 -0.11188334 0.09678458
v 0.14665695 -0.044792973 0.040489122
v 0.14665695 -0.04765205 0.037081778
v 0.14665695 0.047652066 -0.037081756
v 0.14665695 0.04479298 -0.0404891
v 0.061335973 0.11474244 -0.093376935
v 0.061335973 0.11188336 -0.09678456
v 0.099418744 -0.045181505 0.010268331
v 0.04134786 -0.087984934 0.05199118
v 0.04134786 -0.090844296 0.048583835
v 0.099418744 -0.042322144 0.01367569
v 0.099418744 0.017958015 -0.042712085
v 0.099418744 0.020817086 -0.039304458
v 0.04134786 0.06362052 -0.08102758
v 0.04134786 0.06647988 -0.07762024
v 0.046540417 -0.100215405 0.056447223
v 0.046540417 -0.09735604 0.059854567
v 0.11168893 -0.04612782 0.016869038
v 0.11168893 -0.04898718 0.013461411
v 0.11168893 0.024622768 -0.042497814
v 0.11168893 0.0217634 -0.045905158
v 0.046540417 0.07585099 -0.08548334
v 0.046540417 0.072991624 -0.08889097
v 0.055917397 -0.10490361 0.08512111
v 0.055917397 -0.102044255 0.08852874
v -0.055917412 -0.102044255 0.08852874
v -0.055917412 -0.10490361 0.08512139
v -0.061335996 -0.11474243 0.09337723
v -0.061335996 -0.11188334 0.09678458
v 0.061335973 -0.11188334 0.09678458
v 0.061335973 -0.11474243 0.09337695
v 0.04134786 -0.090844296 0.048583835
v 0.04134786 -0.087984934 0.05199118
v -0.041347876 -0.087984934 0.05199118
v -0.041347876 -0.090844296 0.048583835
v -0.04654044 -0.100215405 0.056447223
v -0.04654044 -0.09735604 0.059854567
v 0.046540417 -0.09735604 0.059854567
v 0.046540417 -0.100215405 0.056447223
v 9.685755E-07 -0.04673455 0.01157102
v 9.685755E-07 -0.043875463 0.014978647
v -0.011133254 -0.05473052 0.024087086
v -0.011133254 -0.05758988 0.020679742
v -0.016441062 -0.061579898 0.029834345
v -0.016441062 -0.06443926 0.026427
v 9.685755E-07 -0.07928461 0.044690326
v 9.685755E-07 -0.08214369 0.04128298
v 9.685755E-07 -0.08214369 0.04128298
v 9.685755E-07 -0.07928461 0.044690326
v 0.016443 -0.061579898 0.029834345
v 0.016443 -0.06443926 0.026427
v 0.011135191 -0.05473052 0.024087086
v 0.011135191 -0.05758988 0.020679742
v 9.685755E-07 -0.043875463 0.014978647
v 9.685755E-07 -0.04673455 0.01157102
v 0.0574089 -0.0050835907 -0.023378253
v 0.043238528 -0.010753363 -0.012814105
v 0.043238528 -0.013612732 -0.016221449
v 0.0574089 -0.0022242367 -0.019970909
v 0.06635007 -0.0010172129 -0.02679035
v 0.06635007 0.0018418729 -0.023382723
v 0.08946189 -0.013612732 -0.016221449
v 0.08946189 -0.0107536465 -0.012814105
v 0.06635007 -0.026207961 -0.005652562
v 0.08946189 -0.0107536465 -0.012814105
v 0.08946189 -0.013612732 -0.016221449
v 0.06635007 -0.023348875 -0.0022452176
v 0.0574089 -0.022141859 -0.0090646595
v 0.0574089 -0.019282773 -0.005657032
v 0.043238528 -0.013612732 -0.016221449
v 0.043238528 -0.010753363 -0.012814105
v -0.057408914 -0.022140458 -0.009065777
v -0.04323855 -0.010751963 -0.012815222
v -0.04323855 -0.013611332 -0.016222566
v -0.057408914 -0.019281372 -0.005658433
v -0.06635009 -0.02620656 -0.0056539625
v -0.06635009 -0.023347482 -0.0022463351
v -0.08946191 -0.013611332 -0.016222566
v -0.08946191 -0.010751963 -0.012815222
v -0.06635009 -0.0010158122 -0.026791468
v -0.08946191 -0.010751963 -0.012815222
v -0.08946191 -0.013611332 -0.016222566
v -0.06635009 0.0018432587 -0.023384124
v -0.057408914 -0.005081922 -0.023379646
v -0.057408914 -0.002222836 -0.019972026
v -0.04323855 -0.013611332 -0.016222566
v -0.04323855 -0.010751963 -0.012815222
v -9.834766E-07 0.019510776 -0.044015333
v -9.834766E-07 0.022369847 -0.040607706
v 0.011133239 0.033225194 -0.049716428
v 0.011133239 0.030365825 -0.053123772
v 0.016441032 0.040074557 -0.055463687
v 0.016441032 0.037215203 -0.05887103
v -9.834766E-07 0.057779 -0.07031966
v -9.834766E-07 0.054919913 -0.07372701
v -9.834766E-07 0.054919913 -0.07372701
v -9.834766E-07 0.057779 -0.07031966
v -0.016443014 0.040074557 -0.055463687
v -0.016443014 0.037215203 -0.05887103
v -0.011135206 0.033225194 -0.049716428
v -0.011135206 0.030365825 -0.053123772
v -9.834766E-07 0.022369847 -0.040607706
v -9.834766E-07 0.019510776 -0.044015333
v -9.834766E-07 0.04007092 -0.05546061
v -0.016443014 0.040074557 -0.055463687
v -9.834766E-07 0.057779 -0.07031966
v 0.016441032 0.040074557 -0.055463687
v -0.0064702183 0.033078328 -0.04959335
v -0.011135206 0.033225194 -0.049716428
v 0.0064682364 0.033078328 -0.04959335
v 0.011133239 0.033225194 -0.049716428
v -9.834766E-07 0.022369847 -0.040607706
v -9.834766E-07 0.026086017 -0.043726094
v -0.04323855 -0.010751963 -0.012815222
v -0.057217583 -0.005796343 -0.016973644
v -0.057408914 -0.002222836 -0.019972026
v -0.06635009 0.0018432587 -0.023384124
v -0.048089832 -0.010751963 -0.012815222
v -0.066345334 -0.010751963 -0.012815222
v -0.08946191 -0.010751963 -0.012815222
v -0.06635009 -0.023347482 -0.0022463351
v -0.057217583 -0.01570788 -0.008656815
v -0.057408914 -0.019281372 -0.005658433
v 0.043238528 -0.010753363 -0.012814105
v 0.05721757 -0.015709281 -0.008655697
v 0.0574089 -0.019282773 -0.005657032
v 0.06635007 -0.023348875 -0.0022452176
v 0.048089825 -0.010753363 -0.012814105
v 0.06634531 -0.010753363 -0.012814105
v 0.08946189 -0.0107536465 -0.012814105
v 0.06635007 0.0018418729 -0.023382723
v 0.05721757 -0.005797744 -0.016972244
v 0.0574089 -0.0022242367 -0.019970909
v 9.685755E-07 -0.043875463 0.014978647
v 0.011135191 -0.05473052 0.024087086
v 0.0064702034 -0.054583944 0.023964286
v 0.016443 -0.061579898 0.029834345
v 9.685755E-07 -0.047591627 0.01809676
v 9.685755E-07 -0.061576262 0.029831275
v 9.685755E-07 -0.07928461 0.044690326
v -0.016441062 -0.061579898 0.029834345
v -0.0064682513 -0.054583944 0.023964286
v -0.011133254 -0.05473052 0.024087086
v -0.09941876 -0.042322144 0.01367569
v -0.041347876 -0.087984934 0.05199118
v -0.04654044 -0.09735604 0.059854567
v 0.04134786 -0.087984934 0.05199118
v -0.111689225 -0.04612782 0.016869038
v 0.046540417 -0.09735604 0.059854567
v -0.09941876 0.020817086 -0.039304458
v 0.099418744 -0.042322144 0.01367569
v -0.11168896 0.024622768 -0.042497814
v 0.11168893 -0.04612782 0.016869038
v 0.099418744 0.020817086 -0.039304458
v 0.11168893 0.024622768 -0.042497814
v 0.04134786 0.06647988 -0.07762024
v 0.046540417 0.07585099 -0.08548334
v -0.041347876 0.06647988 -0.07762024
v -0.04654044 0.07585099 -0.08548334
v -0.13381307 -0.040792607 0.037132397
v -0.055917412 -0.102044255 0.08852874
v -0.061335996 -0.11188334 0.09678458
v 0.055917397 -0.102044255 0.08852874
v -0.14665698 -0.044792973 0.040489122
v 0.061335973 -0.11188334 0.09678458
v -0.13381307 0.043651983 -0.033725046
v 0.13381304 -0.040792607 0.037132397
v -0.14665698 0.047652066 -0.037081756
v 0.14665695 -0.044792973 0.040489122
v 0.13381304 0.043651983 -0.033725046
v 0.14665695 0.047652066 -0.037081756
v 0.055917397 0.10490362 -0.085121095
v 0.061335973 0.11474244 -0.093376935
v -0.055917412 0.10490362 -0.085121095
v -0.061335996 0.11474244 -0.093376935
v -9.834766E-07 0.037211567 -0.058867954
v -9.834766E-07 0.04007092 -0.05546061
v 0.0064682364 0.033078328 -0.04959335
v 0.0064682364 0.030219257 -0.053000696
v -0.0064702183 0.030219257 -0.053000696
v -9.834766E-07 0.026086017 -0.043726094
v -0.0064702183 0.033078328 -0.04959335
v -9.834766E-07 0.023226932 -0.04713344
v -0.057217583 -0.018566951 -0.012064442
v -0.057217583 -0.01570788 -0.008656815
v -0.066345334 -0.010751963 -0.012815222
v -0.048089832 -0.013611332 -0.016222566
v -0.066345334 -0.013611332 -0.016222566
v -0.048089832 -0.010751963 -0.012815222
v -0.057217583 -0.005796343 -0.016973644
v -0.057217583 -0.008655414 -0.020380989
v 0.05721757 -0.008656815 -0.020379871
v 0.05721757 -0.005797744 -0.016972244
v 0.06634531 -0.010753363 -0.012814105
v 0.048089825 -0.013612732 -0.016221449
v 0.06634531 -0.013612732 -0.016221449
v 0.048089825 -0.010753363 -0.012814105
v 0.05721757 -0.015709281 -0.008655697
v 0.05721757 -0.018568352 -0.012063041
v 9.685755E-07 -0.06443562 0.026423931
v 9.685755E-07 -0.061576262 0.029831275
v -0.0064682513 -0.054583944 0.023964286
v -0.0064682513 -0.05744303 0.020556673
v 0.0064702034 -0.05744303 0.020556673
v 9.685755E-07 -0.047591627 0.01809676
v 0.0064702034 -0.054583944 0.023964286
v 9.685755E-07 -0.050450712 0.014689416
vt 0.95018435 0.6852217
vt 0.6882841 0.9540643
vt 0.6882841 0.9540643
vt 0.95018435 0.6852217
vt 0.95018435 0.3147784
vt 0.95018435 0.3147784
vt 0.6882841 0.045935765
vt 0.6882841 0.045935765
vt 0.6716417 0.9146407
vt 0.6716417 0.9146407
vt 0.9107607 0.669189
vt 0.9107607 0.669189
vt 0.9107607 0.33081114
vt 0.9107607 0.33081114
vt 0.6716417 0.085359365
vt 0.6716417 0.085359365
vt 0.6716417 0.085359365
vt 0.6716417 0.085359365
vt 0.3283584 0.085359365
vt 0.3283584 0.085359365
vt 0.31171596 0.045935765
vt 0.31171596 0.045935765
vt 0.6882841 0.045935765
vt 0.6882841 0.045935765
vt 0.8428468 0.6417518
vt 0.64286035 0.84703165
vt 0.64286035 0.84703165
vt 0.8428468 0.6417518
vt 0.8428468 0.3582483
vt 0.8428468 0.3582483
vt 0.64286035 0.15296842
vt 0.64286035 0.15296842
vt 0.62692463 0.8094788
vt 0.62692463 0.8094788
vt 0.80518305 0.62650895
vt 0.80518305 0.62650895
vt 0.80518305 0.37349117
vt 0.80518305 0.37349117
vt 0.62692463 0.19052131
vt 0.62692463 0.19052131
vt 0.62692463 0.19052131
vt 0.62692463 0.19052131
vt 0.3730755 0.19052131
vt 0.3730755 0.19052131
vt 0.3571397 0.15296842
vt 0.3571397 0.15296842
vt 0.64286035 0.15296842
vt 0.64286035 0.15296842
vt 0.089239374 0.669189
vt 0.3283584 0.9146407
vt 0.3283584 0.9146407
vt 0.089239374 0.669189
vt 0.089239374 0.33081114
vt 0.089239374 0.33081114
vt 0.3283584 0.085359365
vt 0.3283584 0.085359365
vt 0.31171596 0.9540643
vt 0.31171596 0.9540643
vt 0.049815767 0.6852217
vt 0.049815767 0.6852217
vt 0.049815767 0.3147784
vt 0.049815767 0.3147784
vt 0.31171596 0.045935765
vt 0.31171596 0.045935765
vt 0.19481702 0.62650895
vt 0.3730755 0.8094788
vt 0.3730755 0.8094788
vt 0.19481702 0.62650895
vt 0.19481702 0.37349117
vt 0.19481702 0.37349117
vt 0.3730755 0.19052131
vt 0.3730755 0.19052131
vt 0.3571397 0.84703165
vt 0.3571397 0.84703165
vt 0.15715328 0.6417518
vt 0.15715328 0.6417518
vt 0.15715328 0.3582483
vt 0.15715328 0.3582483
vt 0.3571397 0.15296842
vt 0.3571397 0.15296842
vt 0.3283584 0.9146407
vt 0.3283584 0.9146407
vt 0.6716417 0.9146407
vt 0.6716417 0.9146407
vt 0.6882841 0.9540643
vt 0.6882841 0.9540643
vt 0.31171596 0.9540643
vt 0.31171596 0.9540643
vt 0.3730755 0.8094788
vt 0.3730755 0.8094788
vt 0.62692463 0.8094788
vt 0.62692463 0.8094788
vt 0.64286035 0.84703165
vt 0.64286035 0.84703165
vt 0.3571397 0.84703165
vt 0.3571397 0.84703165
vt 0.49999315 0.6327308
vt 0.49999315 0.6327308
vt 0.53417873 0.6762284
vt 0.53417873 0.6762284
vt 0.5504747 0.70367944
vt 0.5504747 0.70367944
vt 0.49999315 0.7746142
vt 0.49999315 0.7746142
vt 0.49999315 0.7746142
vt 0.49999315 0.7746142
vt 0.44952536 0.70367944
vt 0.44952536 0.70367944
vt 0.4658214 0.6762284
vt 0.4658214 0.6762284
vt 0.49999315 0.6327308
vt 0.49999315 0.6327308
vt 0.32377172 0.4658214
vt 0.36726934 0.500007
vt 0.36726934 0.500007
vt 0.32377172 0.4658214
vt 0.29632068 0.44952536
vt 0.29632068 0.44952536
vt 0.2253859 0.500007
vt 0.2253859 0.500007
vt 0.29632068 0.5504747
vt 0.2253859 0.500007
vt 0.2253859 0.500007
vt 0.29632068 0.5504747
vt 0.32377172 0.53417873
vt 0.32377172 0.53417873
vt 0.36726934 0.500007
vt 0.36726934 0.500007
vt 0.6762284 0.53417873
vt 0.6327308 0.49999315
vt 0.6327308 0.49999315
vt 0.6762284 0.53417873
vt 0.70367944 0.5504747
vt 0.70367944 0.5504747
vt 0.7746142 0.49999315
vt 0.7746142 0.49999315
vt 0.70367944 0.44952536
vt 0.7746142 0.49999315
vt 0.7746142 0.49999315
vt 0.70367944 0.44952536
vt 0.6762284 0.4658214
vt 0.6762284 0.4658214
vt 0.6327308 0.49999315
vt 0.6327308 0.49999315
vt 0.500007 0.36726934
vt 0.500007 0.36726934
vt 0.4658214 0.32377172
vt 0.4658214 0.32377172
vt 0.44952536 0.29632068
vt 0.44952536 0.29632068
vt 0.500007 0.2253859
vt 0.500007 0.2253859
vt 0.500007 0.2253859
vt 0.500007 0.2253859
vt 0.5504747 0.29632068
vt 0.5504747 0.29632068
vt 0.53417873 0.32377172
vt 0.53417873 0.32377172
vt 0.500007 0.36726934
vt 0.500007 0.36726934
vt 0.500007 0.29633456
vt 0.5504747 0.29632068
vt 0.500007 0.2253859
vt 0.44952536 0.29632068
vt 0.51986426 0.32436758
vt 0.53417873 0.32377172
vt 0.4801497 0.32436758
vt 0.4658214 0.32377172
vt 0.500007 0.36726934
vt 0.500007 0.3523867
vt 0.6327308 0.49999315
vt 0.67563254 0.4801358
vt 0.6762284 0.4658214
vt 0.70367944 0.44952536
vt 0.64761335 0.49999315
vt 0.70366555 0.49999315
vt 0.7746142 0.49999315
vt 0.70367944 0.5504747
vt 0.67563254 0.51985043
vt 0.6762284 0.53417873
vt 0.36726934 0.500007
vt 0.32436758 0.51986426
vt 0.32377172 0.53417873
vt 0.29632068 0.5504747
vt 0.3523867 0.500007
vt 0.29633456 0.500007
vt 0.2253859 0.500007
vt 0.29632068 0.44952536
vt 0.32436758 0.4801497
vt 0.32377172 0.4658214
vt 0.49999315 0.6327308
vt 0.4658214 0.6762284
vt 0.4801358 0.67563254
vt 0.44952536 0.70367944
vt 0.49999315 0.64761335
vt 0.49999315 0.70366555
vt 0.49999315 0.7746142
vt 0.5504747 0.70367944
vt 0.51985043 0.67563254
vt 0.53417873 0.6762284
vt 0.80518305 0.62650895
vt 0.62692463 0.8094788
vt 0.64286035 0.84703165
vt 0.3730755 0.8094788
vt 0.8428468 0.6417518
vt 0.3571397 0.84703165
vt 0.80518305 0.37349117
vt 0.19481702 0.62650895
vt 0.8428468 0.3582483
vt 0.15715328 0.6417518
vt 0.19481702 0.37349117
vt 0.15715328 0.3582483
vt 0.3730755 0.19052131
vt 0.3571397 0.15296842
vt 0.62692463 0.19052131
vt 0.64286035 0.15296842
vt 0.9107607 0.669189
vt 0.6716417 0.9146407
vt 0.6882841 0.9540643
vt 0.3283584 0.9146407
vt 0.95018435 0.6852217
vt 0.31171596 0.9540643
vt 0.9107607 0.33081114
vt 0.089239374 0.669189
vt 0.95018435 0.3147784
vt 0.049815767 0.6852217
vt 0.089239374 0.33081114
vt 0.049815767 0.3147784
vt 0.3283584 0.085359365
vt 0.31171596 0.045935765
vt 0.6716417 0.085359365
vt 0.6882841 0.045935765
vt 0.500007 0.29633456
vt 0.500007 0.29633456
vt 0.4801497 0.32436758
vt 0.4801497 0.32436758
vt 0.51986426 0.32436758
vt 0.500007 0.3523867
vt 0.51986426 0.32436758
vt 0.500007 0.3523867
vt 0.67563254 0.51985043
vt 0.67563254 0.51985043
vt 0.70366555 0.49999315
vt 0.64761335 0.49999315
vt 0.70366555 0.49999315
vt 0.64761335 0.49999315
vt 0.67563254 0.4801358
vt 0.67563254 0.4801358
vt 0.32436758 0.4801497
vt 0.32436758 0.4801497
vt 0.29633456 0.500007
vt 0.3523867 0.500007
vt 0.29633456 0.500007
vt 0.3523867 0.500007
vt 0.32436758 0.51986426
vt 0.32436758 0.51986426
vt 0.49999315 0.70366555
vt 0.49999315 0.70366555
vt 0.51985043 0.67563254
vt 0.51985043 0.67563254
vt 0.4801358 0.67563254
vt 0.49999315 0.64761335
vt 0.4801358 0.67563254
vt 0.49999315 0.64761335
vn -0.9257083 -0.2883674 0.2447619
vn -0.7165197 -0.5347016 0.44798854
vn -0.7165197 -0.5347016 0.44798854
vn -0.9257083 -0.2883674 0.2447619
vn -0.9257083 0.2883674 -0.2447619
vn -0.9257083 0.2883674 -0.2447619
vn -0.7165197 0.5347016 -0.44798854
vn -0.7165197 0.5347016 -0.44798854
vn 0.7165197 0.5347016 -0.44798854
vn 0.7165197 0.5347016 -0.44798854
vn 0.92570823 0.2883674 -0.24476215
vn 0.92570823 0.2883674 -0.24476215
vn 0.92570823 -0.2883674 0.24476215
vn 0.92570823 -0.2883674 0.24476215
vn 0.7165197 -0.5347016 0.44798854
vn 0.7165197 -0.5347016 0.44798854
vn 0.0009775162 -0.7653955 0.6435594
vn 0.0009775162 -0.7653955 0.6435594
vn 0.0009775162 -0.7653955 0.6435594
vn 0.0009775162 -0.7653955 0.6435594
vn -0.0009775162 0.7653955 -0.6435594
vn -0.0009775162 0.7653955 -0.6435594
vn -0.0009775162 0.7653955 -0.6435594
vn -0.0009775162 0.7653955 -0.6435594
vn -0.9257083 -0.2883674 0.2447619
vn -0.7165197 -0.5347016 0.44798854
vn -0.7165197 -0.5347016 0.44798854
vn -0.9257083 -0.2883674 0.2447619
vn -0.9257083 0.2883674 -0.2447619
vn -0.9257083 0.2883674 -0.2447619
vn -0.7165197 0.5347016 -0.44798854
vn -0.7165197 0.5347016 -0.44798854
vn 0.7165197 0.5347016 -0.44798854
vn 0.7165197 0.5347016 -0.44798854
vn 0.92570823 0.2883674 -0.24476215
vn 0.92570823 0.2883674 -0.24476215
vn 0.92570823 -0.2883674 0.24476215
vn 0.92570823 -0.2883674 0.24476215
vn 0.7165197 -0.5347016 0.44798854
vn 0.7165197 -0.5347016 0.44798854
vn -0.0009775162 -0.7653955 0.6435594
vn -0.0009775162 -0.7653955 0.6435594
vn -0.0009775162 -0.7653955 0.6435594
vn -0.0009775162 -0.7653955 0.6435594
vn -0.0009775162 0.7653955 -0.6435594
vn -0.0009775162 0.7653955 -0.6435594
vn -0.0009775162 0.7653955 -0.6435594
vn -0.0009775162 0.7653955 -0.6435594
vn -0.9257083 0.2883674 -0.2447619
vn -0.7165197 0.5347016 -0.44798854
vn -0.7165197 0.5347016 -0.44798854
vn -0.9257083 0.2883674 -0.2447619
vn -0.9257083 -0.2883674 0.2447619
vn -0.9257083 -0.2883674 0.2447619
vn -0.7165197 -0.5347016 0.44798854
vn -0.7165197 -0.5347016 0.44798854
vn 0.7165197 -0.5347016 0.44798854
vn 0.7165197 -0.5347016 0.44798854
vn 0.92570823 -0.2883674 0.24476215
vn 0.92570823 -0.2883674 0.24476215
vn 0.92570823 0.2883674 -0.24476215
vn 0.92570823 0.2883674 -0.24476215
vn 0.7165197 0.5347016 -0.44798854
vn 0.7165197 0.5347016 -0.44798854
vn -0.9257083 0.2883674 -0.2447619
vn -0.7165197 0.5347016 -0.44798854
vn -0.7165197 0.5347016 -0.44798854
vn -0.9257083 0.2883674 -0.2447619
vn -0.9257083 -0.2883674 0.2447619
vn -0.9257083 -0.2883674 0.2447619
vn -0.7165197 -0.5347016 0.44798854
vn -0.7165197 -0.5347016 0.44798854
vn 0.7165197 -0.5347016 0.44798854
vn 0.7165197 -0.5347016 0.44798854
vn 0.92570823 -0.2883674 0.24476215
vn 0.92570823 -0.2883674 0.24476215
vn 0.92570823 0.2883674 -0.24476215
vn 0.92570823 0.2883674 -0.24476215
vn 0.7165197 0.5347016 -0.44798854
vn 0.7165197 0.5347016 -0.44798854
vn -0.0009775162 0.7653955 -0.6435594
vn -0.0009775162 0.7653955 -0.6435594
vn -0.0009775162 0.7653955 -0.6435594
vn -0.0009775162 0.7653955 -0.6435594
vn -0.0009775162 -0.7653955 0.6435594
vn -0.0009775162 -0.7653955 0.6435594
vn -0.0009775162 -0.7653955 0.6435594
vn -0.0009775162 -0.7653955 0.6435594
vn -0.0009775162 0.7653955 -0.6435594
vn -0.0009775162 0.7653955 -0.6435594
vn -0.0009775162 0.7653955 -0.6435594
vn -0.0009775162 0.7653955 -0.6435594
vn -0.0009775162 -0.7653955 0.6435594
vn -0.0009775162 -0.7653955 0.6435594
vn -0.0009775162 -0.7653955 0.6435594
vn -0.0009775162 -0.7653955 0.6435594
vn -0.7869009 0.47409558 -0.39499417
vn -0.7869009 0.47409558 -0.39499417
vn -0.8240465 0.4330399 -0.36527222
vn -0.8240465 0.4330399 -0.36527222
vn -0.9994802 -0.03224128 -0
vn -0.9994802 -0.03224128 -0
vn -0.81427133 -0.4447701 0.37301713
vn -0.81427133 -0.4447701 0.37301713
vn 0.81427133 -0.4447701 0.37301713
vn 0.81427133 -0.4447701 0.37301713
vn 0.9994802 -0.03224128 -0
vn 0.9994802 -0.03224128 -0
vn 0.8240465 0.4330399 -0.36527222
vn 0.8240465 0.4330399 -0.36527222
vn 0.7869009 0.47409558 -0.39499417
vn 0.7869009 0.47409558 -0.39499417
vn -0.5659821 0.6324533 -0.52883554
vn -0.618768 0.6031277 -0.5033519
vn -0.618768 0.6031277 -0.5033519
vn -0.5659821 0.6324533 -0.52883554
vn 0.042033195 0.7653955 -0.642186
vn 0.042033195 0.7653955 -0.642186
vn 0.5796673 0.6246331 -0.52327746
vn 0.5796673 0.6246331 -0.52327746
vn 0.042033195 -0.7653955 0.642186
vn 0.5796673 -0.62463313 0.5232774
vn 0.5796673 -0.62463313 0.5232774
vn 0.042033195 -0.7653955 0.642186
vn -0.5659821 -0.63245326 0.52883565
vn -0.5659821 -0.63245326 0.52883565
vn -0.618768 -0.6031278 0.50335187
vn -0.618768 -0.6031278 0.50335187
vn 0.5659821 -0.63245326 0.52883565
vn 0.61876804 -0.6031278 0.50335175
vn 0.61876804 -0.6031278 0.50335175
vn 0.5659821 -0.63245326 0.52883565
vn -0.042033195 -0.7653955 0.642186
vn -0.042033195 -0.7653955 0.642186
vn -0.5796673 -0.62463313 0.5232774
vn -0.5796673 -0.62463313 0.5232774
vn -0.042033195 0.7653955 -0.642186
vn -0.5796673 0.6246331 -0.52327746
vn -0.5796673 0.6246331 -0.52327746
vn -0.042033195 0.7653955 -0.642186
vn 0.5659821 0.6324533 -0.52883554
vn 0.5659821 0.6324533 -0.52883554
vn 0.61876804 0.6031277 -0.50335187
vn 0.61876804 0.6031277 -0.50335187
vn 0.7869009 -0.47409558 0.39499417
vn 0.7869009 -0.47409558 0.39499417
vn 0.8240465 -0.43303984 0.36527228
vn 0.8240465 -0.43303984 0.36527228
vn 0.9994802 0.03224128 -0
vn 0.9994802 0.03224128 -0
vn 0.81427133 0.4447701 -0.37301713
vn 0.81427133 0.4447701 -0.37301713
vn -0.81427133 0.4447701 -0.37301713
vn -0.81427133 0.4447701 -0.37301713
vn -0.9994802 0.03224128 -0
vn -0.9994802 0.03224128 -0
vn -0.8240465 -0.43303984 0.36527228
vn -0.8240465 -0.43303984 0.36527228
vn -0.7869009 -0.47409558 0.39499417
vn -0.7869009 -0.47409558 0.39499417
vn -0.0009775162 0.6422285 0.76651263
vn 0.0009775162 0.6422285 0.76651263
vn -0.0009775162 0.6422285 0.76651263
vn -0.0009775162 0.6422285 0.76651263
vn 0.0009775162 0.6422285 0.76651263
vn 0.0009775162 0.6422285 0.76651263
vn -0.0009775162 0.6422285 0.76651263
vn -0.0009775162 0.6422285 0.76651263
vn 0.0009775162 0.6422285 0.76651263
vn 0.0009775162 0.6422285 0.76651263
vn -0.0009775162 0.6422285 0.76651263
vn -0.0009775162 0.6422285 0.76651263
vn -0.0009775162 0.6422285 0.76651263
vn -0.0009775162 0.6422285 0.76651263
vn -0.0009775162 0.6422285 0.76651263
vn -0.0009775162 0.6422285 0.76651263
vn -0.0009775162 0.6422285 0.76651263
vn -0.0009775162 0.6422285 0.76651263
vn -0.0009775162 0.6422285 0.76651263
vn -0.0009775162 0.6422285 0.76651263
vn -0.0009775162 0.6422285 0.76651263
vn 0.0009775162 0.6422285 0.76651263
vn 0.0009775162 0.6422285 0.76651263
vn 0.0009775162 0.6422285 0.76651263
vn -0.0009775162 0.6422285 0.76651263
vn 0.0009775162 0.6422285 0.76651263
vn -0.0009775162 0.6422285 0.76651263
vn 0.0009775162 0.6422285 0.76651263
vn 0.0009775162 0.6422285 0.76651263
vn 0.0009775162 0.6422285 0.76651263
vn -0.0009775162 0.6422285 0.76651263
vn 0.0009775162 0.6422285 0.76651263
vn 0.0009775162 0.6422285 0.76651263
vn -0.0009775162 0.6422285 0.76651263
vn -0.0009775162 0.6422285 0.76651263
vn -0.0009775162 0.6422285 0.76651263
vn -0.0009775162 0.6422285 0.76651263
vn 0.0009775162 0.6422285 0.76651263
vn -0.0009775162 0.6422285 0.76651263
vn -0.0009775162 0.6422285 0.76651263
vn 0.0009775162 0.6422285 0.76651263
vn 0.0009775162 0.6422285 0.76651263
vn 0.0009775162 0.6422285 0.76651263
vn -0.0009775162 0.6422285 0.76651263
vn 0.0009775162 0.6422285 0.76651263
vn -0.0009775162 0.6422285 0.76651263
vn 0.0009775162 0.6422285 0.76651263
vn -0.0009775162 0.6422285 0.76651263
vn 0.0009775162 0.6422285 0.76651263
vn -0.0009775162 0.6422285 0.76651263
vn -0.0009775162 0.6422285 0.76651263
vn -0.0009775162 0.6422285 0.76651263
vn -0.0009775162 0.6422285 0.76651263
vn -0.0009775162 0.6422285 0.76651263
vn -0.0009775162 0.6422285 0.76651263
vn -0.0009775162 0.6422285 0.76651263
vn 0.0009775162 0.6422285 0.76651263
vn 0.0009775162 0.6422285 0.76651263
vn 0.0009775162 0.6422285 0.76651263
vn -0.0009775162 0.6422285 0.76651263
vn 0.0009775162 0.6422285 0.76651263
vn -0.0009775162 0.6422285 0.76651263
vn 0.0009775162 0.6422285 0.76651263
vn -0.0009775162 0.6422285 0.76651263
vn 0.0009775162 0.6422285 0.76651263
vn -0.0009775162 0.6422285 0.76651263
vn -0.0009775162 0.6422285 0.76651263
vn -0.0009775162 0.6422285 0.76651263
vn -0.0009775162 0.6422285 0.76651263
vn -0.0009775162 0.6422285 0.76651263
vn 0.0009775162 0.6422285 0.76651263
vn 0.0009775162 0.6422285 0.76651263
vn -0.0009775162 -0.7653955 0.6435594
vn -0.0009775162 -0.7653955 0.6435594
vn -0.9999995 -0.0009775162 -0
vn -0.9999995 -0.0009775162 -0
vn 0.9999995 -0.0009775162 -0
vn -0.0009775162 0.7653955 -0.6435594
vn 0.9999995 -0.0009775162 -0
vn -0.0009775162 0.7653955 -0.6435594
vn -0.0009775162 0.7653955 -0.6435594
vn 0.0009775162 0.7653955 -0.6435594
vn 0.9999995 0.0009775162 -0
vn -0.9999995 0.0009775162 -0
vn 0.9999995 0.0009775162 -0
vn -0.9999995 -0.0009775162 -0
vn 0.0009775162 -0.7653955 0.6435594
vn -0.0009775162 -0.7653955 0.6435594
vn -0.0009775162 -0.7653955 0.6435594
vn -0.0009775162 -0.7653955 0.6435594
vn -0.9999995 0.0009775162 -0
vn 0.9999995 0.0009775162 -0
vn -0.9999995 0.0009775162 -0
vn 0.9999995 -0.0009775162 -0
vn -0.0009775162 0.7653955 -0.6435594
vn -0.0009775162 0.7653955 -0.6435594
vn -0.0009775162 0.7653955 -0.6435594
vn -0.0009775162 0.7653955 -0.6435594
vn 0.9999995 0.0009775162 -0
vn 0.9999995 0.0009775162 -0
vn -0.9999995 0.0009775162 -0
vn -0.0009775162 -0.7653955 0.6435594
vn -0.9999995 0.0009775162 -0
vn -0.0009775162 -0.7653955 0.6435594
g Chise_Original_Halo_0
f 3/3/3 2/2/2 1/1/1
f 2/2/2 4/4/4 1/1/1
f 1/1/1 4/4/4 5/5/5
f 4/4/4 6/6/6 5/5/5
f 5/5/5 6/6/6 7/7/7
f 6/6/6 8/8/8 7/7/7
f 11/11/11 10/10/10 9/9/9
f 12/12/12 11/11/11 9/9/9
f 13/13/13 11/11/11 12/12/12
f 14/14/14 13/13/13 12/12/12
f 15/15/15 13/13/13 14/14/14
f 16/16/16 15/15/15 14/14/14
f 19/19/19 18/18/18 17/17/17
f 20/20/20 19/19/19 17/17/17
f 23/23/23 22/22/22 21/21/21
f 24/24/24 23/23/23 21/21/21
f 27/27/27 26/26/26 25/25/25
f 26/26/26 28/28/28 25/25/25
f 25/25/25 28/28/28 29/29/29
f 28/28/28 30/30/30 29/29/29
f 29/29/29 30/30/30 31/31/31
f 30/30/30 32/32/32 31/31/31
f 35/35/35 34/34/34 33/33/33
f 36/36/36 35/35/35 33/33/33
f 37/37/37 35/35/35 36/36/36
f 38/38/38 37/37/37 36/36/36
f 39/39/39 37/37/37 38/38/38
f 40/40/40 39/39/39 38/38/38
f 43/43/43 42/42/42 41/41/41
f 44/44/44 43/43/43 41/41/41
f 47/47/47 46/46/46 45/45/45
f 48/48/48 47/47/47 45/45/45
f 51/51/51 50/50/50 49/49/49
f 50/50/50 52/52/52 49/49/49
f 49/49/49 52/52/52 53/53/53
f 52/52/52 54/54/54 53/53/53
f 53/53/53 54/54/54 55/55/55
f 54/54/54 56/56/56 55/55/55
f 59/59/59 58/58/58 57/57/57
f 60/60/60 59/59/59 57/57/57
f 61/61/61 59/59/59 60/60/60
f 62/62/62 61/61/61 60/60/60
f 63/63/63 61/61/61 62/62/62
f 64/64/64 63/63/63 62/62/62
f 67/67/67 66/66/66 65/65/65
f 66/66/66 68/68/68 65/65/65
f 65/65/65 68/68/68 69/69/69
f 68/68/68 70/70/70 69/69/69
f 69/69/69 70/70/70 71/71/71
f 70/70/70 72/72/72 71/71/71
f 75/75/75 74/74/74 73/73/73
f 76/76/76 75/75/75 73/73/73
f 77/77/77 75/75/75 76/76/76
f 78/78/78 77/77/77 76/76/76
f 79/79/79 77/77/77 78/78/78
f 80/80/80 79/79/79 78/78/78
f 83/83/83 82/82/82 81/81/81
f 84/84/84 83/83/83 81/81/81
f 87/87/87 86/86/86 85/85/85
f 88/88/88 87/87/87 85/85/85
f 91/91/91 90/90/90 89/89/89
f 92/92/92 91/91/91 89/89/89
f 95/95/95 94/94/94 93/93/93
f 96/96/96 95/95/95 93/93/93
f 99/99/99 98/98/98 97/97/97
f 100/100/100 99/99/99 97/97/97
f 101/101/101 99/99/99 100/100/100
f 102/102/102 101/101/101 100/100/100
f 103/103/103 101/101/101 102/102/102
f 104/104/104 103/103/103 102/102/102
f 107/107/107 106/106/106 105/105/105
f 108/108/108 107/107/107 105/105/105
f 109/109/109 107/107/107 108/108/108
f 110/110/110 109/109/109 108/108/108
f 111/111/111 109/109/109 110/110/110
f 112/112/112 111/111/111 110/110/110
f 115/115/115 114/114/114 113/113/113
f 114/114/114 116/116/116 113/113/113
f 113/113/113 116/116/116 117/117/117
f 116/116/116 118/118/118 117/117/117
f 117/117/117 118/118/118 119/119/119
f 118/118/118 120/120/120 119/119/119
f 123/123/123 122/122/122 121/121/121
f 122/122/122 124/124/124 121/121/121
f 121/121/121 124/124/124 125/125/125
f 124/124/124 126/126/126 125/125/125
f 125/125/125 126/126/126 127/127/127
f 126/126/126 128/128/128 127/127/127
f 131/131/131 130/130/130 129/129/129
f 130/130/130 132/132/132 129/129/129
f 129/129/129 132/132/132 133/133/133
f 132/132/132 134/134/134 133/133/133
f 133/133/133 134/134/134 135/135/135
f 134/134/134 136/136/136 135/135/135
f 139/139/139 138/138/138 137/137/137
f 138/138/138 140/140/140 137/137/137
f 137/137/137 140/140/140 141/141/141
f 140/140/140 142/142/142 141/141/141
f 141/141/141 142/142/142 143/143/143
f 142/142/142 144/144/144 143/143/143
f 147/147/147 146/146/146 145/145/145
f 148/148/148 147/147/147 145/145/145
f 149/149/149 147/147/147 148/148/148
f 150/150/150 149/149/149 148/148/148
f 151/151/151 149/149/149 150/150/150
f 152/152/152 151/151/151 150/150/150
f 155/155/155 154/154/154 153/153/153
f 156/156/156 155/155/155 153/153/153
f 157/157/157 155/155/155 156/156/156
f 158/158/158 157/157/157 156/156/156
f 159/159/159 157/157/157 158/158/158
f 160/160/160 159/159/159 158/158/158
f 163/163/163 162/162/162 161/161/161
f 163/163/163 161/161/161 164/164/164
f 165/165/165 161/161/161 162/162/162
f 166/166/166 165/165/165 162/162/162
f 161/161/161 167/167/167 164/164/164
f 167/167/167 168/168/168 164/164/164
f 165/165/165 166/166/166 169/169/169
f 168/168/168 167/167/167 169/169/169
f 170/170/170 165/165/165 169/169/169
f 167/167/167 170/170/170 169/169/169
f 173/173/173 172/172/172 171/171/171
f 172/172/172 173/173/173 174/174/174
f 172/172/172 175/175/175 171/171/171
f 176/176/176 172/172/172 174/174/174
f 176/176/176 174/174/174 177/177/177
f 178/178/178 176/176/176 177/177/177
f 175/175/175 179/179/179 171/171/171
f 179/179/179 176/176/176 178/178/178
f 179/179/179 180/180/180 171/171/171
f 180/180/180 179/179/179 178/178/178
f 183/183/183 182/182/182 181/181/181
f 182/182/182 183/183/183 184/184/184
f 182/182/182 185/185/185 181/181/181
f 186/186/186 182/182/182 184/184/184
f 186/186/186 184/184/184 187/187/187
f 188/188/188 186/186/186 187/187/187
f 185/185/185 189/189/189 181/181/181
f 189/189/189 186/186/186 188/188/188
f 189/189/189 190/190/190 181/181/181
f 190/190/190 189/189/189 188/188/188
f 193/193/193 192/192/192 191/191/191
f 192/192/192 193/193/193 194/194/194
f 195/195/195 193/193/193 191/191/191
f 193/193/193 196/196/196 194/194/194
f 197/197/197 194/194/194 196/196/196
f 197/197/197 196/196/196 198/198/198
f 199/199/199 195/195/195 191/191/191
f 196/196/196 199/199/199 198/198/198
f 200/200/200 199/199/199 191/191/191
f 199/199/199 200/200/200 198/198/198
f 203/203/203 202/202/202 201/201/201
f 202/202/202 203/203/203 204/204/204
f 205/205/205 203/203/203 201/201/201
f 203/203/203 206/206/206 204/204/204
f 205/205/205 201/201/201 207/207/207
f 204/204/204 206/206/206 208/208/208
f 209/209/209 205/205/205 207/207/207
f 206/206/206 210/210/210 208/208/208
f 208/208/208 210/210/210 211/211/211
f 210/210/210 212/212/212 211/211/211
f 211/211/211 212/212/212 213/213/213
f 212/212/212 214/214/214 213/213/213
f 209/209/209 207/207/207 215/215/215
f 213/213/213 214/214/214 215/215/215
f 216/216/216 209/209/209 215/215/215
f 214/214/214 216/216/216 215/215/215
f 219/219/219 218/218/218 217/217/217
f 218/218/218 219/219/219 220/220/220
f 221/221/221 219/219/219 217/217/217
f 219/219/219 222/222/222 220/220/220
f 221/221/221 217/217/217 223/223/223
f 220/220/220 222/222/222 224/224/224
f 225/225/225 221/221/221 223/223/223
f 222/222/222 226/226/226 224/224/224
f 224/224/224 226/226/226 227/227/227
f 226/226/226 228/228/228 227/227/227
f 227/227/227 228/228/228 229/229/229
f 228/228/228 230/230/230 229/229/229
f 225/225/225 223/223/223 231/231/231
f 229/229/229 230/230/230 231/231/231
f 232/232/232 225/225/225 231/231/231
f 230/230/230 232/232/232 231/231/231
f 235/235/235 234/234/234 233/233/233
f 236/236/236 235/235/235 233/233/233
f 233/233/233 234/234/234 237/237/237
f 238/238/238 235/235/235 236/236/236
f 234/234/234 239/239/239 237/237/237
f 240/240/240 238/238/238 236/236/236
f 237/237/237 239/239/239 240/240/240
f 239/239/239 238/238/238 240/240/240
f 243/243/243 242/242/242 241/241/241
f 241/241/241 242/242/242 244/244/244
f 245/245/245 243/243/243 241/241/241
f 242/242/242 246/246/246 244/244/244
f 247/247/247 243/243/243 245/245/245
f 244/244/244 246/246/246 248/248/248
f 248/248/248 247/247/247 245/245/245
f 246/246/246 247/247/247 248/248/248
f 251/251/251 250/250/250 249/249/249
f 249/249/249 250/250/250 252/252/252
f 253/253/253 251/251/251 249/249/249
f 250/250/250 254/254/254 252/252/252
f 255/255/255 251/251/251 253/253/253
f 252/252/252 254/254/254 256/256/256
f 256/256/256 255/255/255 253/253/253
f 254/254/254 255/255/255 256/256/256
f 259/259/259 258/258/258 257/257/257
f 260/260/260 259/259/259 257/257/257
f 257/257/257 258/258/258 261/261/261
f 262/262/262 259/259/259 260/260/260
f 258/258/258 263/263/263 261/261/261
f 264/264/264 262/262/262 260/260/260
f 261/261/261 263/263/263 264/264/264
f 263/263/263 262/262/262 264/264/264
