g CH0225_Halo
v 0.0832901 0.03271425 -0.02307417
v 0.1012382 0.03271424 -0.02307417
v 0.09226414 0.03011137 -0.02617615
v -0.08747481 -0.02443397 0.02487889
v -0.1054229 -0.02443396 0.02487888
v -0.09644885 -0.02703684 0.0217769
v 0.09831435 0.04806464 -0.03595468
v 0.1012382 0.03271424 -0.02307417
v 0.0832901 0.03271425 -0.02307417
v 0.081347 0.04496182 -0.0333511
v 0.0896714 0.06319582 -0.04865124
v 0.07413152 0.05707188 -0.04351265
v 0.06131716 0.06892705 -0.05346032
v 0.07451994 0.07808027 -0.06114078
v 0.04318609 0.07876901 -0.06171871
v 0.05278715 0.09055635 -0.07160946
v 0.02569498 0.09852319 -0.07829445
v 0.02087065 0.08496492 -0.06691769
v -0.00537618 0.1005905 -0.08002909
v -0.004497079 0.08646314 -0.06817485
v -0.03748789 0.09615169 -0.0763045
v -0.03064076 0.08297264 -0.06524598
v -0.06674499 0.08469503 -0.06669123
v -0.05456335 0.07396896 -0.05769099
v -0.08919754 0.06678915 -0.05166642
v -0.07306544 0.05973123 -0.04574411
v -0.100789 0.0467109 -0.03481876
v -0.08262067 0.04352807 -0.03214804
v -0.08468782 0.02569068 -0.0171807
v -0.1033435 0.02469355 -0.016344
v -0.09765206 0.005110832 8.785069E-05
v -0.07993648 0.01000826 -0.004021576
v -0.08565196 -0.01075755 0.01340301
v -0.07053124 -0.003114918 0.006990077
v -0.05971859 -0.01556679 0.01743844
v -0.06984286 -0.02325969 0.02389355
v -0.04998773 -0.03358306 0.03255589
v -0.04558514 -0.03044801 0.02992527
v -0.02563048 -0.04039132 0.0382687
v -0.05194364 -0.01305671 0.01533224
v -0.03974355 -0.02590229 0.02611096
v -0.05601266 0.001986813 0.002709219
v -0.02245651 -0.03451634 0.03333901
v -0.06446654 0.001986812 0.002709219
v -0.002092354 -0.04388295 0.04119853
v -0.05194366 0.01703032 -0.009913781
v -0.002092354 -0.03753715 0.03587376
v -0.0597186 0.01954039 -0.01201998
v 0.02144577 -0.04039132 0.0382687
v -0.03974356 0.0298759 -0.02069251
v 0.0182718 -0.03451634 0.03333901
v -0.04558516 0.03442162 -0.02450682
v 0.04140043 -0.03044801 0.02992527
v -0.02245651 0.03848996 -0.02792056
v 0.03555883 -0.02590229 0.02611096
v -0.02563049 0.04436494 -0.03285025
v 0.05553388 -0.01556679 0.01743844
v -0.002092357 0.04151077 -0.03045533
v 0.04775893 -0.01305671 0.01533224
v -0.002092357 0.04785658 -0.03578009
v 0.06028183 0.001986805 0.002709225
v 0.0182718 0.03848997 -0.02792057
v 0.05182795 0.001986806 0.002709224
v 0.02144578 0.04436495 -0.03285026
v 0.05553389 0.0195404 -0.01201999
v 0.03555884 0.02987591 -0.02069251
v 0.04775894 0.01703032 -0.009913788
v 0.04140044 0.03442162 -0.02450682
v 0.04634463 0.03791693 -0.02743973
v 0.06455017 0.02932951 -0.02023403
v 0.06497577 0.01095104 -0.00481266
v 0.07907106 0.01967971 -0.01213689
v 0.07536925 -0.001776366 0.005866907
v 0.09263978 0.003728574 0.001247713
v 0.08048705 -0.01735486 0.01893883
v 0.09901132 -0.01603374 0.01783027
v 0.09667826 -0.03822822 0.03645366
v 0.07850564 -0.03520778 0.03391921
v 0.06790768 -0.05226238 0.04822972
v 0.08390135 -0.05951446 0.05431495
v 0.0496479 -0.06596475 0.05972739
v 0.06170902 -0.07676468 0.06878961
v 0.02626263 -0.07477298 0.06711837
v 0.03309405 -0.08795491 0.07817934
v 0.0007958733 -0.07842188 0.07018016
v 0.001843946 -0.0925347 0.08202223
v -0.02505536 -0.07668462 0.06872242
v -0.02987969 -0.0902429 0.08009917
v -0.0473708 -0.07048872 0.06352343
v -0.05697186 -0.08227605 0.07341418
v -0.07870466 -0.06979997 0.06294551
v -0.06550188 -0.06064676 0.05526504
v -0.09385611 -0.05491553 0.05045597
v -0.07831623 -0.04879159 0.04531737
v -0.08553171 -0.03668153 0.03515582
v -0.1024991 -0.03978436 0.0377594
v -0.08747481 -0.02443397 0.02487889
v -0.1054229 -0.02443396 0.02487888
v 0.081347 0.04496182 -0.0333511
v 0.0832901 0.03271425 -0.02307417
v 0.09226414 0.03011137 -0.02617615
v 0.08983067 0.04391036 -0.03775487
v 0.1012382 0.03271424 -0.02307417
v 0.07413152 0.05707188 -0.04351265
v 0.09831435 0.04806464 -0.03595468
v 0.08190146 0.05753097 -0.04918392
v 0.06131716 0.06892705 -0.05346032
v 0.0896714 0.06319582 -0.04865124
v 0.06791855 0.07090079 -0.06040253
v 0.04318609 0.07876901 -0.06171871
v 0.07451994 0.07808027 -0.06114078
v 0.04798662 0.08205981 -0.06976607
v 0.02087065 0.08496492 -0.06691769
v 0.05278715 0.09055635 -0.07160946
v 0.02328281 0.08914118 -0.07570805
v -0.004497079 0.08646314 -0.06817485
v 0.02569498 0.09852319 -0.07829445
v -0.004936629 0.09092394 -0.07720396
v -0.03064076 0.08297264 -0.06524598
v -0.00537618 0.1005905 -0.08002909
v -0.03406432 0.08695928 -0.07387722
v -0.05456335 0.07396896 -0.05769099
v -0.03748789 0.09615169 -0.0763045
v -0.06065417 0.07672912 -0.06529309
v -0.07306544 0.05973123 -0.04574411
v -0.06674499 0.08469503 -0.06669123
v -0.08113149 0.06065732 -0.05180724
v -0.08262067 0.04352807 -0.03214804
v -0.08919754 0.06678915 -0.05166642
v -0.09170486 0.04251661 -0.03658538
v -0.08468782 0.02569068 -0.0171807
v -0.100789 0.0467109 -0.03481876
v -0.09401567 0.02258924 -0.01986433
v -0.07993648 0.01000826 -0.004021576
v -0.1033435 0.02469355 -0.016344
v -0.08879428 0.004956671 -0.005068846
v -0.07053124 -0.003114918 0.006990077
v -0.09765206 0.005110832 8.785069E-05
v -0.0780916 -0.00953911 0.007094562
v -0.08565196 -0.01075755 0.01340301
v -0.05971859 -0.01556679 0.01743844
v -0.05548591 -0.0222094 0.0177262
v -0.06984286 -0.02325969 0.02389355
v -0.06446654 0.001986812 0.002709219
v -0.04486563 -0.03234555 0.02623144
v -0.04998773 -0.03358306 0.03255589
v -0.0602396 -0.000616062 -0.000392764
v -0.0597186 0.01954039 -0.01201998
v -0.02404349 -0.04005671 0.03270187
v -0.02563048 -0.04039132 0.0382687
v -0.05583113 0.01568248 -0.01406886
v -0.04558516 0.03442162 -0.02450682
v -0.002092354 -0.04331293 0.03543416
v -0.002092354 -0.04388295 0.04119853
v -0.04266436 0.02954589 -0.02570165
v -0.02563049 0.04436494 -0.03285025
v 0.01985878 -0.04005671 0.03270187
v 0.02144577 -0.04039132 0.0382687
v -0.0240435 0.03882458 -0.03348739
v -0.002092357 0.04785658 -0.03578009
v 0.03847963 -0.03077803 0.02491614
v 0.04140043 -0.03044801 0.02992527
v -0.002092357 0.0420808 -0.03621969
v 0.02144578 0.04436495 -0.03285026
v 0.05164641 -0.01691463 0.01328336
v 0.05553388 -0.01556679 0.01743844
v 0.01985879 0.03882458 -0.0334874
v 0.04634463 0.03791693 -0.02743973
v 0.05605489 -0.0006160687 -0.0003927584
v 0.06028183 0.001986805 0.002709225
v 0.05117831 0.02122555 -0.01872006
v 0.05553389 0.0195404 -0.01201999
v 0.04095174 0.03129354 -0.02716811
v 0.06455017 0.02932951 -0.02023403
v 0.07202341 0.0127125 -0.01157675
v 0.07907106 0.01967971 -0.01213689
v 0.06497577 0.01095104 -0.00481266
v 0.09263978 0.003728574 0.001247713
v 0.08400451 -0.00162677 0.0004553267
v 0.07536925 -0.001776366 0.005866907
v 0.09901132 -0.01603374 0.01783027
v 0.08974918 -0.01929718 0.01528257
v 0.08048705 -0.01735486 0.01893883
v 0.09667826 -0.03822822 0.03645366
v 0.08759195 -0.03932087 0.03208445
v 0.07850564 -0.03520778 0.03391921
v 0.08390135 -0.05951446 0.05431495
v 0.07590452 -0.05849129 0.04817035
v 0.06790768 -0.05226238 0.04822972
v 0.06170902 -0.07676468 0.06878961
v 0.05567847 -0.07396759 0.06115652
v 0.0496479 -0.06596475 0.05972739
v 0.03309405 -0.08795491 0.07817934
v 0.02967834 -0.08396681 0.06954687
v 0.02626263 -0.07477298 0.06711837
v 0.001843946 -0.0925347 0.08202223
v 0.001319909 -0.08808117 0.07299922
v 0.0007958733 -0.07842188 0.07018016
v -0.02987969 -0.0902429 0.08009917
v -0.02746753 -0.08606663 0.07130881
v -0.02505536 -0.07668462 0.06872242
v -0.05697186 -0.08227605 0.07341418
v -0.05217133 -0.07898526 0.06536683
v -0.0473708 -0.07048872 0.06352343
v -0.07870466 -0.06979997 0.06294551
v -0.07210326 -0.06782624 0.05600329
v -0.06550188 -0.06064676 0.05526504
v -0.09385611 -0.05491553 0.05045597
v -0.08608618 -0.05445643 0.04478468
v -0.07831623 -0.04879159 0.04531737
v -0.1024991 -0.03978436 0.0377594
v -0.09401539 -0.04083582 0.03335563
v -0.1054229 -0.02443396 0.02487888
v -0.08553171 -0.03668153 0.03515582
v -0.09644885 -0.02703684 0.0217769
v -0.08747481 -0.02443397 0.02487889
v 1.369867E-09 -0.02266989 0.02339866
v 0.005213025 -0.0151209 0.0170643
v 1.40138E-10 -0.000272163 -0.0003284686
v -0.005213025 -0.0151209 0.0170643
v 0.009599753 -0.006664341 0.009968401
v -0.009599753 -0.006664341 0.009968401
v 0.01135716 0.002160014 0.002563886
v -0.01135716 0.002160014 0.002563886
v 0.009598196 0.01098436 -0.004840624
v -0.009598196 0.01098436 -0.004840624
v 0.005213027 0.01943075 -0.01192799
v -0.005213027 0.01943075 -0.01192799
v 0 0.02697975 -0.01826235
v 0 0.002157471 0.00256602
v -0.01135716 0.002160014 0.002563886
v -0.009598196 0.01098436 -0.004840624
v -0.005213027 0.01943075 -0.01192799
v -0.009599753 -0.006664341 0.009968401
v 0 0.02697975 -0.01826235
v -0.005213025 -0.0151209 0.0170643
v 0.005213027 0.01943075 -0.01192799
v 1.369867E-09 -0.02266989 0.02339866
v 0.009598196 0.01098436 -0.004840624
v 0.005213025 -0.0151209 0.0170643
v 0.01135716 0.002160014 0.002563886
v 0.009599753 -0.006664341 0.009968401
v 0.03555884 0.02987591 -0.02069251
v 0.04775894 0.01703032 -0.009913788
v 0.0182718 0.03848997 -0.02792057
v 0.05182795 0.001986806 0.002709224
v -0.002092357 0.04151077 -0.03045533
v 0.04775893 -0.01305671 0.01533224
v -0.02245651 0.03848996 -0.02792056
v 0.03555883 -0.02590229 0.02611096
v -0.03974356 0.0298759 -0.02069251
v 0.0182718 -0.03451634 0.03333901
v -0.05194366 0.01703032 -0.009913781
v -0.002092354 -0.03753715 0.03587376
v -0.05601266 0.001986813 0.002709219
v -0.02245651 -0.03451634 0.03333901
v -0.05194364 -0.01305671 0.01533224
v -0.03974355 -0.02590229 0.02611096
vt 0.8342096 0.3534205
vt 0.9044631 0.3534206
vt 0.8693363 0.3534434
vt 0.1657905 0.6454311
vt 0.09553695 0.6454311
vt 0.1306638 0.645454
vt 0.8930184 0.2749845
vt 0.9044631 0.3534206
vt 0.8342096 0.3534205
vt 0.8266037 0.290839
vt 0.8591876 0.1976687
vt 0.7983603 0.2289603
vt 0.7482015 0.1683839
vt 0.7998808 0.1216136
vt 0.6772318 0.1180944
vt 0.7148129 0.05786452
vt 0.608767 0.01715622
vt 0.5898831 0.08643518
vt 0.4871463 0.006593146
vt 0.4905872 0.07877962
vt 0.3614526 0.02927403
vt 0.388254 0.09661506
vt 0.2469324 0.0878142
vt 0.2946146 0.1426211
vt 0.1590472 0.1793079
vt 0.2221926 0.2153718
vt 0.1136751 0.2819019
vt 0.1847908 0.2981652
vt 0.1766995 0.3893089
vt 0.1036762 0.3944041
vt 0.125954 0.4944659
vt 0.1952975 0.4694415
vt 0.1729257 0.5755487
vt 0.2321121 0.5364971
vt 0.2744356 0.6001225
vt 0.2348067 0.6394309
vt 0.3125249 0.6921803
vt 0.3297578 0.6761611
vt 0.4078656 0.7269685
vt 0.3048689 0.5872968
vt 0.3526233 0.6529338
vt 0.2889416 0.5104288
vt 0.4202894 0.6969491
vt 0.2558509 0.5104288
vt 0.5 0.7448097
vt 0.3048688 0.4335608
vt 0.5 0.7123845
vt 0.2744356 0.4207352
vt 0.5921345 0.7269685
vt 0.3526232 0.3679237
vt 0.5797108 0.6969491
vt 0.3297577 0.3446964
vt 0.6702422 0.6761611
vt 0.4202893 0.3239085
vt 0.6473768 0.6529338
vt 0.4078655 0.293889
vt 0.7255643 0.6001224
vt 0.5 0.308473
vt 0.6951311 0.5872967
vt 0.5 0.2760478
vt 0.744149 0.5104287
vt 0.5797107 0.3239084
vt 0.7110584 0.5104287
vt 0.5921345 0.293889
vt 0.7255644 0.420735
vt 0.6473768 0.3679236
vt 0.6951312 0.4335608
vt 0.6702423 0.3446964
vt 0.6895952 0.3268364
vt 0.7608565 0.3707156
vt 0.7625224 0.4646241
vt 0.8176951 0.4200232
vt 0.8032053 0.5296574
vt 0.8708067 0.5015289
vt 0.8232376 0.609259
vt 0.8957465 0.6025084
vt 0.8866144 0.7159157
vt 0.815482 0.7004821
vt 0.7739988 0.7876261
vt 0.8366022 0.8246821
vt 0.7025251 0.8576412
vt 0.7497355 0.9128257
vt 0.610989 0.9026487
vt 0.6377289 0.9700045
vt 0.5113054 0.9212935
vt 0.5154078 0.9934059
vt 0.4101167 0.9124166
vt 0.3912331 0.9816955
vt 0.3227682 0.8807574
vt 0.2851871 0.9409872
vt 0.2001192 0.8772381
vt 0.2517984 0.8304679
vt 0.1408124 0.801183
vt 0.2016396 0.7698914
vt 0.1733963 0.7080126
vt 0.1069816 0.7238671
vt 0.1657905 0.6454311
vt 0.09553695 0.6454311
vt 0.8266037 0.290839
vt 0.8342096 0.3534205
vt 0.8693363 0.3534434
vt 0.8598111 0.2829346
vt 0.9044631 0.3534206
vt 0.7983603 0.2289603
vt 0.8930184 0.2749845
vt 0.828774 0.2133373
vt 0.7482015 0.1683839
vt 0.8591876 0.1976687
vt 0.7740412 0.1450215
vt 0.6772318 0.1180944
vt 0.7998808 0.1216136
vt 0.6960223 0.08800229
vt 0.5898831 0.08643518
vt 0.7148129 0.05786452
vt 0.5993251 0.05181852
vt 0.4905872 0.07877962
vt 0.608767 0.01715622
vt 0.4888667 0.04270927
vt 0.388254 0.09661506
vt 0.4871463 0.006593146
vt 0.3748532 0.06296735
vt 0.2946146 0.1426211
vt 0.3614526 0.02927403
vt 0.2707735 0.1152406
vt 0.2221926 0.2153718
vt 0.2469324 0.0878142
vt 0.1906199 0.1973627
vt 0.1847908 0.2981652
vt 0.1590472 0.1793079
vt 0.1492329 0.2900565
vt 0.1766995 0.3893089
vt 0.1136751 0.2819019
vt 0.1401878 0.3918793
vt 0.1952975 0.4694415
vt 0.1036762 0.3944041
vt 0.1606258 0.4819766
vt 0.2321121 0.5364971
vt 0.125954 0.4944659
vt 0.2025188 0.5560457
vt 0.1729257 0.5755487
vt 0.2744356 0.6001225
vt 0.2910035 0.6207871
vt 0.2348067 0.6394309
vt 0.2558509 0.5104288
vt 0.3325741 0.6725799
vt 0.3125249 0.6921803
vt 0.2723963 0.5104516
vt 0.2744356 0.4207352
vt 0.4140775 0.7119816
vt 0.4078656 0.7269685
vt 0.2896522 0.4271709
vt 0.3297577 0.3446964
vt 0.5 0.7286199
vt 0.5 0.7448097
vt 0.3411905 0.356333
vt 0.4078655 0.293889
vt 0.5859227 0.7119816
vt 0.5921345 0.7269685
vt 0.4140774 0.3089216
vt 0.5 0.2760478
vt 0.6588095 0.6645703
vt 0.6702422 0.6761611
vt 0.5 0.2922831
vt 0.5921345 0.293889
vt 0.7103478 0.5937324
vt 0.7255643 0.6001224
vt 0.5859226 0.3089215
vt 0.6895952 0.3268364
vt 0.7276037 0.5104516
vt 0.744149 0.5104287
vt 0.7085155 0.3988473
vt 0.7255644 0.420735
vt 0.6684859 0.3474028
vt 0.7608565 0.3707156
vt 0.7901087 0.4423465
vt 0.8176951 0.4200232
vt 0.7625224 0.4646241
vt 0.8708067 0.5015289
vt 0.8370059 0.5156159
vt 0.8032053 0.5296574
vt 0.8957465 0.6025084
vt 0.8594922 0.6059066
vt 0.8232376 0.609259
vt 0.8866144 0.7159157
vt 0.8510481 0.7082217
vt 0.815482 0.7004821
vt 0.8366022 0.8246821
vt 0.8053005 0.806177
vt 0.7739988 0.7876261
vt 0.7497355 0.9128257
vt 0.7261304 0.8852562
vt 0.7025251 0.8576412
vt 0.6377289 0.9700045
vt 0.624359 0.9363495
vt 0.610989 0.9026487
vt 0.5154078 0.9934059
vt 0.5133566 0.9573725
vt 0.5113054 0.9212935
vt 0.3912331 0.9816955
vt 0.4006749 0.9470789
vt 0.4101167 0.9124166
vt 0.2851871 0.9409872
vt 0.3039777 0.910895
vt 0.3227682 0.8807574
vt 0.2001192 0.8772381
vt 0.2259588 0.8538758
vt 0.2517984 0.8304679
vt 0.1408124 0.801183
vt 0.171226 0.78556
vt 0.2016396 0.7698914
vt 0.1069816 0.7238671
vt 0.1401889 0.7159627
vt 0.09553695 0.6454311
vt 0.1733963 0.7080126
vt 0.1306638 0.645454
vt 0.1657905 0.6454311
vt 0.50819 0.6364172
vt 0.5285952 0.5978441
vt 0.50819 0.5095806
vt 0.4877849 0.5978441
vt 0.5457661 0.5546336
vt 0.4706141 0.5546336
vt 0.552645 0.5095437
vt 0.4637351 0.5095437
vt 0.54576 0.4644539
vt 0.4706202 0.4644539
vt 0.5285952 0.4212953
vt 0.4877849 0.4212953
vt 0.50819 0.3827222
vt 0.50819 0.5095567
vt 0.4637351 0.5095437
vt 0.4706202 0.4644539
vt 0.4877849 0.4212953
vt 0.4706141 0.5546336
vt 0.50819 0.3827222
vt 0.4877849 0.5978441
vt 0.5285952 0.4212953
vt 0.50819 0.6364172
vt 0.54576 0.4644539
vt 0.5285952 0.5978441
vt 0.552645 0.5095437
vt 0.5457661 0.5546336
vt 0.6473768 0.3679236
vt 0.6951312 0.4335608
vt 0.5797107 0.3239084
vt 0.7110584 0.5104287
vt 0.5 0.308473
vt 0.6951311 0.5872967
vt 0.4202893 0.3239085
vt 0.6473768 0.6529338
vt 0.3526232 0.3679237
vt 0.5797108 0.6969491
vt 0.3048688 0.4335608
vt 0.5 0.7123845
vt 0.2889416 0.5104288
vt 0.4202894 0.6969491
vt 0.3048689 0.5872968
vt 0.3526233 0.6529338
vn -2.889059E-07 -0.7660441 0.6427881
vn -2.88906E-07 -0.766044 0.6427881
vn -2.88906E-07 -0.766044 0.6427881
vn 2.725329E-07 0.7660441 -0.6427881
vn 2.725329E-07 0.7660441 -0.6427881
vn 2.725329E-07 0.7660441 -0.6427881
vn 0 0.6427876 0.7660444
vn 0 0.6427877 0.7660444
vn 0 0.6427877 0.7660444
vn 0 0.6427876 0.7660444
vn 0 0.6427876 0.7660445
vn 0 0.6427876 0.7660445
vn 0 0.6427877 0.7660444
vn 0 0.6427877 0.7660444
vn 0 0.6427878 0.7660443
vn 0 0.6427878 0.7660443
vn 0 0.6427878 0.7660443
vn 0 0.6427878 0.7660443
vn 0 0.6427877 0.7660444
vn 0 0.6427876 0.7660444
vn 0 0.6427876 0.7660444
vn 0 0.6427876 0.7660444
vn 0 0.6427878 0.7660443
vn 0 0.6427876 0.7660444
vn 0 0.6427876 0.7660444
vn 0 0.6427877 0.7660444
vn 0 0.6427876 0.7660444
vn 0 0.6427876 0.7660444
vn 0 0.6427877 0.7660444
vn 0 0.6427876 0.7660444
vn 0 0.6427877 0.7660444
vn 0 0.6427878 0.7660443
vn 0 0.6427878 0.7660443
vn 0 0.6427877 0.7660443
vn 0 0.6427876 0.7660444
vn 0 0.6427876 0.7660444
vn 0 0.6427877 0.7660444
vn 0 0.6427876 0.7660444
vn 0 0.6427878 0.7660443
vn 0 0.6427876 0.7660445
vn 0 0.6427876 0.7660445
vn 0 0.6427876 0.7660444
vn 0 0.6427877 0.7660443
vn 0 0.6427876 0.7660444
vn 0 0.6427877 0.7660444
vn 0 0.6427876 0.7660444
vn 0 0.6427877 0.7660443
vn 0 0.6427876 0.7660444
vn 0 0.6427877 0.7660444
vn 0 0.6427876 0.7660444
vn 0 0.6427876 0.7660444
vn 0 0.6427877 0.7660444
vn 0 0.6427876 0.7660445
vn 0 0.6427875 0.7660445
vn 0 0.6427876 0.7660445
vn 0 0.6427875 0.7660445
vn 0 0.6427876 0.7660445
vn 0 0.6427873 0.7660446
vn 0 0.6427876 0.7660444
vn 0 0.6427873 0.7660446
vn 0 0.6427876 0.7660444
vn -1.025274E-07 0.6427874 0.7660446
vn 0 0.6427876 0.7660444
vn 0 0.6427875 0.7660446
vn 0 0.6427876 0.7660444
vn -1.154742E-07 0.6427875 0.7660445
vn -1.147229E-07 0.6427876 0.7660444
vn 0 0.6427876 0.7660444
vn 0 0.6427876 0.7660444
vn 0 0.6427876 0.7660444
vn 0 0.6427878 0.7660443
vn 0 0.6427878 0.7660443
vn 0 0.6427878 0.7660443
vn 0 0.6427878 0.7660443
vn 0 0.6427878 0.7660443
vn 0 0.6427879 0.7660443
vn 0 0.6427878 0.7660443
vn 0 0.6427878 0.7660443
vn 0 0.6427879 0.7660443
vn 0 0.6427879 0.7660443
vn 0 0.6427879 0.7660441
vn 0 0.6427879 0.7660443
vn 0 0.6427879 0.7660443
vn 0 0.6427879 0.7660441
vn -1.509495E-07 0.6427879 0.7660443
vn -1.496671E-07 0.6427879 0.7660443
vn -1.639414E-07 0.6427878 0.7660443
vn -1.584312E-07 0.6427878 0.7660443
vn 0 0.6427879 0.7660443
vn 0 0.6427879 0.7660441
vn 0 0.6427879 0.7660441
vn 0 0.6427879 0.7660441
vn 0 0.6427879 0.7660443
vn 0 0.6427879 0.7660441
vn 0 0.6427879 0.7660441
vn 0 0.6427879 0.7660443
vn 0 0.6427878 0.7660443
vn 0 0.6427879 0.7660443
vn -0.4013514 -0.6724486 -0.6218761
vn -0.4151177 -0.6247098 -0.6613736
vn 0.03522613 -0.6366237 -0.7703696
vn 0.03614788 -0.6327792 -0.773488
vn 0.4145294 -0.5390483 -0.7332069
vn -0.3558231 -0.7538872 -0.5523078
vn 0.4022253 -0.497073 -0.768852
vn 0.02909691 -0.6289232 -0.7769228
vn -0.2830592 -0.8172699 -0.5019435
vn 0.3606501 -0.4190389 -0.8332695
vn 0.02434004 -0.6236465 -0.7813274
vn -0.1904184 -0.8640004 -0.4660944
vn 0.290509 -0.3579839 -0.887385
vn 0.01698395 -0.618723 -0.7854256
vn -0.08566703 -0.8911023 -0.4456432
vn 0.1980807 -0.3123056 -0.9291013
vn 0.007661899 -0.6159229 -0.7877691
vn 0.01902547 -0.897074 -0.4414706
vn 0.0913891 -0.2852612 -0.9540828
vn -0.001308353 -0.6171434 -0.7868496
vn 0.1239668 -0.8819089 -0.4548285
vn -0.01869344 -0.2791982 -0.9600515
vn -0.01070477 -0.6152534 -0.7882567
vn 0.2328759 -0.8392819 -0.491299
vn -0.1297581 -0.2965137 -0.9461726
vn -0.02348191 -0.6152913 -0.78795
vn 0.3275779 -0.7642003 -0.5555993
vn -0.2408102 -0.3428953 -0.907983
vn -0.03590209 -0.6214735 -0.7826121
vn 0.3845156 -0.6676225 -0.637517
vn -0.3325674 -0.4203051 -0.8442408
vn -0.04037347 -0.6335239 -0.772669
vn 0.3954948 -0.5694922 -0.7205986
vn -0.3853431 -0.5141578 -0.7662588
vn -0.03928043 -0.6438591 -0.7641351
vn 0.3716134 -0.4793403 -0.7950701
vn -0.3956449 -0.6101875 -0.6863937
vn -0.03375102 -0.6536945 -0.7560056
vn 0.4056117 -0.2960759 -0.8647648
vn -0.3713254 -0.6996509 -0.6104146
vn 0.004108585 -0.6407123 -0.7677701
vn -0.3256769 -0.7735551 -0.5436425
vn -0.160934 -0.4429249 -0.8819965
vn 0.05915416 -0.6078165 -0.7918712
vn -0.2182197 -0.8023775 -0.5554913
vn -0.7135529 -0.4477991 -0.5388117
vn 0.01129432 -0.71212 -0.7019669
vn -0.2619968 -0.9026548 -0.3414261
vn -0.1088186 -0.6412163 -0.7596052
vn -0.633712 -0.2497341 -0.7321489
vn 0.006087465 -0.690067 -0.7237198
vn -0.1871255 -0.9653644 -0.1818125
vn -0.08425099 -0.6100173 -0.7878963
vn -0.4806748 -0.07382044 -0.8737862
vn 0 -0.705267 -0.7089418
vn 0 -0.9951462 -0.0984077
vn -0.05436798 -0.5951366 -0.8017834
vn -0.2620533 0.03584106 -0.9643876
vn 0.03120686 -0.7011197 -0.7123604
vn 0.2620533 -0.9559602 -0.132167
vn -0.03120671 -0.5797901 -0.814168
vn 0 0.07589211 -0.9971161
vn 0.05436823 -0.6862584 -0.725323
vn 0.4806747 -0.8476927 -0.2244298
vn 0 -0.5757033 -0.8176587
vn 0.1797616 -0.01592637 -0.9835813
vn 0.08425123 -0.6699982 -0.7375663
vn 0.6337121 -0.6776602 -0.3730761
vn -0.008930396 -0.5941245 -0.8043236
vn 0.2409949 -0.1873645 -0.9522689
vn 0.1077195 -0.6369055 -0.7633792
vn 0.7122525 -0.4535578 -0.5357067
vn -0.07033876 -0.6822378 -0.727739
vn 0.2141702 -0.7908436 -0.5733216
vn -0.01607109 -0.5664501 -0.8239393
vn 0.1939571 -0.4013496 -0.8951531
vn 0.01215722 -0.6375049 -0.7703505
vn 0.307373 -0.383789 -0.8707628
vn -0.3543612 -0.8263757 -0.4376428
vn 0.3667982 -0.467949 -0.8040416
vn 0.03732275 -0.6288264 -0.7766495
vn -0.3672446 -0.7102545 -0.6005579
vn 0.396875 -0.5646737 -0.7236254
vn 0.041269 -0.6400622 -0.7672139
vn -0.3968459 -0.613891 -0.6823863
vn 0.3858517 -0.6659346 -0.6384744
vn 0.04313299 -0.6518158 -0.7571496
vn -0.3843836 -0.5089807 -0.770187
vn 0.3299288 -0.762131 -0.5570487
vn 0.03524254 -0.6627573 -0.7480044
vn -0.3246521 -0.4101737 -0.8522667
vn 0.2386091 -0.8359835 -0.4941634
vn 0.0224565 -0.6682405 -0.7436063
vn -0.2310429 -0.3369645 -0.912729
vn 0.131492 -0.8798682 -0.4566638
vn 0.01059806 -0.6683318 -0.7437879
vn -0.1265205 -0.2953998 -0.9469591
vn 0.01948259 -0.8967485 -0.4421116
vn 0.001254665 -0.669652 -0.742674
vn -0.01915036 -0.279507 -0.9599527
vn -0.09286167 -0.8899478 -0.4465082
vn -0.007596531 -0.6680158 -0.7441084
vn 0.08783025 -0.2841279 -0.9547551
vn -0.1980807 -0.8607552 -0.4688971
vn -0.01698389 -0.6660535 -0.7457105
vn 0.1904186 -0.3089814 -0.9318107
vn -0.2905092 -0.8117406 -0.5066376
vn -0.02434012 -0.6611626 -0.7498477
vn 0.2830593 -0.3524007 -0.8920153
vn -0.3606504 -0.7478451 -0.5573679
vn -0.02909709 -0.6559086 -0.7542793
vn 0.3558231 -0.4130061 -0.8383411
vn -0.4022254 -0.6708557 -0.6230307
vn -0.03614793 -0.6518562 -0.7574805
vn -0.4145294 -0.6284633 -0.6581787
vn 0.4013515 -0.4956591 -0.7702201
vn -0.03522611 -0.6481177 -0.7607251
vn 0.4151177 -0.5428461 -0.7300653
vn 0 -0.7271847 -0.6864418
vn 0.2226187 -0.7074979 -0.6707367
vn 0 -0.6427866 -0.7660453
vn -0.2226187 -0.7074978 -0.6707367
vn 0.2740836 -0.6814749 -0.6785794
vn -0.2740837 -0.6814749 -0.6785794
vn 0.3157258 -0.609888 -0.7268795
vn -0.3157259 -0.609888 -0.7268795
vn 0.2740038 -0.549907 -0.789002
vn -0.2740038 -0.549907 -0.789002
vn 0.2226291 -0.5376705 -0.8132322
vn -0.222629 -0.5376706 -0.8132322
vn 0 -0.5497234 -0.8353468
vn 0 0.6427878 0.7660443
vn 0 0.6427877 0.7660444
vn 0 0.6427878 0.7660443
vn 0 0.6427878 0.7660443
vn -1.210712E-07 0.6427877 0.7660444
vn 0 0.6427878 0.7660443
vn 0 0.6427876 0.7660444
vn 0 0.6427878 0.7660443
vn 0 0.6427876 0.7660444
vn 0 0.6427878 0.7660443
vn 0 0.6427876 0.7660444
vn 0 0.6427877 0.7660444
vn 1.22011E-07 0.6427878 0.7660443
vn -0.3269361 -0.8565316 -0.3993324
vn -0.5752135 -0.6446207 -0.5035807
vn -0.2085624 -0.9578268 -0.1976602
vn -0.6744748 -0.4665056 -0.572238
vn 0 -0.9951461 -0.09840831
vn -0.6327462 -0.2480064 -0.7335702
vn 0.2610891 -0.9562594 -0.1319105
vn -0.479132 -0.07266518 -0.8747299
vn 0.4791323 -0.8488225 -0.223456
vn -0.2610888 0.03614597 -0.9646378
vn 0.6327467 -0.6793594 -0.3716213
vn 0 0.07589186 -0.9971161
vn 0.6734578 -0.4835963 -0.5590967
vn 0.2132326 -0.02278826 -0.9767358
vn 0.573574 -0.3821405 -0.7245561
vn 0.3347422 -0.2341254 -0.9127612
g CH0225_Halo_0
f 3/3/3 2/2/2 1/1/1
f 6/6/6 5/5/5 4/4/4
f 9/9/9 8/8/8 7/7/7
f 10/10/10 9/9/9 7/7/7
f 10/10/10 7/7/7 11/11/11
f 12/12/12 10/10/10 11/11/11
f 12/12/12 11/11/11 13/13/13
f 11/11/11 14/14/14 13/13/13
f 13/13/13 14/14/14 15/15/15
f 14/14/14 16/16/16 15/15/15
f 15/15/15 16/16/16 17/17/17
f 18/18/18 15/15/15 17/17/17
f 18/18/18 17/17/17 19/19/19
f 20/20/20 18/18/18 19/19/19
f 20/20/20 19/19/19 21/21/21
f 22/22/22 20/20/20 21/21/21
f 22/22/22 21/21/21 23/23/23
f 24/24/24 22/22/22 23/23/23
f 24/24/24 23/23/23 25/25/25
f 26/26/26 24/24/24 25/25/25
f 26/26/26 25/25/25 27/27/27
f 28/28/28 26/26/26 27/27/27
f 28/28/28 27/27/27 29/29/29
f 27/27/27 30/30/30 29/29/29
f 29/29/29 30/30/30 31/31/31
f 32/32/32 29/29/29 31/31/31
f 32/32/32 31/31/31 33/33/33
f 34/34/34 32/32/32 33/33/33
f 35/35/35 34/34/34 33/33/33
f 36/36/36 35/35/35 33/33/33
f 36/36/36 37/37/37 35/35/35
f 37/37/37 38/38/38 35/35/35
f 39/39/39 38/38/38 37/37/37
f 40/40/40 35/35/35 38/38/38
f 41/41/41 40/40/40 38/38/38
f 41/41/41 38/38/38 39/39/39
f 40/40/40 42/42/42 35/35/35
f 43/43/43 41/41/41 39/39/39
f 42/42/42 44/44/44 35/35/35
f 43/43/43 39/39/39 45/45/45
f 42/42/42 46/46/46 44/44/44
f 47/47/47 43/43/43 45/45/45
f 46/46/46 48/48/48 44/44/44
f 47/47/47 45/45/45 49/49/49
f 46/46/46 50/50/50 48/48/48
f 51/51/51 47/47/47 49/49/49
f 50/50/50 52/52/52 48/48/48
f 51/51/51 49/49/49 53/53/53
f 50/50/50 54/54/54 52/52/52
f 55/55/55 51/51/51 53/53/53
f 54/54/54 56/56/56 52/52/52
f 55/55/55 53/53/53 57/57/57
f 54/54/54 58/58/58 56/56/56
f 59/59/59 55/55/55 57/57/57
f 58/58/58 60/60/60 56/56/56
f 59/59/59 57/57/57 61/61/61
f 58/58/58 62/62/62 60/60/60
f 63/63/63 59/59/59 61/61/61
f 62/62/62 64/64/64 60/60/60
f 63/63/63 61/61/61 65/65/65
f 62/62/62 66/66/66 64/64/64
f 67/67/67 63/63/63 65/65/65
f 66/66/66 68/68/68 64/64/64
f 66/66/66 67/67/67 68/68/68
f 67/67/67 65/65/65 68/68/68
f 64/64/64 68/68/68 69/69/69
f 69/69/69 68/68/68 65/65/65
f 70/70/70 69/69/69 65/65/65
f 70/70/70 65/65/65 71/71/71
f 72/72/72 70/70/70 71/71/71
f 71/71/71 73/73/73 72/72/72
f 73/73/73 74/74/74 72/72/72
f 73/73/73 75/75/75 74/74/74
f 75/75/75 76/76/76 74/74/74
f 77/77/77 76/76/76 75/75/75
f 78/78/78 77/77/77 75/75/75
f 78/78/78 79/79/79 77/77/77
f 79/79/79 80/80/80 77/77/77
f 79/79/79 81/81/81 80/80/80
f 81/81/81 82/82/82 80/80/80
f 81/81/81 83/83/83 82/82/82
f 83/83/83 84/84/84 82/82/82
f 83/83/83 85/85/85 84/84/84
f 85/85/85 86/86/86 84/84/84
f 85/85/85 87/87/87 86/86/86
f 87/87/87 88/88/88 86/86/86
f 87/87/87 89/89/89 88/88/88
f 89/89/89 90/90/90 88/88/88
f 91/91/91 90/90/90 89/89/89
f 92/92/92 91/91/91 89/89/89
f 93/93/93 91/91/91 92/92/92
f 94/94/94 93/93/93 92/92/92
f 94/94/94 95/95/95 93/93/93
f 95/95/95 96/96/96 93/93/93
f 95/95/95 97/97/97 96/96/96
f 97/97/97 98/98/98 96/96/96
f 101/101/101 100/100/100 99/99/99
f 102/102/102 101/101/101 99/99/99
f 101/101/101 102/102/102 103/103/103
f 102/102/102 99/99/99 104/104/104
f 102/102/102 105/105/105 103/103/103
f 106/106/106 102/102/102 104/104/104
f 102/102/102 106/106/106 105/105/105
f 106/106/106 104/104/104 107/107/107
f 106/106/106 108/108/108 105/105/105
f 109/109/109 106/106/106 107/107/107
f 106/106/106 109/109/109 108/108/108
f 109/109/109 107/107/107 110/110/110
f 109/109/109 111/111/111 108/108/108
f 112/112/112 109/109/109 110/110/110
f 109/109/109 112/112/112 111/111/111
f 112/112/112 110/110/110 113/113/113
f 112/112/112 114/114/114 111/111/111
f 115/115/115 112/112/112 113/113/113
f 112/112/112 115/115/115 114/114/114
f 115/115/115 113/113/113 116/116/116
f 115/115/115 117/117/117 114/114/114
f 118/118/118 115/115/115 116/116/116
f 115/115/115 118/118/118 117/117/117
f 118/118/118 116/116/116 119/119/119
f 118/118/118 120/120/120 117/117/117
f 121/121/121 118/118/118 119/119/119
f 118/118/118 121/121/121 120/120/120
f 121/121/121 119/119/119 122/122/122
f 121/121/121 123/123/123 120/120/120
f 124/124/124 121/121/121 122/122/122
f 121/121/121 124/124/124 123/123/123
f 124/124/124 122/122/122 125/125/125
f 124/124/124 126/126/126 123/123/123
f 127/127/127 124/124/124 125/125/125
f 124/124/124 127/127/127 126/126/126
f 127/127/127 125/125/125 128/128/128
f 127/127/127 129/129/129 126/126/126
f 130/130/130 127/127/127 128/128/128
f 127/127/127 130/130/130 129/129/129
f 130/130/130 128/128/128 131/131/131
f 130/130/130 132/132/132 129/129/129
f 133/133/133 130/130/130 131/131/131
f 130/130/130 133/133/133 132/132/132
f 133/133/133 131/131/131 134/134/134
f 133/133/133 135/135/135 132/132/132
f 136/136/136 133/133/133 134/134/134
f 133/133/133 136/136/136 135/135/135
f 136/136/136 134/134/134 137/137/137
f 136/136/136 138/138/138 135/135/135
f 139/139/139 136/136/136 137/137/137
f 136/136/136 139/139/139 138/138/138
f 139/139/139 140/140/140 138/138/138
f 139/139/139 137/137/137 141/141/141
f 142/142/142 139/139/139 141/141/141
f 139/139/139 143/143/143 140/140/140
f 139/139/139 142/142/142 143/143/143
f 142/142/142 141/141/141 144/144/144
f 142/142/142 145/145/145 143/143/143
f 145/145/145 146/146/146 143/143/143
f 147/147/147 142/142/142 144/144/144
f 147/147/147 144/144/144 148/148/148
f 145/145/145 149/149/149 146/146/146
f 149/149/149 150/150/150 146/146/146
f 151/151/151 147/147/147 148/148/148
f 151/151/151 148/148/148 152/152/152
f 149/149/149 153/153/153 150/150/150
f 153/153/153 154/154/154 150/150/150
f 155/155/155 151/151/151 152/152/152
f 155/155/155 152/152/152 156/156/156
f 153/153/153 157/157/157 154/154/154
f 157/157/157 158/158/158 154/154/154
f 159/159/159 155/155/155 156/156/156
f 159/159/159 156/156/156 160/160/160
f 157/157/157 161/161/161 158/158/158
f 161/161/161 162/162/162 158/158/158
f 163/163/163 159/159/159 160/160/160
f 163/163/163 160/160/160 164/164/164
f 161/161/161 165/165/165 162/162/162
f 165/165/165 166/166/166 162/162/162
f 167/167/167 163/163/163 164/164/164
f 167/167/167 164/164/164 168/168/168
f 165/165/165 169/169/169 166/166/166
f 169/169/169 170/170/170 166/166/166
f 169/169/169 171/171/171 170/170/170
f 171/171/171 172/172/172 170/170/170
f 173/173/173 167/167/167 168/168/168
f 173/173/173 168/168/168 174/174/174
f 171/171/171 173/173/173 174/174/174
f 171/171/171 175/175/175 172/172/172
f 175/175/175 171/171/171 174/174/174
f 175/175/175 174/174/174 176/176/176
f 175/175/175 177/177/177 172/172/172
f 175/175/175 176/176/176 178/178/178
f 175/175/175 179/179/179 177/177/177
f 179/179/179 175/175/175 178/178/178
f 179/179/179 180/180/180 177/177/177
f 179/179/179 178/178/178 181/181/181
f 179/179/179 182/182/182 180/180/180
f 182/182/182 179/179/179 181/181/181
f 182/182/182 183/183/183 180/180/180
f 182/182/182 181/181/181 184/184/184
f 182/182/182 185/185/185 183/183/183
f 185/185/185 182/182/182 184/184/184
f 185/185/185 186/186/186 183/183/183
f 185/185/185 184/184/184 187/187/187
f 185/185/185 188/188/188 186/186/186
f 188/188/188 185/185/185 187/187/187
f 188/188/188 189/189/189 186/186/186
f 188/188/188 187/187/187 190/190/190
f 188/188/188 191/191/191 189/189/189
f 191/191/191 188/188/188 190/190/190
f 191/191/191 192/192/192 189/189/189
f 191/191/191 190/190/190 193/193/193
f 191/191/191 194/194/194 192/192/192
f 194/194/194 191/191/191 193/193/193
f 194/194/194 195/195/195 192/192/192
f 194/194/194 193/193/193 196/196/196
f 194/194/194 197/197/197 195/195/195
f 197/197/197 194/194/194 196/196/196
f 197/197/197 198/198/198 195/195/195
f 197/197/197 196/196/196 199/199/199
f 197/197/197 200/200/200 198/198/198
f 200/200/200 197/197/197 199/199/199
f 200/200/200 201/201/201 198/198/198
f 200/200/200 199/199/199 202/202/202
f 200/200/200 203/203/203 201/201/201
f 203/203/203 200/200/200 202/202/202
f 203/203/203 204/204/204 201/201/201
f 203/203/203 202/202/202 205/205/205
f 203/203/203 206/206/206 204/204/204
f 206/206/206 203/203/203 205/205/205
f 206/206/206 207/207/207 204/204/204
f 206/206/206 205/205/205 208/208/208
f 206/206/206 209/209/209 207/207/207
f 209/209/209 206/206/206 208/208/208
f 209/209/209 210/210/210 207/207/207
f 209/209/209 208/208/208 211/211/211
f 209/209/209 212/212/212 210/210/210
f 212/212/212 209/209/209 211/211/211
f 212/212/212 211/211/211 213/213/213
f 212/212/212 214/214/214 210/210/210
f 215/215/215 212/212/212 213/213/213
f 212/212/212 215/215/215 214/214/214
f 215/215/215 216/216/216 214/214/214
f 219/219/219 218/218/218 217/217/217
f 219/219/219 217/217/217 220/220/220
f 219/219/219 221/221/221 218/218/218
f 219/219/219 220/220/220 222/222/222
f 219/219/219 223/223/223 221/221/221
f 219/219/219 222/222/222 224/224/224
f 219/219/219 225/225/225 223/223/223
f 219/219/219 224/224/224 226/226/226
f 219/219/219 227/227/227 225/225/225
f 219/219/219 226/226/226 228/228/228
f 219/219/219 229/229/229 227/227/227
f 219/219/219 228/228/228 229/229/229
f 232/232/232 231/231/231 230/230/230
f 233/233/233 232/232/232 230/230/230
f 231/231/231 234/234/234 230/230/230
f 233/233/233 230/230/230 235/235/235
f 236/236/236 230/230/230 234/234/234
f 230/230/230 237/237/237 235/235/235
f 230/230/230 236/236/236 238/238/238
f 237/237/237 230/230/230 239/239/239
f 240/240/240 230/230/230 238/238/238
f 230/230/230 241/241/241 239/239/239
f 240/240/240 242/242/242 230/230/230
f 230/230/230 242/242/242 241/241/241
f 171/171/171 244/244/244 243/243/243
f 173/173/173 171/171/171 243/243/243
f 171/171/171 169/169/169 244/244/244
f 173/173/173 243/243/243 245/245/245
f 169/169/169 246/246/246 244/244/244
f 167/167/167 173/173/173 245/245/245
f 169/169/169 165/165/165 246/246/246
f 167/167/167 245/245/245 247/247/247
f 165/165/165 248/248/248 246/246/246
f 163/163/163 167/167/167 247/247/247
f 165/165/165 161/161/161 248/248/248
f 163/163/163 247/247/247 249/249/249
f 161/161/161 250/250/250 248/248/248
f 159/159/159 163/163/163 249/249/249
f 161/161/161 157/157/157 250/250/250
f 159/159/159 249/249/249 251/251/251
f 157/157/157 252/252/252 250/250/250
f 155/155/155 159/159/159 251/251/251
f 157/157/157 153/153/153 252/252/252
f 155/155/155 251/251/251 253/253/253
f 153/153/153 254/254/254 252/252/252
f 151/151/151 155/155/155 253/253/253
f 153/153/153 149/149/149 254/254/254
f 151/151/151 253/253/253 255/255/255
f 149/149/149 256/256/256 254/254/254
f 147/147/147 151/151/151 255/255/255
f 149/149/149 145/145/145 256/256/256
f 147/147/147 255/255/255 257/257/257
f 145/145/145 258/258/258 256/256/256
f 142/142/142 147/147/147 257/257/257
f 142/142/142 257/257/257 258/258/258
f 145/145/145 142/142/142 258/258/258
